<?xml version="1.0" encoding="UTF-8" standalone="no"?>
<!DOCTYPE svg PUBLIC "-//W3C//DTD SVG 1.1//EN"
 "http://www.w3.org/Graphics/SVG/1.1/DTD/svg11.dtd">
<!-- Generated by graphviz version 11.0.0 (20240428.1522)
 -->
<!-- Title: G Pages: 1 -->
<svg width="317pt" height="188pt"
 viewBox="0.00 0.00 316.55 188.00" xmlns="http://www.w3.org/2000/svg" xmlns:xlink="http://www.w3.org/1999/xlink">
<g id="graph0" class="graph" transform="scale(1 1) rotate(0) translate(4 184)">
<title>G</title>
<polygon fill="white" stroke="none" points="-4,4 -4,-184 312.55,-184 312.55,4 -4,4"/>
<!-- :roborazzi -->
<g id="node1" class="node">
<title>:roborazzi</title>
<ellipse fill="none" stroke="black" cx="149.02" cy="-162" rx="47.57" ry="18"/>
<text text-anchor="middle" x="149.02" y="-156.57" font-family="Times New Roman,serif" font-size="14.00">:roborazzi</text>
</g>
<!-- :common -->
<g id="node2" class="node">
<title>:common</title>
<ellipse fill="none" stroke="black" cx="75.02" cy="-90" rx="45.57" ry="18"/>
<text text-anchor="middle" x="75.02" y="-84.58" font-family="Times New Roman,serif" font-size="14.00">:common</text>
</g>
<!-- :roborazzi&#45;&gt;:common -->
<g id="edge1" class="edge">
<title>:roborazzi&#45;&gt;:common</title>
<path fill="none" stroke="red" stroke-width="2" d="M131.85,-144.76C122.51,-135.93 110.78,-124.83 100.4,-115.01"/>
<polygon fill="red" stroke="red" stroke-width="2" points="103.95,-113.56 94.28,-109.23 99.14,-118.64 103.95,-113.56"/>
</g>
<!-- :domain:model -->
<g id="node3" class="node">
<title>:domain:model</title>
<ellipse fill="none" stroke="black" cx="238.02" cy="-18" rx="65.04" ry="18"/>
<text text-anchor="middle" x="238.02" y="-12.57" font-family="Times New Roman,serif" font-size="14.00">:domain:model</text>
</g>
<!-- :roborazzi&#45;&gt;:domain:model -->
<g id="edge2" class="edge">
<title>:roborazzi&#45;&gt;:domain:model</title>
<path fill="none" stroke="black" d="M149.21,-143.6C150.18,-124.61 154.02,-94 168.02,-72 175.89,-59.62 187.74,-49.05 199.46,-40.69"/>
<polygon fill="black" stroke="black" points="201.14,-43.78 207.5,-35.31 197.25,-37.96 201.14,-43.78"/>
</g>
<!-- :design&#45;system -->
<g id="node4" class="node">
<title>:design&#45;system</title>
<ellipse fill="none" stroke="black" cx="243.02" cy="-90" rx="65.53" ry="18"/>
<text text-anchor="middle" x="243.02" y="-84.58" font-family="Times New Roman,serif" font-size="14.00">:design&#45;system</text>
</g>
<!-- :roborazzi&#45;&gt;:design&#45;system -->
<g id="edge3" class="edge">
<title>:roborazzi&#45;&gt;:design&#45;system</title>
<path fill="none" stroke="black" d="M169.88,-145.46C182.27,-136.24 198.22,-124.36 212.06,-114.05"/>
<polygon fill="black" stroke="black" points="214.09,-116.91 220.02,-108.13 209.91,-111.29 214.09,-116.91"/>
</g>
<!-- :domain:common -->
<g id="node5" class="node">
<title>:domain:common</title>
<ellipse fill="none" stroke="black" cx="75.02" cy="-18" rx="75.02" ry="18"/>
<text text-anchor="middle" x="75.02" y="-12.57" font-family="Times New Roman,serif" font-size="14.00">:domain:common</text>
</g>
<!-- :common&#45;&gt;:domain:common -->
<g id="edge4" class="edge">
<title>:common&#45;&gt;:domain:common</title>
<path fill="none" stroke="red" stroke-width="2" d="M75.02,-71.7C75.02,-64.41 75.02,-55.73 75.02,-47.54"/>
<polygon fill="red" stroke="red" stroke-width="2" points="78.52,-49.13 75.02,-39.13 71.52,-49.13 78.52,-49.13"/>
</g>
<!-- :design&#45;system&#45;&gt;:domain:model -->
<g id="edge5" class="edge">
<title>:design&#45;system&#45;&gt;:domain:model</title>
<path fill="none" stroke="black" d="M241.78,-71.7C241.26,-64.41 240.64,-55.73 240.05,-47.54"/>
<polygon fill="black" stroke="black" points="243.55,-47.34 239.35,-37.61 236.57,-47.84 243.55,-47.34"/>
</g>
</g>
</svg>
