<?xml version="1.0" encoding="UTF-8" standalone="no"?>
<!DOCTYPE svg PUBLIC "-//W3C//DTD SVG 1.1//EN"
 "http://www.w3.org/Graphics/SVG/1.1/DTD/svg11.dtd">
<!-- Generated by graphviz version 11.0.0 (20240428.1522)
 -->
<!-- Title: G Pages: 1 -->
<svg width="188pt" height="188pt"
 viewBox="0.00 0.00 188.07 188.00" xmlns="http://www.w3.org/2000/svg" xmlns:xlink="http://www.w3.org/1999/xlink">
<g id="graph0" class="graph" transform="scale(1 1) rotate(0) translate(4 184)">
<title>G</title>
<polygon fill="white" stroke="none" points="-4,4 -4,-184 184.07,-184 184.07,4 -4,4"/>
<!-- :feature:shizuku -->
<g id="node1" class="node">
<title>:feature:shizuku</title>
<ellipse fill="none" stroke="black" cx="112.53" cy="-162" rx="67.53" ry="18"/>
<text text-anchor="middle" x="112.53" y="-156.57" font-family="Times New Roman,serif" font-size="14.00">:feature:shizuku</text>
</g>
<!-- :design&#45;system -->
<g id="node2" class="node">
<title>:design&#45;system</title>
<ellipse fill="none" stroke="black" cx="65.53" cy="-90" rx="65.53" ry="18"/>
<text text-anchor="middle" x="65.53" y="-84.58" font-family="Times New Roman,serif" font-size="14.00">:design&#45;system</text>
</g>
<!-- :feature:shizuku&#45;&gt;:design&#45;system -->
<g id="edge1" class="edge">
<title>:feature:shizuku&#45;&gt;:design&#45;system</title>
<path fill="none" stroke="red" stroke-width="2" d="M101.16,-144.05C95.73,-135.97 89.12,-126.12 83.07,-117.11"/>
<polygon fill="red" stroke="red" stroke-width="2" points="86.97,-116.65 78.49,-110.3 81.16,-120.56 86.97,-116.65"/>
</g>
<!-- :domain -->
<g id="node3" class="node">
<title>:domain</title>
<ellipse fill="none" stroke="black" cx="112.53" cy="-18" rx="40.09" ry="18"/>
<text text-anchor="middle" x="112.53" y="-12.57" font-family="Times New Roman,serif" font-size="14.00">:domain</text>
</g>
<!-- :feature:shizuku&#45;&gt;:domain -->
<g id="edge2" class="edge">
<title>:feature:shizuku&#45;&gt;:domain</title>
<path fill="none" stroke="black" d="M124.13,-144.2C130.33,-134.18 137.33,-120.93 140.53,-108 144.38,-92.47 144.38,-87.53 140.53,-72 138.25,-62.77 134.02,-53.37 129.54,-45.1"/>
<polygon fill="black" stroke="black" points="132.66,-43.52 124.6,-36.64 126.62,-47.05 132.66,-43.52"/>
</g>
<!-- :design&#45;system&#45;&gt;:domain -->
<g id="edge3" class="edge">
<title>:design&#45;system&#45;&gt;:domain</title>
<path fill="none" stroke="red" stroke-width="2" d="M76.91,-72.05C82.42,-63.85 89.15,-53.83 95.27,-44.71"/>
<polygon fill="red" stroke="red" stroke-width="2" points="97.23,-48.07 99.9,-37.82 91.42,-44.17 97.23,-48.07"/>
</g>
</g>
</svg>
