<?xml version="1.0" encoding="UTF-8" standalone="no"?>
<!DOCTYPE svg PUBLIC "-//W3C//DTD SVG 1.1//EN"
 "http://www.w3.org/Graphics/SVG/1.1/DTD/svg11.dtd">
<!-- Generated by graphviz version 11.0.0 (20240428.1522)
 -->
<!-- Title: G Pages: 1 -->
<svg width="559pt" height="260pt"
 viewBox="0.00 0.00 558.71 260.00" xmlns="http://www.w3.org/2000/svg" xmlns:xlink="http://www.w3.org/1999/xlink">
<g id="graph0" class="graph" transform="scale(1 1) rotate(0) translate(4 256)">
<title>G</title>
<polygon fill="white" stroke="none" points="-4,4 -4,-256 554.71,-256 554.71,4 -4,4"/>
<!-- :domain:use&#45;case -->
<g id="node1" class="node">
<title>:domain:use&#45;case</title>
<ellipse fill="none" stroke="black" cx="238.77" cy="-234" rx="74.02" ry="18"/>
<text text-anchor="middle" x="238.77" y="-228.57" font-family="Times New Roman,serif" font-size="14.00">:domain:use&#45;case</text>
</g>
<!-- :domain:model -->
<g id="node2" class="node">
<title>:domain:model</title>
<ellipse fill="none" stroke="black" cx="245.77" cy="-18" rx="65.04" ry="18"/>
<text text-anchor="middle" x="245.77" y="-12.57" font-family="Times New Roman,serif" font-size="14.00">:domain:model</text>
</g>
<!-- :domain:use&#45;case&#45;&gt;:domain:model -->
<g id="edge1" class="edge">
<title>:domain:use&#45;case&#45;&gt;:domain:model</title>
<path fill="none" stroke="black" d="M171.2,-226.33C111.95,-218.93 32.3,-204.63 12.77,-180 -43.26,-109.31 100.68,-57.25 186.75,-33.43"/>
<polygon fill="black" stroke="black" points="187.52,-36.85 196.25,-30.85 185.68,-30.09 187.52,-36.85"/>
</g>
<!-- :domain:foreground&#45;service -->
<g id="node3" class="node">
<title>:domain:foreground&#45;service</title>
<ellipse fill="none" stroke="black" cx="133.77" cy="-162" rx="112.44" ry="18"/>
<text text-anchor="middle" x="133.77" y="-156.57" font-family="Times New Roman,serif" font-size="14.00">:domain:foreground&#45;service</text>
</g>
<!-- :domain:use&#45;case&#45;&gt;:domain:foreground&#45;service -->
<g id="edge2" class="edge">
<title>:domain:use&#45;case&#45;&gt;:domain:foreground&#45;service</title>
<path fill="none" stroke="black" d="M214.15,-216.59C200.53,-207.51 183.38,-196.07 168.42,-186.1"/>
<polygon fill="black" stroke="black" points="170.49,-183.27 160.22,-180.63 166.6,-189.09 170.49,-183.27"/>
</g>
<!-- :domain:framework -->
<g id="node4" class="node">
<title>:domain:framework</title>
<ellipse fill="none" stroke="black" cx="397.77" cy="-90" rx="82" ry="18"/>
<text text-anchor="middle" x="397.77" y="-84.58" font-family="Times New Roman,serif" font-size="14.00">:domain:framework</text>
</g>
<!-- :domain:use&#45;case&#45;&gt;:domain:framework -->
<g id="edge3" class="edge">
<title>:domain:use&#45;case&#45;&gt;:domain:framework</title>
<path fill="none" stroke="black" d="M301.34,-224.22C351.73,-215.72 416.72,-201.02 432.77,-180 447.16,-161.15 434.59,-135.62 420.67,-116.74"/>
<polygon fill="black" stroke="black" points="423.5,-114.67 414.56,-108.99 418,-119.01 423.5,-114.67"/>
</g>
<!-- :domain:repository -->
<g id="node5" class="node">
<title>:domain:repository</title>
<ellipse fill="none" stroke="black" cx="343.77" cy="-162" rx="80.01" ry="18"/>
<text text-anchor="middle" x="343.77" y="-156.57" font-family="Times New Roman,serif" font-size="14.00">:domain:repository</text>
</g>
<!-- :domain:use&#45;case&#45;&gt;:domain:repository -->
<g id="edge4" class="edge">
<title>:domain:use&#45;case&#45;&gt;:domain:repository</title>
<path fill="none" stroke="red" stroke-width="2" d="M263.39,-216.59C277.11,-207.44 294.42,-195.9 309.45,-185.88"/>
<polygon fill="red" stroke="red" stroke-width="2" points="310.05,-189.69 316.43,-181.23 306.16,-183.87 310.05,-189.69"/>
</g>
<!-- :domain:framework&#45;&gt;:domain:model -->
<g id="edge5" class="edge">
<title>:domain:framework&#45;&gt;:domain:model</title>
<path fill="none" stroke="red" stroke-width="2" d="M363.66,-73.29C341.4,-63.04 312.16,-49.57 288.37,-38.62"/>
<polygon fill="red" stroke="red" stroke-width="2" points="291.5,-36.21 280.96,-35.2 288.58,-42.57 291.5,-36.21"/>
</g>
<!-- :domain:broadcast&#45;receiver -->
<g id="node6" class="node">
<title>:domain:broadcast&#45;receiver</title>
<ellipse fill="none" stroke="black" cx="439.77" cy="-18" rx="110.94" ry="18"/>
<text text-anchor="middle" x="439.77" y="-12.57" font-family="Times New Roman,serif" font-size="14.00">:domain:broadcast&#45;receiver</text>
</g>
<!-- :domain:framework&#45;&gt;:domain:broadcast&#45;receiver -->
<g id="edge6" class="edge">
<title>:domain:framework&#45;&gt;:domain:broadcast&#45;receiver</title>
<path fill="none" stroke="black" d="M408.15,-71.7C412.83,-63.9 418.47,-54.51 423.67,-45.83"/>
<polygon fill="black" stroke="black" points="426.59,-47.78 428.73,-37.4 420.58,-44.18 426.59,-47.78"/>
</g>
<!-- :domain:repository&#45;&gt;:domain:model -->
<g id="edge7" class="edge">
<title>:domain:repository&#45;&gt;:domain:model</title>
<path fill="none" stroke="black" d="M331.74,-143.84C324.48,-133.48 315.07,-120 306.77,-108 292.2,-86.94 275.8,-63 263.68,-45.25"/>
<polygon fill="black" stroke="black" points="266.81,-43.63 258.28,-37.34 261.02,-47.57 266.81,-43.63"/>
</g>
<!-- :domain:repository&#45;&gt;:domain:framework -->
<g id="edge8" class="edge">
<title>:domain:repository&#45;&gt;:domain:framework</title>
<path fill="none" stroke="red" stroke-width="2" d="M356.84,-144.05C363.14,-135.89 370.84,-125.91 377.85,-116.82"/>
<polygon fill="red" stroke="red" stroke-width="2" points="379.63,-120.24 382.97,-110.19 374.09,-115.97 379.63,-120.24"/>
</g>
</g>
</svg>
