<?xml version="1.0" encoding="UTF-8" standalone="no"?>
<!DOCTYPE svg PUBLIC "-//W3C//DTD SVG 1.1//EN"
 "http://www.w3.org/Graphics/SVG/1.1/DTD/svg11.dtd">
<!-- Generated by graphviz version 11.0.0 (20240428.1522)
 -->
<!-- Title: G Pages: 1 -->
<svg width="3167pt" height="260pt"
 viewBox="0.00 0.00 3167.29 260.00" xmlns="http://www.w3.org/2000/svg" xmlns:xlink="http://www.w3.org/1999/xlink">
<g id="graph0" class="graph" transform="scale(1 1) rotate(0) translate(4 256)">
<title>G</title>
<polygon fill="white" stroke="none" points="-4,4 -4,-256 3163.29,-256 3163.29,4 -4,4"/>
<!-- :app -->
<g id="node1" class="node">
<title>:app</title>
<ellipse fill="none" stroke="black" cx="1345.89" cy="-234" rx="27" ry="18"/>
<text text-anchor="middle" x="1345.89" y="-228.57" font-family="Times New Roman,serif" font-size="14.00">:app</text>
</g>
<!-- :data:repository -->
<g id="node2" class="node">
<title>:data:repository</title>
<ellipse fill="none" stroke="black" cx="1345.89" cy="-162" rx="68.03" ry="18"/>
<text text-anchor="middle" x="1345.89" y="-156.57" font-family="Times New Roman,serif" font-size="14.00">:data:repository</text>
</g>
<!-- :app&#45;&gt;:data:repository -->
<g id="edge1" class="edge">
<title>:app&#45;&gt;:data:repository</title>
<path fill="none" stroke="red" stroke-width="2" d="M1345.89,-215.7C1345.89,-208.41 1345.89,-199.73 1345.89,-191.54"/>
<polygon fill="red" stroke="red" stroke-width="2" points="1349.39,-193.13 1345.89,-183.13 1342.39,-193.13 1349.39,-193.13"/>
</g>
<!-- :design&#45;system -->
<g id="node3" class="node">
<title>:design&#45;system</title>
<ellipse fill="none" stroke="black" cx="453.89" cy="-90" rx="65.53" ry="18"/>
<text text-anchor="middle" x="453.89" y="-84.58" font-family="Times New Roman,serif" font-size="14.00">:design&#45;system</text>
</g>
<!-- :app&#45;&gt;:design&#45;system -->
<g id="edge2" class="edge">
<title>:app&#45;&gt;:design&#45;system</title>
<path fill="none" stroke="black" d="M1318.57,-232.56C1164.06,-229.95 405.35,-215.33 371.89,-180 360.88,-168.38 364.24,-158.05 371.89,-144 379.65,-129.74 393.07,-118.74 406.84,-110.54"/>
<polygon fill="black" stroke="black" points="408.43,-113.66 415.53,-105.79 405.07,-107.52 408.43,-113.66"/>
</g>
<!-- :domain -->
<g id="node4" class="node">
<title>:domain</title>
<ellipse fill="none" stroke="black" cx="907.89" cy="-18" rx="40.09" ry="18"/>
<text text-anchor="middle" x="907.89" y="-12.57" font-family="Times New Roman,serif" font-size="14.00">:domain</text>
</g>
<!-- :app&#45;&gt;:domain -->
<g id="edge3" class="edge">
<title>:app&#45;&gt;:domain</title>
<path fill="none" stroke="black" d="M1318.69,-232.94C1136.25,-232.42 96.37,-227.38 50.89,-180 -42.37,-82.85 -15.87,-129.66 217.89,-72 339.02,-42.12 717.78,-25.84 856.4,-20.76"/>
<polygon fill="black" stroke="black" points="856.51,-24.26 866.38,-20.4 856.26,-17.26 856.51,-24.26"/>
</g>
<!-- :feature:apps -->
<g id="node5" class="node">
<title>:feature:apps</title>
<ellipse fill="none" stroke="black" cx="117.89" cy="-162" rx="57.55" ry="18"/>
<text text-anchor="middle" x="117.89" y="-156.57" font-family="Times New Roman,serif" font-size="14.00">:feature:apps</text>
</g>
<!-- :app&#45;&gt;:feature:apps -->
<g id="edge4" class="edge">
<title>:app&#45;&gt;:feature:apps</title>
<path fill="none" stroke="black" d="M1318.48,-232.52C1165.21,-229.71 413.06,-214.36 183.89,-180 179.28,-179.31 174.53,-178.43 169.78,-177.43"/>
<polygon fill="black" stroke="black" points="170.81,-174.08 160.28,-175.27 169.26,-180.9 170.81,-174.08"/>
</g>
<!-- :feature:app&#45;settings -->
<g id="node6" class="node">
<title>:feature:app&#45;settings</title>
<ellipse fill="none" stroke="black" cx="909.89" cy="-162" rx="84.5" ry="18"/>
<text text-anchor="middle" x="909.89" y="-156.57" font-family="Times New Roman,serif" font-size="14.00">:feature:app&#45;settings</text>
</g>
<!-- :app&#45;&gt;:feature:app&#45;settings -->
<g id="edge5" class="edge">
<title>:app&#45;&gt;:feature:app&#45;settings</title>
<path fill="none" stroke="black" d="M1319.6,-229.19C1262.09,-220.8 1120.83,-199.89 1002.89,-180 996.46,-178.92 989.79,-177.76 983.1,-176.58"/>
<polygon fill="black" stroke="black" points="983.82,-173.15 973.37,-174.84 982.6,-180.04 983.82,-173.15"/>
</g>
<!-- :feature:home -->
<g id="node7" class="node">
<title>:feature:home</title>
<ellipse fill="none" stroke="black" cx="440.89" cy="-162" rx="60.05" ry="18"/>
<text text-anchor="middle" x="440.89" y="-156.57" font-family="Times New Roman,serif" font-size="14.00">:feature:home</text>
</g>
<!-- :app&#45;&gt;:feature:home -->
<g id="edge6" class="edge">
<title>:app&#45;&gt;:feature:home</title>
<path fill="none" stroke="black" d="M1318.63,-233.03C1213.58,-232.78 825.04,-228.42 509.89,-180 505.02,-179.25 500,-178.33 494.98,-177.29"/>
<polygon fill="black" stroke="black" points="496.08,-173.95 485.56,-175.22 494.57,-180.79 496.08,-173.95"/>
</g>
<!-- :feature:service -->
<g id="node8" class="node">
<title>:feature:service</title>
<ellipse fill="none" stroke="black" cx="258.89" cy="-162" rx="65.53" ry="18"/>
<text text-anchor="middle" x="258.89" y="-156.57" font-family="Times New Roman,serif" font-size="14.00">:feature:service</text>
</g>
<!-- :app&#45;&gt;:feature:service -->
<g id="edge7" class="edge">
<title>:app&#45;&gt;:feature:service</title>
<path fill="none" stroke="black" d="M1318.51,-233.13C1200.65,-233.35 725.08,-230.88 338.89,-180 332.14,-179.11 325.12,-177.96 318.16,-176.68"/>
<polygon fill="black" stroke="black" points="319.3,-173.33 308.81,-174.86 317.96,-180.2 319.3,-173.33"/>
</g>
<!-- :feature:settings -->
<g id="node9" class="node">
<title>:feature:settings</title>
<ellipse fill="none" stroke="black" cx="586.89" cy="-162" rx="67.53" ry="18"/>
<text text-anchor="middle" x="586.89" y="-156.57" font-family="Times New Roman,serif" font-size="14.00">:feature:settings</text>
</g>
<!-- :app&#45;&gt;:feature:settings -->
<g id="edge8" class="edge">
<title>:app&#45;&gt;:feature:settings</title>
<path fill="none" stroke="black" d="M1318.72,-232.28C1226.35,-229.55 916.06,-217.94 662.89,-180 657.57,-179.2 652.07,-178.24 646.57,-177.19"/>
<polygon fill="black" stroke="black" points="647.32,-173.77 636.83,-175.22 645.94,-180.63 647.32,-173.77"/>
</g>
<!-- :feature:shizuku -->
<g id="node10" class="node">
<title>:feature:shizuku</title>
<ellipse fill="none" stroke="black" cx="739.89" cy="-162" rx="67.53" ry="18"/>
<text text-anchor="middle" x="739.89" y="-156.57" font-family="Times New Roman,serif" font-size="14.00">:feature:shizuku</text>
</g>
<!-- :app&#45;&gt;:feature:shizuku -->
<g id="edge9" class="edge">
<title>:app&#45;&gt;:feature:shizuku</title>
<path fill="none" stroke="black" d="M1318.77,-231.41C1240.53,-226.59 1007.83,-210.54 816.89,-180 811.37,-179.12 805.65,-178.08 799.94,-176.97"/>
<polygon fill="black" stroke="black" points="800.99,-173.61 790.5,-175.05 799.6,-180.47 800.99,-173.61"/>
</g>
<!-- :broadcast&#45;receiver -->
<g id="node11" class="node">
<title>:broadcast&#45;receiver</title>
<ellipse fill="none" stroke="black" cx="1175.89" cy="-90" rx="81.5" ry="18"/>
<text text-anchor="middle" x="1175.89" y="-84.58" font-family="Times New Roman,serif" font-size="14.00">:broadcast&#45;receiver</text>
</g>
<!-- :app&#45;&gt;:broadcast&#45;receiver -->
<g id="edge10" class="edge">
<title>:app&#45;&gt;:broadcast&#45;receiver</title>
<path fill="none" stroke="black" d="M1369.1,-224.18C1387.4,-215.85 1411.63,-201.4 1422.89,-180 1430.33,-165.84 1432.94,-156.44 1422.89,-144 1420.04,-140.48 1318.35,-119.5 1246.35,-105.02"/>
<polygon fill="black" stroke="black" points="1247.04,-101.59 1236.55,-103.05 1245.67,-108.45 1247.04,-101.59"/>
</g>
<!-- :foreground&#45;service -->
<g id="node12" class="node">
<title>:foreground&#45;service</title>
<ellipse fill="none" stroke="black" cx="1358.89" cy="-90" rx="83" ry="18"/>
<text text-anchor="middle" x="1358.89" y="-84.58" font-family="Times New Roman,serif" font-size="14.00">:foreground&#45;service</text>
</g>
<!-- :app&#45;&gt;:foreground&#45;service -->
<g id="edge11" class="edge">
<title>:app&#45;&gt;:foreground&#45;service</title>
<path fill="none" stroke="black" d="M1372.1,-228.57C1398.42,-222.58 1437.62,-209.08 1455.89,-180 1464.4,-166.45 1464.05,-157.76 1455.89,-144 1446.97,-128.97 1432.13,-117.93 1416.7,-109.94"/>
<polygon fill="black" stroke="black" points="1418.44,-106.89 1407.9,-105.76 1415.44,-113.21 1418.44,-106.89"/>
</g>
<!-- :framework:asset&#45;manager -->
<g id="node13" class="node">
<title>:framework:asset&#45;manager</title>
<ellipse fill="none" stroke="black" cx="1566.89" cy="-90" rx="106.95" ry="18"/>
<text text-anchor="middle" x="1566.89" y="-84.58" font-family="Times New Roman,serif" font-size="14.00">:framework:asset&#45;manager</text>
</g>
<!-- :app&#45;&gt;:framework:asset&#45;manager -->
<g id="edge12" class="edge">
<title>:app&#45;&gt;:framework:asset&#45;manager</title>
<path fill="none" stroke="black" d="M1370.09,-225.82C1396.63,-217.3 1439.84,-201.5 1472.89,-180 1500.33,-162.15 1526.98,-135.79 1544.85,-116.39"/>
<polygon fill="black" stroke="black" points="1547.29,-118.91 1551.4,-109.14 1542.1,-114.22 1547.29,-118.91"/>
</g>
<!-- :framework:clipboard&#45;manager -->
<g id="node14" class="node">
<title>:framework:clipboard&#45;manager</title>
<ellipse fill="none" stroke="black" cx="1135.89" cy="-162" rx="123.92" ry="18"/>
<text text-anchor="middle" x="1135.89" y="-156.57" font-family="Times New Roman,serif" font-size="14.00">:framework:clipboard&#45;manager</text>
</g>
<!-- :app&#45;&gt;:framework:clipboard&#45;manager -->
<g id="edge13" class="edge">
<title>:app&#45;&gt;:framework:clipboard&#45;manager</title>
<path fill="none" stroke="black" d="M1322.2,-225.11C1291.42,-214.84 1236.6,-196.57 1194.36,-182.49"/>
<polygon fill="black" stroke="black" points="1195.67,-179.24 1185.08,-179.4 1193.46,-185.88 1195.67,-179.24"/>
</g>
<!-- :framework:notification&#45;manager -->
<g id="node15" class="node">
<title>:framework:notification&#45;manager</title>
<ellipse fill="none" stroke="black" cx="1821.89" cy="-90" rx="129.91" ry="18"/>
<text text-anchor="middle" x="1821.89" y="-84.58" font-family="Times New Roman,serif" font-size="14.00">:framework:notification&#45;manager</text>
</g>
<!-- :app&#45;&gt;:framework:notification&#45;manager -->
<g id="edge14" class="edge">
<title>:app&#45;&gt;:framework:notification&#45;manager</title>
<path fill="none" stroke="black" d="M1370.15,-225.76C1441.32,-204.53 1651.28,-141.89 1758.02,-110.05"/>
<polygon fill="black" stroke="black" points="1758.93,-113.43 1767.51,-107.22 1756.93,-106.73 1758.93,-113.43"/>
</g>
<!-- :framework:package&#45;manager -->
<g id="node16" class="node">
<title>:framework:package&#45;manager</title>
<ellipse fill="none" stroke="black" cx="2088.89" cy="-90" rx="118.93" ry="18"/>
<text text-anchor="middle" x="2088.89" y="-84.58" font-family="Times New Roman,serif" font-size="14.00">:framework:package&#45;manager</text>
</g>
<!-- :app&#45;&gt;:framework:package&#45;manager -->
<g id="edge15" class="edge">
<title>:app&#45;&gt;:framework:package&#45;manager</title>
<path fill="none" stroke="black" d="M1371.89,-228.03C1472.58,-208.79 1839.36,-138.69 2005.77,-106.88"/>
<polygon fill="black" stroke="black" points="2006.27,-110.35 2015.44,-105.04 2004.96,-103.48 2006.27,-110.35"/>
</g>
<!-- :framework:secure&#45;settings -->
<g id="node17" class="node">
<title>:framework:secure&#45;settings</title>
<ellipse fill="none" stroke="black" cx="2334.89" cy="-90" rx="109.45" ry="18"/>
<text text-anchor="middle" x="2334.89" y="-84.58" font-family="Times New Roman,serif" font-size="14.00">:framework:secure&#45;settings</text>
</g>
<!-- :app&#45;&gt;:framework:secure&#45;settings -->
<g id="edge16" class="edge">
<title>:app&#45;&gt;:framework:secure&#45;settings</title>
<path fill="none" stroke="black" d="M1372.5,-229.42C1435.06,-221 1596.29,-199.18 1730.89,-180 1913.61,-153.96 2127.21,-122.17 2245.14,-104.5"/>
<polygon fill="black" stroke="black" points="2245.39,-108 2254.76,-103.05 2244.35,-101.08 2245.39,-108"/>
</g>
<!-- :framework:shizuku -->
<g id="node18" class="node">
<title>:framework:shizuku</title>
<ellipse fill="none" stroke="black" cx="2544.89" cy="-90" rx="82.5" ry="18"/>
<text text-anchor="middle" x="2544.89" y="-84.58" font-family="Times New Roman,serif" font-size="14.00">:framework:shizuku</text>
</g>
<!-- :app&#45;&gt;:framework:shizuku -->
<g id="edge17" class="edge">
<title>:app&#45;&gt;:framework:shizuku</title>
<path fill="none" stroke="black" d="M1372.55,-230.77C1495.93,-220.3 2023.68,-173.69 2452.89,-108 2459.55,-106.98 2466.47,-105.84 2473.39,-104.66"/>
<polygon fill="black" stroke="black" points="2473.87,-108.13 2483.11,-102.95 2472.66,-101.23 2473.87,-108.13"/>
</g>
<!-- :framework:shortcut&#45;manager -->
<g id="node19" class="node">
<title>:framework:shortcut&#45;manager</title>
<ellipse fill="none" stroke="black" cx="2763.89" cy="-90" rx="118.93" ry="18"/>
<text text-anchor="middle" x="2763.89" y="-84.58" font-family="Times New Roman,serif" font-size="14.00">:framework:shortcut&#45;manager</text>
</g>
<!-- :app&#45;&gt;:framework:shortcut&#45;manager -->
<g id="edge18" class="edge">
<title>:app&#45;&gt;:framework:shortcut&#45;manager</title>
<path fill="none" stroke="black" d="M1373.09,-231.46C1467.74,-226 1791.46,-206.47 2057.89,-180 2315.93,-154.37 2379.71,-141.2 2636.89,-108 2646.42,-106.77 2656.36,-105.47 2666.29,-104.16"/>
<polygon fill="black" stroke="black" points="2666.53,-107.66 2675.98,-102.88 2665.61,-100.72 2666.53,-107.66"/>
</g>
<!-- :framework:usage&#45;stats&#45;manager -->
<g id="node20" class="node">
<title>:framework:usage&#45;stats&#45;manager</title>
<ellipse fill="none" stroke="black" cx="3029.89" cy="-90" rx="129.41" ry="18"/>
<text text-anchor="middle" x="3029.89" y="-84.58" font-family="Times New Roman,serif" font-size="14.00">:framework:usage&#45;stats&#45;manager</text>
</g>
<!-- :app&#45;&gt;:framework:usage&#45;stats&#45;manager -->
<g id="edge19" class="edge">
<title>:app&#45;&gt;:framework:usage&#45;stats&#45;manager</title>
<path fill="none" stroke="black" d="M1372.92,-231.84C1480.69,-227.12 1889.97,-208.26 2225.89,-180 2522.56,-155.04 2596.13,-142.2 2891.89,-108 2902.59,-106.76 2913.75,-105.44 2924.89,-104.1"/>
<polygon fill="black" stroke="black" points="2924.99,-107.61 2934.5,-102.94 2924.15,-100.66 2924.99,-107.61"/>
</g>
<!-- :data:repository&#45;&gt;:domain -->
<g id="edge23" class="edge">
<title>:data:repository&#45;&gt;:domain</title>
<path fill="none" stroke="black" d="M1297.2,-149.15C1287.85,-147.18 1278.1,-145.35 1268.89,-144 1215.31,-136.14 819.73,-147.68 782.89,-108 772,-96.28 774.05,-85.34 782.89,-72 799.7,-46.61 831.38,-33.35 858.64,-26.44"/>
<polygon fill="black" stroke="black" points="859.16,-29.91 868.13,-24.27 857.6,-23.09 859.16,-29.91"/>
</g>
<!-- :common -->
<g id="node21" class="node">
<title>:common</title>
<ellipse fill="none" stroke="black" cx="1693.89" cy="-18" rx="45.57" ry="18"/>
<text text-anchor="middle" x="1693.89" y="-12.57" font-family="Times New Roman,serif" font-size="14.00">:common</text>
</g>
<!-- :data:repository&#45;&gt;:common -->
<g id="edge20" class="edge">
<title>:data:repository&#45;&gt;:common</title>
<path fill="none" stroke="black" d="M1295.39,-149.67C1286.57,-147.74 1277.46,-145.79 1268.89,-144 1182.91,-126.1 1025.54,-136.73 1084.89,-72 1121.76,-31.77 1492.5,-21.97 1636.82,-19.68"/>
<polygon fill="black" stroke="black" points="1636.58,-23.18 1646.52,-19.53 1636.47,-16.18 1636.58,-23.18"/>
</g>
<!-- :data:datastore -->
<g id="node22" class="node">
<title>:data:datastore</title>
<ellipse fill="none" stroke="black" cx="973.89" cy="-90" rx="64.04" ry="18"/>
<text text-anchor="middle" x="973.89" y="-84.58" font-family="Times New Roman,serif" font-size="14.00">:data:datastore</text>
</g>
<!-- :data:repository&#45;&gt;:data:datastore -->
<g id="edge21" class="edge">
<title>:data:repository&#45;&gt;:data:datastore</title>
<path fill="none" stroke="red" stroke-width="2" d="M1295.85,-149.55C1286.89,-147.61 1277.62,-145.69 1268.89,-144 1172.9,-125.46 1147.9,-126.42 1051.89,-108 1045.93,-106.86 1039.73,-105.61 1033.55,-104.32"/>
<polygon fill="red" stroke="red" stroke-width="2" points="1035.96,-101.26 1025.45,-102.61 1034.51,-108.11 1035.96,-101.26"/>
</g>
<!-- :data:room -->
<g id="node23" class="node">
<title>:data:room</title>
<ellipse fill="none" stroke="black" cx="841.89" cy="-90" rx="50.07" ry="18"/>
<text text-anchor="middle" x="841.89" y="-84.58" font-family="Times New Roman,serif" font-size="14.00">:data:room</text>
</g>
<!-- :data:repository&#45;&gt;:data:room -->
<g id="edge22" class="edge">
<title>:data:repository&#45;&gt;:data:room</title>
<path fill="none" stroke="black" d="M1296.76,-149.23C1287.54,-147.29 1277.94,-145.44 1268.89,-144 1106.58,-118.24 1062.3,-138.88 900.89,-108 897.11,-107.28 893.22,-106.42 889.33,-105.48"/>
<polygon fill="black" stroke="black" points="890.48,-102.16 879.92,-103.04 888.72,-108.94 890.48,-102.16"/>
</g>
<!-- :design&#45;system&#45;&gt;:domain -->
<g id="edge27" class="edge">
<title>:design&#45;system&#45;&gt;:domain</title>
<path fill="none" stroke="black" d="M509.44,-80.01C525.69,-77.4 543.5,-74.56 559.89,-72 666.62,-55.31 791.88,-36.4 859.19,-26.29"/>
<polygon fill="black" stroke="black" points="859.41,-29.8 868.78,-24.85 858.37,-22.88 859.41,-29.8"/>
</g>
<!-- :feature:apps&#45;&gt;:design&#45;system -->
<g id="edge28" class="edge">
<title>:feature:apps&#45;&gt;:design&#45;system</title>
<path fill="none" stroke="black" d="M160.76,-149.57C168.44,-147.63 176.39,-145.7 183.89,-144 253.48,-128.22 333.78,-112.81 388.6,-102.71"/>
<polygon fill="black" stroke="black" points="389.21,-106.16 398.41,-100.91 387.95,-99.27 389.21,-106.16"/>
</g>
<!-- :feature:apps&#45;&gt;:domain -->
<g id="edge29" class="edge">
<title>:feature:apps&#45;&gt;:domain</title>
<path fill="none" stroke="black" d="M144.38,-145.63C181.4,-124.97 251.35,-88.88 315.89,-72 417.55,-45.4 732.19,-27.58 856.55,-21.4"/>
<polygon fill="black" stroke="black" points="856.65,-24.9 866.47,-20.92 856.31,-17.91 856.65,-24.9"/>
</g>
<!-- :feature:app&#45;settings&#45;&gt;:design&#45;system -->
<g id="edge30" class="edge">
<title>:feature:app&#45;settings&#45;&gt;:design&#45;system</title>
<path fill="none" stroke="black" d="M847.91,-149.35C837.56,-147.5 826.93,-145.65 816.89,-144 714.88,-127.24 596.29,-110.42 523.16,-100.36"/>
<polygon fill="black" stroke="black" points="523.71,-96.91 513.32,-99.01 522.76,-103.84 523.71,-96.91"/>
</g>
<!-- :feature:app&#45;settings&#45;&gt;:domain -->
<g id="edge32" class="edge">
<title>:feature:app&#45;settings&#45;&gt;:domain</title>
<path fill="none" stroke="black" d="M848.56,-149.2C780.5,-135.81 679.43,-114.93 673.89,-108 622.79,-44.15 773.2,-26.08 856.52,-20.99"/>
<polygon fill="black" stroke="black" points="856.5,-24.49 866.29,-20.44 856.11,-17.5 856.5,-24.49"/>
</g>
<!-- :feature:app&#45;settings&#45;&gt;:common -->
<g id="edge31" class="edge">
<title>:feature:app&#45;settings&#45;&gt;:common</title>
<path fill="none" stroke="black" d="M845.97,-149.87C822.03,-142.26 797.19,-129.47 782.89,-108 774.01,-94.68 771.91,-83.64 782.89,-72 812.27,-40.86 1441.83,-24.51 1636.83,-20.19"/>
<polygon fill="black" stroke="black" points="1636.79,-23.69 1646.71,-19.97 1636.64,-16.69 1636.79,-23.69"/>
</g>
<!-- :feature:home&#45;&gt;:design&#45;system -->
<g id="edge33" class="edge">
<title>:feature:home&#45;&gt;:design&#45;system</title>
<path fill="none" stroke="black" d="M444.1,-143.7C445.47,-136.32 447.1,-127.52 448.64,-119.25"/>
<polygon fill="black" stroke="black" points="452.05,-120.06 450.43,-109.59 445.17,-118.79 452.05,-120.06"/>
</g>
<!-- :feature:service&#45;&gt;:design&#45;system -->
<g id="edge34" class="edge">
<title>:feature:service&#45;&gt;:design&#45;system</title>
<path fill="none" stroke="black" d="M297.41,-147.17C328.16,-136.13 371.44,-120.6 404.69,-108.66"/>
<polygon fill="black" stroke="black" points="405.45,-112.1 413.68,-105.43 403.09,-105.52 405.45,-112.1"/>
</g>
<!-- :feature:service&#45;&gt;:domain -->
<g id="edge35" class="edge">
<title>:feature:service&#45;&gt;:domain</title>
<path fill="none" stroke="black" d="M275.35,-144.1C296.95,-123.14 337.03,-88.18 378.89,-72 465.24,-38.61 741.1,-25 856.44,-20.68"/>
<polygon fill="black" stroke="black" points="856.36,-24.19 866.22,-20.32 856.1,-17.19 856.36,-24.19"/>
</g>
<!-- :feature:settings&#45;&gt;:design&#45;system -->
<g id="edge36" class="edge">
<title>:feature:settings&#45;&gt;:design&#45;system</title>
<path fill="none" stroke="black" d="M557.37,-145.46C538.51,-135.54 513.84,-122.56 493.32,-111.75"/>
<polygon fill="black" stroke="black" points="495.14,-108.76 484.66,-107.2 491.88,-114.95 495.14,-108.76"/>
</g>
<!-- :feature:settings&#45;&gt;:domain -->
<g id="edge37" class="edge">
<title>:feature:settings&#45;&gt;:domain</title>
<path fill="none" stroke="black" d="M594.15,-143.94C603.78,-123.47 622.79,-89.71 649.89,-72 712.61,-31.02 800.73,-20.79 856.04,-18.73"/>
<polygon fill="black" stroke="black" points="855.92,-22.23 865.81,-18.45 855.72,-15.24 855.92,-22.23"/>
</g>
<!-- :feature:shizuku&#45;&gt;:design&#45;system -->
<g id="edge38" class="edge">
<title>:feature:shizuku&#45;&gt;:design&#45;system</title>
<path fill="none" stroke="black" d="M691.37,-149.13C641.97,-137.04 565.35,-118.28 512.57,-105.36"/>
<polygon fill="black" stroke="black" points="513.7,-102.04 503.16,-103.06 512.04,-108.84 513.7,-102.04"/>
</g>
<!-- :feature:shizuku&#45;&gt;:domain -->
<g id="edge39" class="edge">
<title>:feature:shizuku&#45;&gt;:domain</title>
<path fill="none" stroke="black" d="M703.32,-146.5C686.91,-137.93 669.19,-125.32 659.89,-108 652.32,-93.9 649.82,-84.44 659.89,-72 684.18,-41.97 791.68,-28.21 856.91,-22.52"/>
<polygon fill="black" stroke="black" points="856.99,-26.02 866.67,-21.71 856.41,-19.05 856.99,-26.02"/>
</g>
<!-- :broadcast&#45;receiver&#45;&gt;:domain -->
<g id="edge41" class="edge">
<title>:broadcast&#45;receiver&#45;&gt;:domain</title>
<path fill="none" stroke="black" d="M1124.53,-75.59C1074.86,-62.61 1000.34,-43.15 952.92,-30.76"/>
<polygon fill="black" stroke="black" points="954.09,-27.45 943.53,-28.31 952.32,-34.22 954.09,-27.45"/>
</g>
<!-- :broadcast&#45;receiver&#45;&gt;:common -->
<g id="edge40" class="edge">
<title>:broadcast&#45;receiver&#45;&gt;:common</title>
<path fill="none" stroke="black" d="M1235.52,-77.32C1245.95,-75.43 1256.72,-73.58 1266.89,-72 1400.13,-51.3 1557.77,-33.44 1639.15,-24.71"/>
<polygon fill="black" stroke="black" points="1639.04,-28.24 1648.61,-23.7 1638.3,-21.28 1639.04,-28.24"/>
</g>
<!-- :foreground&#45;service&#45;&gt;:domain -->
<g id="edge43" class="edge">
<title>:foreground&#45;service&#45;&gt;:domain</title>
<path fill="none" stroke="black" d="M1298.07,-77.44C1287.68,-75.56 1276.98,-73.68 1266.89,-72 1156.58,-53.67 1026.67,-35.28 957.35,-25.73"/>
<polygon fill="black" stroke="black" points="957.83,-22.26 947.45,-24.36 956.88,-29.19 957.83,-22.26"/>
</g>
<!-- :foreground&#45;service&#45;&gt;:common -->
<g id="edge42" class="edge">
<title>:foreground&#45;service&#45;&gt;:common</title>
<path fill="none" stroke="black" d="M1417.24,-76.81C1481.17,-63.45 1582.66,-42.24 1643.33,-29.56"/>
<polygon fill="black" stroke="black" points="1643.97,-33.01 1653.04,-27.53 1642.54,-26.15 1643.97,-33.01"/>
</g>
<!-- :framework:asset&#45;manager&#45;&gt;:domain -->
<g id="edge45" class="edge">
<title>:framework:asset&#45;manager&#45;&gt;:domain</title>
<path fill="none" stroke="black" d="M1489.9,-77.19C1476.89,-75.34 1463.51,-73.54 1450.89,-72 1270.15,-49.95 1054.67,-31.13 958.53,-23.12"/>
<polygon fill="black" stroke="black" points="958.9,-19.64 948.65,-22.3 958.32,-26.62 958.9,-19.64"/>
</g>
<!-- :framework:asset&#45;manager&#45;&gt;:common -->
<g id="edge44" class="edge">
<title>:framework:asset&#45;manager&#45;&gt;:common</title>
<path fill="none" stroke="black" d="M1596.98,-72.41C1615.39,-62.27 1639.02,-49.24 1658.35,-38.59"/>
<polygon fill="black" stroke="black" points="1659.9,-41.73 1666.97,-33.84 1656.52,-35.6 1659.9,-41.73"/>
</g>
<!-- :framework:clipboard&#45;manager&#45;&gt;:domain -->
<g id="edge46" class="edge">
<title>:framework:clipboard&#45;manager&#45;&gt;:domain</title>
<path fill="none" stroke="black" d="M1045.62,-149.34C932.32,-134.6 752.32,-110.79 749.89,-108 713.63,-66.43 801.01,-40.07 859.78,-27.58"/>
<polygon fill="black" stroke="black" points="860.16,-31.07 869.26,-25.64 858.76,-24.21 860.16,-31.07"/>
</g>
<!-- :framework:notification&#45;manager&#45;&gt;:domain -->
<g id="edge48" class="edge">
<title>:framework:notification&#45;manager&#45;&gt;:domain</title>
<path fill="none" stroke="black" d="M1729.62,-77.02C1714.04,-75.19 1698.01,-73.44 1682.89,-72 1410.74,-46.07 1083.65,-27.97 959.27,-21.56"/>
<polygon fill="black" stroke="black" points="959.55,-18.07 949.39,-21.06 959.2,-25.06 959.55,-18.07"/>
</g>
<!-- :framework:notification&#45;manager&#45;&gt;:common -->
<g id="edge47" class="edge">
<title>:framework:notification&#45;manager&#45;&gt;:common</title>
<path fill="none" stroke="black" d="M1790.9,-72.05C1772.46,-61.97 1748.99,-49.13 1729.75,-38.61"/>
<polygon fill="black" stroke="black" points="1731.62,-35.65 1721.17,-33.92 1728.26,-41.79 1731.62,-35.65"/>
</g>
<!-- :framework:package&#45;manager&#45;&gt;:domain -->
<g id="edge50" class="edge">
<title>:framework:package&#45;manager&#45;&gt;:domain</title>
<path fill="none" stroke="black" d="M2005,-76.86C1990.32,-75.02 1975.17,-73.31 1960.89,-72 1577.15,-36.92 1112.47,-23.69 959.46,-20.1"/>
<polygon fill="black" stroke="black" points="959.73,-16.61 949.65,-19.88 959.57,-23.61 959.73,-16.61"/>
</g>
<!-- :framework:package&#45;manager&#45;&gt;:common -->
<g id="edge49" class="edge">
<title>:framework:package&#45;manager&#45;&gt;:common</title>
<path fill="none" stroke="black" d="M2013.66,-75.67C1935.21,-61.77 1814.32,-40.34 1745.85,-28.21"/>
<polygon fill="black" stroke="black" points="1746.87,-24.83 1736.41,-26.54 1745.65,-31.73 1746.87,-24.83"/>
</g>
<!-- :framework:secure&#45;settings&#45;&gt;:domain -->
<g id="edge52" class="edge">
<title>:framework:secure&#45;settings&#45;&gt;:domain</title>
<path fill="none" stroke="black" d="M2258.22,-76.79C2244.48,-74.94 2230.28,-73.23 2216.89,-72 1966.12,-48.92 1169.76,-26.11 959.31,-20.38"/>
<polygon fill="black" stroke="black" points="959.61,-16.88 949.52,-20.11 959.42,-23.88 959.61,-16.88"/>
</g>
<!-- :framework:secure&#45;settings&#45;&gt;:common -->
<g id="edge51" class="edge">
<title>:framework:secure&#45;settings&#45;&gt;:common</title>
<path fill="none" stroke="black" d="M2255.92,-77.16C2242.89,-75.34 2229.52,-73.55 2216.89,-72 2046.88,-51.15 1845.06,-32.39 1749.44,-23.86"/>
<polygon fill="black" stroke="black" points="1749.82,-20.38 1739.54,-22.98 1749.2,-27.35 1749.82,-20.38"/>
</g>
<!-- :framework:shizuku&#45;&gt;:domain -->
<g id="edge54" class="edge">
<title>:framework:shizuku&#45;&gt;:domain</title>
<path fill="none" stroke="black" d="M2486.68,-76.9C2475.5,-74.96 2463.87,-73.2 2452.89,-72 2301.95,-55.56 1210.72,-26.77 959.41,-20.31"/>
<polygon fill="black" stroke="black" points="959.68,-16.82 949.6,-20.06 959.5,-23.82 959.68,-16.82"/>
</g>
<!-- :framework:shizuku&#45;&gt;:common -->
<g id="edge53" class="edge">
<title>:framework:shizuku&#45;&gt;:common</title>
<path fill="none" stroke="black" d="M2486.15,-77.12C2475.13,-75.19 2463.68,-73.37 2452.89,-72 2191.75,-38.86 1877.25,-25.2 1750.7,-20.77"/>
<polygon fill="black" stroke="black" points="1751.03,-17.28 1740.92,-20.44 1750.79,-24.28 1751.03,-17.28"/>
</g>
<!-- :framework:shortcut&#45;manager&#45;&gt;:domain -->
<g id="edge56" class="edge">
<title>:framework:shortcut&#45;manager&#45;&gt;:domain</title>
<path fill="none" stroke="black" d="M2681.36,-76.71C2666.58,-74.86 2651.3,-73.18 2636.89,-72 2466.29,-58 1228.26,-26.9 959.34,-20.26"/>
<polygon fill="black" stroke="black" points="959.59,-16.77 949.51,-20.02 959.42,-23.77 959.59,-16.77"/>
</g>
<!-- :framework:shortcut&#45;manager&#45;&gt;:common -->
<g id="edge55" class="edge">
<title>:framework:shortcut&#45;manager&#45;&gt;:common</title>
<path fill="none" stroke="black" d="M2679.96,-76.84C2665.61,-75.03 2650.84,-73.32 2636.89,-72 2301.53,-40.18 1897.13,-25.3 1750.47,-20.66"/>
<polygon fill="black" stroke="black" points="1750.74,-17.17 1740.64,-20.35 1750.53,-24.17 1750.74,-17.17"/>
</g>
<!-- :framework:usage&#45;stats&#45;manager&#45;&gt;:domain -->
<g id="edge58" class="edge">
<title>:framework:usage&#45;stats&#45;manager&#45;&gt;:domain</title>
<path fill="none" stroke="black" d="M2940.19,-76.69C2924.13,-74.84 2907.53,-73.17 2891.89,-72 2792.81,-64.59 1261.49,-27.5 959.41,-20.24"/>
<polygon fill="black" stroke="black" points="959.56,-16.74 949.48,-20 959.39,-23.74 959.56,-16.74"/>
</g>
<!-- :framework:usage&#45;stats&#45;manager&#45;&gt;:common -->
<g id="edge57" class="edge">
<title>:framework:usage&#45;stats&#45;manager&#45;&gt;:common</title>
<path fill="none" stroke="black" d="M2939.06,-76.78C2923.35,-74.97 2907.16,-73.28 2891.89,-72 2453.82,-35.38 1923.4,-23.11 1750.98,-19.94"/>
<polygon fill="black" stroke="black" points="1751.24,-16.44 1741.18,-19.76 1751.12,-23.44 1751.24,-16.44"/>
</g>
<!-- :data:datastore&#45;&gt;:domain -->
<g id="edge25" class="edge">
<title>:data:datastore&#45;&gt;:domain</title>
<path fill="none" stroke="black" d="M958.24,-72.41C949.99,-63.66 939.71,-52.75 930.59,-43.08"/>
<polygon fill="black" stroke="black" points="933.41,-40.96 924,-36.09 928.31,-45.77 933.41,-40.96"/>
</g>
<!-- :data:datastore&#45;&gt;:common -->
<g id="edge24" class="edge">
<title>:data:datastore&#45;&gt;:common</title>
<path fill="none" stroke="red" stroke-width="2" d="M1021.55,-77.57C1031.53,-75.47 1042.02,-73.48 1051.89,-72 1266.61,-39.88 1524.86,-26 1637.14,-21.16"/>
<polygon fill="red" stroke="red" stroke-width="2" points="1635.64,-24.73 1645.48,-20.81 1635.34,-17.74 1635.64,-24.73"/>
</g>
<!-- :data:room&#45;&gt;:domain -->
<g id="edge26" class="edge">
<title>:data:room&#45;&gt;:domain</title>
<path fill="none" stroke="black" d="M857.53,-72.41C865.78,-63.66 876.06,-52.75 885.18,-43.08"/>
<polygon fill="black" stroke="black" points="887.46,-45.77 891.77,-36.09 882.37,-40.96 887.46,-45.77"/>
</g>
</g>
</svg>
