<?xml version="1.0" encoding="UTF-8" standalone="no"?>
<!DOCTYPE svg PUBLIC "-//W3C//DTD SVG 1.1//EN"
 "http://www.w3.org/Graphics/SVG/1.1/DTD/svg11.dtd">
<!-- Generated by graphviz version 11.0.0 (20240428.1522)
 -->
<!-- Title: G Pages: 1 -->
<svg width="3305pt" height="404pt"
 viewBox="0.00 0.00 3304.78 404.00" xmlns="http://www.w3.org/2000/svg" xmlns:xlink="http://www.w3.org/1999/xlink">
<g id="graph0" class="graph" transform="scale(1 1) rotate(0) translate(4 400)">
<title>G</title>
<polygon fill="white" stroke="none" points="-4,4 -4,-400 3300.78,-400 3300.78,4 -4,4"/>
<!-- :app -->
<g id="node1" class="node">
<title>:app</title>
<ellipse fill="none" stroke="black" cx="1130.53" cy="-378" rx="27" ry="18"/>
<text text-anchor="middle" x="1130.53" y="-372.57" font-family="Times New Roman,serif" font-size="14.00">:app</text>
</g>
<!-- :design&#45;system -->
<g id="node2" class="node">
<title>:design&#45;system</title>
<ellipse fill="none" stroke="black" cx="255.53" cy="-234" rx="65.53" ry="18"/>
<text text-anchor="middle" x="255.53" y="-228.57" font-family="Times New Roman,serif" font-size="14.00">:design&#45;system</text>
</g>
<!-- :app&#45;&gt;:design&#45;system -->
<g id="edge1" class="edge">
<title>:app&#45;&gt;:design&#45;system</title>
<path fill="none" stroke="black" d="M1103.53,-376.58C970.72,-374.35 390.46,-362.44 320.53,-324 295.97,-310.5 278.24,-283.31 267.56,-262.52"/>
<polygon fill="black" stroke="black" points="270.79,-261.17 263.28,-253.7 264.49,-264.22 270.79,-261.17"/>
</g>
<!-- :data:repository -->
<g id="node3" class="node">
<title>:data:repository</title>
<ellipse fill="none" stroke="black" cx="753.53" cy="-306" rx="68.03" ry="18"/>
<text text-anchor="middle" x="753.53" y="-300.57" font-family="Times New Roman,serif" font-size="14.00">:data:repository</text>
</g>
<!-- :app&#45;&gt;:data:repository -->
<g id="edge2" class="edge">
<title>:app&#45;&gt;:data:repository</title>
<path fill="none" stroke="red" stroke-width="2" d="M1104.47,-372.73C1052.46,-364.14 932.13,-343.87 831.53,-324 826.28,-322.96 820.85,-321.85 815.39,-320.71"/>
<polygon fill="red" stroke="red" stroke-width="2" points="817.71,-317.63 807.2,-318.98 816.26,-324.48 817.71,-317.63"/>
</g>
<!-- :domain:repository -->
<g id="node4" class="node">
<title>:domain:repository</title>
<ellipse fill="none" stroke="black" cx="663.53" cy="-162" rx="80.01" ry="18"/>
<text text-anchor="middle" x="663.53" y="-156.57" font-family="Times New Roman,serif" font-size="14.00">:domain:repository</text>
</g>
<!-- :app&#45;&gt;:domain:repository -->
<g id="edge3" class="edge">
<title>:app&#45;&gt;:domain:repository</title>
<path fill="none" stroke="black" d="M1103.22,-377.23C1031.54,-377.1 832.77,-372.08 676.53,-324 643.47,-313.83 638.88,-302.63 607.53,-288 569.61,-270.3 543.79,-286.79 520.53,-252 511.64,-238.7 511.39,-229.13 520.53,-216 535.22,-194.89 559.35,-182.17 583.64,-174.51"/>
<polygon fill="black" stroke="black" points="584.29,-177.96 592.94,-171.85 582.37,-171.23 584.29,-177.96"/>
</g>
<!-- :feature:apps -->
<g id="node5" class="node">
<title>:feature:apps</title>
<ellipse fill="none" stroke="black" cx="387.53" cy="-306" rx="57.55" ry="18"/>
<text text-anchor="middle" x="387.53" y="-300.57" font-family="Times New Roman,serif" font-size="14.00">:feature:apps</text>
</g>
<!-- :app&#45;&gt;:feature:apps -->
<g id="edge4" class="edge">
<title>:app&#45;&gt;:feature:apps</title>
<path fill="none" stroke="black" d="M1103.24,-376.56C1011.13,-374.73 703.56,-365.66 453.53,-324 449.13,-323.27 444.59,-322.38 440.05,-321.4"/>
<polygon fill="black" stroke="black" points="440.85,-317.99 430.31,-319.15 439.27,-324.81 440.85,-317.99"/>
</g>
<!-- :feature:app&#45;settings -->
<g id="node6" class="node">
<title>:feature:app&#45;settings</title>
<ellipse fill="none" stroke="black" cx="924.53" cy="-306" rx="84.5" ry="18"/>
<text text-anchor="middle" x="924.53" y="-300.57" font-family="Times New Roman,serif" font-size="14.00">:feature:app&#45;settings</text>
</g>
<!-- :app&#45;&gt;:feature:app&#45;settings -->
<g id="edge5" class="edge">
<title>:app&#45;&gt;:feature:app&#45;settings</title>
<path fill="none" stroke="black" d="M1106.9,-368.97C1075.86,-358.42 1020.4,-339.58 978.77,-325.43"/>
<polygon fill="black" stroke="black" points="979.99,-322.15 969.4,-322.25 977.74,-328.78 979.99,-322.15"/>
</g>
<!-- :feature:home -->
<g id="node7" class="node">
<title>:feature:home</title>
<ellipse fill="none" stroke="black" cx="213.53" cy="-306" rx="60.05" ry="18"/>
<text text-anchor="middle" x="213.53" y="-300.57" font-family="Times New Roman,serif" font-size="14.00">:feature:home</text>
</g>
<!-- :app&#45;&gt;:feature:home -->
<g id="edge6" class="edge">
<title>:app&#45;&gt;:feature:home</title>
<path fill="none" stroke="black" d="M1103.43,-376.9C998.11,-376.16 606.07,-370.29 287.53,-324 281.5,-323.12 275.23,-322.01 269.01,-320.77"/>
<polygon fill="black" stroke="black" points="269.91,-317.38 259.4,-318.75 268.46,-324.23 269.91,-317.38"/>
</g>
<!-- :feature:service -->
<g id="node8" class="node">
<title>:feature:service</title>
<ellipse fill="none" stroke="black" cx="2461.53" cy="-306" rx="65.53" ry="18"/>
<text text-anchor="middle" x="2461.53" y="-300.57" font-family="Times New Roman,serif" font-size="14.00">:feature:service</text>
</g>
<!-- :app&#45;&gt;:feature:service -->
<g id="edge7" class="edge">
<title>:app&#45;&gt;:feature:service</title>
<path fill="none" stroke="black" d="M1157.85,-376.39C1286.65,-373.39 1846.19,-358.9 2303.53,-324 2332.29,-321.8 2363.92,-318.57 2391.27,-315.5"/>
<polygon fill="black" stroke="black" points="2391.67,-318.98 2401.21,-314.38 2390.88,-312.03 2391.67,-318.98"/>
</g>
<!-- :feature:settings -->
<g id="node9" class="node">
<title>:feature:settings</title>
<ellipse fill="none" stroke="black" cx="67.53" cy="-306" rx="67.53" ry="18"/>
<text text-anchor="middle" x="67.53" y="-300.57" font-family="Times New Roman,serif" font-size="14.00">:feature:settings</text>
</g>
<!-- :app&#45;&gt;:feature:settings -->
<g id="edge8" class="edge">
<title>:app&#45;&gt;:feature:settings</title>
<path fill="none" stroke="black" d="M1103.32,-377.16C987.23,-377.52 522.04,-375.47 144.53,-324 138.83,-323.22 132.92,-322.24 127.03,-321.15"/>
<polygon fill="black" stroke="black" points="127.76,-317.72 117.27,-319.21 126.4,-324.59 127.76,-317.72"/>
</g>
<!-- :feature:shizuku -->
<g id="node10" class="node">
<title>:feature:shizuku</title>
<ellipse fill="none" stroke="black" cx="530.53" cy="-306" rx="67.53" ry="18"/>
<text text-anchor="middle" x="530.53" y="-300.57" font-family="Times New Roman,serif" font-size="14.00">:feature:shizuku</text>
</g>
<!-- :app&#45;&gt;:feature:shizuku -->
<g id="edge9" class="edge">
<title>:app&#45;&gt;:feature:shizuku</title>
<path fill="none" stroke="black" d="M1103.44,-375.21C1026.35,-369.91 799.25,-352.83 612.53,-324 605.84,-322.97 598.86,-321.75 591.93,-320.44"/>
<polygon fill="black" stroke="black" points="593.09,-317.1 582.61,-318.62 591.76,-323.97 593.09,-317.1"/>
</g>
<!-- :broadcast&#45;receiver -->
<g id="node11" class="node">
<title>:broadcast&#45;receiver</title>
<ellipse fill="none" stroke="black" cx="2885.53" cy="-306" rx="81.5" ry="18"/>
<text text-anchor="middle" x="2885.53" y="-300.57" font-family="Times New Roman,serif" font-size="14.00">:broadcast&#45;receiver</text>
</g>
<!-- :app&#45;&gt;:broadcast&#45;receiver -->
<g id="edge10" class="edge">
<title>:app&#45;&gt;:broadcast&#45;receiver</title>
<path fill="none" stroke="black" d="M1157.97,-377.15C1314.62,-377.78 2111.68,-378.1 2759.53,-324 2775.62,-322.66 2792.79,-320.69 2809.12,-318.57"/>
<polygon fill="black" stroke="black" points="2809.32,-322.08 2818.77,-317.29 2808.4,-315.14 2809.32,-322.08"/>
</g>
<!-- :foreground&#45;service -->
<g id="node12" class="node">
<title>:foreground&#45;service</title>
<ellipse fill="none" stroke="black" cx="2667.53" cy="-306" rx="83" ry="18"/>
<text text-anchor="middle" x="2667.53" y="-300.57" font-family="Times New Roman,serif" font-size="14.00">:foreground&#45;service</text>
</g>
<!-- :app&#45;&gt;:foreground&#45;service -->
<g id="edge11" class="edge">
<title>:app&#45;&gt;:foreground&#45;service</title>
<path fill="none" stroke="black" d="M1157.86,-376.9C1301.36,-376.17 1982.14,-370.32 2536.53,-324 2553.59,-322.57 2571.84,-320.53 2589.14,-318.36"/>
<polygon fill="black" stroke="black" points="2589.37,-321.86 2598.84,-317.11 2588.47,-314.92 2589.37,-321.86"/>
</g>
<!-- :framework:asset&#45;manager -->
<g id="node13" class="node">
<title>:framework:asset&#45;manager</title>
<ellipse fill="none" stroke="black" cx="2194.53" cy="-234" rx="106.95" ry="18"/>
<text text-anchor="middle" x="2194.53" y="-228.57" font-family="Times New Roman,serif" font-size="14.00">:framework:asset&#45;manager</text>
</g>
<!-- :app&#45;&gt;:framework:asset&#45;manager -->
<g id="edge12" class="edge">
<title>:app&#45;&gt;:framework:asset&#45;manager</title>
<path fill="none" stroke="black" d="M1156.74,-373.54C1220.65,-365.1 1389.57,-342.79 1530.53,-324 1734.21,-296.86 1973,-264.79 2101.43,-247.52"/>
<polygon fill="black" stroke="black" points="2101.81,-251 2111.26,-246.2 2100.88,-244.07 2101.81,-251"/>
</g>
<!-- :framework:clipboard&#45;manager -->
<g id="node14" class="node">
<title>:framework:clipboard&#45;manager</title>
<ellipse fill="none" stroke="black" cx="1166.53" cy="-162" rx="123.92" ry="18"/>
<text text-anchor="middle" x="1166.53" y="-156.57" font-family="Times New Roman,serif" font-size="14.00">:framework:clipboard&#45;manager</text>
</g>
<!-- :app&#45;&gt;:framework:clipboard&#45;manager -->
<g id="edge13" class="edge">
<title>:app&#45;&gt;:framework:clipboard&#45;manager</title>
<path fill="none" stroke="black" d="M1110.61,-365.56C1067.42,-339.28 972.18,-272.56 1012.53,-216 1025.26,-198.16 1044.39,-186.27 1064.88,-178.35"/>
<polygon fill="black" stroke="black" points="1065.99,-181.67 1074.27,-175.07 1063.67,-175.07 1065.99,-181.67"/>
</g>
<!-- :framework:notification&#45;manager -->
<g id="node15" class="node">
<title>:framework:notification&#45;manager</title>
<ellipse fill="none" stroke="black" cx="3137.53" cy="-234" rx="129.91" ry="18"/>
<text text-anchor="middle" x="3137.53" y="-228.57" font-family="Times New Roman,serif" font-size="14.00">:framework:notification&#45;manager</text>
</g>
<!-- :app&#45;&gt;:framework:notification&#45;manager -->
<g id="edge14" class="edge">
<title>:app&#45;&gt;:framework:notification&#45;manager</title>
<path fill="none" stroke="black" d="M1157.85,-376.99C1373.19,-376.85 2793.67,-373.99 2976.53,-324 3025.11,-310.72 3074.93,-280.03 3106.03,-258.42"/>
<polygon fill="black" stroke="black" points="3107.68,-261.54 3113.82,-252.91 3103.64,-255.83 3107.68,-261.54"/>
</g>
<!-- :framework:package&#45;manager -->
<g id="node16" class="node">
<title>:framework:package&#45;manager</title>
<ellipse fill="none" stroke="black" cx="2438.53" cy="-234" rx="118.93" ry="18"/>
<text text-anchor="middle" x="2438.53" y="-228.57" font-family="Times New Roman,serif" font-size="14.00">:framework:package&#45;manager</text>
</g>
<!-- :app&#45;&gt;:framework:package&#45;manager -->
<g id="edge15" class="edge">
<title>:app&#45;&gt;:framework:package&#45;manager</title>
<path fill="none" stroke="black" d="M1157.28,-374.52C1236.09,-367.18 1474.2,-344.78 1671.53,-324 1955.76,-294.07 2026.86,-286.82 2310.53,-252 2320.42,-250.79 2330.73,-249.48 2341.02,-248.16"/>
<polygon fill="black" stroke="black" points="2341.18,-251.66 2350.65,-246.9 2340.28,-244.72 2341.18,-251.66"/>
</g>
<!-- :framework:secure&#45;settings -->
<g id="node17" class="node">
<title>:framework:secure&#45;settings</title>
<ellipse fill="none" stroke="black" cx="1130.53" cy="-234" rx="109.45" ry="18"/>
<text text-anchor="middle" x="1130.53" y="-228.57" font-family="Times New Roman,serif" font-size="14.00">:framework:secure&#45;settings</text>
</g>
<!-- :app&#45;&gt;:framework:secure&#45;settings -->
<g id="edge16" class="edge">
<title>:app&#45;&gt;:framework:secure&#45;settings</title>
<path fill="none" stroke="black" d="M1130.53,-359.59C1130.53,-335.61 1130.53,-292.14 1130.53,-263.42"/>
<polygon fill="black" stroke="black" points="1134.03,-263.62 1130.53,-253.62 1127.03,-263.62 1134.03,-263.62"/>
</g>
<!-- :framework:shizuku -->
<g id="node18" class="node">
<title>:framework:shizuku</title>
<ellipse fill="none" stroke="black" cx="1378.53" cy="-234" rx="82.5" ry="18"/>
<text text-anchor="middle" x="1378.53" y="-228.57" font-family="Times New Roman,serif" font-size="14.00">:framework:shizuku</text>
</g>
<!-- :app&#45;&gt;:framework:shizuku -->
<g id="edge17" class="edge">
<title>:app&#45;&gt;:framework:shizuku</title>
<path fill="none" stroke="black" d="M1150.41,-365.62C1191.55,-342.06 1286.66,-287.61 1340.17,-256.97"/>
<polygon fill="black" stroke="black" points="1341.72,-260.11 1348.66,-252.1 1338.24,-254.04 1341.72,-260.11"/>
</g>
<!-- :framework:shortcut&#45;manager -->
<g id="node19" class="node">
<title>:framework:shortcut&#45;manager</title>
<ellipse fill="none" stroke="black" cx="1636.53" cy="-234" rx="118.93" ry="18"/>
<text text-anchor="middle" x="1636.53" y="-228.57" font-family="Times New Roman,serif" font-size="14.00">:framework:shortcut&#45;manager</text>
</g>
<!-- :app&#45;&gt;:framework:shortcut&#45;manager -->
<g id="edge18" class="edge">
<title>:app&#45;&gt;:framework:shortcut&#45;manager</title>
<path fill="none" stroke="black" d="M1155.28,-370.05C1230.36,-348.98 1457.33,-285.29 1570.66,-253.48"/>
<polygon fill="black" stroke="black" points="1571.46,-256.9 1580.14,-250.82 1569.57,-250.16 1571.46,-256.9"/>
</g>
<!-- :framework:usage&#45;stats&#45;manager -->
<g id="node20" class="node">
<title>:framework:usage&#45;stats&#45;manager</title>
<ellipse fill="none" stroke="black" cx="1902.53" cy="-234" rx="129.41" ry="18"/>
<text text-anchor="middle" x="1902.53" y="-228.57" font-family="Times New Roman,serif" font-size="14.00">:framework:usage&#45;stats&#45;manager</text>
</g>
<!-- :app&#45;&gt;:framework:usage&#45;stats&#45;manager -->
<g id="edge19" class="edge">
<title>:app&#45;&gt;:framework:usage&#45;stats&#45;manager</title>
<path fill="none" stroke="black" d="M1156.22,-372.28C1258.75,-353.42 1641.56,-283 1815.52,-251"/>
<polygon fill="black" stroke="black" points="1815.98,-254.48 1825.18,-249.23 1814.72,-247.59 1815.98,-254.48"/>
</g>
<!-- :domain:model -->
<g id="node21" class="node">
<title>:domain:model</title>
<ellipse fill="none" stroke="black" cx="555.53" cy="-18" rx="65.04" ry="18"/>
<text text-anchor="middle" x="555.53" y="-12.57" font-family="Times New Roman,serif" font-size="14.00">:domain:model</text>
</g>
<!-- :design&#45;system&#45;&gt;:domain:model -->
<g id="edge20" class="edge">
<title>:design&#45;system&#45;&gt;:domain:model</title>
<path fill="none" stroke="black" d="M259.06,-215.63C266.77,-182.37 288.31,-109.65 335.53,-72 376.17,-39.6 433.56,-26.54 479.53,-21.47"/>
<polygon fill="black" stroke="black" points="479.84,-24.96 489.45,-20.5 479.15,-17.99 479.84,-24.96"/>
</g>
<!-- :data:repository&#45;&gt;:domain:repository -->
<g id="edge25" class="edge">
<title>:data:repository&#45;&gt;:domain:repository</title>
<path fill="none" stroke="black" d="M723.01,-289.54C708.27,-280.54 691.63,-267.83 681.53,-252 670.05,-234.01 665.68,-210.17 664.11,-191.68"/>
<polygon fill="black" stroke="black" points="667.62,-191.71 663.52,-181.94 660.63,-192.13 667.62,-191.71"/>
</g>
<!-- :common -->
<g id="node22" class="node">
<title>:common</title>
<ellipse fill="none" stroke="black" cx="1680.53" cy="-162" rx="45.57" ry="18"/>
<text text-anchor="middle" x="1680.53" y="-156.57" font-family="Times New Roman,serif" font-size="14.00">:common</text>
</g>
<!-- :data:repository&#45;&gt;:common -->
<g id="edge21" class="edge">
<title>:data:repository&#45;&gt;:common</title>
<path fill="none" stroke="black" d="M802.87,-293.25C812.34,-291.27 822.21,-289.41 831.53,-288 923.49,-274.07 1163.69,-290.12 1248.53,-252 1269.75,-242.47 1265.54,-226.04 1286.53,-216 1345.03,-188.02 1529.94,-172.56 1624.16,-166.32"/>
<polygon fill="black" stroke="black" points="1624.2,-169.82 1633.95,-165.68 1623.74,-162.84 1624.2,-169.82"/>
</g>
<!-- :data:datastore -->
<g id="node23" class="node">
<title>:data:datastore</title>
<ellipse fill="none" stroke="black" cx="787.53" cy="-234" rx="64.04" ry="18"/>
<text text-anchor="middle" x="787.53" y="-228.57" font-family="Times New Roman,serif" font-size="14.00">:data:datastore</text>
</g>
<!-- :data:repository&#45;&gt;:data:datastore -->
<g id="edge22" class="edge">
<title>:data:repository&#45;&gt;:data:datastore</title>
<path fill="none" stroke="red" stroke-width="2" d="M761.94,-287.7C765.64,-280.07 770.09,-270.92 774.22,-262.4"/>
<polygon fill="red" stroke="red" stroke-width="2" points="776.68,-265.35 777.9,-254.83 770.38,-262.29 776.68,-265.35"/>
</g>
<!-- :data:room -->
<g id="node24" class="node">
<title>:data:room</title>
<ellipse fill="none" stroke="black" cx="579.53" cy="-234" rx="50.07" ry="18"/>
<text text-anchor="middle" x="579.53" y="-228.57" font-family="Times New Roman,serif" font-size="14.00">:data:room</text>
</g>
<!-- :data:repository&#45;&gt;:data:room -->
<g id="edge23" class="edge">
<title>:data:repository&#45;&gt;:data:room</title>
<path fill="none" stroke="black" d="M717.48,-290.5C689.82,-279.37 651.55,-263.97 622.33,-252.22"/>
<polygon fill="black" stroke="black" points="624,-249.12 613.42,-248.63 621.39,-255.61 624,-249.12"/>
</g>
<!-- :domain:framework -->
<g id="node25" class="node">
<title>:domain:framework</title>
<ellipse fill="none" stroke="black" cx="1559.53" cy="-90" rx="82" ry="18"/>
<text text-anchor="middle" x="1559.53" y="-84.58" font-family="Times New Roman,serif" font-size="14.00">:domain:framework</text>
</g>
<!-- :data:repository&#45;&gt;:domain:framework -->
<g id="edge24" class="edge">
<title>:data:repository&#45;&gt;:domain:framework</title>
<path fill="none" stroke="black" d="M788.4,-290.27C809.89,-280.58 837.62,-266.96 860.53,-252 923.14,-211.12 920.51,-172.76 989.53,-144 1073.29,-109.09 1327.6,-97.02 1466.52,-92.96"/>
<polygon fill="black" stroke="black" points="1466.54,-96.46 1476.44,-92.68 1466.35,-89.47 1466.54,-96.46"/>
</g>
<!-- :domain:repository&#45;&gt;:domain:model -->
<g id="edge29" class="edge">
<title>:domain:repository&#45;&gt;:domain:model</title>
<path fill="none" stroke="black" d="M650.5,-143.87C631.75,-119.22 597.01,-73.54 575.15,-44.79"/>
<polygon fill="black" stroke="black" points="578.02,-42.79 569.19,-36.95 572.45,-47.03 578.02,-42.79"/>
</g>
<!-- :domain:repository&#45;&gt;:domain:framework -->
<g id="edge30" class="edge">
<title>:domain:repository&#45;&gt;:domain:framework</title>
<path fill="none" stroke="red" stroke-width="2" d="M738,-155.18C902.47,-142.33 1296.03,-111.59 1471.96,-97.84"/>
<polygon fill="red" stroke="red" stroke-width="2" points="1470.51,-101.47 1480.21,-97.2 1469.97,-94.49 1470.51,-101.47"/>
</g>
<!-- :feature:apps&#45;&gt;:design&#45;system -->
<g id="edge35" class="edge">
<title>:feature:apps&#45;&gt;:design&#45;system</title>
<path fill="none" stroke="black" d="M359.21,-289.98C340.42,-280.02 315.5,-266.8 294.8,-255.82"/>
<polygon fill="black" stroke="black" points="296.53,-252.78 286.05,-251.19 293.25,-258.96 296.53,-252.78"/>
</g>
<!-- :feature:apps&#45;&gt;:domain:model -->
<g id="edge37" class="edge">
<title>:feature:apps&#45;&gt;:domain:model</title>
<path fill="none" stroke="black" d="M390.26,-287.61C393.6,-269.17 400.25,-239.52 411.53,-216 444.13,-148.04 500.97,-79.39 532.61,-43.83"/>
<polygon fill="black" stroke="black" points="534.99,-46.43 539.07,-36.65 529.78,-41.75 534.99,-46.43"/>
</g>
<!-- :feature:apps&#45;&gt;:domain:framework -->
<g id="edge36" class="edge">
<title>:feature:apps&#45;&gt;:domain:framework</title>
<path fill="none" stroke="black" d="M395.76,-287.87C413.4,-253.31 458.53,-175.87 522.53,-144 605.69,-102.59 1227.22,-93.5 1466.25,-91.54"/>
<polygon fill="black" stroke="black" points="1466.2,-95.04 1476.17,-91.46 1466.14,-88.04 1466.2,-95.04"/>
</g>
<!-- :feature:app&#45;settings&#45;&gt;:design&#45;system -->
<g id="edge38" class="edge">
<title>:feature:app&#45;settings&#45;&gt;:design&#45;system</title>
<path fill="none" stroke="black" d="M863.47,-293.16C852.53,-291.27 841.21,-289.46 830.53,-288 651.61,-263.62 439.8,-247.31 329.97,-239.78"/>
<polygon fill="black" stroke="black" points="330.42,-236.31 320.21,-239.12 329.95,-243.29 330.42,-236.31"/>
</g>
<!-- :feature:app&#45;settings&#45;&gt;:domain:repository -->
<g id="edge42" class="edge">
<title>:feature:app&#45;settings&#45;&gt;:domain:repository</title>
<path fill="none" stroke="black" d="M865.82,-292.65C808.04,-280.1 726.7,-261.23 714.53,-252 694.27,-236.64 680.75,-210.73 672.75,-190.81"/>
<polygon fill="black" stroke="black" points="676.08,-189.74 669.29,-181.61 669.53,-192.2 676.08,-189.74"/>
</g>
<!-- :feature:app&#45;settings&#45;&gt;:common -->
<g id="edge39" class="edge">
<title>:feature:app&#45;settings&#45;&gt;:common</title>
<path fill="none" stroke="black" d="M1008.46,-303.47C1140.59,-299.96 1390.31,-288.55 1470.53,-252 1491.7,-242.35 1488.44,-227.73 1508.53,-216 1545.78,-194.24 1592.88,-180.54 1628.37,-172.53"/>
<polygon fill="black" stroke="black" points="1628.94,-175.98 1637.97,-170.45 1627.46,-169.14 1628.94,-175.98"/>
</g>
<!-- :feature:app&#45;settings&#45;&gt;:domain:framework -->
<g id="edge41" class="edge">
<title>:feature:app&#45;settings&#45;&gt;:domain:framework</title>
<path fill="none" stroke="black" d="M930.52,-287.68C943.35,-253.49 977.01,-177.73 1033.53,-144 1104.32,-101.75 1334.77,-92.7 1465.95,-91.06"/>
<polygon fill="black" stroke="black" points="1465.68,-94.56 1475.64,-90.95 1465.6,-87.56 1465.68,-94.56"/>
</g>
<!-- :domain:broadcast&#45;receiver -->
<g id="node26" class="node">
<title>:domain:broadcast&#45;receiver</title>
<ellipse fill="none" stroke="black" cx="2941.53" cy="-18" rx="110.94" ry="18"/>
<text text-anchor="middle" x="2941.53" y="-12.57" font-family="Times New Roman,serif" font-size="14.00">:domain:broadcast&#45;receiver</text>
</g>
<!-- :feature:app&#45;settings&#45;&gt;:domain:broadcast&#45;receiver -->
<g id="edge40" class="edge">
<title>:feature:app&#45;settings&#45;&gt;:domain:broadcast&#45;receiver</title>
<path fill="none" stroke="black" d="M925.4,-287.61C928.19,-252.94 939.94,-175.84 989.53,-144 1170.68,-27.68 1254.17,-91.9 1468.53,-72 1967.91,-25.63 2566,-19.2 2818.97,-18.73"/>
<polygon fill="black" stroke="black" points="2818.88,-22.23 2828.87,-18.71 2818.87,-15.23 2818.88,-22.23"/>
</g>
<!-- :domain:use&#45;case -->
<g id="node27" class="node">
<title>:domain:use&#45;case</title>
<ellipse fill="none" stroke="black" cx="2649.53" cy="-234" rx="74.02" ry="18"/>
<text text-anchor="middle" x="2649.53" y="-228.57" font-family="Times New Roman,serif" font-size="14.00">:domain:use&#45;case</text>
</g>
<!-- :feature:app&#45;settings&#45;&gt;:domain:use&#45;case -->
<g id="edge43" class="edge">
<title>:feature:app&#45;settings&#45;&gt;:domain:use&#45;case</title>
<path fill="none" stroke="black" d="M1009.1,-304.17C1300.3,-301 2260.34,-288.03 2566.53,-252 2572.99,-251.24 2579.69,-250.24 2586.36,-249.09"/>
<polygon fill="black" stroke="black" points="2586.81,-252.57 2596.02,-247.33 2585.55,-245.68 2586.81,-252.57"/>
</g>
<!-- :feature:home&#45;&gt;:design&#45;system -->
<g id="edge48" class="edge">
<title>:feature:home&#45;&gt;:design&#45;system</title>
<path fill="none" stroke="black" d="M223.7,-288.05C228.5,-280.06 234.33,-270.33 239.69,-261.4"/>
<polygon fill="black" stroke="black" points="242.53,-263.46 244.68,-253.09 236.53,-259.86 242.53,-263.46"/>
</g>
<!-- :feature:service&#45;&gt;:design&#45;system -->
<g id="edge49" class="edge">
<title>:feature:service&#45;&gt;:design&#45;system</title>
<path fill="none" stroke="black" d="M2396.15,-304.09C2150.1,-300.46 1256.34,-285.64 520.53,-252 455.96,-249.05 382.62,-244.23 329.5,-240.48"/>
<polygon fill="black" stroke="black" points="329.87,-236.99 319.65,-239.78 329.38,-243.98 329.87,-236.99"/>
</g>
<!-- :feature:service&#45;&gt;:domain:use&#45;case -->
<g id="edge51" class="edge">
<title>:feature:service&#45;&gt;:domain:use&#45;case</title>
<path fill="none" stroke="black" d="M2499.12,-291C2527.98,-280.26 2568.08,-265.33 2599.62,-253.58"/>
<polygon fill="black" stroke="black" points="2600.82,-256.87 2608.97,-250.1 2598.37,-250.31 2600.82,-256.87"/>
</g>
<!-- :domain:foreground&#45;service -->
<g id="node28" class="node">
<title>:domain:foreground&#45;service</title>
<ellipse fill="none" stroke="black" cx="2725.53" cy="-162" rx="112.44" ry="18"/>
<text text-anchor="middle" x="2725.53" y="-156.57" font-family="Times New Roman,serif" font-size="14.00">:domain:foreground&#45;service</text>
</g>
<!-- :feature:service&#45;&gt;:domain:foreground&#45;service -->
<g id="edge50" class="edge">
<title>:feature:service&#45;&gt;:domain:foreground&#45;service</title>
<path fill="none" stroke="black" d="M2516.87,-296.02C2594.12,-283.21 2725.66,-260.34 2732.53,-252 2746.3,-235.27 2742.95,-210.28 2737.06,-191.03"/>
<polygon fill="black" stroke="black" points="2740.39,-189.93 2733.81,-181.62 2733.77,-192.22 2740.39,-189.93"/>
</g>
<!-- :feature:settings&#45;&gt;:design&#45;system -->
<g id="edge52" class="edge">
<title>:feature:settings&#45;&gt;:design&#45;system</title>
<path fill="none" stroke="black" d="M105.58,-290.83C134.85,-279.93 175.5,-264.8 207.1,-253.03"/>
<polygon fill="black" stroke="black" points="208.3,-256.32 216.45,-249.55 205.85,-249.76 208.3,-256.32"/>
</g>
<!-- :feature:settings&#45;&gt;:domain:repository -->
<g id="edge54" class="edge">
<title>:feature:settings&#45;&gt;:domain:repository</title>
<path fill="none" stroke="black" d="M82.85,-288.16C103,-267.25 140.54,-232.35 180.53,-216 249.74,-187.69 454.72,-173.18 574.24,-166.92"/>
<polygon fill="black" stroke="black" points="574.21,-170.43 584.02,-166.42 573.86,-163.44 574.21,-170.43"/>
</g>
<!-- :feature:settings&#45;&gt;:domain:model -->
<g id="edge53" class="edge">
<title>:feature:settings&#45;&gt;:domain:model</title>
<path fill="none" stroke="black" d="M75.27,-287.74C84.23,-268.88 100.26,-238.37 119.53,-216 186.17,-138.64 206.17,-115.53 298.53,-72 356.7,-44.59 428.85,-31.29 481.88,-24.88"/>
<polygon fill="black" stroke="black" points="482.19,-28.37 491.73,-23.75 481.39,-21.41 482.19,-28.37"/>
</g>
<!-- :feature:shizuku&#45;&gt;:design&#45;system -->
<g id="edge55" class="edge">
<title>:feature:shizuku&#45;&gt;:design&#45;system</title>
<path fill="none" stroke="black" d="M482.94,-292.89C435.92,-280.92 363.92,-262.59 313.57,-249.77"/>
<polygon fill="black" stroke="black" points="314.56,-246.41 304,-247.34 312.83,-253.2 314.56,-246.41"/>
</g>
<!-- :feature:shizuku&#45;&gt;:domain:model -->
<g id="edge57" class="edge">
<title>:feature:shizuku&#45;&gt;:domain:model</title>
<path fill="none" stroke="black" d="M518.53,-288.26C512.11,-278.26 504.86,-265.01 501.53,-252 497.57,-236.5 499.4,-231.86 501.53,-216 509.82,-154.37 532.09,-84.73 545.3,-46.98"/>
<polygon fill="black" stroke="black" points="548.53,-48.35 548.58,-37.76 541.93,-46.01 548.53,-48.35"/>
</g>
<!-- :feature:shizuku&#45;&gt;:domain:framework -->
<g id="edge56" class="edge">
<title>:feature:shizuku&#45;&gt;:domain:framework</title>
<path fill="none" stroke="black" d="M520.55,-287.86C511.3,-269.63 500.24,-240.15 509.53,-216 525.01,-175.76 535.62,-162.56 574.53,-144 653.62,-106.27 1235.85,-94.99 1466.15,-91.99"/>
<polygon fill="black" stroke="black" points="1466.04,-95.49 1475.99,-91.86 1465.95,-88.49 1466.04,-95.49"/>
</g>
<!-- :broadcast&#45;receiver&#45;&gt;:common -->
<g id="edge58" class="edge">
<title>:broadcast&#45;receiver&#45;&gt;:common</title>
<path fill="none" stroke="black" d="M2864.27,-288.14C2836.05,-266.86 2783.79,-231.22 2732.53,-216 2637.09,-187.66 1942.75,-169.18 1737.51,-164.3"/>
<polygon fill="black" stroke="black" points="1737.72,-160.8 1727.64,-164.06 1737.55,-167.8 1737.72,-160.8"/>
</g>
<!-- :broadcast&#45;receiver&#45;&gt;:domain:framework -->
<g id="edge61" class="edge">
<title>:broadcast&#45;receiver&#45;&gt;:domain:framework</title>
<path fill="none" stroke="black" d="M2890.08,-287.55C2897.62,-254.14 2908.21,-181.19 2868.53,-144 2824.29,-102.53 1945.23,-93.37 1653.04,-91.47"/>
<polygon fill="black" stroke="black" points="1653.19,-87.97 1643.16,-91.41 1653.14,-94.97 1653.19,-87.97"/>
</g>
<!-- :broadcast&#45;receiver&#45;&gt;:domain:broadcast&#45;receiver -->
<g id="edge59" class="edge">
<title>:broadcast&#45;receiver&#45;&gt;:domain:broadcast&#45;receiver</title>
<path fill="none" stroke="black" d="M2962.64,-299.93C3070.67,-292.03 3256.22,-275.25 3276.53,-252 3365.77,-149.85 3134.12,-70.16 3011.67,-36.48"/>
<polygon fill="black" stroke="black" points="3012.92,-33.19 3002.35,-33.95 3011.08,-39.95 3012.92,-33.19"/>
</g>
<!-- :broadcast&#45;receiver&#45;&gt;:domain:use&#45;case -->
<g id="edge62" class="edge">
<title>:broadcast&#45;receiver&#45;&gt;:domain:use&#45;case</title>
<path fill="none" stroke="black" d="M2838.06,-290.92C2800.04,-279.64 2746.59,-263.79 2706.31,-251.84"/>
<polygon fill="black" stroke="black" points="2707.36,-248.5 2696.78,-249.01 2705.37,-255.21 2707.36,-248.5"/>
</g>
<!-- :broadcast&#45;receiver&#45;&gt;:domain:foreground&#45;service -->
<g id="edge60" class="edge">
<title>:broadcast&#45;receiver&#45;&gt;:domain:foreground&#45;service</title>
<path fill="none" stroke="black" d="M2876.1,-287.89C2864.83,-268.6 2844.46,-237.18 2820.53,-216 2806.48,-203.56 2789.02,-192.79 2772.92,-184.27"/>
<polygon fill="black" stroke="black" points="2774.95,-181.38 2764.46,-179.95 2771.77,-187.62 2774.95,-181.38"/>
</g>
<!-- :foreground&#45;service&#45;&gt;:common -->
<g id="edge63" class="edge">
<title>:foreground&#45;service&#45;&gt;:common</title>
<path fill="none" stroke="black" d="M2599.28,-295.48C2579.1,-292.84 2556.95,-290.13 2536.53,-288 2434.99,-277.43 2171.82,-293.48 2078.53,-252 2057.27,-242.55 2061.46,-226.17 2040.53,-216 2040.1,-215.79 1834.05,-185.53 1733.91,-170.83"/>
<polygon fill="black" stroke="black" points="1734.72,-167.41 1724.32,-169.43 1733.71,-174.34 1734.72,-167.41"/>
</g>
<!-- :foreground&#45;service&#45;&gt;:domain:framework -->
<g id="edge66" class="edge">
<title>:foreground&#45;service&#45;&gt;:domain:framework</title>
<path fill="none" stroke="black" d="M2734.71,-295.14C2764.31,-287.71 2797.52,-274.71 2820.53,-252 2855.67,-217.32 2880.72,-179.62 2846.53,-144 2805.3,-101.04 1941.49,-92.88 1652.66,-91.35"/>
<polygon fill="black" stroke="black" points="1652.92,-87.85 1642.91,-91.3 1652.89,-94.85 1652.92,-87.85"/>
</g>
<!-- :foreground&#45;service&#45;&gt;:domain:broadcast&#45;receiver -->
<g id="edge64" class="edge">
<title>:foreground&#45;service&#45;&gt;:domain:broadcast&#45;receiver</title>
<path fill="none" stroke="black" d="M2742.79,-298.23C2778.57,-291.51 2819.7,-278.21 2848.53,-252 2909.28,-196.76 2930.99,-96.52 2938.22,-47.52"/>
<polygon fill="black" stroke="black" points="2941.67,-48.1 2939.55,-37.72 2934.73,-47.15 2941.67,-48.1"/>
</g>
<!-- :foreground&#45;service&#45;&gt;:domain:use&#45;case -->
<g id="edge67" class="edge">
<title>:foreground&#45;service&#45;&gt;:domain:use&#45;case</title>
<path fill="none" stroke="black" d="M2663.08,-287.7C2661.18,-280.32 2658.92,-271.52 2656.8,-263.25"/>
<polygon fill="black" stroke="black" points="2660.19,-262.38 2654.31,-253.57 2653.41,-264.13 2660.19,-262.38"/>
</g>
<!-- :foreground&#45;service&#45;&gt;:domain:foreground&#45;service -->
<g id="edge65" class="edge">
<title>:foreground&#45;service&#45;&gt;:domain:foreground&#45;service</title>
<path fill="none" stroke="black" d="M2735.14,-295.2C2760.97,-287.8 2787.94,-274.8 2803.53,-252 2812.56,-238.79 2811.02,-230.14 2803.53,-216 2796.82,-203.33 2785.57,-193.12 2773.67,-185.18"/>
<polygon fill="black" stroke="black" points="2775.71,-182.32 2765.36,-180.08 2772.06,-188.29 2775.71,-182.32"/>
</g>
<!-- :framework:asset&#45;manager&#45;&gt;:common -->
<g id="edge68" class="edge">
<title>:framework:asset&#45;manager&#45;&gt;:common</title>
<path fill="none" stroke="black" d="M2114.48,-221.69C2100.82,-219.78 2086.77,-217.82 2073.53,-216 1952.38,-199.32 1810.14,-180.27 1734.41,-170.17"/>
<polygon fill="black" stroke="black" points="1735.16,-166.74 1724.78,-168.89 1734.23,-173.68 1735.16,-166.74"/>
</g>
<!-- :framework:asset&#45;manager&#45;&gt;:domain:framework -->
<g id="edge69" class="edge">
<title>:framework:asset&#45;manager&#45;&gt;:domain:framework</title>
<path fill="none" stroke="black" d="M2131.91,-219C2011.75,-192.13 1749.85,-133.56 1626.42,-105.96"/>
<polygon fill="black" stroke="black" points="1627.28,-102.56 1616.76,-103.8 1625.75,-109.39 1627.28,-102.56"/>
</g>
<!-- :framework:clipboard&#45;manager&#45;&gt;:domain:framework -->
<g id="edge70" class="edge">
<title>:framework:clipboard&#45;manager&#45;&gt;:domain:framework</title>
<path fill="none" stroke="black" d="M1242.77,-147.42C1313.08,-134.9 1416.75,-116.43 1486.14,-104.07"/>
<polygon fill="black" stroke="black" points="1486.68,-107.53 1495.91,-102.33 1485.45,-100.64 1486.68,-107.53"/>
</g>
<!-- :framework:notification&#45;manager&#45;&gt;:common -->
<g id="edge71" class="edge">
<title>:framework:notification&#45;manager&#45;&gt;:common</title>
<path fill="none" stroke="black" d="M3016.44,-227.18C2717.21,-212.81 1951.67,-176.03 1737.16,-165.72"/>
<polygon fill="black" stroke="black" points="1737.56,-162.24 1727.4,-165.25 1737.22,-169.23 1737.56,-162.24"/>
</g>
<!-- :framework:notification&#45;manager&#45;&gt;:domain:framework -->
<g id="edge73" class="edge">
<title>:framework:notification&#45;manager&#45;&gt;:domain:framework</title>
<path fill="none" stroke="black" d="M3105.85,-216.09C3064.07,-194.77 2987.62,-159.06 2917.53,-144 2675.62,-92.01 1918.57,-89.63 1652.85,-90.47"/>
<polygon fill="black" stroke="black" points="1653.21,-86.97 1643.22,-90.51 1653.23,-93.97 1653.21,-86.97"/>
</g>
<!-- :framework:notification&#45;manager&#45;&gt;:domain:broadcast&#45;receiver -->
<g id="edge72" class="edge">
<title>:framework:notification&#45;manager&#45;&gt;:domain:broadcast&#45;receiver</title>
<path fill="none" stroke="black" d="M3121.82,-215.85C3087.49,-178.36 3005.6,-88.95 2965.07,-44.7"/>
<polygon fill="black" stroke="black" points="2967.67,-42.36 2958.34,-37.35 2962.51,-47.09 2967.67,-42.36"/>
</g>
<!-- :framework:package&#45;manager&#45;&gt;:common -->
<g id="edge74" class="edge">
<title>:framework:package&#45;manager&#45;&gt;:common</title>
<path fill="none" stroke="black" d="M2353.22,-221.09C2338.98,-219.27 2324.35,-217.5 2310.53,-216 2099.17,-193.09 1846.99,-174.51 1736.76,-166.82"/>
<polygon fill="black" stroke="black" points="1737.02,-163.33 1726.8,-166.13 1736.53,-170.31 1737.02,-163.33"/>
</g>
<!-- :framework:package&#45;manager&#45;&gt;:domain:framework -->
<g id="edge75" class="edge">
<title>:framework:package&#45;manager&#45;&gt;:domain:framework</title>
<path fill="none" stroke="black" d="M2359.59,-220.12C2253.1,-202.76 2057.53,-170.93 1890.53,-144 1803.22,-129.92 1702.94,-113.88 1635.84,-103.17"/>
<polygon fill="black" stroke="black" points="1636.46,-99.72 1626.04,-101.6 1635.36,-106.64 1636.46,-99.72"/>
</g>
<!-- :framework:secure&#45;settings&#45;&gt;:common -->
<g id="edge76" class="edge">
<title>:framework:secure&#45;settings&#45;&gt;:common</title>
<path fill="none" stroke="black" d="M1211.89,-221.59C1225.78,-219.69 1240.07,-217.77 1253.53,-216 1387.13,-198.48 1544.45,-179.33 1625.74,-169.55"/>
<polygon fill="black" stroke="black" points="1626.15,-173.03 1635.67,-168.36 1625.32,-166.08 1626.15,-173.03"/>
</g>
<!-- :framework:secure&#45;settings&#45;&gt;:domain:framework -->
<g id="edge77" class="edge">
<title>:framework:secure&#45;settings&#45;&gt;:domain:framework</title>
<path fill="none" stroke="black" d="M1180.93,-217.57C1214.58,-207.17 1259.79,-193.03 1299.53,-180 1371.48,-156.41 1454.15,-127.86 1506.59,-109.57"/>
<polygon fill="black" stroke="black" points="1507.6,-112.93 1515.88,-106.33 1505.29,-106.32 1507.6,-112.93"/>
</g>
<!-- :framework:shizuku&#45;&gt;:common -->
<g id="edge78" class="edge">
<title>:framework:shizuku&#45;&gt;:common</title>
<path fill="none" stroke="black" d="M1433.57,-220.24C1489.96,-207.17 1576.82,-187.04 1631.08,-174.46"/>
<polygon fill="black" stroke="black" points="1631.72,-177.91 1640.67,-172.24 1630.14,-171.09 1631.72,-177.91"/>
</g>
<!-- :framework:shizuku&#45;&gt;:domain:framework -->
<g id="edge79" class="edge">
<title>:framework:shizuku&#45;&gt;:domain:framework</title>
<path fill="none" stroke="black" d="M1400,-216.15C1432.12,-190.96 1492.78,-143.37 1529.34,-114.68"/>
<polygon fill="black" stroke="black" points="1531.19,-117.69 1536.89,-108.76 1526.87,-112.18 1531.19,-117.69"/>
</g>
<!-- :framework:shortcut&#45;manager&#45;&gt;:common -->
<g id="edge80" class="edge">
<title>:framework:shortcut&#45;manager&#45;&gt;:common</title>
<path fill="none" stroke="black" d="M1647.41,-215.7C1652.44,-207.7 1658.52,-198.02 1664.09,-189.15"/>
<polygon fill="black" stroke="black" points="1666.92,-191.23 1669.28,-180.9 1660.99,-187.51 1666.92,-191.23"/>
</g>
<!-- :framework:shortcut&#45;manager&#45;&gt;:domain:framework -->
<g id="edge81" class="edge">
<title>:framework:shortcut&#45;manager&#45;&gt;:domain:framework</title>
<path fill="none" stroke="black" d="M1627.09,-215.59C1613.86,-191.18 1589.67,-146.58 1574.11,-117.89"/>
<polygon fill="black" stroke="black" points="1577.37,-116.56 1569.53,-109.44 1571.22,-119.9 1577.37,-116.56"/>
</g>
<!-- :framework:usage&#45;stats&#45;manager&#45;&gt;:common -->
<g id="edge82" class="edge">
<title>:framework:usage&#45;stats&#45;manager&#45;&gt;:common</title>
<path fill="none" stroke="black" d="M1851.88,-217.03C1814.07,-205.11 1762.84,-188.95 1726.27,-177.42"/>
<polygon fill="black" stroke="black" points="1727.46,-174.13 1716.87,-174.46 1725.35,-180.8 1727.46,-174.13"/>
</g>
<!-- :framework:usage&#45;stats&#45;manager&#45;&gt;:domain:framework -->
<g id="edge83" class="edge">
<title>:framework:usage&#45;stats&#45;manager&#45;&gt;:domain:framework</title>
<path fill="none" stroke="black" d="M1874.7,-215.97C1842.2,-196.6 1786.41,-164.98 1735.53,-144 1699.33,-129.07 1657.39,-116.28 1623.53,-107"/>
<polygon fill="black" stroke="black" points="1624.87,-103.74 1614.3,-104.51 1623.05,-110.49 1624.87,-103.74"/>
</g>
<!-- :data:datastore&#45;&gt;:domain:repository -->
<g id="edge28" class="edge">
<title>:data:datastore&#45;&gt;:domain:repository</title>
<path fill="none" stroke="red" stroke-width="2" d="M760.01,-217.46C743.03,-207.88 721,-195.44 702.28,-184.87"/>
<polygon fill="red" stroke="red" stroke-width="2" points="705.33,-182.58 694.9,-180.71 701.89,-188.67 705.33,-182.58"/>
</g>
<!-- :data:datastore&#45;&gt;:domain:model -->
<g id="edge27" class="edge">
<title>:data:datastore&#45;&gt;:domain:model</title>
<path fill="none" stroke="black" d="M784.1,-215.62C779.58,-196.37 770.08,-165.26 752.53,-144 711.68,-94.51 645.94,-58.4 601.76,-38.06"/>
<polygon fill="black" stroke="black" points="603.23,-34.89 592.68,-33.98 600.36,-41.27 603.23,-34.89"/>
</g>
<!-- :data:datastore&#45;&gt;:common -->
<g id="edge26" class="edge">
<title>:data:datastore&#45;&gt;:common</title>
<path fill="none" stroke="black" d="M848.56,-228.22C1013.36,-215.3 1465.64,-179.84 1624.48,-167.39"/>
<polygon fill="black" stroke="black" points="1624.64,-170.89 1634.34,-166.62 1624.09,-163.91 1624.64,-170.89"/>
</g>
<!-- :data:room&#45;&gt;:domain:repository -->
<g id="edge34" class="edge">
<title>:data:room&#45;&gt;:domain:repository</title>
<path fill="none" stroke="black" d="M598.59,-217.12C609.24,-208.24 622.72,-197.01 634.64,-187.08"/>
<polygon fill="black" stroke="black" points="636.77,-189.86 642.21,-180.77 632.29,-184.48 636.77,-189.86"/>
</g>
<!-- :data:room&#45;&gt;:domain:model -->
<g id="edge33" class="edge">
<title>:data:room&#45;&gt;:domain:model</title>
<path fill="none" stroke="black" d="M577.61,-215.85C573.49,-179.14 563.79,-92.66 558.73,-47.53"/>
<polygon fill="black" stroke="black" points="562.22,-47.28 557.63,-37.74 555.27,-48.06 562.22,-47.28"/>
</g>
<!-- :domain:framework&#45;&gt;:domain:model -->
<g id="edge31" class="edge">
<title>:domain:framework&#45;&gt;:domain:model</title>
<path fill="none" stroke="red" stroke-width="2" d="M1482.42,-83.62C1294.4,-70.51 814.29,-37.04 629.54,-24.16"/>
<polygon fill="red" stroke="red" stroke-width="2" points="631.3,-20.77 621.08,-23.57 630.81,-27.76 631.3,-20.77"/>
</g>
<!-- :domain:framework&#45;&gt;:domain:broadcast&#45;receiver -->
<g id="edge32" class="edge">
<title>:domain:framework&#45;&gt;:domain:broadcast&#45;receiver</title>
<path fill="none" stroke="black" d="M1638.8,-84.99C1871.3,-73.21 2552.29,-38.72 2825.83,-24.86"/>
<polygon fill="black" stroke="black" points="2825.65,-28.37 2835.46,-24.37 2825.29,-21.38 2825.65,-28.37"/>
</g>
<!-- :domain:use&#45;case&#45;&gt;:domain:repository -->
<g id="edge47" class="edge">
<title>:domain:use&#45;case&#45;&gt;:domain:repository</title>
<path fill="none" stroke="black" d="M2597.51,-220.87C2587.29,-218.9 2576.62,-217.14 2566.53,-216 2227.93,-177.66 1374.09,-191.82 1033.53,-180 937.26,-176.66 826.95,-171.41 752.01,-167.62"/>
<polygon fill="black" stroke="black" points="752.43,-164.14 742.27,-167.13 752.08,-171.13 752.43,-164.14"/>
</g>
<!-- :domain:use&#45;case&#45;&gt;:domain:model -->
<g id="edge44" class="edge">
<title>:domain:use&#45;case&#45;&gt;:domain:model</title>
<path fill="none" stroke="black" d="M2596.59,-221.01C2514.18,-202.63 2350.06,-167.19 2209.53,-144 1962.38,-103.21 1900.05,-94.07 1650.53,-72 1268.84,-38.24 810.25,-24.8 631.8,-20.6"/>
<polygon fill="black" stroke="black" points="632.04,-17.1 621.96,-20.37 631.88,-24.1 632.04,-17.1"/>
</g>
<!-- :domain:use&#45;case&#45;&gt;:domain:framework -->
<g id="edge46" class="edge">
<title>:domain:use&#45;case&#45;&gt;:domain:framework</title>
<path fill="none" stroke="black" d="M2595.61,-221.36C2585.95,-219.44 2575.96,-217.57 2566.53,-216 2227.06,-159.37 1819.27,-116.38 1645.12,-99.19"/>
<polygon fill="black" stroke="black" points="1645.55,-95.71 1635.25,-98.21 1644.86,-102.68 1645.55,-95.71"/>
</g>
<!-- :domain:use&#45;case&#45;&gt;:domain:foreground&#45;service -->
<g id="edge45" class="edge">
<title>:domain:use&#45;case&#45;&gt;:domain:foreground&#45;service</title>
<path fill="none" stroke="black" d="M2667.54,-216.41C2676.8,-207.88 2688.27,-197.32 2698.56,-187.84"/>
<polygon fill="black" stroke="black" points="2700.76,-190.58 2705.74,-181.23 2696.02,-185.43 2700.76,-190.58"/>
</g>
</g>
</svg>
