<?xml version="1.0" encoding="UTF-8" standalone="no"?>
<!DOCTYPE svg PUBLIC "-//W3C//DTD SVG 1.1//EN"
 "http://www.w3.org/Graphics/SVG/1.1/DTD/svg11.dtd">
<!-- Generated by graphviz version 11.0.0 (20240428.1522)
 -->
<!-- Title: G Pages: 1 -->
<svg width="267pt" height="116pt"
 viewBox="0.00 0.00 266.81 116.00" xmlns="http://www.w3.org/2000/svg" xmlns:xlink="http://www.w3.org/1999/xlink">
<g id="graph0" class="graph" transform="scale(1 1) rotate(0) translate(4 112)">
<title>G</title>
<polygon fill="white" stroke="none" points="-4,4 -4,-112 262.81,-112 262.81,4 -4,4"/>
<!-- :framework:usage&#45;stats&#45;manager -->
<g id="node1" class="node">
<title>:framework:usage&#45;stats&#45;manager</title>
<ellipse fill="none" stroke="black" cx="129.41" cy="-90" rx="129.41" ry="18"/>
<text text-anchor="middle" x="129.41" y="-84.58" font-family="Times New Roman,serif" font-size="14.00">:framework:usage&#45;stats&#45;manager</text>
</g>
<!-- :common -->
<g id="node2" class="node">
<title>:common</title>
<ellipse fill="none" stroke="black" cx="77.41" cy="-18" rx="45.57" ry="18"/>
<text text-anchor="middle" x="77.41" y="-12.57" font-family="Times New Roman,serif" font-size="14.00">:common</text>
</g>
<!-- :framework:usage&#45;stats&#45;manager&#45;&gt;:common -->
<g id="edge1" class="edge">
<title>:framework:usage&#45;stats&#45;manager&#45;&gt;:common</title>
<path fill="none" stroke="red" stroke-width="2" d="M116.55,-71.7C110.48,-63.52 103.11,-53.6 96.41,-44.58"/>
<polygon fill="red" stroke="red" stroke-width="2" points="100.33,-43.99 91.56,-38.05 94.71,-48.17 100.33,-43.99"/>
</g>
<!-- :domain -->
<g id="node3" class="node">
<title>:domain</title>
<ellipse fill="none" stroke="black" cx="181.41" cy="-18" rx="40.09" ry="18"/>
<text text-anchor="middle" x="181.41" y="-12.57" font-family="Times New Roman,serif" font-size="14.00">:domain</text>
</g>
<!-- :framework:usage&#45;stats&#45;manager&#45;&gt;:domain -->
<g id="edge2" class="edge">
<title>:framework:usage&#45;stats&#45;manager&#45;&gt;:domain</title>
<path fill="none" stroke="black" d="M142.26,-71.7C148.33,-63.52 155.7,-53.6 162.4,-44.58"/>
<polygon fill="black" stroke="black" points="165,-46.95 168.16,-36.84 159.38,-42.78 165,-46.95"/>
</g>
</g>
</svg>
