<?xml version="1.0" encoding="UTF-8" standalone="no"?>
<!DOCTYPE svg PUBLIC "-//W3C//DTD SVG 1.1//EN"
 "http://www.w3.org/Graphics/SVG/1.1/DTD/svg11.dtd">
<!-- Generated by graphviz version 11.0.0 (20240428.1522)
 -->
<!-- Title: G Pages: 1 -->
<svg width="3067pt" height="476pt"
 viewBox="0.00 0.00 3066.94 476.00" xmlns="http://www.w3.org/2000/svg" xmlns:xlink="http://www.w3.org/1999/xlink">
<g id="graph0" class="graph" transform="scale(1 1) rotate(0) translate(4 472)">
<title>G</title>
<polygon fill="white" stroke="none" points="-4,4 -4,-472 3062.94,-472 3062.94,4 -4,4"/>
<!-- :app -->
<g id="node1" class="node">
<title>:app</title>
<ellipse fill="none" stroke="black" cx="1274.53" cy="-450" rx="27" ry="18"/>
<text text-anchor="middle" x="1274.53" y="-444.57" font-family="Times New Roman,serif" font-size="14.00">:app</text>
</g>
<!-- :design&#45;system -->
<g id="node2" class="node">
<title>:design&#45;system</title>
<ellipse fill="none" stroke="black" cx="372.53" cy="-234" rx="65.53" ry="18"/>
<text text-anchor="middle" x="372.53" y="-228.57" font-family="Times New Roman,serif" font-size="14.00">:design&#45;system</text>
</g>
<!-- :app&#45;&gt;:design&#45;system -->
<g id="edge1" class="edge">
<title>:app&#45;&gt;:design&#45;system</title>
<path fill="none" stroke="black" d="M1247.22,-448.66C1086.58,-446.52 270.45,-433.8 234.53,-396 217.51,-378.09 235.58,-304.03 248.53,-288 263.83,-269.06 287.16,-256.76 309.47,-248.84"/>
<polygon fill="black" stroke="black" points="310.45,-252.2 318.86,-245.76 308.27,-245.55 310.45,-252.2"/>
</g>
<!-- :data:repository -->
<g id="node3" class="node">
<title>:data:repository</title>
<ellipse fill="none" stroke="black" cx="718.53" cy="-378" rx="68.03" ry="18"/>
<text text-anchor="middle" x="718.53" y="-372.57" font-family="Times New Roman,serif" font-size="14.00">:data:repository</text>
</g>
<!-- :app&#45;&gt;:data:repository -->
<g id="edge2" class="edge">
<title>:app&#45;&gt;:data:repository</title>
<path fill="none" stroke="black" d="M1248.09,-445.67C1166.26,-435.37 915.21,-403.76 790.45,-388.05"/>
<polygon fill="black" stroke="black" points="791,-384.6 780.64,-386.82 790.13,-391.54 791,-384.6"/>
</g>
<!-- :domain:repository -->
<g id="node4" class="node">
<title>:domain:repository</title>
<ellipse fill="none" stroke="black" cx="618.53" cy="-162" rx="80.01" ry="18"/>
<text text-anchor="middle" x="618.53" y="-156.57" font-family="Times New Roman,serif" font-size="14.00">:domain:repository</text>
</g>
<!-- :app&#45;&gt;:domain:repository -->
<g id="edge3" class="edge">
<title>:app&#45;&gt;:domain:repository</title>
<path fill="none" stroke="black" d="M1247.2,-448.67C1085.49,-446.61 259.86,-434.21 223.53,-396 163.93,-333.32 221.16,-256.62 297.53,-216 337.48,-194.75 453.15,-179.34 534.12,-170.78"/>
<polygon fill="black" stroke="black" points="534.21,-174.29 543.8,-169.78 533.49,-167.33 534.21,-174.29"/>
</g>
<!-- :feature:apps -->
<g id="node5" class="node">
<title>:feature:apps</title>
<ellipse fill="none" stroke="black" cx="325.53" cy="-306" rx="57.55" ry="18"/>
<text text-anchor="middle" x="325.53" y="-300.57" font-family="Times New Roman,serif" font-size="14.00">:feature:apps</text>
</g>
<!-- :app&#45;&gt;:feature:apps -->
<g id="edge4" class="edge">
<title>:app&#45;&gt;:feature:apps</title>
<path fill="none" stroke="black" d="M1247.33,-448.09C1132.82,-444.07 689.56,-426.81 553.53,-396 484.85,-380.44 409.55,-347.73 364.98,-326.6"/>
<polygon fill="black" stroke="black" points="366.77,-323.57 356.23,-322.41 363.74,-329.88 366.77,-323.57"/>
</g>
<!-- :feature:app&#45;settings -->
<g id="node6" class="node">
<title>:feature:app&#45;settings</title>
<ellipse fill="none" stroke="black" cx="899.53" cy="-306" rx="84.5" ry="18"/>
<text text-anchor="middle" x="899.53" y="-300.57" font-family="Times New Roman,serif" font-size="14.00">:feature:app&#45;settings</text>
</g>
<!-- :app&#45;&gt;:feature:app&#45;settings -->
<g id="edge5" class="edge">
<title>:app&#45;&gt;:feature:app&#45;settings</title>
<path fill="none" stroke="black" d="M1251.13,-440.6C1222.42,-430.26 1172.3,-412.09 1129.53,-396 1067.2,-372.55 995.71,-344.75 949.2,-326.53"/>
<polygon fill="black" stroke="black" points="950.51,-323.28 939.92,-322.89 947.96,-329.8 950.51,-323.28"/>
</g>
<!-- :feature:home -->
<g id="node7" class="node">
<title>:feature:home</title>
<ellipse fill="none" stroke="black" cx="303.53" cy="-378" rx="60.05" ry="18"/>
<text text-anchor="middle" x="303.53" y="-372.57" font-family="Times New Roman,serif" font-size="14.00">:feature:home</text>
</g>
<!-- :app&#45;&gt;:feature:home -->
<g id="edge6" class="edge">
<title>:app&#45;&gt;:feature:home</title>
<path fill="none" stroke="black" d="M1247.33,-447.41C1146.58,-441.49 785.12,-419.76 487.53,-396 449.03,-392.93 406.05,-388.98 371.32,-385.67"/>
<polygon fill="black" stroke="black" points="371.67,-382.19 361.38,-384.72 371,-389.15 371.67,-382.19"/>
</g>
<!-- :feature:service -->
<g id="node8" class="node">
<title>:feature:service</title>
<ellipse fill="none" stroke="black" cx="1067.53" cy="-306" rx="65.53" ry="18"/>
<text text-anchor="middle" x="1067.53" y="-300.57" font-family="Times New Roman,serif" font-size="14.00">:feature:service</text>
</g>
<!-- :app&#45;&gt;:feature:service -->
<g id="edge7" class="edge">
<title>:app&#45;&gt;:feature:service</title>
<path fill="none" stroke="black" d="M1253.95,-438.19C1234.98,-427.98 1206.26,-411.91 1182.53,-396 1151.94,-375.49 1118.86,-349.45 1096.07,-330.84"/>
<polygon fill="black" stroke="black" points="1098.39,-328.22 1088.44,-324.57 1093.94,-333.63 1098.39,-328.22"/>
</g>
<!-- :feature:settings -->
<g id="node9" class="node">
<title>:feature:settings</title>
<ellipse fill="none" stroke="black" cx="67.53" cy="-306" rx="67.53" ry="18"/>
<text text-anchor="middle" x="67.53" y="-300.57" font-family="Times New Roman,serif" font-size="14.00">:feature:settings</text>
</g>
<!-- :app&#45;&gt;:feature:settings -->
<g id="edge8" class="edge">
<title>:app&#45;&gt;:feature:settings</title>
<path fill="none" stroke="black" d="M1247.1,-448.95C1084.62,-448.48 251.8,-443.73 149.53,-396 121.1,-382.73 97.93,-354.65 83.56,-333.56"/>
<polygon fill="black" stroke="black" points="86.64,-331.87 78.24,-325.42 80.78,-335.7 86.64,-331.87"/>
</g>
<!-- :feature:shizuku -->
<g id="node10" class="node">
<title>:feature:shizuku</title>
<ellipse fill="none" stroke="black" cx="468.53" cy="-306" rx="67.53" ry="18"/>
<text text-anchor="middle" x="468.53" y="-300.57" font-family="Times New Roman,serif" font-size="14.00">:feature:shizuku</text>
</g>
<!-- :app&#45;&gt;:feature:shizuku -->
<g id="edge9" class="edge">
<title>:app&#45;&gt;:feature:shizuku</title>
<path fill="none" stroke="black" d="M1247.42,-448.13C1141.81,-444.55 758.14,-429.45 641.53,-396 589.82,-381.17 535.49,-350.34 501.81,-329.16"/>
<polygon fill="black" stroke="black" points="504.05,-326.44 493.74,-324.01 500.29,-332.34 504.05,-326.44"/>
</g>
<!-- :broadcast&#45;receiver -->
<g id="node11" class="node">
<title>:broadcast&#45;receiver</title>
<ellipse fill="none" stroke="black" cx="1385.53" cy="-306" rx="81.5" ry="18"/>
<text text-anchor="middle" x="1385.53" y="-300.57" font-family="Times New Roman,serif" font-size="14.00">:broadcast&#45;receiver</text>
</g>
<!-- :app&#45;&gt;:broadcast&#45;receiver -->
<g id="edge10" class="edge">
<title>:app&#45;&gt;:broadcast&#45;receiver</title>
<path fill="none" stroke="black" d="M1298.75,-441.39C1319.93,-433.47 1349.82,-418.95 1366.53,-396 1379.19,-378.61 1383.76,-354.53 1385.26,-335.81"/>
<polygon fill="black" stroke="black" points="1388.75,-336.08 1385.78,-325.91 1381.76,-335.72 1388.75,-336.08"/>
</g>
<!-- :foreground&#45;service -->
<g id="node12" class="node">
<title>:foreground&#45;service</title>
<ellipse fill="none" stroke="black" cx="1274.53" cy="-378" rx="83" ry="18"/>
<text text-anchor="middle" x="1274.53" y="-372.57" font-family="Times New Roman,serif" font-size="14.00">:foreground&#45;service</text>
</g>
<!-- :app&#45;&gt;:foreground&#45;service -->
<g id="edge11" class="edge">
<title>:app&#45;&gt;:foreground&#45;service</title>
<path fill="none" stroke="red" stroke-width="2" d="M1274.53,-431.7C1274.53,-424.41 1274.53,-415.73 1274.53,-407.54"/>
<polygon fill="red" stroke="red" stroke-width="2" points="1278.03,-409.13 1274.53,-399.13 1271.03,-409.13 1278.03,-409.13"/>
</g>
<!-- :framework:asset&#45;manager -->
<g id="node13" class="node">
<title>:framework:asset&#45;manager</title>
<ellipse fill="none" stroke="black" cx="1744.53" cy="-306" rx="106.95" ry="18"/>
<text text-anchor="middle" x="1744.53" y="-300.57" font-family="Times New Roman,serif" font-size="14.00">:framework:asset&#45;manager</text>
</g>
<!-- :app&#45;&gt;:framework:asset&#45;manager -->
<g id="edge12" class="edge">
<title>:app&#45;&gt;:framework:asset&#45;manager</title>
<path fill="none" stroke="black" d="M1301.5,-447.64C1393.93,-442.73 1694.02,-424.7 1725.53,-396 1741.98,-381.02 1746.08,-355.6 1746.44,-335.76"/>
<polygon fill="black" stroke="black" points="1749.94,-335.72 1746.29,-325.77 1742.94,-335.83 1749.94,-335.72"/>
</g>
<!-- :framework:clipboard&#45;manager -->
<g id="node14" class="node">
<title>:framework:clipboard&#45;manager</title>
<ellipse fill="none" stroke="black" cx="1436.53" cy="-162" rx="123.92" ry="18"/>
<text text-anchor="middle" x="1436.53" y="-156.57" font-family="Times New Roman,serif" font-size="14.00">:framework:clipboard&#45;manager</text>
</g>
<!-- :app&#45;&gt;:framework:clipboard&#45;manager -->
<g id="edge13" class="edge">
<title>:app&#45;&gt;:framework:clipboard&#45;manager</title>
<path fill="none" stroke="black" d="M1297.45,-440.17C1320.89,-430.7 1357.96,-414.51 1387.53,-396 1409.09,-382.5 1465.57,-346.96 1476.53,-324 1497.69,-279.67 1472.9,-222.95 1454,-190.03"/>
<polygon fill="black" stroke="black" points="1457.05,-188.3 1448.91,-181.52 1451.04,-191.89 1457.05,-188.3"/>
</g>
<!-- :framework:notification&#45;manager -->
<g id="node15" class="node">
<title>:framework:notification&#45;manager</title>
<ellipse fill="none" stroke="black" cx="1586.53" cy="-378" rx="129.91" ry="18"/>
<text text-anchor="middle" x="1586.53" y="-372.57" font-family="Times New Roman,serif" font-size="14.00">:framework:notification&#45;manager</text>
</g>
<!-- :app&#45;&gt;:framework:notification&#45;manager -->
<g id="edge14" class="edge">
<title>:app&#45;&gt;:framework:notification&#45;manager</title>
<path fill="none" stroke="black" d="M1300.06,-443.27C1345.21,-433.14 1440.82,-411.69 1509.16,-396.36"/>
<polygon fill="black" stroke="black" points="1509.84,-399.79 1518.83,-394.19 1508.31,-392.96 1509.84,-399.79"/>
</g>
<!-- :framework:package&#45;manager -->
<g id="node16" class="node">
<title>:framework:package&#45;manager</title>
<ellipse fill="none" stroke="black" cx="1988.53" cy="-306" rx="118.93" ry="18"/>
<text text-anchor="middle" x="1988.53" y="-300.57" font-family="Times New Roman,serif" font-size="14.00">:framework:package&#45;manager</text>
</g>
<!-- :app&#45;&gt;:framework:package&#45;manager -->
<g id="edge15" class="edge">
<title>:app&#45;&gt;:framework:package&#45;manager</title>
<path fill="none" stroke="black" d="M1301.65,-448.27C1374.78,-445.82 1581.77,-435.62 1748.53,-396 1817.87,-379.53 1894.52,-348.77 1942.11,-328.08"/>
<polygon fill="black" stroke="black" points="1943.25,-331.4 1951.01,-324.18 1940.44,-324.99 1943.25,-331.4"/>
</g>
<!-- :framework:secure&#45;settings -->
<g id="node17" class="node">
<title>:framework:secure&#45;settings</title>
<ellipse fill="none" stroke="black" cx="2234.53" cy="-306" rx="109.45" ry="18"/>
<text text-anchor="middle" x="2234.53" y="-300.57" font-family="Times New Roman,serif" font-size="14.00">:framework:secure&#45;settings</text>
</g>
<!-- :app&#45;&gt;:framework:secure&#45;settings -->
<g id="edge16" class="edge">
<title>:app&#45;&gt;:framework:secure&#45;settings</title>
<path fill="none" stroke="black" d="M1301.55,-447.46C1381.13,-442.68 1621.38,-426.59 1818.53,-396 1941.69,-376.89 2083.23,-344.3 2165.41,-324.31"/>
<polygon fill="black" stroke="black" points="2166.01,-327.77 2174.89,-321.99 2164.35,-320.97 2166.01,-327.77"/>
</g>
<!-- :framework:shizuku -->
<g id="node18" class="node">
<title>:framework:shizuku</title>
<ellipse fill="none" stroke="black" cx="2444.53" cy="-306" rx="82.5" ry="18"/>
<text text-anchor="middle" x="2444.53" y="-300.57" font-family="Times New Roman,serif" font-size="14.00">:framework:shizuku</text>
</g>
<!-- :app&#45;&gt;:framework:shizuku -->
<g id="edge17" class="edge">
<title>:app&#45;&gt;:framework:shizuku</title>
<path fill="none" stroke="black" d="M1301.51,-447.62C1390.56,-442.88 1683.18,-425.93 1923.53,-396 2115.38,-372.11 2162.13,-357.57 2352.53,-324 2358.99,-322.86 2365.69,-321.66 2372.41,-320.44"/>
<polygon fill="black" stroke="black" points="2372.99,-323.9 2382.2,-318.66 2371.73,-317.01 2372.99,-323.9"/>
</g>
<!-- :framework:shortcut&#45;manager -->
<g id="node19" class="node">
<title>:framework:shortcut&#45;manager</title>
<ellipse fill="none" stroke="black" cx="2663.53" cy="-306" rx="118.93" ry="18"/>
<text text-anchor="middle" x="2663.53" y="-300.57" font-family="Times New Roman,serif" font-size="14.00">:framework:shortcut&#45;manager</text>
</g>
<!-- :app&#45;&gt;:framework:shortcut&#45;manager -->
<g id="edge18" class="edge">
<title>:app&#45;&gt;:framework:shortcut&#45;manager</title>
<path fill="none" stroke="black" d="M1301.78,-447.9C1401.89,-443.68 1758.77,-427.23 2051.53,-396 2238.73,-376.03 2456.6,-341.66 2575.31,-321.99"/>
<polygon fill="black" stroke="black" points="2575.7,-325.47 2584.99,-320.38 2574.55,-318.57 2575.7,-325.47"/>
</g>
<!-- :framework:usage&#45;stats&#45;manager -->
<g id="node20" class="node">
<title>:framework:usage&#45;stats&#45;manager</title>
<ellipse fill="none" stroke="black" cx="2929.53" cy="-306" rx="129.41" ry="18"/>
<text text-anchor="middle" x="2929.53" y="-300.57" font-family="Times New Roman,serif" font-size="14.00">:framework:usage&#45;stats&#45;manager</text>
</g>
<!-- :app&#45;&gt;:framework:usage&#45;stats&#45;manager -->
<g id="edge19" class="edge">
<title>:app&#45;&gt;:framework:usage&#45;stats&#45;manager</title>
<path fill="none" stroke="black" d="M1301.82,-448.07C1413.35,-444.15 1845.46,-427.64 2199.53,-396 2463.53,-372.41 2528.44,-356.2 2791.53,-324 2802.02,-322.72 2812.96,-321.37 2823.89,-320.03"/>
<polygon fill="black" stroke="black" points="2824.26,-323.51 2833.75,-318.82 2823.4,-316.56 2824.26,-323.51"/>
</g>
<!-- :domain:model -->
<g id="node21" class="node">
<title>:domain:model</title>
<ellipse fill="none" stroke="black" cx="727.53" cy="-18" rx="65.04" ry="18"/>
<text text-anchor="middle" x="727.53" y="-12.57" font-family="Times New Roman,serif" font-size="14.00">:domain:model</text>
</g>
<!-- :design&#45;system&#45;&gt;:domain:model -->
<g id="edge20" class="edge">
<title>:design&#45;system&#45;&gt;:domain:model</title>
<path fill="none" stroke="black" d="M385.96,-215.89C401.08,-197.16 426.91,-166.77 452.53,-144 494,-107.14 504.71,-96.43 554.53,-72 590.16,-54.53 632.75,-41.39 666.76,-32.57"/>
<polygon fill="black" stroke="black" points="667.18,-36.07 676.01,-30.23 665.46,-29.29 667.18,-36.07"/>
</g>
<!-- :data:repository&#45;&gt;:domain:repository -->
<g id="edge25" class="edge">
<title>:data:repository&#45;&gt;:domain:repository</title>
<path fill="none" stroke="black" d="M677.04,-363.58C658.31,-355.27 637.88,-342.56 626.53,-324 601.58,-283.21 606.37,-225.15 612.32,-191.05"/>
<polygon fill="black" stroke="black" points="615.7,-192.01 614.14,-181.53 608.82,-190.7 615.7,-192.01"/>
</g>
<!-- :common -->
<g id="node22" class="node">
<title>:common</title>
<ellipse fill="none" stroke="black" cx="1660.53" cy="-234" rx="45.57" ry="18"/>
<text text-anchor="middle" x="1660.53" y="-228.57" font-family="Times New Roman,serif" font-size="14.00">:common</text>
</g>
<!-- :data:repository&#45;&gt;:common -->
<g id="edge21" class="edge">
<title>:data:repository&#45;&gt;:common</title>
<path fill="none" stroke="black" d="M782.07,-371.22C865.27,-363.16 1015.5,-346.91 1142.53,-324 1210.85,-311.68 1226.33,-300.99 1294.53,-288 1404.54,-267.05 1534.54,-250.05 1606.23,-241.33"/>
<polygon fill="black" stroke="black" points="1606.21,-244.86 1615.72,-240.19 1605.37,-237.91 1606.21,-244.86"/>
</g>
<!-- :data:datastore -->
<g id="node23" class="node">
<title>:data:datastore</title>
<ellipse fill="none" stroke="black" cx="732.53" cy="-306" rx="64.04" ry="18"/>
<text text-anchor="middle" x="732.53" y="-300.57" font-family="Times New Roman,serif" font-size="14.00">:data:datastore</text>
</g>
<!-- :data:repository&#45;&gt;:data:datastore -->
<g id="edge22" class="edge">
<title>:data:repository&#45;&gt;:data:datastore</title>
<path fill="none" stroke="black" d="M721.99,-359.7C723.47,-352.32 725.23,-343.52 726.88,-335.25"/>
<polygon fill="black" stroke="black" points="730.28,-336.08 728.81,-325.59 723.42,-334.71 730.28,-336.08"/>
</g>
<!-- :data:room -->
<g id="node24" class="node">
<title>:data:room</title>
<ellipse fill="none" stroke="black" cx="544.53" cy="-234" rx="50.07" ry="18"/>
<text text-anchor="middle" x="544.53" y="-228.57" font-family="Times New Roman,serif" font-size="14.00">:data:room</text>
</g>
<!-- :data:repository&#45;&gt;:data:room -->
<g id="edge23" class="edge">
<title>:data:repository&#45;&gt;:data:room</title>
<path fill="none" stroke="black" d="M667.81,-365.58C641.6,-357.56 610.57,-344.5 588.53,-324 570.89,-307.59 559.4,-282.56 552.6,-263.23"/>
<polygon fill="black" stroke="black" points="555.94,-262.19 549.51,-253.77 549.28,-264.36 555.94,-262.19"/>
</g>
<!-- :domain:framework -->
<g id="node25" class="node">
<title>:domain:framework</title>
<ellipse fill="none" stroke="black" cx="1284.53" cy="-90" rx="82" ry="18"/>
<text text-anchor="middle" x="1284.53" y="-84.58" font-family="Times New Roman,serif" font-size="14.00">:domain:framework</text>
</g>
<!-- :data:repository&#45;&gt;:domain:framework -->
<g id="edge24" class="edge">
<title>:data:repository&#45;&gt;:domain:framework</title>
<path fill="none" stroke="black" d="M692.27,-361.02C679.87,-351.89 666.32,-339.22 659.53,-324 653.01,-309.39 651.31,-301.73 659.53,-288 729.21,-171.66 799.79,-186.61 928.53,-144 1015.95,-115.06 1120.69,-101.88 1193.85,-95.9"/>
<polygon fill="black" stroke="black" points="1194.1,-99.39 1203.8,-95.12 1193.56,-92.41 1194.1,-99.39"/>
</g>
<!-- :domain:repository&#45;&gt;:domain:model -->
<g id="edge29" class="edge">
<title>:domain:repository&#45;&gt;:domain:model</title>
<path fill="none" stroke="black" d="M631.68,-143.87C650.6,-119.22 685.66,-73.54 707.73,-44.79"/>
<polygon fill="black" stroke="black" points="710.44,-47.01 713.75,-36.95 704.89,-42.75 710.44,-47.01"/>
</g>
<!-- :domain:repository&#45;&gt;:domain:framework -->
<g id="edge30" class="edge">
<title>:domain:repository&#45;&gt;:domain:framework</title>
<path fill="none" stroke="red" stroke-width="2" d="M677.58,-149.52C689.14,-147.5 701.19,-145.55 712.53,-144 882.82,-120.76 1083.05,-104.79 1195.74,-96.84"/>
<polygon fill="red" stroke="red" stroke-width="2" points="1194.28,-100.45 1204.02,-96.26 1193.8,-93.46 1194.28,-100.45"/>
</g>
<!-- :feature:apps&#45;&gt;:design&#45;system -->
<g id="edge34" class="edge">
<title>:feature:apps&#45;&gt;:design&#45;system</title>
<path fill="none" stroke="black" d="M336.91,-288.05C342.33,-279.97 348.95,-270.12 355,-261.11"/>
<polygon fill="black" stroke="black" points="357.75,-263.3 360.41,-253.05 351.93,-259.4 357.75,-263.3"/>
</g>
<!-- :feature:apps&#45;&gt;:domain:framework -->
<g id="edge35" class="edge">
<title>:feature:apps&#45;&gt;:domain:framework</title>
<path fill="none" stroke="black" d="M312.13,-288.26C298.71,-269.32 282.09,-238.21 297.53,-216 350.04,-140.5 401.6,-163.27 491.53,-144 622.87,-115.86 1013.13,-99.87 1192.49,-93.82"/>
<polygon fill="black" stroke="black" points="1192.34,-97.33 1202.22,-93.5 1192.11,-90.33 1192.34,-97.33"/>
</g>
<!-- :feature:app&#45;settings&#45;&gt;:design&#45;system -->
<g id="edge36" class="edge">
<title>:feature:app&#45;settings&#45;&gt;:design&#45;system</title>
<path fill="none" stroke="black" d="M837.94,-293.25C827.16,-291.37 816.03,-289.54 805.53,-288 663.92,-267.25 627.43,-270.65 485.53,-252 470.64,-250.04 454.67,-247.76 439.57,-245.51"/>
<polygon fill="black" stroke="black" points="440.13,-242.05 429.72,-244.03 439.09,-248.97 440.13,-242.05"/>
</g>
<!-- :feature:app&#45;settings&#45;&gt;:domain:repository -->
<g id="edge39" class="edge">
<title>:feature:app&#45;settings&#45;&gt;:domain:repository</title>
<path fill="none" stroke="black" d="M867.84,-288.99C816.9,-263.24 716.79,-212.65 660.15,-184.03"/>
<polygon fill="black" stroke="black" points="661.96,-181.02 651.45,-179.64 658.8,-187.27 661.96,-181.02"/>
</g>
<!-- :feature:app&#45;settings&#45;&gt;:common -->
<g id="edge37" class="edge">
<title>:feature:app&#45;settings&#45;&gt;:common</title>
<path fill="none" stroke="black" d="M959.92,-293.04C970.75,-291.16 981.95,-289.38 992.53,-288 1218.09,-258.51 1488.79,-243.15 1604.09,-237.54"/>
<polygon fill="black" stroke="black" points="1604.08,-241.04 1613.9,-237.07 1603.74,-234.05 1604.08,-241.04"/>
</g>
<!-- :feature:app&#45;settings&#45;&gt;:domain:framework -->
<g id="edge38" class="edge">
<title>:feature:app&#45;settings&#45;&gt;:domain:framework</title>
<path fill="none" stroke="black" d="M900.17,-287.53C901.4,-269.03 905.01,-239.33 915.53,-216 932.31,-178.8 937.41,-164.8 972.53,-144 1009.76,-121.95 1119.28,-106.97 1198.05,-98.71"/>
<polygon fill="black" stroke="black" points="1198.34,-102.2 1207.93,-97.69 1197.62,-95.23 1198.34,-102.2"/>
</g>
<!-- :domain:use&#45;case -->
<g id="node26" class="node">
<title>:domain:use&#45;case</title>
<ellipse fill="none" stroke="black" cx="998.53" cy="-234" rx="74.02" ry="18"/>
<text text-anchor="middle" x="998.53" y="-228.57" font-family="Times New Roman,serif" font-size="14.00">:domain:use&#45;case</text>
</g>
<!-- :feature:app&#45;settings&#45;&gt;:domain:use&#45;case -->
<g id="edge40" class="edge">
<title>:feature:app&#45;settings&#45;&gt;:domain:use&#45;case</title>
<path fill="none" stroke="black" d="M922.99,-288.41C935.81,-279.34 951.9,-267.97 965.92,-258.06"/>
<polygon fill="black" stroke="black" points="967.86,-260.97 974,-252.34 963.82,-255.26 967.86,-260.97"/>
</g>
<!-- :feature:home&#45;&gt;:design&#45;system -->
<g id="edge45" class="edge">
<title>:feature:home&#45;&gt;:design&#45;system</title>
<path fill="none" stroke="black" d="M285.02,-360.72C266.58,-342.46 243.07,-312.23 258.53,-288 270.32,-269.52 290.41,-257.38 310.47,-249.45"/>
<polygon fill="black" stroke="black" points="311.59,-252.77 319.81,-246.09 309.22,-246.18 311.59,-252.77"/>
</g>
<!-- :feature:service&#45;&gt;:design&#45;system -->
<g id="edge46" class="edge">
<title>:feature:service&#45;&gt;:design&#45;system</title>
<path fill="none" stroke="black" d="M1020.53,-293.2C1011.29,-291.2 1001.64,-289.35 992.53,-288 769.06,-254.94 710.06,-276.82 485.53,-252 470.3,-250.32 453.97,-248.1 438.59,-245.83"/>
<polygon fill="black" stroke="black" points="439.5,-242.42 429.09,-244.39 438.46,-249.35 439.5,-242.42"/>
</g>
<!-- :feature:service&#45;&gt;:domain:use&#45;case -->
<g id="edge48" class="edge">
<title>:feature:service&#45;&gt;:domain:use&#45;case</title>
<path fill="none" stroke="black" d="M1051.18,-288.41C1042.79,-279.91 1032.41,-269.37 1023.09,-259.91"/>
<polygon fill="black" stroke="black" points="1025.82,-257.7 1016.31,-253.03 1020.83,-262.61 1025.82,-257.7"/>
</g>
<!-- :domain:foreground&#45;service -->
<g id="node27" class="node">
<title>:domain:foreground&#45;service</title>
<ellipse fill="none" stroke="black" cx="1106.53" cy="-162" rx="112.44" ry="18"/>
<text text-anchor="middle" x="1106.53" y="-156.57" font-family="Times New Roman,serif" font-size="14.00">:domain:foreground&#45;service</text>
</g>
<!-- :feature:service&#45;&gt;:domain:foreground&#45;service -->
<g id="edge47" class="edge">
<title>:feature:service&#45;&gt;:domain:foreground&#45;service</title>
<path fill="none" stroke="black" d="M1072.31,-287.59C1078.93,-263.5 1090.94,-219.75 1098.83,-191.03"/>
<polygon fill="black" stroke="black" points="1102.16,-192.14 1101.43,-181.57 1095.41,-190.29 1102.16,-192.14"/>
</g>
<!-- :feature:settings&#45;&gt;:design&#45;system -->
<g id="edge49" class="edge">
<title>:feature:settings&#45;&gt;:design&#45;system</title>
<path fill="none" stroke="black" d="M117.55,-293.52C170.95,-281.27 255.53,-261.85 312.49,-248.78"/>
<polygon fill="black" stroke="black" points="313.05,-252.24 322.02,-246.59 311.49,-245.42 313.05,-252.24"/>
</g>
<!-- :feature:settings&#45;&gt;:domain:repository -->
<g id="edge50" class="edge">
<title>:feature:settings&#45;&gt;:domain:repository</title>
<path fill="none" stroke="black" d="M77.81,-287.82C91.37,-266.9 117.3,-232.35 149.53,-216 213.71,-183.44 410.62,-170.61 527.9,-165.76"/>
<polygon fill="black" stroke="black" points="527.98,-169.26 537.83,-165.37 527.7,-162.27 527.98,-169.26"/>
</g>
<!-- :feature:shizuku&#45;&gt;:design&#45;system -->
<g id="edge51" class="edge">
<title>:feature:shizuku&#45;&gt;:design&#45;system</title>
<path fill="none" stroke="black" d="M446.27,-288.76C433.75,-279.64 417.93,-268.1 404.15,-258.06"/>
<polygon fill="black" stroke="black" points="406.37,-255.35 396.23,-252.28 402.25,-261 406.37,-255.35"/>
</g>
<!-- :feature:shizuku&#45;&gt;:domain:framework -->
<g id="edge52" class="edge">
<title>:feature:shizuku&#45;&gt;:domain:framework</title>
<path fill="none" stroke="black" d="M468.76,-287.63C470.31,-252.64 479.47,-174.43 529.53,-144 584.86,-110.37 1002.53,-97.11 1191.8,-92.79"/>
<polygon fill="black" stroke="black" points="1191.68,-96.29 1201.6,-92.57 1191.52,-89.29 1191.68,-96.29"/>
</g>
<!-- :broadcast&#45;receiver&#45;&gt;:common -->
<g id="edge53" class="edge">
<title>:broadcast&#45;receiver&#45;&gt;:common</title>
<path fill="none" stroke="black" d="M1437.58,-291.75C1487.71,-278.99 1562.94,-259.84 1611.89,-247.38"/>
<polygon fill="black" stroke="black" points="1612.53,-250.83 1621.36,-244.97 1610.8,-244.05 1612.53,-250.83"/>
</g>
<!-- :broadcast&#45;receiver&#45;&gt;:domain:framework -->
<g id="edge55" class="edge">
<title>:broadcast&#45;receiver&#45;&gt;:domain:framework</title>
<path fill="none" stroke="black" d="M1373.95,-288.11C1352.51,-256.73 1308.35,-191.56 1303.53,-180 1295.47,-160.69 1290.66,-137.54 1287.9,-119.69"/>
<polygon fill="black" stroke="black" points="1291.37,-119.21 1286.51,-109.79 1284.44,-120.18 1291.37,-119.21"/>
</g>
<!-- :broadcast&#45;receiver&#45;&gt;:domain:use&#45;case -->
<g id="edge56" class="edge">
<title>:broadcast&#45;receiver&#45;&gt;:domain:use&#45;case</title>
<path fill="none" stroke="red" stroke-width="2" d="M1323.78,-293.83C1254,-281.21 1140.68,-260.71 1067.9,-247.55"/>
<polygon fill="red" stroke="red" stroke-width="2" points="1070.02,-244.37 1059.56,-246.04 1068.78,-251.26 1070.02,-244.37"/>
</g>
<!-- :broadcast&#45;receiver&#45;&gt;:domain:foreground&#45;service -->
<g id="edge54" class="edge">
<title>:broadcast&#45;receiver&#45;&gt;:domain:foreground&#45;service</title>
<path fill="none" stroke="black" d="M1371.69,-288.06C1354.46,-268.03 1323.16,-235.02 1289.53,-216 1259.14,-198.81 1222.69,-186.78 1190.35,-178.59"/>
<polygon fill="black" stroke="black" points="1191.57,-175.28 1181.03,-176.31 1189.91,-182.08 1191.57,-175.28"/>
</g>
<!-- :foreground&#45;service&#45;&gt;:broadcast&#45;receiver -->
<g id="edge57" class="edge">
<title>:foreground&#45;service&#45;&gt;:broadcast&#45;receiver</title>
<path fill="none" stroke="red" stroke-width="2" d="M1300.56,-360.59C1315.31,-351.28 1333.97,-339.51 1350.05,-329.37"/>
<polygon fill="red" stroke="red" stroke-width="2" points="1350.52,-333.22 1357.11,-324.92 1346.78,-327.3 1350.52,-333.22"/>
</g>
<!-- :foreground&#45;service&#45;&gt;:common -->
<g id="edge58" class="edge">
<title>:foreground&#45;service&#45;&gt;:common</title>
<path fill="none" stroke="black" d="M1332.92,-364.84C1373.76,-355.57 1429.25,-341.45 1476.53,-324 1529.86,-304.32 1588.49,-274.42 1624.91,-254.8"/>
<polygon fill="black" stroke="black" points="1626.57,-257.88 1633.69,-250.03 1623.23,-251.73 1626.57,-257.88"/>
</g>
<!-- :foreground&#45;service&#45;&gt;:domain:framework -->
<g id="edge60" class="edge">
<title>:foreground&#45;service&#45;&gt;:domain:framework</title>
<path fill="none" stroke="black" d="M1275.14,-359.54C1276.81,-311.76 1281.47,-178.51 1283.53,-119.61"/>
<polygon fill="black" stroke="black" points="1287.02,-119.86 1283.88,-109.74 1280.03,-119.62 1287.02,-119.86"/>
</g>
<!-- :foreground&#45;service&#45;&gt;:domain:use&#45;case -->
<g id="edge61" class="edge">
<title>:foreground&#45;service&#45;&gt;:domain:use&#45;case</title>
<path fill="none" stroke="black" d="M1253.11,-360.18C1227.8,-340.87 1183.87,-309.15 1142.53,-288 1114.6,-273.71 1081.89,-261.35 1054.71,-252.17"/>
<polygon fill="black" stroke="black" points="1055.85,-248.86 1045.26,-249.04 1053.65,-255.5 1055.85,-248.86"/>
</g>
<!-- :foreground&#45;service&#45;&gt;:domain:foreground&#45;service -->
<g id="edge59" class="edge">
<title>:foreground&#45;service&#45;&gt;:domain:foreground&#45;service</title>
<path fill="none" stroke="black" d="M1261.07,-359.85C1231.76,-322.52 1162.03,-233.69 1127.15,-189.26"/>
<polygon fill="black" stroke="black" points="1129.92,-187.13 1120.99,-181.42 1124.42,-191.45 1129.92,-187.13"/>
</g>
<!-- :framework:asset&#45;manager&#45;&gt;:common -->
<g id="edge62" class="edge">
<title>:framework:asset&#45;manager&#45;&gt;:common</title>
<path fill="none" stroke="black" d="M1724.2,-288.05C1713.36,-279.03 1699.88,-267.79 1688.12,-257.99"/>
<polygon fill="black" stroke="black" points="1690.61,-255.51 1680.69,-251.8 1686.13,-260.89 1690.61,-255.51"/>
</g>
<!-- :framework:asset&#45;manager&#45;&gt;:domain:framework -->
<g id="edge63" class="edge">
<title>:framework:asset&#45;manager&#45;&gt;:domain:framework</title>
<path fill="none" stroke="black" d="M1742.42,-287.64C1739.34,-268.42 1732.05,-237.32 1715.53,-216 1679.05,-168.93 1658.13,-165.32 1602.53,-144 1528.83,-115.73 1439.82,-102.53 1374.74,-96.36"/>
<polygon fill="black" stroke="black" points="1375.07,-92.88 1364.79,-95.47 1374.44,-99.85 1375.07,-92.88"/>
</g>
<!-- :framework:clipboard&#45;manager&#45;&gt;:domain:framework -->
<g id="edge64" class="edge">
<title>:framework:clipboard&#45;manager&#45;&gt;:domain:framework</title>
<path fill="none" stroke="black" d="M1400.51,-144.41C1379.14,-134.57 1351.87,-122.01 1329.14,-111.54"/>
<polygon fill="black" stroke="black" points="1330.65,-108.39 1320.1,-107.38 1327.72,-114.74 1330.65,-108.39"/>
</g>
<!-- :framework:notification&#45;manager&#45;&gt;:broadcast&#45;receiver -->
<g id="edge65" class="edge">
<title>:framework:notification&#45;manager&#45;&gt;:broadcast&#45;receiver</title>
<path fill="none" stroke="black" d="M1539.91,-360.76C1509.62,-350.22 1470.06,-336.44 1438.56,-325.47"/>
<polygon fill="black" stroke="black" points="1439.81,-322.2 1429.22,-322.21 1437.51,-328.81 1439.81,-322.2"/>
</g>
<!-- :framework:notification&#45;manager&#45;&gt;:common -->
<g id="edge66" class="edge">
<title>:framework:notification&#45;manager&#45;&gt;:common</title>
<path fill="none" stroke="black" d="M1594.07,-359.68C1602.11,-341.56 1615.45,-312.39 1628.53,-288 1633.22,-279.24 1638.7,-269.9 1643.78,-261.54"/>
<polygon fill="black" stroke="black" points="1646.64,-263.57 1648.91,-253.22 1640.68,-259.89 1646.64,-263.57"/>
</g>
<!-- :framework:notification&#45;manager&#45;&gt;:domain:framework -->
<g id="edge67" class="edge">
<title>:framework:notification&#45;manager&#45;&gt;:domain:framework</title>
<path fill="none" stroke="black" d="M1591.54,-359.7C1602.74,-317.01 1624.7,-205.66 1569.53,-144 1544.04,-115.5 1448.4,-102.16 1374.87,-96.03"/>
<polygon fill="black" stroke="black" points="1375.49,-92.57 1365.24,-95.26 1374.93,-99.54 1375.49,-92.57"/>
</g>
<!-- :framework:package&#45;manager&#45;&gt;:common -->
<g id="edge68" class="edge">
<title>:framework:package&#45;manager&#45;&gt;:common</title>
<path fill="none" stroke="black" d="M1921.76,-290.75C1859.38,-277.44 1767.61,-257.85 1711.09,-245.79"/>
<polygon fill="black" stroke="black" points="1711.93,-242.39 1701.41,-243.73 1710.46,-249.24 1711.93,-242.39"/>
</g>
<!-- :framework:package&#45;manager&#45;&gt;:domain:framework -->
<g id="edge69" class="edge">
<title>:framework:package&#45;manager&#45;&gt;:domain:framework</title>
<path fill="none" stroke="black" d="M1961.13,-288.16C1905.55,-254.85 1774.61,-180.58 1654.53,-144 1561.54,-115.67 1450.67,-102.35 1374.7,-96.17"/>
<polygon fill="black" stroke="black" points="1375.04,-92.68 1364.79,-95.39 1374.49,-99.66 1375.04,-92.68"/>
</g>
<!-- :framework:secure&#45;settings&#45;&gt;:common -->
<g id="edge70" class="edge">
<title>:framework:secure&#45;settings&#45;&gt;:common</title>
<path fill="none" stroke="black" d="M2155.23,-293.27C2142.3,-291.45 2129.05,-289.63 2116.53,-288 1972.02,-269.2 1801.32,-250.22 1715.56,-240.9"/>
<polygon fill="black" stroke="black" points="1716.1,-237.44 1705.79,-239.84 1715.35,-244.4 1716.1,-237.44"/>
</g>
<!-- :framework:secure&#45;settings&#45;&gt;:domain:framework -->
<g id="edge71" class="edge">
<title>:framework:secure&#45;settings&#45;&gt;:domain:framework</title>
<path fill="none" stroke="black" d="M2192.16,-289.01C2104.5,-256.58 1896.31,-182.83 1715.53,-144 1598.49,-118.86 1460.82,-104.52 1373.14,-97.25"/>
<polygon fill="black" stroke="black" points="1373.67,-93.78 1363.42,-96.46 1373.1,-100.76 1373.67,-93.78"/>
</g>
<!-- :framework:shizuku&#45;&gt;:common -->
<g id="edge72" class="edge">
<title>:framework:shizuku&#45;&gt;:common</title>
<path fill="none" stroke="black" d="M2385.29,-293.1C2374.43,-291.19 2363.16,-289.39 2352.53,-288 2117.8,-257.41 1835.81,-242.56 1717.33,-237.3"/>
<polygon fill="black" stroke="black" points="1717.7,-233.82 1707.56,-236.88 1717.39,-240.81 1717.7,-233.82"/>
</g>
<!-- :framework:shizuku&#45;&gt;:domain:framework -->
<g id="edge73" class="edge">
<title>:framework:shizuku&#45;&gt;:domain:framework</title>
<path fill="none" stroke="black" d="M2397.46,-290.88C2291.28,-259.57 2024.61,-183.94 1796.53,-144 1649.54,-118.26 1476.46,-103.55 1373.87,-96.43"/>
<polygon fill="black" stroke="black" points="1374.36,-92.96 1364.14,-95.77 1373.88,-99.94 1374.36,-92.96"/>
</g>
<!-- :framework:shortcut&#45;manager&#45;&gt;:common -->
<g id="edge74" class="edge">
<title>:framework:shortcut&#45;manager&#45;&gt;:common</title>
<path fill="none" stroke="black" d="M2579.6,-292.89C2565.25,-291.07 2550.48,-289.35 2536.53,-288 2227.88,-258.05 1856.31,-242.22 1716.95,-236.99"/>
<polygon fill="black" stroke="black" points="1717.39,-233.51 1707.27,-236.63 1717.13,-240.5 1717.39,-233.51"/>
</g>
<!-- :framework:shortcut&#45;manager&#45;&gt;:domain:framework -->
<g id="edge75" class="edge">
<title>:framework:shortcut&#45;manager&#45;&gt;:domain:framework</title>
<path fill="none" stroke="black" d="M2604.06,-290.03C2475.37,-258.19 2161.05,-183.46 1893.53,-144 1710.45,-116.99 1494.22,-102.19 1374.95,-95.49"/>
<polygon fill="black" stroke="black" points="1375.4,-92.01 1365.23,-94.95 1375.02,-99 1375.4,-92.01"/>
</g>
<!-- :framework:usage&#45;stats&#45;manager&#45;&gt;:common -->
<g id="edge76" class="edge">
<title>:framework:usage&#45;stats&#45;manager&#45;&gt;:common</title>
<path fill="none" stroke="black" d="M2838.7,-292.82C2822.99,-291 2806.8,-289.3 2791.53,-288 2380.53,-253.11 1883.41,-239.81 1717.5,-236.14"/>
<polygon fill="black" stroke="black" points="1717.72,-232.65 1707.65,-235.93 1717.57,-239.65 1717.72,-232.65"/>
</g>
<!-- :framework:usage&#45;stats&#45;manager&#45;&gt;:domain:framework -->
<g id="edge77" class="edge">
<title>:framework:usage&#45;stats&#45;manager&#45;&gt;:domain:framework</title>
<path fill="none" stroke="black" d="M2859.76,-290.4C2706.12,-258.79 2326.72,-183.69 2005.53,-144 1780.03,-116.14 1512.9,-101.18 1375.79,-94.8"/>
<polygon fill="black" stroke="black" points="1376.2,-91.32 1366.05,-94.36 1375.88,-98.31 1376.2,-91.32"/>
</g>
<!-- :data:datastore&#45;&gt;:domain:repository -->
<g id="edge28" class="edge">
<title>:data:datastore&#45;&gt;:domain:repository</title>
<path fill="none" stroke="black" d="M719.01,-288.15C699.21,-263.49 662.18,-217.37 639.03,-188.53"/>
<polygon fill="black" stroke="black" points="641.98,-186.61 632.99,-181.01 636.52,-190.99 641.98,-186.61"/>
</g>
<!-- :data:datastore&#45;&gt;:domain:model -->
<g id="edge27" class="edge">
<title>:data:datastore&#45;&gt;:domain:model</title>
<path fill="none" stroke="black" d="M732.23,-287.54C731.39,-239.76 729.06,-106.51 728.03,-47.61"/>
<polygon fill="black" stroke="black" points="731.53,-47.68 727.86,-37.74 724.53,-47.8 731.53,-47.68"/>
</g>
<!-- :data:datastore&#45;&gt;:common -->
<g id="edge26" class="edge">
<title>:data:datastore&#45;&gt;:common</title>
<path fill="none" stroke="black" d="M778.5,-293.21C787.73,-291.19 797.4,-289.32 806.53,-288 1104.37,-244.84 1465.65,-236.8 1603.43,-235.32"/>
<polygon fill="black" stroke="black" points="1603.42,-238.82 1613.38,-235.22 1603.35,-231.82 1603.42,-238.82"/>
</g>
<!-- :data:room&#45;&gt;:domain:repository -->
<g id="edge33" class="edge">
<title>:data:room&#45;&gt;:domain:repository</title>
<path fill="none" stroke="black" d="M561.69,-216.76C570.83,-208.12 582.27,-197.3 592.48,-187.65"/>
<polygon fill="black" stroke="black" points="594.73,-190.33 599.59,-180.92 589.92,-185.25 594.73,-190.33"/>
</g>
<!-- :data:room&#45;&gt;:domain:model -->
<g id="edge32" class="edge">
<title>:data:room&#45;&gt;:domain:model</title>
<path fill="none" stroke="black" d="M535.46,-215.84C526.89,-197.07 517.05,-166.64 529.53,-144 560.12,-88.51 626.85,-54.26 674.38,-35.95"/>
<polygon fill="black" stroke="black" points="675.54,-39.25 683.7,-32.48 673.1,-32.69 675.54,-39.25"/>
</g>
<!-- :domain:framework&#45;&gt;:domain:model -->
<g id="edge31" class="edge">
<title>:domain:framework&#45;&gt;:domain:model</title>
<path fill="none" stroke="red" stroke-width="2" d="M1214.55,-80.21C1107.42,-66.74 903.98,-41.18 797.1,-27.74"/>
<polygon fill="red" stroke="red" stroke-width="2" points="799.17,-24.48 788.82,-26.7 798.3,-31.42 799.17,-24.48"/>
</g>
<!-- :domain:use&#45;case&#45;&gt;:domain:repository -->
<g id="edge44" class="edge">
<title>:domain:use&#45;case&#45;&gt;:domain:repository</title>
<path fill="none" stroke="red" stroke-width="2" d="M940.82,-222.37C873.71,-210.01 762.9,-189.59 690.3,-176.22"/>
<polygon fill="red" stroke="red" stroke-width="2" points="692.44,-173.06 681.97,-174.69 691.17,-179.94 692.44,-173.06"/>
</g>
<!-- :domain:use&#45;case&#45;&gt;:domain:model -->
<g id="edge41" class="edge">
<title>:domain:use&#45;case&#45;&gt;:domain:model</title>
<path fill="none" stroke="black" d="M977.72,-216.56C930.03,-178.91 812.74,-86.29 757.38,-42.57"/>
<polygon fill="black" stroke="black" points="759.62,-39.88 749.6,-36.43 755.28,-45.38 759.62,-39.88"/>
</g>
<!-- :domain:use&#45;case&#45;&gt;:domain:framework -->
<g id="edge43" class="edge">
<title>:domain:use&#45;case&#45;&gt;:domain:framework</title>
<path fill="none" stroke="black" d="M989,-215.81C979.54,-196.15 968.68,-164.1 985.53,-144 1011.68,-112.81 1115.06,-99.96 1192.99,-94.68"/>
<polygon fill="black" stroke="black" points="1193.03,-98.18 1202.78,-94.05 1192.58,-91.2 1193.03,-98.18"/>
</g>
<!-- :domain:use&#45;case&#45;&gt;:domain:foreground&#45;service -->
<g id="edge42" class="edge">
<title>:domain:use&#45;case&#45;&gt;:domain:foreground&#45;service</title>
<path fill="none" stroke="black" d="M1023.58,-216.76C1037.72,-207.6 1055.62,-196 1071.17,-185.92"/>
<polygon fill="black" stroke="black" points="1072.73,-189.08 1079.22,-180.7 1068.92,-183.2 1072.73,-189.08"/>
</g>
</g>
</svg>
