<?xml version="1.0" encoding="UTF-8" standalone="no"?>
<!DOCTYPE svg PUBLIC "-//W3C//DTD SVG 1.1//EN"
 "http://www.w3.org/Graphics/SVG/1.1/DTD/svg11.dtd">
<!-- Generated by graphviz version 11.0.0 (20240428.1522)
 -->
<!-- Title: G Pages: 1 -->
<svg width="739pt" height="404pt"
 viewBox="0.00 0.00 739.49 404.00" xmlns="http://www.w3.org/2000/svg" xmlns:xlink="http://www.w3.org/1999/xlink">
<g id="graph0" class="graph" transform="scale(1 1) rotate(0) translate(4 400)">
<title>G</title>
<polygon fill="white" stroke="none" points="-4,4 -4,-400 735.49,-400 735.49,4 -4,4"/>
<!-- :foreground&#45;service -->
<g id="node1" class="node">
<title>:foreground&#45;service</title>
<ellipse fill="none" stroke="black" cx="403.02" cy="-378" rx="83" ry="18"/>
<text text-anchor="middle" x="403.02" y="-372.57" font-family="Times New Roman,serif" font-size="14.00">:foreground&#45;service</text>
</g>
<!-- :broadcast&#45;receiver -->
<g id="node2" class="node">
<title>:broadcast&#45;receiver</title>
<ellipse fill="none" stroke="black" cx="348.02" cy="-306" rx="81.5" ry="18"/>
<text text-anchor="middle" x="348.02" y="-300.57" font-family="Times New Roman,serif" font-size="14.00">:broadcast&#45;receiver</text>
</g>
<!-- :foreground&#45;service&#45;&gt;:broadcast&#45;receiver -->
<g id="edge1" class="edge">
<title>:foreground&#45;service&#45;&gt;:broadcast&#45;receiver</title>
<path fill="none" stroke="red" stroke-width="2" d="M389.7,-360.05C383.28,-351.89 375.45,-341.91 368.31,-332.82"/>
<polygon fill="red" stroke="red" stroke-width="2" points="372.01,-331.87 363.08,-326.17 366.5,-336.19 372.01,-331.87"/>
</g>
<!-- :common -->
<g id="node3" class="node">
<title>:common</title>
<ellipse fill="none" stroke="black" cx="237.02" cy="-234" rx="45.57" ry="18"/>
<text text-anchor="middle" x="237.02" y="-228.57" font-family="Times New Roman,serif" font-size="14.00">:common</text>
</g>
<!-- :foreground&#45;service&#45;&gt;:common -->
<g id="edge2" class="edge">
<title>:foreground&#45;service&#45;&gt;:common</title>
<path fill="none" stroke="black" d="M335.72,-367.17C307.68,-359.76 277.06,-346.77 257.02,-324 242.53,-307.54 237.86,-282.85 236.63,-263.64"/>
<polygon fill="black" stroke="black" points="240.13,-263.63 236.3,-253.75 233.13,-263.86 240.13,-263.63"/>
</g>
<!-- :domain:common -->
<g id="node4" class="node">
<title>:domain:common</title>
<ellipse fill="none" stroke="black" cx="75.02" cy="-162" rx="75.02" ry="18"/>
<text text-anchor="middle" x="75.02" y="-156.57" font-family="Times New Roman,serif" font-size="14.00">:domain:common</text>
</g>
<!-- :foreground&#45;service&#45;&gt;:domain:common -->
<g id="edge3" class="edge">
<title>:foreground&#45;service&#45;&gt;:domain:common</title>
<path fill="none" stroke="black" d="M342.89,-365.28C309.73,-357.06 268.76,-343.91 236.02,-324 176.02,-287.52 121.77,-224.15 94.18,-188.77"/>
<polygon fill="black" stroke="black" points="97.22,-186.99 88.36,-181.2 91.67,-191.26 97.22,-186.99"/>
</g>
<!-- :domain:foreground&#45;service -->
<g id="node5" class="node">
<title>:domain:foreground&#45;service</title>
<ellipse fill="none" stroke="black" cx="591.02" cy="-162" rx="112.44" ry="18"/>
<text text-anchor="middle" x="591.02" y="-156.57" font-family="Times New Roman,serif" font-size="14.00">:domain:foreground&#45;service</text>
</g>
<!-- :foreground&#45;service&#45;&gt;:domain:foreground&#45;service -->
<g id="edge4" class="edge">
<title>:foreground&#45;service&#45;&gt;:domain:foreground&#45;service</title>
<path fill="none" stroke="black" d="M433.49,-360.83C469.52,-340.21 528.87,-301.25 563.02,-252 575.51,-233.98 582.62,-210.14 586.54,-191.66"/>
<polygon fill="black" stroke="black" points="589.97,-192.38 588.41,-181.9 583.09,-191.07 589.97,-192.38"/>
</g>
<!-- :domain:framework -->
<g id="node6" class="node">
<title>:domain:framework</title>
<ellipse fill="none" stroke="black" cx="341.02" cy="-90" rx="82" ry="18"/>
<text text-anchor="middle" x="341.02" y="-84.58" font-family="Times New Roman,serif" font-size="14.00">:domain:framework</text>
</g>
<!-- :foreground&#45;service&#45;&gt;:domain:framework -->
<g id="edge5" class="edge">
<title>:foreground&#45;service&#45;&gt;:domain:framework</title>
<path fill="none" stroke="black" d="M452.73,-363.24C560.74,-331.05 800.28,-245.77 712.02,-144 676.8,-103.4 532.53,-93.13 434.62,-90.95"/>
<polygon fill="black" stroke="black" points="434.8,-87.45 424.73,-90.76 434.66,-94.45 434.8,-87.45"/>
</g>
<!-- :domain:use&#45;case -->
<g id="node7" class="node">
<title>:domain:use&#45;case</title>
<ellipse fill="none" stroke="black" cx="451.02" cy="-234" rx="74.02" ry="18"/>
<text text-anchor="middle" x="451.02" y="-228.57" font-family="Times New Roman,serif" font-size="14.00">:domain:use&#45;case</text>
</g>
<!-- :foreground&#45;service&#45;&gt;:domain:use&#45;case -->
<g id="edge6" class="edge">
<title>:foreground&#45;service&#45;&gt;:domain:use&#45;case</title>
<path fill="none" stroke="black" d="M417.56,-360.01C425.21,-350.13 434.01,-337.09 439.02,-324 446.39,-304.71 449.35,-281.56 450.48,-263.71"/>
<polygon fill="black" stroke="black" points="453.98,-263.97 450.94,-253.82 446.98,-263.65 453.98,-263.97"/>
</g>
<!-- :broadcast&#45;receiver&#45;&gt;:common -->
<g id="edge7" class="edge">
<title>:broadcast&#45;receiver&#45;&gt;:common</title>
<path fill="none" stroke="black" d="M321.99,-288.59C306.46,-278.79 286.58,-266.26 269.96,-255.78"/>
<polygon fill="black" stroke="black" points="272.21,-253.06 261.89,-250.69 268.48,-258.98 272.21,-253.06"/>
</g>
<!-- :broadcast&#45;receiver&#45;&gt;:domain:common -->
<g id="edge8" class="edge">
<title>:broadcast&#45;receiver&#45;&gt;:domain:common</title>
<path fill="none" stroke="black" d="M341.83,-287.76C333.63,-267.44 317.2,-234.14 292.02,-216 279.69,-207.12 201.19,-189.26 142.12,-176.74"/>
<polygon fill="black" stroke="black" points="142.96,-173.34 132.45,-174.7 141.51,-180.19 142.96,-173.34"/>
</g>
<!-- :broadcast&#45;receiver&#45;&gt;:domain:foreground&#45;service -->
<g id="edge9" class="edge">
<title>:broadcast&#45;receiver&#45;&gt;:domain:foreground&#45;service</title>
<path fill="none" stroke="black" d="M419.17,-296.99C456.28,-289.95 500.74,-276.74 534.02,-252 555.01,-236.39 570.3,-210.56 579.73,-190.73"/>
<polygon fill="black" stroke="black" points="582.83,-192.37 583.74,-181.82 576.44,-189.5 582.83,-192.37"/>
</g>
<!-- :broadcast&#45;receiver&#45;&gt;:domain:framework -->
<g id="edge10" class="edge">
<title>:broadcast&#45;receiver&#45;&gt;:domain:framework</title>
<path fill="none" stroke="black" d="M347.45,-287.85C346.25,-251.14 343.43,-164.66 341.95,-119.53"/>
<polygon fill="black" stroke="black" points="345.45,-119.63 341.63,-109.75 338.46,-119.85 345.45,-119.63"/>
</g>
<!-- :broadcast&#45;receiver&#45;&gt;:domain:use&#45;case -->
<g id="edge11" class="edge">
<title>:broadcast&#45;receiver&#45;&gt;:domain:use&#45;case</title>
<path fill="none" stroke="red" stroke-width="2" d="M372.43,-288.41C385.89,-279.26 402.82,-267.76 417.51,-257.77"/>
<polygon fill="red" stroke="red" stroke-width="2" points="417.97,-261.69 424.28,-253.17 414.04,-255.9 417.97,-261.69"/>
</g>
<!-- :common&#45;&gt;:domain:common -->
<g id="edge12" class="edge">
<title>:common&#45;&gt;:domain:common</title>
<path fill="none" stroke="black" d="M206.92,-220C182.66,-209.51 148.16,-194.6 120.52,-182.66"/>
<polygon fill="black" stroke="black" points="122.26,-179.6 111.69,-178.85 119.48,-186.03 122.26,-179.6"/>
</g>
<!-- :domain:model -->
<g id="node8" class="node">
<title>:domain:model</title>
<ellipse fill="none" stroke="black" cx="341.02" cy="-18" rx="65.04" ry="18"/>
<text text-anchor="middle" x="341.02" y="-12.57" font-family="Times New Roman,serif" font-size="14.00">:domain:model</text>
</g>
<!-- :domain:framework&#45;&gt;:domain:model -->
<g id="edge13" class="edge">
<title>:domain:framework&#45;&gt;:domain:model</title>
<path fill="none" stroke="red" stroke-width="2" d="M341.02,-71.7C341.02,-64.41 341.02,-55.73 341.02,-47.54"/>
<polygon fill="red" stroke="red" stroke-width="2" points="344.52,-49.13 341.02,-39.13 337.52,-49.13 344.52,-49.13"/>
</g>
<!-- :domain:use&#45;case&#45;&gt;:domain:common -->
<g id="edge15" class="edge">
<title>:domain:use&#45;case&#45;&gt;:domain:common</title>
<path fill="none" stroke="black" d="M392.23,-222.69C333.21,-212.25 239.72,-195.49 159.02,-180 153.41,-178.92 147.59,-177.79 141.75,-176.63"/>
<polygon fill="black" stroke="black" points="142.54,-173.22 132.05,-174.7 141.17,-180.09 142.54,-173.22"/>
</g>
<!-- :domain:use&#45;case&#45;&gt;:domain:foreground&#45;service -->
<g id="edge16" class="edge">
<title>:domain:use&#45;case&#45;&gt;:domain:foreground&#45;service</title>
<path fill="none" stroke="black" d="M482.43,-217.29C501.69,-207.66 526.62,-195.2 547.73,-184.64"/>
<polygon fill="black" stroke="black" points="549.02,-187.91 556.4,-180.31 545.89,-181.65 549.02,-187.91"/>
</g>
<!-- :domain:use&#45;case&#45;&gt;:domain:framework -->
<g id="edge17" class="edge">
<title>:domain:use&#45;case&#45;&gt;:domain:framework</title>
<path fill="none" stroke="black" d="M437.75,-215.87C418.75,-191.35 383.65,-146.03 361.36,-117.26"/>
<polygon fill="black" stroke="black" points="364.15,-115.15 355.26,-109.39 358.62,-119.43 364.15,-115.15"/>
</g>
<!-- :domain:use&#45;case&#45;&gt;:domain:model -->
<g id="edge14" class="edge">
<title>:domain:use&#45;case&#45;&gt;:domain:model</title>
<path fill="none" stroke="black" d="M453.66,-215.83C457.56,-184.45 461.5,-116.95 432.02,-72 422.15,-56.95 406.41,-45.64 390.78,-37.41"/>
<polygon fill="black" stroke="black" points="392.47,-34.34 381.95,-33.11 389.41,-40.64 392.47,-34.34"/>
</g>
<!-- :domain:repository -->
<g id="node9" class="node">
<title>:domain:repository</title>
<ellipse fill="none" stroke="black" cx="248.02" cy="-162" rx="80.01" ry="18"/>
<text text-anchor="middle" x="248.02" y="-156.57" font-family="Times New Roman,serif" font-size="14.00">:domain:repository</text>
</g>
<!-- :domain:use&#45;case&#45;&gt;:domain:repository -->
<g id="edge18" class="edge">
<title>:domain:use&#45;case&#45;&gt;:domain:repository</title>
<path fill="none" stroke="red" stroke-width="2" d="M409.45,-218.67C378.15,-207.87 335.01,-193 301.2,-181.34"/>
<polygon fill="red" stroke="red" stroke-width="2" points="304.03,-178.61 293.44,-178.66 301.75,-185.23 304.03,-178.61"/>
</g>
<!-- :domain:repository&#45;&gt;:domain:framework -->
<g id="edge20" class="edge">
<title>:domain:repository&#45;&gt;:domain:framework</title>
<path fill="none" stroke="red" stroke-width="2" d="M270.06,-144.41C281.9,-135.5 296.7,-124.36 309.72,-114.56"/>
<polygon fill="red" stroke="red" stroke-width="2" points="310.51,-118.34 316.39,-109.53 306.3,-112.75 310.51,-118.34"/>
</g>
<!-- :domain:repository&#45;&gt;:domain:model -->
<g id="edge19" class="edge">
<title>:domain:repository&#45;&gt;:domain:model</title>
<path fill="none" stroke="black" d="M243.68,-143.58C239.97,-124.59 237.06,-93.96 250.02,-72 259.08,-56.63 274.47,-45.27 290.03,-37.11"/>
<polygon fill="black" stroke="black" points="291.37,-40.35 298.86,-32.85 288.33,-34.04 291.37,-40.35"/>
</g>
</g>
</svg>
