<?xml version="1.0" encoding="UTF-8" standalone="no"?>
<!DOCTYPE svg PUBLIC "-//W3C//DTD SVG 1.1//EN"
 "http://www.w3.org/Graphics/SVG/1.1/DTD/svg11.dtd">
<!-- Generated by graphviz version 11.0.0 (20240428.1522)
 -->
<!-- Title: G Pages: 1 -->
<svg width="298pt" height="188pt"
 viewBox="0.00 0.00 297.55 188.00" xmlns="http://www.w3.org/2000/svg" xmlns:xlink="http://www.w3.org/1999/xlink">
<g id="graph0" class="graph" transform="scale(1 1) rotate(0) translate(4 184)">
<title>G</title>
<polygon fill="white" stroke="none" points="-4,4 -4,-184 293.55,-184 293.55,4 -4,4"/>
<!-- :feature:service -->
<g id="node1" class="node">
<title>:feature:service</title>
<ellipse fill="none" stroke="black" cx="117" cy="-162" rx="65.53" ry="18"/>
<text text-anchor="middle" x="117" y="-156.57" font-family="Times New Roman,serif" font-size="14.00">:feature:service</text>
</g>
<!-- :core:design&#45;system -->
<g id="node2" class="node">
<title>:core:design&#45;system</title>
<ellipse fill="none" stroke="black" cx="84" cy="-18" rx="84" ry="18"/>
<text text-anchor="middle" x="84" y="-12.57" font-family="Times New Roman,serif" font-size="14.00">:core:design&#45;system</text>
</g>
<!-- :feature:service&#45;&gt;:core:design&#45;system -->
<g id="edge1" class="edge">
<title>:feature:service&#45;&gt;:core:design&#45;system</title>
<path fill="none" stroke="black" d="M96.71,-144.63C86.6,-135.14 75.41,-122.26 70,-108 62.54,-88.35 66.77,-64.82 72.47,-46.88"/>
<polygon fill="black" stroke="black" points="75.68,-48.29 75.71,-37.69 69.08,-45.96 75.68,-48.29"/>
</g>
<!-- :core:ui -->
<g id="node3" class="node">
<title>:core:ui</title>
<ellipse fill="none" stroke="black" cx="117" cy="-90" rx="37.59" ry="18"/>
<text text-anchor="middle" x="117" y="-84.58" font-family="Times New Roman,serif" font-size="14.00">:core:ui</text>
</g>
<!-- :feature:service&#45;&gt;:core:ui -->
<g id="edge2" class="edge">
<title>:feature:service&#45;&gt;:core:ui</title>
<path fill="none" stroke="red" stroke-width="2" d="M117,-143.7C117,-136.41 117,-127.73 117,-119.54"/>
<polygon fill="red" stroke="red" stroke-width="2" points="120.5,-121.13 117,-111.13 113.5,-121.13 120.5,-121.13"/>
</g>
<!-- :core:domain -->
<g id="node4" class="node">
<title>:core:domain</title>
<ellipse fill="none" stroke="black" cx="231" cy="-90" rx="58.55" ry="18"/>
<text text-anchor="middle" x="231" y="-84.58" font-family="Times New Roman,serif" font-size="14.00">:core:domain</text>
</g>
<!-- :feature:service&#45;&gt;:core:domain -->
<g id="edge3" class="edge">
<title>:feature:service&#45;&gt;:core:domain</title>
<path fill="none" stroke="black" d="M142.87,-145.12C158.57,-135.47 178.83,-123.04 195.96,-112.52"/>
<polygon fill="black" stroke="black" points="197.64,-115.59 204.33,-107.37 193.98,-109.62 197.64,-115.59"/>
</g>
<!-- :core:ui&#45;&gt;:core:design&#45;system -->
<g id="edge4" class="edge">
<title>:core:ui&#45;&gt;:core:design&#45;system</title>
<path fill="none" stroke="red" stroke-width="2" d="M109.01,-72.05C105.41,-64.43 101.08,-55.23 97.03,-46.65"/>
<polygon fill="red" stroke="red" stroke-width="2" points="100.86,-46.57 93.43,-39.01 94.53,-49.55 100.86,-46.57"/>
</g>
</g>
</svg>
