<?xml version="1.0" encoding="UTF-8" standalone="no"?>
<!DOCTYPE svg PUBLIC "-//W3C//DTD SVG 1.1//EN"
 "http://www.w3.org/Graphics/SVG/1.1/DTD/svg11.dtd">
<!-- Generated by graphviz version 11.0.0 (20240428.1522)
 -->
<!-- Title: G Pages: 1 -->
<svg width="500pt" height="332pt"
 viewBox="0.00 0.00 500.16 332.00" xmlns="http://www.w3.org/2000/svg" xmlns:xlink="http://www.w3.org/1999/xlink">
<g id="graph0" class="graph" transform="scale(1 1) rotate(0) translate(4 328)">
<title>G</title>
<polygon fill="white" stroke="none" points="-4,4 -4,-328 496.16,-328 496.16,4 -4,4"/>
<!-- :feature:service -->
<g id="node1" class="node">
<title>:feature:service</title>
<ellipse fill="none" stroke="black" cx="126.16" cy="-306" rx="65.53" ry="18"/>
<text text-anchor="middle" x="126.16" y="-300.57" font-family="Times New Roman,serif" font-size="14.00">:feature:service</text>
</g>
<!-- :design&#45;system -->
<g id="node2" class="node">
<title>:design&#45;system</title>
<ellipse fill="none" stroke="black" cx="79.16" cy="-90" rx="65.53" ry="18"/>
<text text-anchor="middle" x="79.16" y="-84.58" font-family="Times New Roman,serif" font-size="14.00">:design&#45;system</text>
</g>
<!-- :feature:service&#45;&gt;:design&#45;system -->
<g id="edge1" class="edge">
<title>:feature:service&#45;&gt;:design&#45;system</title>
<path fill="none" stroke="black" d="M101.66,-288.83C72.29,-267.8 24.59,-228.02 5.16,-180 -0.85,-165.17 -2.16,-158.23 5.16,-144 11.94,-130.8 23.7,-120.16 35.88,-111.96"/>
<polygon fill="black" stroke="black" points="37.7,-114.95 44.36,-106.72 34.01,-109 37.7,-114.95"/>
</g>
<!-- :domain:foreground&#45;service -->
<g id="node3" class="node">
<title>:domain:foreground&#45;service</title>
<ellipse fill="none" stroke="black" cx="126.16" cy="-162" rx="112.44" ry="18"/>
<text text-anchor="middle" x="126.16" y="-156.57" font-family="Times New Roman,serif" font-size="14.00">:domain:foreground&#45;service</text>
</g>
<!-- :feature:service&#45;&gt;:domain:foreground&#45;service -->
<g id="edge2" class="edge">
<title>:feature:service&#45;&gt;:domain:foreground&#45;service</title>
<path fill="none" stroke="black" d="M126.16,-287.59C126.16,-263.61 126.16,-220.14 126.16,-191.42"/>
<polygon fill="black" stroke="black" points="129.66,-191.62 126.16,-181.62 122.66,-191.62 129.66,-191.62"/>
</g>
<!-- :domain:use&#45;case -->
<g id="node4" class="node">
<title>:domain:use&#45;case</title>
<ellipse fill="none" stroke="black" cx="266.16" cy="-234" rx="74.02" ry="18"/>
<text text-anchor="middle" x="266.16" y="-228.57" font-family="Times New Roman,serif" font-size="14.00">:domain:use&#45;case</text>
</g>
<!-- :feature:service&#45;&gt;:domain:use&#45;case -->
<g id="edge3" class="edge">
<title>:feature:service&#45;&gt;:domain:use&#45;case</title>
<path fill="none" stroke="red" stroke-width="2" d="M156.88,-289.64C176.8,-279.68 203,-266.58 224.75,-255.7"/>
<polygon fill="red" stroke="red" stroke-width="2" points="224.93,-259.52 232.31,-251.92 221.8,-253.26 224.93,-259.52"/>
</g>
<!-- :domain:model -->
<g id="node5" class="node">
<title>:domain:model</title>
<ellipse fill="none" stroke="black" cx="321.16" cy="-18" rx="65.04" ry="18"/>
<text text-anchor="middle" x="321.16" y="-12.57" font-family="Times New Roman,serif" font-size="14.00">:domain:model</text>
</g>
<!-- :design&#45;system&#45;&gt;:domain:model -->
<g id="edge4" class="edge">
<title>:design&#45;system&#45;&gt;:domain:model</title>
<path fill="none" stroke="black" d="M123.26,-76.24C163.52,-64.6 223.17,-47.34 266.45,-34.82"/>
<polygon fill="black" stroke="black" points="267.27,-38.23 275.9,-32.09 265.32,-31.51 267.27,-38.23"/>
</g>
<!-- :domain:use&#45;case&#45;&gt;:domain:foreground&#45;service -->
<g id="edge6" class="edge">
<title>:domain:use&#45;case&#45;&gt;:domain:foreground&#45;service</title>
<path fill="none" stroke="black" d="M234.74,-217.29C215.48,-207.66 190.55,-195.2 169.44,-184.64"/>
<polygon fill="black" stroke="black" points="171.29,-181.65 160.78,-180.31 168.15,-187.91 171.29,-181.65"/>
</g>
<!-- :domain:use&#45;case&#45;&gt;:domain:model -->
<g id="edge5" class="edge">
<title>:domain:use&#45;case&#45;&gt;:domain:model</title>
<path fill="none" stroke="black" d="M265.56,-215.93C265.07,-185.84 266.56,-121.84 285.16,-72 288.64,-62.66 294.09,-53.37 299.71,-45.24"/>
<polygon fill="black" stroke="black" points="302.53,-47.31 305.63,-37.18 296.89,-43.17 302.53,-47.31"/>
</g>
<!-- :domain:framework -->
<g id="node6" class="node">
<title>:domain:framework</title>
<ellipse fill="none" stroke="black" cx="376.16" cy="-90" rx="82" ry="18"/>
<text text-anchor="middle" x="376.16" y="-84.58" font-family="Times New Roman,serif" font-size="14.00">:domain:framework</text>
</g>
<!-- :domain:use&#45;case&#45;&gt;:domain:framework -->
<g id="edge7" class="edge">
<title>:domain:use&#45;case&#45;&gt;:domain:framework</title>
<path fill="none" stroke="black" d="M275.64,-215.86C286.21,-197.38 304.29,-167.45 323.16,-144 331.01,-134.24 340.45,-124.33 349.17,-115.76"/>
<polygon fill="black" stroke="black" points="351.36,-118.5 356.15,-109.05 346.51,-113.46 351.36,-118.5"/>
</g>
<!-- :domain:repository -->
<g id="node7" class="node">
<title>:domain:repository</title>
<ellipse fill="none" stroke="black" cx="412.16" cy="-162" rx="80.01" ry="18"/>
<text text-anchor="middle" x="412.16" y="-156.57" font-family="Times New Roman,serif" font-size="14.00">:domain:repository</text>
</g>
<!-- :domain:use&#45;case&#45;&gt;:domain:repository -->
<g id="edge8" class="edge">
<title>:domain:use&#45;case&#45;&gt;:domain:repository</title>
<path fill="none" stroke="red" stroke-width="2" d="M298.56,-217.46C319.23,-207.55 346.26,-194.59 368.78,-183.8"/>
<polygon fill="red" stroke="red" stroke-width="2" points="368.85,-187.64 376.36,-180.16 365.83,-181.33 368.85,-187.64"/>
</g>
<!-- :domain:framework&#45;&gt;:domain:model -->
<g id="edge9" class="edge">
<title>:domain:framework&#45;&gt;:domain:model</title>
<path fill="none" stroke="red" stroke-width="2" d="M362.84,-72.05C356.42,-63.89 348.59,-53.91 341.45,-44.82"/>
<polygon fill="red" stroke="red" stroke-width="2" points="345.15,-43.87 336.22,-38.17 339.64,-48.19 345.15,-43.87"/>
</g>
<!-- :domain:repository&#45;&gt;:domain:model -->
<g id="edge10" class="edge">
<title>:domain:repository&#45;&gt;:domain:model</title>
<path fill="none" stroke="black" d="M436.96,-144.42C448.46,-135.21 460.93,-122.64 467.16,-108 473.42,-93.28 476.34,-85.1 467.16,-72 450.15,-47.73 420.83,-34.53 392.91,-27.37"/>
<polygon fill="black" stroke="black" points="393.9,-24.01 383.37,-25.16 392.33,-30.83 393.9,-24.01"/>
</g>
<!-- :domain:repository&#45;&gt;:domain:framework -->
<g id="edge11" class="edge">
<title>:domain:repository&#45;&gt;:domain:framework</title>
<path fill="none" stroke="red" stroke-width="2" d="M403.26,-143.7C399.29,-135.98 394.52,-126.71 390.1,-118.11"/>
<polygon fill="red" stroke="red" stroke-width="2" points="394.02,-118.09 386.34,-110.8 387.8,-121.29 394.02,-118.09"/>
</g>
</g>
</svg>
