<?xml version="1.0" encoding="UTF-8" standalone="no"?>
<!DOCTYPE svg PUBLIC "-//W3C//DTD SVG 1.1//EN"
 "http://www.w3.org/Graphics/SVG/1.1/DTD/svg11.dtd">
<!-- Generated by graphviz version 11.0.0 (20240428.1522)
 -->
<!-- Title: G Pages: 1 -->
<svg width="3194pt" height="260pt"
 viewBox="0.00 0.00 3193.87 260.00" xmlns="http://www.w3.org/2000/svg" xmlns:xlink="http://www.w3.org/1999/xlink">
<g id="graph0" class="graph" transform="scale(1 1) rotate(0) translate(4 256)">
<title>G</title>
<polygon fill="white" stroke="none" points="-4,4 -4,-256 3189.87,-256 3189.87,4 -4,4"/>
<!-- :app -->
<g id="node1" class="node">
<title>:app</title>
<ellipse fill="none" stroke="black" cx="1324.92" cy="-234" rx="27" ry="18"/>
<text text-anchor="middle" x="1324.92" y="-228.57" font-family="Times New Roman,serif" font-size="14.00">:app</text>
</g>
<!-- :data:repository -->
<g id="node2" class="node">
<title>:data:repository</title>
<ellipse fill="none" stroke="black" cx="1324.92" cy="-162" rx="68.03" ry="18"/>
<text text-anchor="middle" x="1324.92" y="-156.57" font-family="Times New Roman,serif" font-size="14.00">:data:repository</text>
</g>
<!-- :app&#45;&gt;:data:repository -->
<g id="edge1" class="edge">
<title>:app&#45;&gt;:data:repository</title>
<path fill="none" stroke="red" stroke-width="2" d="M1324.92,-215.7C1324.92,-208.41 1324.92,-199.73 1324.92,-191.54"/>
<polygon fill="red" stroke="red" stroke-width="2" points="1328.42,-193.13 1324.92,-183.13 1321.42,-193.13 1328.42,-193.13"/>
</g>
<!-- :design&#45;system -->
<g id="node3" class="node">
<title>:design&#45;system</title>
<ellipse fill="none" stroke="black" cx="582.92" cy="-90" rx="65.53" ry="18"/>
<text text-anchor="middle" x="582.92" y="-84.58" font-family="Times New Roman,serif" font-size="14.00">:design&#45;system</text>
</g>
<!-- :app&#45;&gt;:design&#45;system -->
<g id="edge2" class="edge">
<title>:app&#45;&gt;:design&#45;system</title>
<path fill="none" stroke="black" d="M1297.75,-231.75C1216.53,-227.69 976.83,-213.11 906.92,-180 885.89,-170.04 889.65,-154.55 868.92,-144 859.11,-139.01 730.08,-116.24 648.71,-102.22"/>
<polygon fill="black" stroke="black" points="649.51,-98.81 639.06,-100.56 648.32,-105.71 649.51,-98.81"/>
</g>
<!-- :domain -->
<g id="node4" class="node">
<title>:domain</title>
<ellipse fill="none" stroke="black" cx="1016.92" cy="-18" rx="40.09" ry="18"/>
<text text-anchor="middle" x="1016.92" y="-12.57" font-family="Times New Roman,serif" font-size="14.00">:domain</text>
</g>
<!-- :app&#45;&gt;:domain -->
<g id="edge3" class="edge">
<title>:app&#45;&gt;:domain</title>
<path fill="none" stroke="black" d="M1297.61,-232.64C1137.89,-230.43 330.47,-217.43 294.92,-180 221.86,-103.08 307.08,-106.61 418.92,-72 624.98,-8.22 688.54,-59.92 902.92,-36 924.55,-33.59 948.37,-30.16 968.63,-27.01"/>
<polygon fill="black" stroke="black" points="968.96,-30.5 978.29,-25.48 967.87,-23.58 968.96,-30.5"/>
</g>
<!-- :feature:apps -->
<g id="node5" class="node">
<title>:feature:apps</title>
<ellipse fill="none" stroke="black" cx="361.92" cy="-162" rx="57.55" ry="18"/>
<text text-anchor="middle" x="361.92" y="-156.57" font-family="Times New Roman,serif" font-size="14.00">:feature:apps</text>
</g>
<!-- :app&#45;&gt;:feature:apps -->
<g id="edge4" class="edge">
<title>:app&#45;&gt;:feature:apps</title>
<path fill="none" stroke="black" d="M1297.56,-233.3C1187.64,-234.1 767.75,-233.29 427.92,-180 423.51,-179.31 418.96,-178.45 414.42,-177.49"/>
<polygon fill="black" stroke="black" points="415.21,-174.08 404.68,-175.27 413.65,-180.91 415.21,-174.08"/>
</g>
<!-- :feature:app&#45;settings -->
<g id="node6" class="node">
<title>:feature:app&#45;settings</title>
<ellipse fill="none" stroke="black" cx="1153.92" cy="-162" rx="84.5" ry="18"/>
<text text-anchor="middle" x="1153.92" y="-156.57" font-family="Times New Roman,serif" font-size="14.00">:feature:app&#45;settings</text>
</g>
<!-- :app&#45;&gt;:feature:app&#45;settings -->
<g id="edge5" class="edge">
<title>:app&#45;&gt;:feature:app&#45;settings</title>
<path fill="none" stroke="black" d="M1302.21,-223.7C1276.8,-213.3 1234.89,-196.15 1202.09,-182.72"/>
<polygon fill="black" stroke="black" points="1203.78,-179.63 1193.2,-179.08 1201.13,-186.11 1203.78,-179.63"/>
</g>
<!-- :feature:home -->
<g id="node7" class="node">
<title>:feature:home</title>
<ellipse fill="none" stroke="black" cx="799.92" cy="-162" rx="60.05" ry="18"/>
<text text-anchor="middle" x="799.92" y="-156.57" font-family="Times New Roman,serif" font-size="14.00">:feature:home</text>
</g>
<!-- :app&#45;&gt;:feature:home -->
<g id="edge6" class="edge">
<title>:app&#45;&gt;:feature:home</title>
<path fill="none" stroke="black" d="M1297.83,-230.85C1227.52,-225.05 1033.55,-207.63 873.92,-180 868.22,-179.01 862.3,-177.87 856.4,-176.64"/>
<polygon fill="black" stroke="black" points="857.15,-173.22 846.64,-174.53 855.67,-180.06 857.15,-173.22"/>
</g>
<!-- :feature:service -->
<g id="node8" class="node">
<title>:feature:service</title>
<ellipse fill="none" stroke="black" cx="502.92" cy="-162" rx="65.53" ry="18"/>
<text text-anchor="middle" x="502.92" y="-156.57" font-family="Times New Roman,serif" font-size="14.00">:feature:service</text>
</g>
<!-- :app&#45;&gt;:feature:service -->
<g id="edge7" class="edge">
<title>:app&#45;&gt;:feature:service</title>
<path fill="none" stroke="black" d="M1297.58,-232.59C1199.5,-230.8 856.32,-221.73 576.92,-180 571.65,-179.21 566.21,-178.25 560.77,-177.19"/>
<polygon fill="black" stroke="black" points="561.67,-173.8 551.17,-175.2 560.25,-180.66 561.67,-173.8"/>
</g>
<!-- :feature:settings -->
<g id="node9" class="node">
<title>:feature:settings</title>
<ellipse fill="none" stroke="black" cx="653.92" cy="-162" rx="67.53" ry="18"/>
<text text-anchor="middle" x="653.92" y="-156.57" font-family="Times New Roman,serif" font-size="14.00">:feature:settings</text>
</g>
<!-- :app&#45;&gt;:feature:settings -->
<g id="edge8" class="edge">
<title>:app&#45;&gt;:feature:settings</title>
<path fill="none" stroke="black" d="M1297.83,-231.82C1213.47,-227.89 948.1,-213.52 730.92,-180 725.31,-179.13 719.5,-178.1 713.7,-176.98"/>
<polygon fill="black" stroke="black" points="714.6,-173.59 704.1,-175.04 713.21,-180.46 714.6,-173.59"/>
</g>
<!-- :feature:shizuku -->
<g id="node10" class="node">
<title>:feature:shizuku</title>
<ellipse fill="none" stroke="black" cx="983.92" cy="-162" rx="67.53" ry="18"/>
<text text-anchor="middle" x="983.92" y="-156.57" font-family="Times New Roman,serif" font-size="14.00">:feature:shizuku</text>
</g>
<!-- :app&#45;&gt;:feature:shizuku -->
<g id="edge9" class="edge">
<title>:app&#45;&gt;:feature:shizuku</title>
<path fill="none" stroke="black" d="M1299.03,-227.97C1251.7,-218.75 1148.06,-198.36 1060.92,-180 1055.83,-178.93 1050.55,-177.8 1045.26,-176.65"/>
<polygon fill="black" stroke="black" points="1046.41,-173.32 1035.9,-174.62 1044.92,-180.16 1046.41,-173.32"/>
</g>
<!-- :broadcast&#45;receiver -->
<g id="node11" class="node">
<title>:broadcast&#45;receiver</title>
<ellipse fill="none" stroke="black" cx="2611.92" cy="-90" rx="81.5" ry="18"/>
<text text-anchor="middle" x="2611.92" y="-84.58" font-family="Times New Roman,serif" font-size="14.00">:broadcast&#45;receiver</text>
</g>
<!-- :app&#45;&gt;:broadcast&#45;receiver -->
<g id="edge10" class="edge">
<title>:app&#45;&gt;:broadcast&#45;receiver</title>
<path fill="none" stroke="black" d="M1351.97,-231.05C1481.97,-221.48 2055.26,-177.23 2520.92,-108 2527.62,-107 2534.58,-105.87 2541.53,-104.68"/>
<polygon fill="black" stroke="black" points="2542.06,-108.14 2551.3,-102.97 2540.85,-101.25 2542.06,-108.14"/>
</g>
<!-- :foreground&#45;service -->
<g id="node12" class="node">
<title>:foreground&#45;service</title>
<ellipse fill="none" stroke="black" cx="2794.92" cy="-90" rx="83" ry="18"/>
<text text-anchor="middle" x="2794.92" y="-84.58" font-family="Times New Roman,serif" font-size="14.00">:foreground&#45;service</text>
</g>
<!-- :app&#45;&gt;:foreground&#45;service -->
<g id="edge11" class="edge">
<title>:app&#45;&gt;:foreground&#45;service</title>
<path fill="none" stroke="black" d="M1351.86,-231.62C1450.85,-226.45 1803.78,-207.13 2093.92,-180 2365.28,-154.62 2433.43,-148.78 2702.92,-108 2709.58,-106.99 2716.5,-105.86 2723.42,-104.68"/>
<polygon fill="black" stroke="black" points="2723.9,-108.15 2733.15,-102.98 2722.69,-101.26 2723.9,-108.15"/>
</g>
<!-- :framework:asset&#45;manager -->
<g id="node13" class="node">
<title>:framework:asset&#45;manager</title>
<ellipse fill="none" stroke="black" cx="3078.92" cy="-90" rx="106.95" ry="18"/>
<text text-anchor="middle" x="3078.92" y="-84.58" font-family="Times New Roman,serif" font-size="14.00">:framework:asset&#45;manager</text>
</g>
<!-- :app&#45;&gt;:framework:asset&#45;manager -->
<g id="edge12" class="edge">
<title>:app&#45;&gt;:framework:asset&#45;manager</title>
<path fill="none" stroke="black" d="M1351.95,-232.03C1465.31,-227.87 1913.56,-210.29 2280.92,-180 2573.67,-155.86 2646.09,-141.58 2937.92,-108 2952.46,-106.33 2967.84,-104.52 2982.89,-102.72"/>
<polygon fill="black" stroke="black" points="2983.29,-106.2 2992.81,-101.53 2982.46,-99.25 2983.29,-106.2"/>
</g>
<!-- :framework:clipboard&#45;manager -->
<g id="node14" class="node">
<title>:framework:clipboard&#45;manager</title>
<ellipse fill="none" stroke="black" cx="123.92" cy="-162" rx="123.92" ry="18"/>
<text text-anchor="middle" x="123.92" y="-156.57" font-family="Times New Roman,serif" font-size="14.00">:framework:clipboard&#45;manager</text>
</g>
<!-- :app&#45;&gt;:framework:clipboard&#45;manager -->
<g id="edge13" class="edge">
<title>:app&#45;&gt;:framework:clipboard&#45;manager</title>
<path fill="none" stroke="black" d="M1297.76,-232.37C1176.62,-229.42 673.36,-215.55 261.92,-180 249.64,-178.94 236.77,-177.63 224.04,-176.2"/>
<polygon fill="black" stroke="black" points="224.74,-172.76 214.4,-175.1 223.94,-179.71 224.74,-172.76"/>
</g>
<!-- :framework:notification&#45;manager -->
<g id="node15" class="node">
<title>:framework:notification&#45;manager</title>
<ellipse fill="none" stroke="black" cx="1174.92" cy="-90" rx="129.91" ry="18"/>
<text text-anchor="middle" x="1174.92" y="-84.58" font-family="Times New Roman,serif" font-size="14.00">:framework:notification&#45;manager</text>
</g>
<!-- :app&#45;&gt;:framework:notification&#45;manager -->
<g id="edge14" class="edge">
<title>:app&#45;&gt;:framework:notification&#45;manager</title>
<path fill="none" stroke="black" d="M1348.13,-224.18C1366.43,-215.85 1390.67,-201.4 1401.92,-180 1409.36,-165.84 1411.86,-156.53 1401.92,-144 1386.75,-124.88 1335.47,-112.01 1285.49,-103.75"/>
<polygon fill="black" stroke="black" points="1286.1,-100.3 1275.68,-102.19 1285,-107.21 1286.1,-100.3"/>
</g>
<!-- :framework:package&#45;manager -->
<g id="node16" class="node">
<title>:framework:package&#45;manager</title>
<ellipse fill="none" stroke="black" cx="1441.92" cy="-90" rx="118.93" ry="18"/>
<text text-anchor="middle" x="1441.92" y="-84.58" font-family="Times New Roman,serif" font-size="14.00">:framework:package&#45;manager</text>
</g>
<!-- :app&#45;&gt;:framework:package&#45;manager -->
<g id="edge15" class="edge">
<title>:app&#45;&gt;:framework:package&#45;manager</title>
<path fill="none" stroke="black" d="M1350.67,-228.27C1376.62,-222.04 1415.52,-208.34 1434.92,-180 1446.84,-162.58 1448.06,-138.51 1446.59,-119.8"/>
<polygon fill="black" stroke="black" points="1450.07,-119.45 1445.49,-109.9 1443.11,-120.22 1450.07,-119.45"/>
</g>
<!-- :framework:secure&#45;settings -->
<g id="node17" class="node">
<title>:framework:secure&#45;settings</title>
<ellipse fill="none" stroke="black" cx="1687.92" cy="-90" rx="109.45" ry="18"/>
<text text-anchor="middle" x="1687.92" y="-84.58" font-family="Times New Roman,serif" font-size="14.00">:framework:secure&#45;settings</text>
</g>
<!-- :app&#45;&gt;:framework:secure&#45;settings -->
<g id="edge16" class="edge">
<title>:app&#45;&gt;:framework:secure&#45;settings</title>
<path fill="none" stroke="black" d="M1347.9,-224.01C1405.4,-201.52 1556.58,-142.38 1636.58,-111.08"/>
<polygon fill="black" stroke="black" points="1637.46,-114.5 1645.5,-107.59 1634.91,-107.98 1637.46,-114.5"/>
</g>
<!-- :framework:shizuku -->
<g id="node18" class="node">
<title>:framework:shizuku</title>
<ellipse fill="none" stroke="black" cx="1897.92" cy="-90" rx="82.5" ry="18"/>
<text text-anchor="middle" x="1897.92" y="-84.58" font-family="Times New Roman,serif" font-size="14.00">:framework:shizuku</text>
</g>
<!-- :app&#45;&gt;:framework:shizuku -->
<g id="edge17" class="edge">
<title>:app&#45;&gt;:framework:shizuku</title>
<path fill="none" stroke="black" d="M1349.91,-226.81C1433.96,-205.98 1708.22,-138.01 1833.93,-106.86"/>
<polygon fill="black" stroke="black" points="1834.56,-110.31 1843.42,-104.5 1832.87,-103.51 1834.56,-110.31"/>
</g>
<!-- :framework:shortcut&#45;manager -->
<g id="node19" class="node">
<title>:framework:shortcut&#45;manager</title>
<ellipse fill="none" stroke="black" cx="2116.92" cy="-90" rx="118.93" ry="18"/>
<text text-anchor="middle" x="2116.92" y="-84.58" font-family="Times New Roman,serif" font-size="14.00">:framework:shortcut&#45;manager</text>
</g>
<!-- :app&#45;&gt;:framework:shortcut&#45;manager -->
<g id="edge18" class="edge">
<title>:app&#45;&gt;:framework:shortcut&#45;manager</title>
<path fill="none" stroke="black" d="M1351.01,-228.43C1403.09,-219.29 1523.65,-198.1 1624.92,-180 1767.73,-154.47 1933.77,-124.34 2031.84,-106.5"/>
<polygon fill="black" stroke="black" points="2032.47,-109.94 2041.68,-104.71 2031.21,-103.06 2032.47,-109.94"/>
</g>
<!-- :framework:usage&#45;stats&#45;manager -->
<g id="node20" class="node">
<title>:framework:usage&#45;stats&#45;manager</title>
<ellipse fill="none" stroke="black" cx="2382.92" cy="-90" rx="129.41" ry="18"/>
<text text-anchor="middle" x="2382.92" y="-84.58" font-family="Times New Roman,serif" font-size="14.00">:framework:usage&#45;stats&#45;manager</text>
</g>
<!-- :app&#45;&gt;:framework:usage&#45;stats&#45;manager -->
<g id="edge19" class="edge">
<title>:app&#45;&gt;:framework:usage&#45;stats&#45;manager</title>
<path fill="none" stroke="black" d="M1351.18,-229.65C1416.01,-221.37 1588.84,-199.22 1732.92,-180 1927.58,-154.03 2154.88,-122.67 2282.55,-104.96"/>
<polygon fill="black" stroke="black" points="2282.91,-108.44 2292.34,-103.6 2281.95,-101.51 2282.91,-108.44"/>
</g>
<!-- :data:repository&#45;&gt;:domain -->
<g id="edge23" class="edge">
<title>:data:repository&#45;&gt;:domain</title>
<path fill="none" stroke="black" d="M1274.22,-149.6C1265.14,-147.66 1255.76,-145.72 1246.92,-144 1200.22,-134.93 1070.24,-140.93 1035.92,-108 1019.96,-92.69 1015.77,-67.52 1015.25,-47.85"/>
<polygon fill="black" stroke="black" points="1018.75,-47.98 1015.32,-37.96 1011.75,-47.93 1018.75,-47.98"/>
</g>
<!-- :common -->
<g id="node21" class="node">
<title>:common</title>
<ellipse fill="none" stroke="black" cx="2249.92" cy="-18" rx="45.57" ry="18"/>
<text text-anchor="middle" x="2249.92" y="-12.57" font-family="Times New Roman,serif" font-size="14.00">:common</text>
</g>
<!-- :data:repository&#45;&gt;:common -->
<g id="edge20" class="edge">
<title>:data:repository&#45;&gt;:common</title>
<path fill="none" stroke="black" d="M1393.16,-161.35C1691.18,-162.52 2866.12,-163.62 2919.92,-108 2931.04,-96.5 2930.78,-83.75 2919.92,-72 2878.68,-27.38 2461.02,-20.28 2306.76,-19.19"/>
<polygon fill="black" stroke="black" points="2307.23,-15.69 2297.2,-19.12 2307.18,-22.69 2307.23,-15.69"/>
</g>
<!-- :data:datastore -->
<g id="node22" class="node">
<title>:data:datastore</title>
<ellipse fill="none" stroke="black" cx="806.92" cy="-90" rx="64.04" ry="18"/>
<text text-anchor="middle" x="806.92" y="-84.58" font-family="Times New Roman,serif" font-size="14.00">:data:datastore</text>
</g>
<!-- :data:repository&#45;&gt;:data:datastore -->
<g id="edge21" class="edge">
<title>:data:repository&#45;&gt;:data:datastore</title>
<path fill="none" stroke="red" stroke-width="2" d="M1275.57,-149.33C1266.09,-147.35 1256.23,-145.47 1246.92,-144 1085.02,-118.51 1041.63,-134.64 879.92,-108 874.94,-107.18 869.8,-106.22 864.66,-105.18"/>
<polygon fill="red" stroke="red" stroke-width="2" points="866.94,-102.09 856.43,-103.43 865.48,-108.93 866.94,-102.09"/>
</g>
<!-- :data:room -->
<g id="node23" class="node">
<title>:data:room</title>
<ellipse fill="none" stroke="black" cx="938.92" cy="-90" rx="50.07" ry="18"/>
<text text-anchor="middle" x="938.92" y="-84.58" font-family="Times New Roman,serif" font-size="14.00">:data:room</text>
</g>
<!-- :data:repository&#45;&gt;:data:room -->
<g id="edge22" class="edge">
<title>:data:repository&#45;&gt;:data:room</title>
<path fill="none" stroke="black" d="M1274.67,-149.52C1265.46,-147.57 1255.92,-145.64 1246.92,-144 1139.08,-124.32 1110.28,-130.11 1002.92,-108 998.1,-107.01 993.11,-105.87 988.13,-104.67"/>
<polygon fill="black" stroke="black" points="989.35,-101.37 978.8,-102.33 987.65,-108.16 989.35,-101.37"/>
</g>
<!-- :feature:apps&#45;&gt;:design&#45;system -->
<g id="edge28" class="edge">
<title>:feature:apps&#45;&gt;:design&#45;system</title>
<path fill="none" stroke="black" d="M401.43,-148.49C437.4,-137.09 490.79,-120.18 530.35,-107.65"/>
<polygon fill="black" stroke="black" points="531.2,-111.05 539.68,-104.7 529.09,-104.38 531.2,-111.05"/>
</g>
<!-- :feature:apps&#45;&gt;:domain -->
<g id="edge29" class="edge">
<title>:feature:apps&#45;&gt;:domain</title>
<path fill="none" stroke="black" d="M377.97,-144.37C399.44,-123.35 439.71,-87.97 481.92,-72 657.56,-5.54 716.4,-57.86 902.92,-36 924.45,-33.48 948.17,-30.04 968.38,-26.92"/>
<polygon fill="black" stroke="black" points="968.68,-30.42 978.02,-25.42 967.6,-23.5 968.68,-30.42"/>
</g>
<!-- :feature:app&#45;settings&#45;&gt;:design&#45;system -->
<g id="edge30" class="edge">
<title>:feature:app&#45;settings&#45;&gt;:design&#45;system</title>
<path fill="none" stroke="black" d="M1093,-149.13C1082.33,-147.26 1071.32,-145.47 1060.92,-144 901.7,-121.52 860.53,-127.47 700.92,-108 684.56,-106 666.96,-103.61 650.48,-101.25"/>
<polygon fill="black" stroke="black" points="651.17,-97.81 640.77,-99.84 650.16,-104.74 651.17,-97.81"/>
</g>
<!-- :feature:app&#45;settings&#45;&gt;:domain -->
<g id="edge32" class="edge">
<title>:feature:app&#45;settings&#45;&gt;:domain</title>
<path fill="none" stroke="black" d="M1092.74,-149.18C1082.15,-147.31 1071.23,-145.51 1060.92,-144 988.58,-133.42 782.7,-162.45 733.92,-108 723.24,-96.08 723.7,-84.31 733.92,-72 741.39,-63 889.4,-38.8 968.31,-26.46"/>
<polygon fill="black" stroke="black" points="968.59,-29.96 977.94,-24.96 967.52,-23.04 968.59,-29.96"/>
</g>
<!-- :feature:app&#45;settings&#45;&gt;:common -->
<g id="edge31" class="edge">
<title>:feature:app&#45;settings&#45;&gt;:common</title>
<path fill="none" stroke="black" d="M1213.39,-148.79C1224.8,-146.86 1236.7,-145.13 1247.92,-144 1293.23,-139.43 2855.07,-140.55 2886.92,-108 2898.11,-96.56 2897.75,-83.77 2886.92,-72 2848.01,-29.72 2455.15,-21.16 2306.5,-19.43"/>
<polygon fill="black" stroke="black" points="2306.94,-15.94 2296.9,-19.33 2306.86,-22.94 2306.94,-15.94"/>
</g>
<!-- :feature:home&#45;&gt;:design&#45;system -->
<g id="edge33" class="edge">
<title>:feature:home&#45;&gt;:design&#45;system</title>
<path fill="none" stroke="black" d="M760.12,-148.16C724.89,-136.8 673.24,-120.14 634.78,-107.73"/>
<polygon fill="black" stroke="black" points="636.34,-104.56 625.75,-104.82 634.2,-111.22 636.34,-104.56"/>
</g>
<!-- :feature:service&#45;&gt;:design&#45;system -->
<g id="edge34" class="edge">
<title>:feature:service&#45;&gt;:design&#45;system</title>
<path fill="none" stroke="black" d="M521.88,-144.41C531.94,-135.61 544.48,-124.63 555.58,-114.92"/>
<polygon fill="black" stroke="black" points="557.73,-117.69 562.96,-108.47 553.12,-112.42 557.73,-117.69"/>
</g>
<!-- :feature:service&#45;&gt;:domain -->
<g id="edge35" class="edge">
<title>:feature:service&#45;&gt;:domain</title>
<path fill="none" stroke="black" d="M494.91,-143.84C486.95,-123.92 478.23,-91.32 495.92,-72 526.57,-38.51 857.83,-41.35 902.92,-36 924.45,-33.45 948.17,-30.01 968.38,-26.89"/>
<polygon fill="black" stroke="black" points="968.68,-30.39 978.02,-25.39 967.6,-23.47 968.68,-30.39"/>
</g>
<!-- :feature:settings&#45;&gt;:design&#45;system -->
<g id="edge36" class="edge">
<title>:feature:settings&#45;&gt;:design&#45;system</title>
<path fill="none" stroke="black" d="M637.09,-144.41C628.34,-135.78 617.47,-125.06 607.76,-115.5"/>
<polygon fill="black" stroke="black" points="610.28,-113.06 600.7,-108.53 605.36,-118.05 610.28,-113.06"/>
</g>
<!-- :feature:settings&#45;&gt;:domain -->
<g id="edge37" class="edge">
<title>:feature:settings&#45;&gt;:domain</title>
<path fill="none" stroke="black" d="M602.59,-149.86C548.11,-135.81 474.19,-108.94 507.92,-72 537.63,-39.45 859.16,-41.25 902.92,-36 924.44,-33.42 948.17,-29.97 968.37,-26.86"/>
<polygon fill="black" stroke="black" points="968.67,-30.36 978.01,-25.36 967.59,-23.44 968.67,-30.36"/>
</g>
<!-- :feature:shizuku&#45;&gt;:design&#45;system -->
<g id="edge38" class="edge">
<title>:feature:shizuku&#45;&gt;:design&#45;system</title>
<path fill="none" stroke="black" d="M932.82,-149.96C922.61,-147.87 911.94,-145.79 901.92,-144 796.17,-125.09 768.61,-127.17 662.92,-108 656.65,-106.86 650.13,-105.6 643.63,-104.3"/>
<polygon fill="black" stroke="black" points="644.74,-100.95 634.24,-102.38 643.33,-107.81 644.74,-100.95"/>
</g>
<!-- :feature:shizuku&#45;&gt;:domain -->
<g id="edge39" class="edge">
<title>:feature:shizuku&#45;&gt;:domain</title>
<path fill="none" stroke="black" d="M932.34,-150.09C922.26,-148.01 911.77,-145.9 901.92,-144 808.75,-126 639.62,-144.44 700.92,-72 705.22,-66.91 880.18,-39.74 967.87,-26.4"/>
<polygon fill="black" stroke="black" points="968.27,-29.88 977.63,-24.92 967.22,-22.96 968.27,-29.88"/>
</g>
<!-- :broadcast&#45;receiver&#45;&gt;:domain -->
<g id="edge41" class="edge">
<title>:broadcast&#45;receiver&#45;&gt;:domain</title>
<path fill="none" stroke="black" d="M2554.34,-76.9C2543.29,-74.96 2531.78,-73.2 2520.92,-72 2230.24,-39.91 1297.89,-23.42 1068.34,-19.78"/>
<polygon fill="black" stroke="black" points="1068.58,-16.28 1058.53,-19.62 1068.47,-23.28 1068.58,-16.28"/>
</g>
<!-- :broadcast&#45;receiver&#45;&gt;:common -->
<g id="edge40" class="edge">
<title>:broadcast&#45;receiver&#45;&gt;:common</title>
<path fill="none" stroke="black" d="M2552.14,-77.44C2482.19,-63.91 2367.52,-41.74 2301.37,-28.95"/>
<polygon fill="black" stroke="black" points="2302.36,-25.58 2291.88,-27.11 2301.03,-32.45 2302.36,-25.58"/>
</g>
<!-- :foreground&#45;service&#45;&gt;:domain -->
<g id="edge43" class="edge">
<title>:foreground&#45;service&#45;&gt;:domain</title>
<path fill="none" stroke="black" d="M2736.71,-76.87C2725.54,-74.93 2713.9,-73.18 2702.92,-72 2374.53,-36.7 1315.97,-22.46 1068.85,-19.57"/>
<polygon fill="black" stroke="black" points="1068.92,-16.07 1058.88,-19.46 1068.84,-23.07 1068.92,-16.07"/>
</g>
<!-- :foreground&#45;service&#45;&gt;:common -->
<g id="edge42" class="edge">
<title>:foreground&#45;service&#45;&gt;:common</title>
<path fill="none" stroke="black" d="M2734.64,-77.27C2724.09,-75.39 2713.2,-73.55 2702.92,-72 2560.13,-50.48 2390.89,-32.72 2305.35,-24.29"/>
<polygon fill="black" stroke="black" points="2305.89,-20.83 2295.6,-23.33 2305.21,-27.79 2305.89,-20.83"/>
</g>
<!-- :framework:asset&#45;manager&#45;&gt;:domain -->
<g id="edge45" class="edge">
<title>:framework:asset&#45;manager&#45;&gt;:domain</title>
<path fill="none" stroke="black" d="M2989.14,-79.93C2956.93,-76.97 2920.32,-73.95 2886.92,-72 2166.6,-29.94 1288.17,-20.97 1068.54,-19.33"/>
<polygon fill="black" stroke="black" points="1068.63,-15.83 1058.6,-19.26 1068.58,-22.83 1068.63,-15.83"/>
</g>
<!-- :framework:asset&#45;manager&#45;&gt;:common -->
<g id="edge44" class="edge">
<title>:framework:asset&#45;manager&#45;&gt;:common</title>
<path fill="none" stroke="black" d="M3000.9,-77.28C2986.62,-75.35 2971.84,-73.5 2957.92,-72 2716.26,-46.01 2426.83,-28.61 2306.59,-21.99"/>
<polygon fill="black" stroke="black" points="2306.84,-18.5 2296.66,-21.45 2306.46,-25.49 2306.84,-18.5"/>
</g>
<!-- :framework:clipboard&#45;manager&#45;&gt;:domain -->
<g id="edge46" class="edge">
<title>:framework:clipboard&#45;manager&#45;&gt;:domain</title>
<path fill="none" stroke="black" d="M143.24,-143.81C168.48,-122.54 215.02,-87.25 261.92,-72 397.59,-27.87 760.99,-50.54 902.92,-36 924.57,-33.78 948.4,-30.38 968.65,-27.2"/>
<polygon fill="black" stroke="black" points="968.99,-30.69 978.31,-25.66 967.88,-23.78 968.99,-30.69"/>
</g>
<!-- :framework:notification&#45;manager&#45;&gt;:domain -->
<g id="edge48" class="edge">
<title>:framework:notification&#45;manager&#45;&gt;:domain</title>
<path fill="none" stroke="black" d="M1137.47,-72.41C1112.56,-61.37 1079.94,-46.92 1054.91,-35.83"/>
<polygon fill="black" stroke="black" points="1056.64,-32.77 1046.08,-31.92 1053.81,-39.17 1056.64,-32.77"/>
</g>
<!-- :framework:notification&#45;manager&#45;&gt;:common -->
<g id="edge47" class="edge">
<title>:framework:notification&#45;manager&#45;&gt;:common</title>
<path fill="none" stroke="black" d="M1266.79,-76.91C1282.5,-75.09 1298.66,-73.36 1313.92,-72 1646.56,-42.27 2047.3,-26.15 2193.26,-20.92"/>
<polygon fill="black" stroke="black" points="2193.17,-24.43 2203.03,-20.57 2192.92,-17.43 2193.17,-24.43"/>
</g>
<!-- :framework:package&#45;manager&#45;&gt;:domain -->
<g id="edge50" class="edge">
<title>:framework:package&#45;manager&#45;&gt;:domain</title>
<path fill="none" stroke="black" d="M1363.47,-76.08C1276.27,-61.72 1138.18,-38.97 1065.43,-26.99"/>
<polygon fill="black" stroke="black" points="1066.26,-23.58 1055.83,-25.41 1065.13,-30.49 1066.26,-23.58"/>
</g>
<!-- :framework:package&#45;manager&#45;&gt;:common -->
<g id="edge49" class="edge">
<title>:framework:package&#45;manager&#45;&gt;:common</title>
<path fill="none" stroke="black" d="M1526.87,-77.06C1541.22,-75.23 1555.98,-73.47 1569.92,-72 1800.75,-47.69 2076.77,-29.54 2193.44,-22.36"/>
<polygon fill="black" stroke="black" points="2193.61,-25.86 2203.37,-21.75 2193.18,-18.87 2193.61,-25.86"/>
</g>
<!-- :framework:secure&#45;settings&#45;&gt;:domain -->
<g id="edge52" class="edge">
<title>:framework:secure&#45;settings&#45;&gt;:domain</title>
<path fill="none" stroke="black" d="M1609.28,-77.14C1596.15,-75.31 1582.66,-73.53 1569.92,-72 1385.19,-49.85 1164.85,-30.99 1067.47,-23.04"/>
<polygon fill="black" stroke="black" points="1067.97,-19.56 1057.72,-22.24 1067.4,-26.54 1067.97,-19.56"/>
</g>
<!-- :framework:secure&#45;settings&#45;&gt;:common -->
<g id="edge51" class="edge">
<title>:framework:secure&#45;settings&#45;&gt;:common</title>
<path fill="none" stroke="black" d="M1767.54,-77.26C1780.37,-75.45 1793.5,-73.64 1805.92,-72 1945.95,-53.56 2111.21,-34.56 2195.1,-25.11"/>
<polygon fill="black" stroke="black" points="2195.34,-28.61 2204.88,-24.01 2194.56,-21.65 2195.34,-28.61"/>
</g>
<!-- :framework:shizuku&#45;&gt;:domain -->
<g id="edge54" class="edge">
<title>:framework:shizuku&#45;&gt;:domain</title>
<path fill="none" stroke="black" d="M1839.18,-77.1C1828.16,-75.17 1816.72,-73.36 1805.92,-72 1528.85,-37.21 1193.98,-24.25 1068.07,-20.39"/>
<polygon fill="black" stroke="black" points="1068.51,-16.9 1058.41,-20.1 1068.3,-23.9 1068.51,-16.9"/>
</g>
<!-- :framework:shizuku&#45;&gt;:common -->
<g id="edge53" class="edge">
<title>:framework:shizuku&#45;&gt;:common</title>
<path fill="none" stroke="black" d="M1957.23,-77.2C2024.97,-63.73 2134.69,-41.91 2198.8,-29.16"/>
<polygon fill="black" stroke="black" points="2199.23,-32.65 2208.35,-27.27 2197.86,-25.78 2199.23,-32.65"/>
</g>
<!-- :framework:shortcut&#45;manager&#45;&gt;:domain -->
<g id="edge56" class="edge">
<title>:framework:shortcut&#45;manager&#45;&gt;:domain</title>
<path fill="none" stroke="black" d="M2033.34,-76.86C2018.88,-75.03 2003.98,-73.32 1989.92,-72 1638.16,-38.93 1212.77,-24.54 1067.99,-20.37"/>
<polygon fill="black" stroke="black" points="1068.46,-16.88 1058.37,-20.09 1068.26,-23.88 1068.46,-16.88"/>
</g>
<!-- :framework:shortcut&#45;manager&#45;&gt;:common -->
<g id="edge55" class="edge">
<title>:framework:shortcut&#45;manager&#45;&gt;:common</title>
<path fill="none" stroke="black" d="M2148.77,-72.23C2168.14,-62.04 2192.96,-48.98 2213.16,-38.35"/>
<polygon fill="black" stroke="black" points="2214.69,-41.5 2221.91,-33.74 2211.43,-35.3 2214.69,-41.5"/>
</g>
<!-- :framework:usage&#45;stats&#45;manager&#45;&gt;:domain -->
<g id="edge58" class="edge">
<title>:framework:usage&#45;stats&#45;manager&#45;&gt;:domain</title>
<path fill="none" stroke="black" d="M2292.46,-76.81C2276.64,-74.98 2260.31,-73.28 2244.92,-72 1789.88,-34.21 1237.61,-22.57 1068.54,-19.76"/>
<polygon fill="black" stroke="black" points="1068.84,-16.27 1058.79,-19.6 1068.73,-23.26 1068.84,-16.27"/>
</g>
<!-- :framework:usage&#45;stats&#45;manager&#45;&gt;:common -->
<g id="edge57" class="edge">
<title>:framework:usage&#45;stats&#45;manager&#45;&gt;:common</title>
<path fill="none" stroke="black" d="M2351.06,-72.23C2331.69,-62.04 2306.88,-48.98 2286.68,-38.35"/>
<polygon fill="black" stroke="black" points="2288.41,-35.3 2277.93,-33.74 2285.15,-41.5 2288.41,-35.3"/>
</g>
<!-- :data:datastore&#45;&gt;:domain -->
<g id="edge26" class="edge">
<title>:data:datastore&#45;&gt;:domain</title>
<path fill="none" stroke="black" d="M846.91,-75.67C883.52,-63.47 937.51,-45.47 974.78,-33.05"/>
<polygon fill="black" stroke="black" points="975.48,-36.5 983.86,-30.02 973.27,-29.86 975.48,-36.5"/>
</g>
<!-- :data:datastore&#45;&gt;:common -->
<g id="edge25" class="edge">
<title>:data:datastore&#45;&gt;:common</title>
<path fill="none" stroke="black" d="M852.62,-76.96C861.61,-74.98 871.02,-73.2 879.92,-72 1139.9,-37.02 1967.81,-22.99 2192.94,-19.76"/>
<polygon fill="black" stroke="black" points="2192.67,-23.26 2202.62,-19.62 2192.57,-16.26 2192.67,-23.26"/>
</g>
<!-- :data:datastore&#45;proto -->
<g id="node24" class="node">
<title>:data:datastore&#45;proto</title>
<ellipse fill="none" stroke="black" cx="806.92" cy="-18" rx="87.49" ry="18"/>
<text text-anchor="middle" x="806.92" y="-12.57" font-family="Times New Roman,serif" font-size="14.00">:data:datastore&#45;proto</text>
</g>
<!-- :data:datastore&#45;&gt;:data:datastore&#45;proto -->
<g id="edge24" class="edge">
<title>:data:datastore&#45;&gt;:data:datastore&#45;proto</title>
<path fill="none" stroke="red" stroke-width="2" d="M806.92,-71.7C806.92,-64.41 806.92,-55.73 806.92,-47.54"/>
<polygon fill="red" stroke="red" stroke-width="2" points="810.42,-49.13 806.92,-39.13 803.42,-49.13 810.42,-49.13"/>
</g>
<!-- :data:room&#45;&gt;:domain -->
<g id="edge27" class="edge">
<title>:data:room&#45;&gt;:domain</title>
<path fill="none" stroke="black" d="M957.01,-72.76C967.09,-63.71 979.83,-52.29 990.96,-42.3"/>
<polygon fill="black" stroke="black" points="993.23,-44.96 998.33,-35.68 988.55,-39.75 993.23,-44.96"/>
</g>
</g>
</svg>
