<?xml version="1.0" encoding="UTF-8" standalone="no"?>
<!DOCTYPE svg PUBLIC "-//W3C//DTD SVG 1.1//EN"
 "http://www.w3.org/Graphics/SVG/1.1/DTD/svg11.dtd">
<!-- Generated by graphviz version 11.0.0 (20240428.1522)
 -->
<!-- Title: G Pages: 1 -->
<svg width="467pt" height="116pt"
 viewBox="0.00 0.00 467.04 116.00" xmlns="http://www.w3.org/2000/svg" xmlns:xlink="http://www.w3.org/1999/xlink">
<g id="graph0" class="graph" transform="scale(1 1) rotate(0) translate(4 112)">
<title>G</title>
<polygon fill="white" stroke="none" points="-4,4 -4,-112 463.04,-112 463.04,4 -4,4"/>
<!-- :core:datastore -->
<g id="node1" class="node">
<title>:core:datastore</title>
<ellipse fill="none" stroke="black" cx="259.49" cy="-90" rx="65.04" ry="18"/>
<text text-anchor="middle" x="259.49" y="-84.58" font-family="Times New Roman,serif" font-size="14.00">:core:datastore</text>
</g>
<!-- :core:datastore&#45;proto -->
<g id="node2" class="node">
<title>:core:datastore&#45;proto</title>
<ellipse fill="none" stroke="black" cx="88.49" cy="-18" rx="88.49" ry="18"/>
<text text-anchor="middle" x="88.49" y="-12.57" font-family="Times New Roman,serif" font-size="14.00">:core:datastore&#45;proto</text>
</g>
<!-- :core:datastore&#45;&gt;:core:datastore&#45;proto -->
<g id="edge1" class="edge">
<title>:core:datastore&#45;&gt;:core:datastore&#45;proto</title>
<path fill="none" stroke="red" stroke-width="2" d="M224.06,-74.5C198.93,-64.21 164.88,-50.27 137.2,-38.94"/>
<polygon fill="red" stroke="red" stroke-width="2" points="139.93,-36.28 129.35,-35.73 137.28,-42.75 139.93,-36.28"/>
</g>
<!-- :core:common -->
<g id="node3" class="node">
<title>:core:common</title>
<ellipse fill="none" stroke="black" cx="259.49" cy="-18" rx="64.04" ry="18"/>
<text text-anchor="middle" x="259.49" y="-12.57" font-family="Times New Roman,serif" font-size="14.00">:core:common</text>
</g>
<!-- :core:datastore&#45;&gt;:core:common -->
<g id="edge2" class="edge">
<title>:core:datastore&#45;&gt;:core:common</title>
<path fill="none" stroke="black" d="M259.49,-71.7C259.49,-64.41 259.49,-55.73 259.49,-47.54"/>
<polygon fill="black" stroke="black" points="262.99,-47.62 259.49,-37.62 255.99,-47.62 262.99,-47.62"/>
</g>
<!-- :core:domain -->
<g id="node4" class="node">
<title>:core:domain</title>
<ellipse fill="none" stroke="black" cx="400.49" cy="-18" rx="58.55" ry="18"/>
<text text-anchor="middle" x="400.49" y="-12.57" font-family="Times New Roman,serif" font-size="14.00">:core:domain</text>
</g>
<!-- :core:datastore&#45;&gt;:core:domain -->
<g id="edge3" class="edge">
<title>:core:datastore&#45;&gt;:core:domain</title>
<path fill="none" stroke="black" d="M290.08,-73.81C310.64,-63.61 337.95,-50.05 360.26,-38.97"/>
<polygon fill="black" stroke="black" points="361.68,-42.17 369.08,-34.59 358.57,-35.9 361.68,-42.17"/>
</g>
</g>
</svg>
