<?xml version="1.0" encoding="UTF-8" standalone="no"?>
<!DOCTYPE svg PUBLIC "-//W3C//DTD SVG 1.1//EN"
 "http://www.w3.org/Graphics/SVG/1.1/DTD/svg11.dtd">
<!-- Generated by graphviz version 11.0.0 (20240428.1522)
 -->
<!-- Title: G Pages: 1 -->
<svg width="340pt" height="188pt"
 viewBox="0.00 0.00 340.02 188.00" xmlns="http://www.w3.org/2000/svg" xmlns:xlink="http://www.w3.org/1999/xlink">
<g id="graph0" class="graph" transform="scale(1 1) rotate(0) translate(4 184)">
<title>G</title>
<polygon fill="white" stroke="none" points="-4,4 -4,-184 336.02,-184 336.02,4 -4,4"/>
<!-- :framework:shortcut&#45;manager -->
<g id="node1" class="node">
<title>:framework:shortcut&#45;manager</title>
<ellipse fill="none" stroke="black" cx="162.02" cy="-162" rx="118.93" ry="18"/>
<text text-anchor="middle" x="162.02" y="-156.57" font-family="Times New Roman,serif" font-size="14.00">:framework:shortcut&#45;manager</text>
</g>
<!-- :domain:common -->
<g id="node2" class="node">
<title>:domain:common</title>
<ellipse fill="none" stroke="black" cx="75.02" cy="-90" rx="75.02" ry="18"/>
<text text-anchor="middle" x="75.02" y="-84.58" font-family="Times New Roman,serif" font-size="14.00">:domain:common</text>
</g>
<!-- :framework:shortcut&#45;manager&#45;&gt;:domain:common -->
<g id="edge1" class="edge">
<title>:framework:shortcut&#45;manager&#45;&gt;:domain:common</title>
<path fill="none" stroke="black" d="M140.96,-144.05C129.98,-135.22 116.37,-124.27 104.37,-114.62"/>
<polygon fill="black" stroke="black" points="106.75,-112.04 96.76,-108.5 102.36,-117.49 106.75,-112.04"/>
</g>
<!-- :domain:framework -->
<g id="node3" class="node">
<title>:domain:framework</title>
<ellipse fill="none" stroke="black" cx="250.02" cy="-90" rx="82" ry="18"/>
<text text-anchor="middle" x="250.02" y="-84.58" font-family="Times New Roman,serif" font-size="14.00">:domain:framework</text>
</g>
<!-- :framework:shortcut&#45;manager&#45;&gt;:domain:framework -->
<g id="edge2" class="edge">
<title>:framework:shortcut&#45;manager&#45;&gt;:domain:framework</title>
<path fill="none" stroke="red" stroke-width="2" d="M183.32,-144.05C194.34,-135.28 207.99,-124.43 220.06,-114.83"/>
<polygon fill="red" stroke="red" stroke-width="2" points="220.89,-118.64 226.54,-109.67 216.54,-113.16 220.89,-118.64"/>
</g>
<!-- :domain:model -->
<g id="node4" class="node">
<title>:domain:model</title>
<ellipse fill="none" stroke="black" cx="250.02" cy="-18" rx="65.04" ry="18"/>
<text text-anchor="middle" x="250.02" y="-12.57" font-family="Times New Roman,serif" font-size="14.00">:domain:model</text>
</g>
<!-- :domain:framework&#45;&gt;:domain:model -->
<g id="edge3" class="edge">
<title>:domain:framework&#45;&gt;:domain:model</title>
<path fill="none" stroke="red" stroke-width="2" d="M250.02,-71.7C250.02,-64.41 250.02,-55.73 250.02,-47.54"/>
<polygon fill="red" stroke="red" stroke-width="2" points="253.52,-49.13 250.02,-39.13 246.52,-49.13 253.52,-49.13"/>
</g>
</g>
</svg>
