<?xml version="1.0" encoding="UTF-8" standalone="no"?>
<!DOCTYPE svg PUBLIC "-//W3C//DTD SVG 1.1//EN"
 "http://www.w3.org/Graphics/SVG/1.1/DTD/svg11.dtd">
<!-- Generated by graphviz version 11.0.0 (20240428.1522)
 -->
<!-- Title: G Pages: 1 -->
<svg width="654pt" height="332pt"
 viewBox="0.00 0.00 653.67 332.00" xmlns="http://www.w3.org/2000/svg" xmlns:xlink="http://www.w3.org/1999/xlink">
<g id="graph0" class="graph" transform="scale(1 1) rotate(0) translate(4 328)">
<title>G</title>
<polygon fill="white" stroke="none" points="-4,4 -4,-328 649.67,-328 649.67,4 -4,4"/>
<!-- :broadcast&#45;receiver -->
<g id="node1" class="node">
<title>:broadcast&#45;receiver</title>
<ellipse fill="none" stroke="black" cx="157.57" cy="-306" rx="81.5" ry="18"/>
<text text-anchor="middle" x="157.57" y="-300.57" font-family="Times New Roman,serif" font-size="14.00">:broadcast&#45;receiver</text>
</g>
<!-- :common -->
<g id="node2" class="node">
<title>:common</title>
<ellipse fill="none" stroke="black" cx="45.57" cy="-234" rx="45.57" ry="18"/>
<text text-anchor="middle" x="45.57" y="-228.57" font-family="Times New Roman,serif" font-size="14.00">:common</text>
</g>
<!-- :broadcast&#45;receiver&#45;&gt;:common -->
<g id="edge1" class="edge">
<title>:broadcast&#45;receiver&#45;&gt;:common</title>
<path fill="none" stroke="black" d="M131.32,-288.59C115.53,-278.72 95.31,-266.09 78.47,-255.56"/>
<polygon fill="black" stroke="black" points="80.62,-252.78 70.29,-250.45 76.91,-258.71 80.62,-252.78"/>
</g>
<!-- :domain:broadcast&#45;receiver -->
<g id="node3" class="node">
<title>:domain:broadcast&#45;receiver</title>
<ellipse fill="none" stroke="black" cx="236.57" cy="-18" rx="110.94" ry="18"/>
<text text-anchor="middle" x="236.57" y="-12.57" font-family="Times New Roman,serif" font-size="14.00">:domain:broadcast&#45;receiver</text>
</g>
<!-- :broadcast&#45;receiver&#45;&gt;:domain:broadcast&#45;receiver -->
<g id="edge2" class="edge">
<title>:broadcast&#45;receiver&#45;&gt;:domain:broadcast&#45;receiver</title>
<path fill="none" stroke="black" d="M152.3,-288.01C149.38,-277.7 146.05,-264.23 144.57,-252 138.8,-204.22 136.02,-189.19 152.57,-144 166.39,-106.29 193.87,-68.83 213.64,-44.9"/>
<polygon fill="black" stroke="black" points="216.31,-47.17 220.08,-37.27 210.96,-42.65 216.31,-47.17"/>
</g>
<!-- :domain:foreground&#45;service -->
<g id="node4" class="node">
<title>:domain:foreground&#45;service</title>
<ellipse fill="none" stroke="black" cx="297.57" cy="-162" rx="112.44" ry="18"/>
<text text-anchor="middle" x="297.57" y="-156.57" font-family="Times New Roman,serif" font-size="14.00">:domain:foreground&#45;service</text>
</g>
<!-- :broadcast&#45;receiver&#45;&gt;:domain:foreground&#45;service -->
<g id="edge3" class="edge">
<title>:broadcast&#45;receiver&#45;&gt;:domain:foreground&#45;service</title>
<path fill="none" stroke="black" d="M174.18,-288.15C198.58,-263.41 244.26,-217.08 272.68,-188.25"/>
<polygon fill="black" stroke="black" points="274.96,-190.92 279.49,-181.35 269.97,-186.01 274.96,-190.92"/>
</g>
<!-- :domain:framework -->
<g id="node5" class="node">
<title>:domain:framework</title>
<ellipse fill="none" stroke="black" cx="436.57" cy="-90" rx="82" ry="18"/>
<text text-anchor="middle" x="436.57" y="-84.58" font-family="Times New Roman,serif" font-size="14.00">:domain:framework</text>
</g>
<!-- :broadcast&#45;receiver&#45;&gt;:domain:framework -->
<g id="edge4" class="edge">
<title>:broadcast&#45;receiver&#45;&gt;:domain:framework</title>
<path fill="none" stroke="black" d="M153.73,-287.56C147.64,-254.82 139.9,-183.88 176.57,-144 199.61,-118.96 282.61,-105.17 348.72,-97.99"/>
<polygon fill="black" stroke="black" points="348.92,-101.48 358.5,-96.96 348.19,-94.52 348.92,-101.48"/>
</g>
<!-- :domain:use&#45;case -->
<g id="node6" class="node">
<title>:domain:use&#45;case</title>
<ellipse fill="none" stroke="black" cx="437.57" cy="-234" rx="74.02" ry="18"/>
<text text-anchor="middle" x="437.57" y="-228.57" font-family="Times New Roman,serif" font-size="14.00">:domain:use&#45;case</text>
</g>
<!-- :broadcast&#45;receiver&#45;&gt;:domain:use&#45;case -->
<g id="edge5" class="edge">
<title>:broadcast&#45;receiver&#45;&gt;:domain:use&#45;case</title>
<path fill="none" stroke="red" stroke-width="2" d="M210.24,-291.83C257.52,-280.01 326.92,-262.66 376.59,-250.25"/>
<polygon fill="red" stroke="red" stroke-width="2" points="375.71,-254.07 384.56,-248.25 374.01,-247.28 375.71,-254.07"/>
</g>
<!-- :domain:framework&#45;&gt;:domain:broadcast&#45;receiver -->
<g id="edge7" class="edge">
<title>:domain:framework&#45;&gt;:domain:broadcast&#45;receiver</title>
<path fill="none" stroke="black" d="M394.16,-74.15C364.49,-63.77 324.56,-49.8 292.32,-38.51"/>
<polygon fill="black" stroke="black" points="293.73,-35.3 283.14,-35.3 291.42,-41.9 293.73,-35.3"/>
</g>
<!-- :domain:model -->
<g id="node7" class="node">
<title>:domain:model</title>
<ellipse fill="none" stroke="black" cx="546.57" cy="-18" rx="65.04" ry="18"/>
<text text-anchor="middle" x="546.57" y="-12.57" font-family="Times New Roman,serif" font-size="14.00">:domain:model</text>
</g>
<!-- :domain:framework&#45;&gt;:domain:model -->
<g id="edge6" class="edge">
<title>:domain:framework&#45;&gt;:domain:model</title>
<path fill="none" stroke="red" stroke-width="2" d="M462.37,-72.59C477.09,-63.22 495.75,-51.34 511.76,-41.16"/>
<polygon fill="red" stroke="red" stroke-width="2" points="512.21,-45.01 518.77,-36.69 508.46,-39.11 512.21,-45.01"/>
</g>
<!-- :domain:use&#45;case&#45;&gt;:domain:foreground&#45;service -->
<g id="edge9" class="edge">
<title>:domain:use&#45;case&#45;&gt;:domain:foreground&#45;service</title>
<path fill="none" stroke="black" d="M406.16,-217.29C386.9,-207.66 361.97,-195.2 340.86,-184.64"/>
<polygon fill="black" stroke="black" points="342.7,-181.65 332.19,-180.31 339.57,-187.91 342.7,-181.65"/>
</g>
<!-- :domain:use&#45;case&#45;&gt;:domain:framework -->
<g id="edge10" class="edge">
<title>:domain:use&#45;case&#45;&gt;:domain:framework</title>
<path fill="none" stroke="black" d="M437.45,-215.59C437.28,-191.61 436.98,-148.14 436.78,-119.42"/>
<polygon fill="black" stroke="black" points="440.28,-119.6 436.71,-109.62 433.28,-119.65 440.28,-119.6"/>
</g>
<!-- :domain:use&#45;case&#45;&gt;:domain:model -->
<g id="edge8" class="edge">
<title>:domain:use&#45;case&#45;&gt;:domain:model</title>
<path fill="none" stroke="black" d="M501.09,-224.36C552.26,-215.95 618.25,-201.29 634.57,-180 668.93,-135.18 613.5,-75.22 576.16,-42.59"/>
<polygon fill="black" stroke="black" points="578.62,-40.09 568.74,-36.27 574.08,-45.42 578.62,-40.09"/>
</g>
<!-- :domain:repository -->
<g id="node8" class="node">
<title>:domain:repository</title>
<ellipse fill="none" stroke="black" cx="545.57" cy="-162" rx="80.01" ry="18"/>
<text text-anchor="middle" x="545.57" y="-156.57" font-family="Times New Roman,serif" font-size="14.00">:domain:repository</text>
</g>
<!-- :domain:use&#45;case&#45;&gt;:domain:repository -->
<g id="edge11" class="edge">
<title>:domain:use&#45;case&#45;&gt;:domain:repository</title>
<path fill="none" stroke="red" stroke-width="2" d="M462.62,-216.76C476.97,-207.47 495.19,-195.66 510.89,-185.48"/>
<polygon fill="red" stroke="red" stroke-width="2" points="511.26,-189.41 517.75,-181.04 507.45,-183.54 511.26,-189.41"/>
</g>
<!-- :domain:repository&#45;&gt;:domain:framework -->
<g id="edge13" class="edge">
<title>:domain:repository&#45;&gt;:domain:framework</title>
<path fill="none" stroke="red" stroke-width="2" d="M520.02,-144.59C505.64,-135.35 487.47,-123.68 471.76,-113.59"/>
<polygon fill="red" stroke="red" stroke-width="2" points="475.2,-111.65 464.9,-109.19 471.42,-117.54 475.2,-111.65"/>
</g>
<!-- :domain:repository&#45;&gt;:domain:model -->
<g id="edge12" class="edge">
<title>:domain:repository&#45;&gt;:domain:model</title>
<path fill="none" stroke="black" d="M545.7,-143.59C545.87,-119.61 546.17,-76.14 546.37,-47.42"/>
<polygon fill="black" stroke="black" points="549.87,-47.65 546.44,-37.62 542.87,-47.6 549.87,-47.65"/>
</g>
</g>
</svg>
