<?xml version="1.0" encoding="UTF-8" standalone="no"?>
<!DOCTYPE svg PUBLIC "-//W3C//DTD SVG 1.1//EN"
 "http://www.w3.org/Graphics/SVG/1.1/DTD/svg11.dtd">
<!-- Generated by graphviz version 11.0.0 (20240428.1522)
 -->
<!-- Title: G Pages: 1 -->
<svg width="829pt" height="332pt"
 viewBox="0.00 0.00 829.28 332.00" xmlns="http://www.w3.org/2000/svg" xmlns:xlink="http://www.w3.org/1999/xlink">
<g id="graph0" class="graph" transform="scale(1 1) rotate(0) translate(4 328)">
<title>G</title>
<polygon fill="white" stroke="none" points="-4,4 -4,-328 825.28,-328 825.28,4 -4,4"/>
<!-- :feature:app&#45;settings -->
<g id="node1" class="node">
<title>:feature:app&#45;settings</title>
<ellipse fill="none" stroke="black" cx="477.53" cy="-306" rx="84.5" ry="18"/>
<text text-anchor="middle" x="477.53" y="-300.57" font-family="Times New Roman,serif" font-size="14.00">:feature:app&#45;settings</text>
</g>
<!-- :design&#45;system -->
<g id="node2" class="node">
<title>:design&#45;system</title>
<ellipse fill="none" stroke="black" cx="65.53" cy="-90" rx="65.53" ry="18"/>
<text text-anchor="middle" x="65.53" y="-84.58" font-family="Times New Roman,serif" font-size="14.00">:design&#45;system</text>
</g>
<!-- :feature:app&#45;settings&#45;&gt;:design&#45;system -->
<g id="edge1" class="edge">
<title>:feature:app&#45;settings&#45;&gt;:design&#45;system</title>
<path fill="none" stroke="black" d="M424.94,-291.47C358.93,-272.97 243.93,-235.6 157.53,-180 130.15,-162.37 103.97,-135.76 86.59,-116.23"/>
<polygon fill="black" stroke="black" points="89.45,-114.19 80.24,-108.95 84.17,-118.79 89.45,-114.19"/>
</g>
<!-- :domain:common -->
<g id="node3" class="node">
<title>:domain:common</title>
<ellipse fill="none" stroke="black" cx="720.53" cy="-162" rx="75.02" ry="18"/>
<text text-anchor="middle" x="720.53" y="-156.57" font-family="Times New Roman,serif" font-size="14.00">:domain:common</text>
</g>
<!-- :feature:app&#45;settings&#45;&gt;:domain:common -->
<g id="edge2" class="edge">
<title>:feature:app&#45;settings&#45;&gt;:domain:common</title>
<path fill="none" stroke="black" d="M505.41,-288.71C549.17,-263.14 634.05,-213.54 683.09,-184.88"/>
<polygon fill="black" stroke="black" points="684.81,-187.93 691.68,-179.86 681.28,-181.89 684.81,-187.93"/>
</g>
<!-- :domain:framework -->
<g id="node4" class="node">
<title>:domain:framework</title>
<ellipse fill="none" stroke="black" cx="479.53" cy="-90" rx="82" ry="18"/>
<text text-anchor="middle" x="479.53" y="-84.58" font-family="Times New Roman,serif" font-size="14.00">:domain:framework</text>
</g>
<!-- :feature:app&#45;settings&#45;&gt;:domain:framework -->
<g id="edge3" class="edge">
<title>:feature:app&#45;settings&#45;&gt;:domain:framework</title>
<path fill="none" stroke="black" d="M549.39,-296.35C667.42,-279.33 881.9,-235 804.53,-144 775.17,-109.45 657.41,-97.37 572.08,-93.18"/>
<polygon fill="black" stroke="black" points="572.45,-89.69 562.3,-92.73 572.13,-96.68 572.45,-89.69"/>
</g>
<!-- :domain:repository -->
<g id="node5" class="node">
<title>:domain:repository</title>
<ellipse fill="none" stroke="black" cx="267.53" cy="-162" rx="80.01" ry="18"/>
<text text-anchor="middle" x="267.53" y="-156.57" font-family="Times New Roman,serif" font-size="14.00">:domain:repository</text>
</g>
<!-- :feature:app&#45;settings&#45;&gt;:domain:repository -->
<g id="edge4" class="edge">
<title>:feature:app&#45;settings&#45;&gt;:domain:repository</title>
<path fill="none" stroke="black" d="M451.18,-288.58C434.77,-278.25 413.29,-264.55 394.53,-252 362,-230.22 325.44,-204.47 299.94,-186.28"/>
<polygon fill="black" stroke="black" points="302.14,-183.55 291.97,-180.59 298.07,-189.25 302.14,-183.55"/>
</g>
<!-- :domain:use&#45;case -->
<g id="node6" class="node">
<title>:domain:use&#45;case</title>
<ellipse fill="none" stroke="black" cx="477.53" cy="-234" rx="74.02" ry="18"/>
<text text-anchor="middle" x="477.53" y="-228.57" font-family="Times New Roman,serif" font-size="14.00">:domain:use&#45;case</text>
</g>
<!-- :feature:app&#45;settings&#45;&gt;:domain:use&#45;case -->
<g id="edge5" class="edge">
<title>:feature:app&#45;settings&#45;&gt;:domain:use&#45;case</title>
<path fill="none" stroke="red" stroke-width="2" d="M477.53,-287.7C477.53,-280.41 477.53,-271.73 477.53,-263.54"/>
<polygon fill="red" stroke="red" stroke-width="2" points="481.03,-265.13 477.53,-255.13 474.03,-265.13 481.03,-265.13"/>
</g>
<!-- :domain:model -->
<g id="node7" class="node">
<title>:domain:model</title>
<ellipse fill="none" stroke="black" cx="178.53" cy="-18" rx="65.04" ry="18"/>
<text text-anchor="middle" x="178.53" y="-12.57" font-family="Times New Roman,serif" font-size="14.00">:domain:model</text>
</g>
<!-- :design&#45;system&#45;&gt;:domain:model -->
<g id="edge6" class="edge">
<title>:design&#45;system&#45;&gt;:domain:model</title>
<path fill="none" stroke="black" d="M91.18,-73.12C106.64,-63.54 126.54,-51.21 143.44,-40.74"/>
<polygon fill="black" stroke="black" points="145.05,-43.86 151.71,-35.62 141.36,-37.91 145.05,-43.86"/>
</g>
<!-- :domain:framework&#45;&gt;:domain:model -->
<g id="edge7" class="edge">
<title>:domain:framework&#45;&gt;:domain:model</title>
<path fill="none" stroke="red" stroke-width="2" d="M424.68,-76.24C371.96,-63.98 292.51,-45.51 238.23,-32.88"/>
<polygon fill="red" stroke="red" stroke-width="2" points="240.53,-29.82 230,-30.97 238.94,-36.64 240.53,-29.82"/>
</g>
<!-- :domain:repository&#45;&gt;:domain:framework -->
<g id="edge9" class="edge">
<title>:domain:repository&#45;&gt;:domain:framework</title>
<path fill="none" stroke="red" stroke-width="2" d="M311.2,-146.58C344.16,-135.7 389.58,-120.7 424.93,-109.03"/>
<polygon fill="red" stroke="red" stroke-width="2" points="424.29,-112.93 432.68,-106.47 422.09,-106.28 424.29,-112.93"/>
</g>
<!-- :domain:repository&#45;&gt;:domain:model -->
<g id="edge8" class="edge">
<title>:domain:repository&#45;&gt;:domain:model</title>
<path fill="none" stroke="black" d="M256.8,-143.87C241.5,-119.46 213.27,-74.43 195.23,-45.64"/>
<polygon fill="black" stroke="black" points="198.39,-44.09 190.11,-37.47 192.46,-47.8 198.39,-44.09"/>
</g>
<!-- :domain:use&#45;case&#45;&gt;:domain:common -->
<g id="edge11" class="edge">
<title>:domain:use&#45;case&#45;&gt;:domain:common</title>
<path fill="none" stroke="black" d="M524.1,-219.59C563.57,-208.22 620.35,-191.86 662.72,-179.65"/>
<polygon fill="black" stroke="black" points="663.62,-183.04 672.26,-176.91 661.68,-176.31 663.62,-183.04"/>
</g>
<!-- :domain:use&#45;case&#45;&gt;:domain:framework -->
<g id="edge13" class="edge">
<title>:domain:use&#45;case&#45;&gt;:domain:framework</title>
<path fill="none" stroke="black" d="M535.03,-222.27C558.89,-214.67 584.29,-201.79 598.53,-180 607.29,-166.61 607.25,-157.42 598.53,-144 587.16,-126.48 568.49,-114.7 549.28,-106.8"/>
<polygon fill="black" stroke="black" points="550.6,-103.56 540.01,-103.33 548.15,-110.11 550.6,-103.56"/>
</g>
<!-- :domain:use&#45;case&#45;&gt;:domain:repository -->
<g id="edge14" class="edge">
<title>:domain:use&#45;case&#45;&gt;:domain:repository</title>
<path fill="none" stroke="red" stroke-width="2" d="M435.04,-218.83C402.35,-207.94 356.94,-192.8 321.65,-181.04"/>
<polygon fill="red" stroke="red" stroke-width="2" points="324.52,-178.3 313.92,-178.46 322.3,-184.95 324.52,-178.3"/>
</g>
<!-- :domain:use&#45;case&#45;&gt;:domain:model -->
<g id="edge10" class="edge">
<title>:domain:use&#45;case&#45;&gt;:domain:model</title>
<path fill="none" stroke="black" d="M404.5,-230.47C325.44,-226.01 206.82,-213.73 178.53,-180 147.4,-142.86 158.44,-82.17 168.81,-46.87"/>
<polygon fill="black" stroke="black" points="172.13,-47.97 171.78,-37.39 165.45,-45.88 172.13,-47.97"/>
</g>
<!-- :domain:foreground&#45;service -->
<g id="node8" class="node">
<title>:domain:foreground&#45;service</title>
<ellipse fill="none" stroke="black" cx="477.53" cy="-162" rx="112.44" ry="18"/>
<text text-anchor="middle" x="477.53" y="-156.57" font-family="Times New Roman,serif" font-size="14.00">:domain:foreground&#45;service</text>
</g>
<!-- :domain:use&#45;case&#45;&gt;:domain:foreground&#45;service -->
<g id="edge12" class="edge">
<title>:domain:use&#45;case&#45;&gt;:domain:foreground&#45;service</title>
<path fill="none" stroke="black" d="M477.53,-215.7C477.53,-208.41 477.53,-199.73 477.53,-191.54"/>
<polygon fill="black" stroke="black" points="481.03,-191.62 477.53,-181.62 474.03,-191.62 481.03,-191.62"/>
</g>
</g>
</svg>
