<?xml version="1.0" encoding="UTF-8" standalone="no"?>
<!DOCTYPE svg PUBLIC "-//W3C//DTD SVG 1.1//EN"
 "http://www.w3.org/Graphics/SVG/1.1/DTD/svg11.dtd">
<!-- Generated by graphviz version 11.0.0 (20240428.1522)
 -->
<!-- Title: G Pages: 1 -->
<svg width="225pt" height="188pt"
 viewBox="0.00 0.00 225.01 188.00" xmlns="http://www.w3.org/2000/svg" xmlns:xlink="http://www.w3.org/1999/xlink">
<g id="graph0" class="graph" transform="scale(1 1) rotate(0) translate(4 184)">
<title>G</title>
<polygon fill="white" stroke="none" points="-4,4 -4,-184 221.01,-184 221.01,4 -4,4"/>
<!-- :domain:repository -->
<g id="node1" class="node">
<title>:domain:repository</title>
<ellipse fill="none" stroke="black" cx="80.01" cy="-162" rx="80.01" ry="18"/>
<text text-anchor="middle" x="80.01" y="-156.57" font-family="Times New Roman,serif" font-size="14.00">:domain:repository</text>
</g>
<!-- :domain:model -->
<g id="node2" class="node">
<title>:domain:model</title>
<ellipse fill="none" stroke="black" cx="80.01" cy="-18" rx="65.04" ry="18"/>
<text text-anchor="middle" x="80.01" y="-12.57" font-family="Times New Roman,serif" font-size="14.00">:domain:model</text>
</g>
<!-- :domain:repository&#45;&gt;:domain:model -->
<g id="edge1" class="edge">
<title>:domain:repository&#45;&gt;:domain:model</title>
<path fill="none" stroke="black" d="M64.77,-144.24C56.91,-134.44 48.13,-121.4 44.01,-108 39.3,-92.71 39.3,-87.29 44.01,-72 46.97,-62.37 52.34,-52.92 58.04,-44.73"/>
<polygon fill="black" stroke="black" points="60.67,-47.07 63.86,-36.97 55.06,-42.87 60.67,-47.07"/>
</g>
<!-- :domain:framework -->
<g id="node3" class="node">
<title>:domain:framework</title>
<ellipse fill="none" stroke="black" cx="135.01" cy="-90" rx="82" ry="18"/>
<text text-anchor="middle" x="135.01" y="-84.58" font-family="Times New Roman,serif" font-size="14.00">:domain:framework</text>
</g>
<!-- :domain:repository&#45;&gt;:domain:framework -->
<g id="edge2" class="edge">
<title>:domain:repository&#45;&gt;:domain:framework</title>
<path fill="none" stroke="red" stroke-width="2" d="M93.32,-144.05C99.74,-135.89 107.58,-125.91 114.72,-116.82"/>
<polygon fill="red" stroke="red" stroke-width="2" points="116.52,-120.19 119.94,-110.17 111.01,-115.87 116.52,-120.19"/>
</g>
<!-- :domain:framework&#45;&gt;:domain:model -->
<g id="edge3" class="edge">
<title>:domain:framework&#45;&gt;:domain:model</title>
<path fill="none" stroke="red" stroke-width="2" d="M121.69,-72.05C115.27,-63.89 107.44,-53.91 100.3,-44.82"/>
<polygon fill="red" stroke="red" stroke-width="2" points="104,-43.87 95.07,-38.17 98.49,-48.19 104,-43.87"/>
</g>
</g>
</svg>
