<?xml version="1.0" encoding="UTF-8" standalone="no"?>
<!DOCTYPE svg PUBLIC "-//W3C//DTD SVG 1.1//EN"
 "http://www.w3.org/Graphics/SVG/1.1/DTD/svg11.dtd">
<!-- Generated by graphviz version 11.0.0 (20240428.1522)
 -->
<!-- Title: G Pages: 1 -->
<svg width="619pt" height="404pt"
 viewBox="0.00 0.00 619.45 404.00" xmlns="http://www.w3.org/2000/svg" xmlns:xlink="http://www.w3.org/1999/xlink">
<g id="graph0" class="graph" transform="scale(1 1) rotate(0) translate(4 400)">
<title>G</title>
<polygon fill="white" stroke="none" points="-4,4 -4,-400 615.45,-400 615.45,4 -4,4"/>
<!-- :foreground&#45;service -->
<g id="node1" class="node">
<title>:foreground&#45;service</title>
<ellipse fill="none" stroke="black" cx="230.44" cy="-378" rx="83" ry="18"/>
<text text-anchor="middle" x="230.44" y="-372.57" font-family="Times New Roman,serif" font-size="14.00">:foreground&#45;service</text>
</g>
<!-- :broadcast&#45;receiver -->
<g id="node2" class="node">
<title>:broadcast&#45;receiver</title>
<ellipse fill="none" stroke="black" cx="230.44" cy="-306" rx="81.5" ry="18"/>
<text text-anchor="middle" x="230.44" y="-300.57" font-family="Times New Roman,serif" font-size="14.00">:broadcast&#45;receiver</text>
</g>
<!-- :foreground&#45;service&#45;&gt;:broadcast&#45;receiver -->
<g id="edge1" class="edge">
<title>:foreground&#45;service&#45;&gt;:broadcast&#45;receiver</title>
<path fill="none" stroke="red" stroke-width="2" d="M230.44,-359.7C230.44,-352.41 230.44,-343.73 230.44,-335.54"/>
<polygon fill="red" stroke="red" stroke-width="2" points="233.94,-337.13 230.44,-327.13 226.94,-337.13 233.94,-337.13"/>
</g>
<!-- :common -->
<g id="node3" class="node">
<title>:common</title>
<ellipse fill="none" stroke="black" cx="123.44" cy="-234" rx="45.57" ry="18"/>
<text text-anchor="middle" x="123.44" y="-228.57" font-family="Times New Roman,serif" font-size="14.00">:common</text>
</g>
<!-- :foreground&#45;service&#45;&gt;:common -->
<g id="edge2" class="edge">
<title>:foreground&#45;service&#45;&gt;:common</title>
<path fill="none" stroke="black" d="M189,-362.15C171.08,-353.67 151.5,-341.23 139.44,-324 127.18,-306.49 123.44,-282.42 122.62,-263.73"/>
<polygon fill="black" stroke="black" points="126.12,-263.81 122.47,-253.86 119.12,-263.92 126.12,-263.81"/>
</g>
<!-- :domain:foreground&#45;service -->
<g id="node4" class="node">
<title>:domain:foreground&#45;service</title>
<ellipse fill="none" stroke="black" cx="112.44" cy="-162" rx="112.44" ry="18"/>
<text text-anchor="middle" x="112.44" y="-156.57" font-family="Times New Roman,serif" font-size="14.00">:domain:foreground&#45;service</text>
</g>
<!-- :foreground&#45;service&#45;&gt;:domain:foreground&#45;service -->
<g id="edge3" class="edge">
<title>:foreground&#45;service&#45;&gt;:domain:foreground&#45;service</title>
<path fill="none" stroke="black" d="M188.33,-362.14C166.85,-353.23 141.17,-340.43 121.44,-324 90.91,-298.57 80.84,-289.75 68.44,-252 63.45,-236.8 63.01,-231.05 68.44,-216 72.04,-206.03 78.42,-196.61 85.23,-188.55"/>
<polygon fill="black" stroke="black" points="87.79,-190.94 91.95,-181.2 82.62,-186.22 87.79,-190.94"/>
</g>
<!-- :domain:framework -->
<g id="node5" class="node">
<title>:domain:framework</title>
<ellipse fill="none" stroke="black" cx="377.44" cy="-90" rx="82" ry="18"/>
<text text-anchor="middle" x="377.44" y="-84.58" font-family="Times New Roman,serif" font-size="14.00">:domain:framework</text>
</g>
<!-- :foreground&#45;service&#45;&gt;:domain:framework -->
<g id="edge4" class="edge">
<title>:foreground&#45;service&#45;&gt;:domain:framework</title>
<path fill="none" stroke="black" d="M277.15,-362.81C324.52,-345.45 394.44,-310.87 420.44,-252 440.37,-206.87 414.66,-150.41 395.28,-117.76"/>
<polygon fill="black" stroke="black" points="398.3,-115.99 390.07,-109.32 392.35,-119.67 398.3,-115.99"/>
</g>
<!-- :domain:use&#45;case -->
<g id="node6" class="node">
<title>:domain:use&#45;case</title>
<ellipse fill="none" stroke="black" cx="337.44" cy="-234" rx="74.02" ry="18"/>
<text text-anchor="middle" x="337.44" y="-228.57" font-family="Times New Roman,serif" font-size="14.00">:domain:use&#45;case</text>
</g>
<!-- :foreground&#45;service&#45;&gt;:domain:use&#45;case -->
<g id="edge5" class="edge">
<title>:foreground&#45;service&#45;&gt;:domain:use&#45;case</title>
<path fill="none" stroke="black" d="M271.88,-362.15C289.8,-353.67 309.38,-341.23 321.44,-324 333.7,-306.49 337.44,-282.42 338.26,-263.73"/>
<polygon fill="black" stroke="black" points="341.76,-263.92 338.42,-253.86 334.76,-263.81 341.76,-263.92"/>
</g>
<!-- :broadcast&#45;receiver&#45;&gt;:common -->
<g id="edge6" class="edge">
<title>:broadcast&#45;receiver&#45;&gt;:common</title>
<path fill="none" stroke="black" d="M205.08,-288.41C190.24,-278.7 171.36,-266.35 155.49,-255.97"/>
<polygon fill="black" stroke="black" points="157.62,-253.18 147.34,-250.63 153.79,-259.04 157.62,-253.18"/>
</g>
<!-- :broadcast&#45;receiver&#45;&gt;:domain:foreground&#45;service -->
<g id="edge7" class="edge">
<title>:broadcast&#45;receiver&#45;&gt;:domain:foreground&#45;service</title>
<path fill="none" stroke="black" d="M222.71,-287.74C213.75,-268.87 197.72,-238.36 178.44,-216 169.22,-205.3 157.62,-195.17 146.73,-186.68"/>
<polygon fill="black" stroke="black" points="149.12,-184.1 139.02,-180.88 144.9,-189.69 149.12,-184.1"/>
</g>
<!-- :broadcast&#45;receiver&#45;&gt;:domain:framework -->
<g id="edge8" class="edge">
<title>:broadcast&#45;receiver&#45;&gt;:domain:framework</title>
<path fill="none" stroke="black" d="M232.46,-287.6C235.21,-268.89 241.39,-238.77 254.44,-216 278.07,-174.76 318.62,-137.34 346.66,-114.41"/>
<polygon fill="black" stroke="black" points="348.5,-117.42 354.11,-108.43 344.12,-111.96 348.5,-117.42"/>
</g>
<!-- :broadcast&#45;receiver&#45;&gt;:domain:use&#45;case -->
<g id="edge9" class="edge">
<title>:broadcast&#45;receiver&#45;&gt;:domain:use&#45;case</title>
<path fill="none" stroke="red" stroke-width="2" d="M255.8,-288.41C270.03,-279.1 287.96,-267.37 303.4,-257.27"/>
<polygon fill="red" stroke="red" stroke-width="2" points="303.65,-261.29 310.1,-252.89 299.82,-255.43 303.65,-261.29"/>
</g>
<!-- :domain:model -->
<g id="node7" class="node">
<title>:domain:model</title>
<ellipse fill="none" stroke="black" cx="377.44" cy="-18" rx="65.04" ry="18"/>
<text text-anchor="middle" x="377.44" y="-12.57" font-family="Times New Roman,serif" font-size="14.00">:domain:model</text>
</g>
<!-- :domain:framework&#45;&gt;:domain:model -->
<g id="edge10" class="edge">
<title>:domain:framework&#45;&gt;:domain:model</title>
<path fill="none" stroke="red" stroke-width="2" d="M377.44,-71.7C377.44,-64.41 377.44,-55.73 377.44,-47.54"/>
<polygon fill="red" stroke="red" stroke-width="2" points="380.94,-49.13 377.44,-39.13 373.94,-49.13 380.94,-49.13"/>
</g>
<!-- :domain:use&#45;case&#45;&gt;:domain:foreground&#45;service -->
<g id="edge12" class="edge">
<title>:domain:use&#45;case&#45;&gt;:domain:foreground&#45;service</title>
<path fill="none" stroke="black" d="M292.99,-219.17C258.72,-208.51 210.95,-193.65 173.16,-181.89"/>
<polygon fill="black" stroke="black" points="174.32,-178.59 163.73,-178.96 172.24,-185.27 174.32,-178.59"/>
</g>
<!-- :domain:use&#45;case&#45;&gt;:domain:framework -->
<g id="edge13" class="edge">
<title>:domain:use&#45;case&#45;&gt;:domain:framework</title>
<path fill="none" stroke="black" d="M342.35,-215.59C349.13,-191.5 361.45,-147.75 369.54,-119.03"/>
<polygon fill="black" stroke="black" points="372.87,-120.14 372.21,-109.57 366.13,-118.24 372.87,-120.14"/>
</g>
<!-- :domain:use&#45;case&#45;&gt;:domain:model -->
<g id="edge11" class="edge">
<title>:domain:use&#45;case&#45;&gt;:domain:model</title>
<path fill="none" stroke="black" d="M323.48,-216.04C300.22,-185.59 258.68,-120.3 286.44,-72 295.26,-56.66 310.42,-45.34 325.87,-37.2"/>
<polygon fill="black" stroke="black" points="327.15,-40.46 334.63,-32.95 324.1,-34.16 327.15,-40.46"/>
</g>
<!-- :domain:repository -->
<g id="node8" class="node">
<title>:domain:repository</title>
<ellipse fill="none" stroke="black" cx="531.44" cy="-162" rx="80.01" ry="18"/>
<text text-anchor="middle" x="531.44" y="-156.57" font-family="Times New Roman,serif" font-size="14.00">:domain:repository</text>
</g>
<!-- :domain:use&#45;case&#45;&gt;:domain:repository -->
<g id="edge14" class="edge">
<title>:domain:use&#45;case&#45;&gt;:domain:repository</title>
<path fill="none" stroke="red" stroke-width="2" d="M377.64,-218.5C407.25,-207.81 447.77,-193.19 479.79,-181.64"/>
<polygon fill="red" stroke="red" stroke-width="2" points="479.23,-185.56 487.44,-178.87 476.85,-178.98 479.23,-185.56"/>
</g>
<!-- :domain:repository&#45;&gt;:domain:framework -->
<g id="edge16" class="edge">
<title>:domain:repository&#45;&gt;:domain:framework</title>
<path fill="none" stroke="red" stroke-width="2" d="M497.26,-145.46C475.19,-135.43 446.22,-122.27 422.3,-111.39"/>
<polygon fill="red" stroke="red" stroke-width="2" points="425.36,-108.94 414.81,-107.99 422.47,-115.31 425.36,-108.94"/>
</g>
<!-- :domain:repository&#45;&gt;:domain:model -->
<g id="edge15" class="edge">
<title>:domain:repository&#45;&gt;:domain:model</title>
<path fill="none" stroke="black" d="M522.35,-143.95C511.47,-124.71 491.76,-93.34 468.44,-72 454.26,-59.02 436.37,-47.76 420.21,-39"/>
<polygon fill="black" stroke="black" points="422.25,-36.11 411.77,-34.57 419,-42.31 422.25,-36.11"/>
</g>
</g>
</svg>
