<?xml version="1.0" encoding="UTF-8" standalone="no"?>
<!DOCTYPE svg PUBLIC "-//W3C//DTD SVG 1.1//EN"
 "http://www.w3.org/Graphics/SVG/1.1/DTD/svg11.dtd">
<!-- Generated by graphviz version 11.0.0 (20240428.1522)
 -->
<!-- Title: G Pages: 1 -->
<svg width="616pt" height="332pt"
 viewBox="0.00 0.00 615.68 332.00" xmlns="http://www.w3.org/2000/svg" xmlns:xlink="http://www.w3.org/1999/xlink">
<g id="graph0" class="graph" transform="scale(1 1) rotate(0) translate(4 328)">
<title>G</title>
<polygon fill="white" stroke="none" points="-4,4 -4,-328 611.68,-328 611.68,4 -4,4"/>
<!-- :broadcast&#45;receiver -->
<g id="node1" class="node">
<title>:broadcast&#45;receiver</title>
<ellipse fill="none" stroke="black" cx="189.57" cy="-306" rx="81.5" ry="18"/>
<text text-anchor="middle" x="189.57" y="-300.57" font-family="Times New Roman,serif" font-size="14.00">:broadcast&#45;receiver</text>
</g>
<!-- :common -->
<g id="node2" class="node">
<title>:common</title>
<ellipse fill="none" stroke="black" cx="45.57" cy="-234" rx="45.57" ry="18"/>
<text text-anchor="middle" x="45.57" y="-228.57" font-family="Times New Roman,serif" font-size="14.00">:common</text>
</g>
<!-- :broadcast&#45;receiver&#45;&gt;:common -->
<g id="edge1" class="edge">
<title>:broadcast&#45;receiver&#45;&gt;:common</title>
<path fill="none" stroke="black" d="M156.9,-289.12C135.12,-278.53 106.42,-264.58 83.62,-253.49"/>
<polygon fill="black" stroke="black" points="85.16,-250.35 74.64,-249.13 82.1,-256.65 85.16,-250.35"/>
</g>
<!-- :domain:foreground&#45;service -->
<g id="node3" class="node">
<title>:domain:foreground&#45;service</title>
<ellipse fill="none" stroke="black" cx="259.57" cy="-162" rx="112.44" ry="18"/>
<text text-anchor="middle" x="259.57" y="-156.57" font-family="Times New Roman,serif" font-size="14.00">:domain:foreground&#45;service</text>
</g>
<!-- :broadcast&#45;receiver&#45;&gt;:domain:foreground&#45;service -->
<g id="edge2" class="edge">
<title>:broadcast&#45;receiver&#45;&gt;:domain:foreground&#45;service</title>
<path fill="none" stroke="black" d="M198.02,-287.87C209.95,-263.67 231.87,-219.21 246.07,-190.39"/>
<polygon fill="black" stroke="black" points="249.15,-192.06 250.43,-181.55 242.87,-188.97 249.15,-192.06"/>
</g>
<!-- :domain:framework -->
<g id="node4" class="node">
<title>:domain:framework</title>
<ellipse fill="none" stroke="black" cx="399.57" cy="-90" rx="82" ry="18"/>
<text text-anchor="middle" x="399.57" y="-84.58" font-family="Times New Roman,serif" font-size="14.00">:domain:framework</text>
</g>
<!-- :broadcast&#45;receiver&#45;&gt;:domain:framework -->
<g id="edge3" class="edge">
<title>:broadcast&#45;receiver&#45;&gt;:domain:framework</title>
<path fill="none" stroke="black" d="M174.93,-288.02C149.45,-256.36 102.95,-187.59 138.57,-144 160.19,-117.56 243.74,-103.99 310.57,-97.23"/>
<polygon fill="black" stroke="black" points="310.87,-100.72 320.48,-96.28 310.19,-93.76 310.87,-100.72"/>
</g>
<!-- :domain:use&#45;case -->
<g id="node5" class="node">
<title>:domain:use&#45;case</title>
<ellipse fill="none" stroke="black" cx="399.57" cy="-234" rx="74.02" ry="18"/>
<text text-anchor="middle" x="399.57" y="-228.57" font-family="Times New Roman,serif" font-size="14.00">:domain:use&#45;case</text>
</g>
<!-- :broadcast&#45;receiver&#45;&gt;:domain:use&#45;case -->
<g id="edge4" class="edge">
<title>:broadcast&#45;receiver&#45;&gt;:domain:use&#45;case</title>
<path fill="none" stroke="red" stroke-width="2" d="M233.34,-290.41C266.35,-279.41 311.77,-264.27 346.79,-252.6"/>
<polygon fill="red" stroke="red" stroke-width="2" points="346.05,-256.53 354.43,-250.05 343.83,-249.89 346.05,-256.53"/>
</g>
<!-- :domain:model -->
<g id="node6" class="node">
<title>:domain:model</title>
<ellipse fill="none" stroke="black" cx="509.57" cy="-18" rx="65.04" ry="18"/>
<text text-anchor="middle" x="509.57" y="-12.57" font-family="Times New Roman,serif" font-size="14.00">:domain:model</text>
</g>
<!-- :domain:framework&#45;&gt;:domain:model -->
<g id="edge5" class="edge">
<title>:domain:framework&#45;&gt;:domain:model</title>
<path fill="none" stroke="red" stroke-width="2" d="M425.37,-72.59C440.09,-63.22 458.75,-51.34 474.76,-41.16"/>
<polygon fill="red" stroke="red" stroke-width="2" points="475.21,-45.01 481.77,-36.69 471.46,-39.11 475.21,-45.01"/>
</g>
<!-- :domain:use&#45;case&#45;&gt;:domain:foreground&#45;service -->
<g id="edge7" class="edge">
<title>:domain:use&#45;case&#45;&gt;:domain:foreground&#45;service</title>
<path fill="none" stroke="black" d="M368.16,-217.29C348.9,-207.66 323.97,-195.2 302.86,-184.64"/>
<polygon fill="black" stroke="black" points="304.7,-181.65 294.19,-180.31 301.57,-187.91 304.7,-181.65"/>
</g>
<!-- :domain:use&#45;case&#45;&gt;:domain:framework -->
<g id="edge8" class="edge">
<title>:domain:use&#45;case&#45;&gt;:domain:framework</title>
<path fill="none" stroke="black" d="M399.57,-215.59C399.57,-191.61 399.57,-148.14 399.57,-119.42"/>
<polygon fill="black" stroke="black" points="403.08,-119.62 399.57,-109.62 396.08,-119.62 403.08,-119.62"/>
</g>
<!-- :domain:use&#45;case&#45;&gt;:domain:model -->
<g id="edge6" class="edge">
<title>:domain:use&#45;case&#45;&gt;:domain:model</title>
<path fill="none" stroke="black" d="M463.09,-224.36C514.26,-215.95 580.25,-201.29 596.57,-180 630.84,-135.3 575.92,-75.29 538.91,-42.62"/>
<polygon fill="black" stroke="black" points="541.42,-40.17 531.56,-36.3 536.86,-45.47 541.42,-40.17"/>
</g>
<!-- :domain:repository -->
<g id="node7" class="node">
<title>:domain:repository</title>
<ellipse fill="none" stroke="black" cx="507.57" cy="-162" rx="80.01" ry="18"/>
<text text-anchor="middle" x="507.57" y="-156.57" font-family="Times New Roman,serif" font-size="14.00">:domain:repository</text>
</g>
<!-- :domain:use&#45;case&#45;&gt;:domain:repository -->
<g id="edge9" class="edge">
<title>:domain:use&#45;case&#45;&gt;:domain:repository</title>
<path fill="none" stroke="red" stroke-width="2" d="M424.62,-216.76C438.97,-207.47 457.19,-195.66 472.89,-185.48"/>
<polygon fill="red" stroke="red" stroke-width="2" points="473.26,-189.41 479.75,-181.04 469.45,-183.54 473.26,-189.41"/>
</g>
<!-- :domain:repository&#45;&gt;:domain:framework -->
<g id="edge11" class="edge">
<title>:domain:repository&#45;&gt;:domain:framework</title>
<path fill="none" stroke="red" stroke-width="2" d="M482.25,-144.59C468,-135.35 450,-123.68 434.43,-113.59"/>
<polygon fill="red" stroke="red" stroke-width="2" points="437.95,-111.7 427.65,-109.2 434.14,-117.57 437.95,-111.7"/>
</g>
<!-- :domain:repository&#45;&gt;:domain:model -->
<g id="edge10" class="edge">
<title>:domain:repository&#45;&gt;:domain:model</title>
<path fill="none" stroke="black" d="M507.82,-143.59C508.16,-119.61 508.77,-76.14 509.17,-47.42"/>
<polygon fill="black" stroke="black" points="512.67,-47.67 509.31,-37.62 505.67,-47.57 512.67,-47.67"/>
</g>
</g>
</svg>
