<?xml version="1.0" encoding="UTF-8" standalone="no"?>
<!DOCTYPE svg PUBLIC "-//W3C//DTD SVG 1.1//EN"
 "http://www.w3.org/Graphics/SVG/1.1/DTD/svg11.dtd">
<!-- Generated by graphviz version 11.0.0 (20240428.1522)
 -->
<!-- Title: G Pages: 1 -->
<svg width="358pt" height="260pt"
 viewBox="0.00 0.00 357.58 260.00" xmlns="http://www.w3.org/2000/svg" xmlns:xlink="http://www.w3.org/1999/xlink">
<g id="graph0" class="graph" transform="scale(1 1) rotate(0) translate(4 256)">
<title>G</title>
<polygon fill="white" stroke="none" points="-4,4 -4,-256 353.58,-256 353.58,4 -4,4"/>
<!-- :data:datastore -->
<g id="node1" class="node">
<title>:data:datastore</title>
<ellipse fill="none" stroke="black" cx="119.57" cy="-234" rx="64.04" ry="18"/>
<text text-anchor="middle" x="119.57" y="-228.57" font-family="Times New Roman,serif" font-size="14.00">:data:datastore</text>
</g>
<!-- :common -->
<g id="node2" class="node">
<title>:common</title>
<ellipse fill="none" stroke="black" cx="45.57" cy="-162" rx="45.57" ry="18"/>
<text text-anchor="middle" x="45.57" y="-156.57" font-family="Times New Roman,serif" font-size="14.00">:common</text>
</g>
<!-- :data:datastore&#45;&gt;:common -->
<g id="edge1" class="edge">
<title>:data:datastore&#45;&gt;:common</title>
<path fill="none" stroke="black" d="M102.04,-216.41C92.69,-207.57 81.02,-196.53 70.72,-186.79"/>
<polygon fill="black" stroke="black" points="73.25,-184.36 63.58,-180.03 68.44,-189.44 73.25,-184.36"/>
</g>
<!-- :domain:model -->
<g id="node3" class="node">
<title>:domain:model</title>
<ellipse fill="none" stroke="black" cx="157.57" cy="-18" rx="65.04" ry="18"/>
<text text-anchor="middle" x="157.57" y="-12.57" font-family="Times New Roman,serif" font-size="14.00">:domain:model</text>
</g>
<!-- :data:datastore&#45;&gt;:domain:model -->
<g id="edge2" class="edge">
<title>:data:datastore&#45;&gt;:domain:model</title>
<path fill="none" stroke="black" d="M122.62,-215.85C129.14,-179.14 144.5,-92.66 152.51,-47.53"/>
<polygon fill="black" stroke="black" points="155.95,-48.18 154.25,-37.72 149.06,-46.96 155.95,-48.18"/>
</g>
<!-- :domain:repository -->
<g id="node4" class="node">
<title>:domain:repository</title>
<ellipse fill="none" stroke="black" cx="227.57" cy="-162" rx="80.01" ry="18"/>
<text text-anchor="middle" x="227.57" y="-156.57" font-family="Times New Roman,serif" font-size="14.00">:domain:repository</text>
</g>
<!-- :data:datastore&#45;&gt;:domain:repository -->
<g id="edge3" class="edge">
<title>:data:datastore&#45;&gt;:domain:repository</title>
<path fill="none" stroke="red" stroke-width="2" d="M144.35,-216.94C158.69,-207.65 176.96,-195.81 192.73,-185.59"/>
<polygon fill="red" stroke="red" stroke-width="2" points="193.14,-189.49 199.62,-181.12 189.33,-183.62 193.14,-189.49"/>
</g>
<!-- :domain:repository&#45;&gt;:domain:model -->
<g id="edge4" class="edge">
<title>:domain:repository&#45;&gt;:domain:model</title>
<path fill="none" stroke="black" d="M206.55,-144.18C196,-134.65 183.94,-121.87 176.57,-108 166.65,-89.32 161.91,-65.83 159.65,-47.68"/>
<polygon fill="black" stroke="black" points="163.14,-47.44 158.62,-37.86 156.18,-48.17 163.14,-47.44"/>
</g>
<!-- :domain:framework -->
<g id="node5" class="node">
<title>:domain:framework</title>
<ellipse fill="none" stroke="black" cx="267.57" cy="-90" rx="82" ry="18"/>
<text text-anchor="middle" x="267.57" y="-84.58" font-family="Times New Roman,serif" font-size="14.00">:domain:framework</text>
</g>
<!-- :domain:repository&#45;&gt;:domain:framework -->
<g id="edge5" class="edge">
<title>:domain:repository&#45;&gt;:domain:framework</title>
<path fill="none" stroke="red" stroke-width="2" d="M237.46,-143.7C241.92,-135.9 247.28,-126.51 252.24,-117.83"/>
<polygon fill="red" stroke="red" stroke-width="2" points="254.38,-121.15 256.3,-110.73 248.3,-117.68 254.38,-121.15"/>
</g>
<!-- :domain:framework&#45;&gt;:domain:model -->
<g id="edge6" class="edge">
<title>:domain:framework&#45;&gt;:domain:model</title>
<path fill="none" stroke="red" stroke-width="2" d="M241.78,-72.59C227.06,-63.22 208.4,-51.34 192.39,-41.16"/>
<polygon fill="red" stroke="red" stroke-width="2" points="195.69,-39.11 185.38,-36.69 191.94,-45.01 195.69,-39.11"/>
</g>
</g>
</svg>
