<?xml version="1.0" encoding="UTF-8" standalone="no"?>
<!DOCTYPE svg PUBLIC "-//W3C//DTD SVG 1.1//EN"
 "http://www.w3.org/Graphics/SVG/1.1/DTD/svg11.dtd">
<!-- Generated by graphviz version 11.0.0 (20240428.1522)
 -->
<!-- Title: G Pages: 1 -->
<svg width="287pt" height="188pt"
 viewBox="0.00 0.00 287.11 188.00" xmlns="http://www.w3.org/2000/svg" xmlns:xlink="http://www.w3.org/1999/xlink">
<g id="graph0" class="graph" transform="scale(1 1) rotate(0) translate(4 184)">
<title>G</title>
<polygon fill="white" stroke="none" points="-4,4 -4,-184 283.11,-184 283.11,4 -4,4"/>
<!-- :roborazzi -->
<g id="node1" class="node">
<title>:roborazzi</title>
<ellipse fill="none" stroke="black" cx="119.57" cy="-162" rx="47.57" ry="18"/>
<text text-anchor="middle" x="119.57" y="-156.57" font-family="Times New Roman,serif" font-size="14.00">:roborazzi</text>
</g>
<!-- :common -->
<g id="node2" class="node">
<title>:common</title>
<ellipse fill="none" stroke="black" cx="45.57" cy="-90" rx="45.57" ry="18"/>
<text text-anchor="middle" x="45.57" y="-84.58" font-family="Times New Roman,serif" font-size="14.00">:common</text>
</g>
<!-- :roborazzi&#45;&gt;:common -->
<g id="edge1" class="edge">
<title>:roborazzi&#45;&gt;:common</title>
<path fill="none" stroke="black" d="M102.41,-144.76C93.07,-135.93 81.34,-124.83 70.96,-115.01"/>
<polygon fill="black" stroke="black" points="73.41,-112.52 63.74,-108.19 68.6,-117.6 73.41,-112.52"/>
</g>
<!-- :domain -->
<g id="node3" class="node">
<title>:domain</title>
<ellipse fill="none" stroke="black" cx="166.57" cy="-18" rx="40.09" ry="18"/>
<text text-anchor="middle" x="166.57" y="-12.57" font-family="Times New Roman,serif" font-size="14.00">:domain</text>
</g>
<!-- :roborazzi&#45;&gt;:domain -->
<g id="edge2" class="edge">
<title>:roborazzi&#45;&gt;:domain</title>
<path fill="none" stroke="black" d="M121.85,-143.55C124.55,-125.31 129.84,-96.06 138.57,-72 141.82,-63.06 146.32,-53.75 150.76,-45.47"/>
<polygon fill="black" stroke="black" points="153.69,-47.39 155.52,-36.96 147.58,-43.98 153.69,-47.39"/>
</g>
<!-- :design&#45;system -->
<g id="node4" class="node">
<title>:design&#45;system</title>
<ellipse fill="none" stroke="black" cx="213.57" cy="-90" rx="65.53" ry="18"/>
<text text-anchor="middle" x="213.57" y="-84.58" font-family="Times New Roman,serif" font-size="14.00">:design&#45;system</text>
</g>
<!-- :roborazzi&#45;&gt;:design&#45;system -->
<g id="edge3" class="edge">
<title>:roborazzi&#45;&gt;:design&#45;system</title>
<path fill="none" stroke="red" stroke-width="2" d="M140.44,-145.46C152.83,-136.24 168.78,-124.36 182.62,-114.05"/>
<polygon fill="red" stroke="red" stroke-width="2" points="183.43,-117.81 189.36,-109.03 179.25,-112.2 183.43,-117.81"/>
</g>
<!-- :design&#45;system&#45;&gt;:domain -->
<g id="edge4" class="edge">
<title>:design&#45;system&#45;&gt;:domain</title>
<path fill="none" stroke="red" stroke-width="2" d="M202.2,-72.05C196.69,-63.85 189.96,-53.83 183.84,-44.71"/>
<polygon fill="red" stroke="red" stroke-width="2" points="187.69,-44.17 179.21,-37.82 181.88,-48.07 187.69,-44.17"/>
</g>
</g>
</svg>
