<?xml version="1.0" encoding="UTF-8" standalone="no"?>
<!DOCTYPE svg PUBLIC "-//W3C//DTD SVG 1.1//EN"
 "http://www.w3.org/Graphics/SVG/1.1/DTD/svg11.dtd">
<!-- Generated by graphviz version 11.0.0 (20240428.1522)
 -->
<!-- Title: G Pages: 1 -->
<svg width="452pt" height="260pt"
 viewBox="0.00 0.00 451.52 260.00" xmlns="http://www.w3.org/2000/svg" xmlns:xlink="http://www.w3.org/1999/xlink">
<g id="graph0" class="graph" transform="scale(1 1) rotate(0) translate(4 256)">
<title>G</title>
<polygon fill="white" stroke="none" points="-4,4 -4,-256 447.52,-256 447.52,4 -4,4"/>
<!-- :data:datastore -->
<g id="node1" class="node">
<title>:data:datastore</title>
<ellipse fill="none" stroke="black" cx="119.57" cy="-234" rx="64.04" ry="18"/>
<text text-anchor="middle" x="119.57" y="-228.57" font-family="Times New Roman,serif" font-size="14.00">:data:datastore</text>
</g>
<!-- :common -->
<g id="node2" class="node">
<title>:common</title>
<ellipse fill="none" stroke="black" cx="45.57" cy="-162" rx="45.57" ry="18"/>
<text text-anchor="middle" x="45.57" y="-156.57" font-family="Times New Roman,serif" font-size="14.00">:common</text>
</g>
<!-- :data:datastore&#45;&gt;:common -->
<g id="edge1" class="edge">
<title>:data:datastore&#45;&gt;:common</title>
<path fill="none" stroke="black" d="M102.04,-216.41C92.69,-207.57 81.02,-196.53 70.72,-186.79"/>
<polygon fill="black" stroke="black" points="73.25,-184.36 63.58,-180.03 68.44,-189.44 73.25,-184.36"/>
</g>
<!-- :domain:model -->
<g id="node3" class="node">
<title>:domain:model</title>
<ellipse fill="none" stroke="black" cx="138.57" cy="-18" rx="65.04" ry="18"/>
<text text-anchor="middle" x="138.57" y="-12.57" font-family="Times New Roman,serif" font-size="14.00">:domain:model</text>
</g>
<!-- :data:datastore&#45;&gt;:domain:model -->
<g id="edge2" class="edge">
<title>:data:datastore&#45;&gt;:domain:model</title>
<path fill="none" stroke="black" d="M121.1,-215.85C124.36,-179.14 132.04,-92.66 136.04,-47.53"/>
<polygon fill="black" stroke="black" points="139.51,-48.01 136.91,-37.74 132.54,-47.39 139.51,-48.01"/>
</g>
<!-- :domain:repository -->
<g id="node4" class="node">
<title>:domain:repository</title>
<ellipse fill="none" stroke="black" cx="227.57" cy="-162" rx="80.01" ry="18"/>
<text text-anchor="middle" x="227.57" y="-156.57" font-family="Times New Roman,serif" font-size="14.00">:domain:repository</text>
</g>
<!-- :data:datastore&#45;&gt;:domain:repository -->
<g id="edge3" class="edge">
<title>:data:datastore&#45;&gt;:domain:repository</title>
<path fill="none" stroke="red" stroke-width="2" d="M144.35,-216.94C158.69,-207.65 176.96,-195.81 192.73,-185.59"/>
<polygon fill="red" stroke="red" stroke-width="2" points="193.14,-189.49 199.62,-181.12 189.33,-183.62 193.14,-189.49"/>
</g>
<!-- :domain:repository&#45;&gt;:domain:model -->
<g id="edge4" class="edge">
<title>:domain:repository&#45;&gt;:domain:model</title>
<path fill="none" stroke="black" d="M208.35,-144.26C197.95,-134.46 185.46,-121.42 176.57,-108 164.04,-89.06 154.15,-65.31 147.6,-47.11"/>
<polygon fill="black" stroke="black" points="150.94,-46.06 144.37,-37.75 144.32,-48.35 150.94,-46.06"/>
</g>
<!-- :domain:framework -->
<g id="node5" class="node">
<title>:domain:framework</title>
<ellipse fill="none" stroke="black" cx="267.57" cy="-90" rx="82" ry="18"/>
<text text-anchor="middle" x="267.57" y="-84.58" font-family="Times New Roman,serif" font-size="14.00">:domain:framework</text>
</g>
<!-- :domain:repository&#45;&gt;:domain:framework -->
<g id="edge5" class="edge">
<title>:domain:repository&#45;&gt;:domain:framework</title>
<path fill="none" stroke="red" stroke-width="2" d="M237.46,-143.7C241.92,-135.9 247.28,-126.51 252.24,-117.83"/>
<polygon fill="red" stroke="red" stroke-width="2" points="254.38,-121.15 256.3,-110.73 248.3,-117.68 254.38,-121.15"/>
</g>
<!-- :domain:framework&#45;&gt;:domain:model -->
<g id="edge6" class="edge">
<title>:domain:framework&#45;&gt;:domain:model</title>
<path fill="none" stroke="red" stroke-width="2" d="M237.66,-72.76C219.61,-62.97 196.44,-50.4 177.04,-39.88"/>
<polygon fill="red" stroke="red" stroke-width="2" points="180.12,-37.56 169.66,-35.87 176.78,-43.72 180.12,-37.56"/>
</g>
<!-- :domain:broadcast&#45;receiver -->
<g id="node6" class="node">
<title>:domain:broadcast&#45;receiver</title>
<ellipse fill="none" stroke="black" cx="332.57" cy="-18" rx="110.94" ry="18"/>
<text text-anchor="middle" x="332.57" y="-12.57" font-family="Times New Roman,serif" font-size="14.00">:domain:broadcast&#45;receiver</text>
</g>
<!-- :domain:framework&#45;&gt;:domain:broadcast&#45;receiver -->
<g id="edge7" class="edge">
<title>:domain:framework&#45;&gt;:domain:broadcast&#45;receiver</title>
<path fill="none" stroke="black" d="M283.31,-72.05C290.94,-63.84 300.27,-53.79 308.75,-44.66"/>
<polygon fill="black" stroke="black" points="311.26,-47.09 315.5,-37.38 306.13,-42.33 311.26,-47.09"/>
</g>
</g>
</svg>
