<?xml version="1.0" encoding="UTF-8" standalone="no"?>
<!DOCTYPE svg PUBLIC "-//W3C//DTD SVG 1.1//EN"
 "http://www.w3.org/Graphics/SVG/1.1/DTD/svg11.dtd">
<!-- Generated by graphviz version 11.0.0 (20240428.1522)
 -->
<!-- Title: G Pages: 1 -->
<svg width="642pt" height="332pt"
 viewBox="0.00 0.00 641.98 332.00" xmlns="http://www.w3.org/2000/svg" xmlns:xlink="http://www.w3.org/1999/xlink">
<g id="graph0" class="graph" transform="scale(1 1) rotate(0) translate(4 328)">
<title>G</title>
<polygon fill="white" stroke="none" points="-4,4 -4,-328 637.98,-328 637.98,4 -4,4"/>
<!-- :feature:app&#45;settings -->
<g id="node1" class="node">
<title>:feature:app&#45;settings</title>
<ellipse fill="none" stroke="black" cx="279.53" cy="-306" rx="84.5" ry="18"/>
<text text-anchor="middle" x="279.53" y="-300.57" font-family="Times New Roman,serif" font-size="14.00">:feature:app&#45;settings</text>
</g>
<!-- :design&#45;system -->
<g id="node2" class="node">
<title>:design&#45;system</title>
<ellipse fill="none" stroke="black" cx="65.53" cy="-90" rx="65.53" ry="18"/>
<text text-anchor="middle" x="65.53" y="-84.58" font-family="Times New Roman,serif" font-size="14.00">:design&#45;system</text>
</g>
<!-- :feature:app&#45;settings&#45;&gt;:design&#45;system -->
<g id="edge1" class="edge">
<title>:feature:app&#45;settings&#45;&gt;:design&#45;system</title>
<path fill="none" stroke="black" d="M237.21,-289.97C191.52,-271.44 120.22,-235.44 82.53,-180 70.49,-162.29 66.45,-138.23 65.31,-119.6"/>
<polygon fill="black" stroke="black" points="68.81,-119.65 64.97,-109.77 61.81,-119.89 68.81,-119.65"/>
</g>
<!-- :common -->
<g id="node3" class="node">
<title>:common</title>
<ellipse fill="none" stroke="black" cx="519.53" cy="-234" rx="45.57" ry="18"/>
<text text-anchor="middle" x="519.53" y="-228.57" font-family="Times New Roman,serif" font-size="14.00">:common</text>
</g>
<!-- :feature:app&#45;settings&#45;&gt;:common -->
<g id="edge2" class="edge">
<title>:feature:app&#45;settings&#45;&gt;:common</title>
<path fill="none" stroke="black" d="M329.08,-291.11C366.39,-280.57 418.75,-265.63 464.53,-252 467.59,-251.09 470.73,-250.14 473.9,-249.18"/>
<polygon fill="black" stroke="black" points="474.66,-252.61 483.21,-246.34 472.62,-245.92 474.66,-252.61"/>
</g>
<!-- :domain:framework -->
<g id="node4" class="node">
<title>:domain:framework</title>
<ellipse fill="none" stroke="black" cx="271.53" cy="-90" rx="82" ry="18"/>
<text text-anchor="middle" x="271.53" y="-84.58" font-family="Times New Roman,serif" font-size="14.00">:domain:framework</text>
</g>
<!-- :feature:app&#45;settings&#45;&gt;:domain:framework -->
<g id="edge3" class="edge">
<title>:feature:app&#45;settings&#45;&gt;:domain:framework</title>
<path fill="none" stroke="black" d="M278.89,-287.85C277.52,-251.14 274.29,-164.66 272.6,-119.53"/>
<polygon fill="black" stroke="black" points="276.11,-119.61 272.24,-109.74 269.11,-119.87 276.11,-119.61"/>
</g>
<!-- :domain:repository -->
<g id="node5" class="node">
<title>:domain:repository</title>
<ellipse fill="none" stroke="black" cx="171.53" cy="-162" rx="80.01" ry="18"/>
<text text-anchor="middle" x="171.53" y="-156.57" font-family="Times New Roman,serif" font-size="14.00">:domain:repository</text>
</g>
<!-- :feature:app&#45;settings&#45;&gt;:domain:repository -->
<g id="edge4" class="edge">
<title>:feature:app&#45;settings&#45;&gt;:domain:repository</title>
<path fill="none" stroke="black" d="M266.51,-287.87C247.86,-263.35 213.39,-218.03 191.51,-189.26"/>
<polygon fill="black" stroke="black" points="194.36,-187.23 185.52,-181.39 188.79,-191.47 194.36,-187.23"/>
</g>
<!-- :domain:use&#45;case -->
<g id="node6" class="node">
<title>:domain:use&#45;case</title>
<ellipse fill="none" stroke="black" cx="381.53" cy="-234" rx="74.02" ry="18"/>
<text text-anchor="middle" x="381.53" y="-228.57" font-family="Times New Roman,serif" font-size="14.00">:domain:use&#45;case</text>
</g>
<!-- :feature:app&#45;settings&#45;&gt;:domain:use&#45;case -->
<g id="edge5" class="edge">
<title>:feature:app&#45;settings&#45;&gt;:domain:use&#45;case</title>
<path fill="none" stroke="red" stroke-width="2" d="M303.71,-288.41C317.05,-279.26 333.81,-267.76 348.35,-257.77"/>
<polygon fill="red" stroke="red" stroke-width="2" points="348.78,-261.73 355.04,-253.18 344.81,-255.96 348.78,-261.73"/>
</g>
<!-- :domain:model -->
<g id="node7" class="node">
<title>:domain:model</title>
<ellipse fill="none" stroke="black" cx="216.53" cy="-18" rx="65.04" ry="18"/>
<text text-anchor="middle" x="216.53" y="-12.57" font-family="Times New Roman,serif" font-size="14.00">:domain:model</text>
</g>
<!-- :design&#45;system&#45;&gt;:domain:model -->
<g id="edge6" class="edge">
<title>:design&#45;system&#45;&gt;:domain:model</title>
<path fill="none" stroke="black" d="M97.93,-73.98C120.12,-63.7 149.79,-49.94 173.9,-38.77"/>
<polygon fill="black" stroke="black" points="175.22,-42.01 182.82,-34.63 172.28,-35.66 175.22,-42.01"/>
</g>
<!-- :domain:framework&#45;&gt;:domain:model -->
<g id="edge7" class="edge">
<title>:domain:framework&#45;&gt;:domain:model</title>
<path fill="none" stroke="red" stroke-width="2" d="M258.22,-72.05C251.8,-63.89 243.97,-53.91 236.83,-44.82"/>
<polygon fill="red" stroke="red" stroke-width="2" points="240.53,-43.87 231.6,-38.17 235.02,-48.19 240.53,-43.87"/>
</g>
<!-- :domain:repository&#45;&gt;:domain:framework -->
<g id="edge9" class="edge">
<title>:domain:repository&#45;&gt;:domain:framework</title>
<path fill="none" stroke="red" stroke-width="2" d="M195.23,-144.41C208.19,-135.34 224.43,-123.97 238.6,-114.06"/>
<polygon fill="red" stroke="red" stroke-width="2" points="239.34,-117.81 245.53,-109.21 235.33,-112.07 239.34,-117.81"/>
</g>
<!-- :domain:repository&#45;&gt;:domain:model -->
<g id="edge8" class="edge">
<title>:domain:repository&#45;&gt;:domain:model</title>
<path fill="none" stroke="black" d="M170.81,-143.72C170.6,-125.37 171.89,-95.79 180.53,-72 183.94,-62.64 189.37,-53.34 194.99,-45.2"/>
<polygon fill="black" stroke="black" points="197.81,-47.28 200.92,-37.15 192.17,-43.13 197.81,-47.28"/>
</g>
<!-- :domain:use&#45;case&#45;&gt;:domain:framework -->
<g id="edge12" class="edge">
<title>:domain:use&#45;case&#45;&gt;:domain:framework</title>
<path fill="none" stroke="black" d="M368.27,-215.87C349.27,-191.35 314.17,-146.03 291.88,-117.26"/>
<polygon fill="black" stroke="black" points="294.67,-115.15 285.78,-109.39 289.13,-119.43 294.67,-115.15"/>
</g>
<!-- :domain:use&#45;case&#45;&gt;:domain:repository -->
<g id="edge13" class="edge">
<title>:domain:use&#45;case&#45;&gt;:domain:repository</title>
<path fill="none" stroke="red" stroke-width="2" d="M339.04,-218.83C306.35,-207.94 260.94,-192.8 225.65,-181.04"/>
<polygon fill="red" stroke="red" stroke-width="2" points="228.52,-178.3 217.92,-178.46 226.3,-184.95 228.52,-178.3"/>
</g>
<!-- :domain:use&#45;case&#45;&gt;:domain:model -->
<g id="edge10" class="edge">
<title>:domain:use&#45;case&#45;&gt;:domain:model</title>
<path fill="none" stroke="black" d="M384.9,-215.53C390.03,-183.38 396.01,-114.25 362.53,-72 344.13,-48.77 314.62,-35.72 286.93,-28.38"/>
<polygon fill="black" stroke="black" points="288.04,-25.05 277.5,-26.11 286.4,-31.86 288.04,-25.05"/>
</g>
<!-- :domain:foreground&#45;service -->
<g id="node8" class="node">
<title>:domain:foreground&#45;service</title>
<ellipse fill="none" stroke="black" cx="521.53" cy="-162" rx="112.44" ry="18"/>
<text text-anchor="middle" x="521.53" y="-156.57" font-family="Times New Roman,serif" font-size="14.00">:domain:foreground&#45;service</text>
</g>
<!-- :domain:use&#45;case&#45;&gt;:domain:foreground&#45;service -->
<g id="edge11" class="edge">
<title>:domain:use&#45;case&#45;&gt;:domain:foreground&#45;service</title>
<path fill="none" stroke="black" d="M412.95,-217.29C432.21,-207.66 457.14,-195.2 478.25,-184.64"/>
<polygon fill="black" stroke="black" points="479.54,-187.91 486.92,-180.31 476.41,-181.65 479.54,-187.91"/>
</g>
</g>
</svg>
