<?xml version="1.0" encoding="UTF-8" standalone="no"?>
<!DOCTYPE svg PUBLIC "-//W3C//DTD SVG 1.1//EN"
 "http://www.w3.org/Graphics/SVG/1.1/DTD/svg11.dtd">
<!-- Generated by graphviz version 11.0.0 (20240428.1522)
 -->
<!-- Title: G Pages: 1 -->
<svg width="472pt" height="260pt"
 viewBox="0.00 0.00 472.48 260.00" xmlns="http://www.w3.org/2000/svg" xmlns:xlink="http://www.w3.org/1999/xlink">
<g id="graph0" class="graph" transform="scale(1 1) rotate(0) translate(4 256)">
<title>G</title>
<polygon fill="white" stroke="none" points="-4,4 -4,-256 468.48,-256 468.48,4 -4,4"/>
<!-- :feature:settings -->
<g id="node1" class="node">
<title>:feature:settings</title>
<ellipse fill="none" stroke="black" cx="159.53" cy="-234" rx="67.53" ry="18"/>
<text text-anchor="middle" x="159.53" y="-228.57" font-family="Times New Roman,serif" font-size="14.00">:feature:settings</text>
</g>
<!-- :design&#45;system -->
<g id="node2" class="node">
<title>:design&#45;system</title>
<ellipse fill="none" stroke="black" cx="65.53" cy="-90" rx="65.53" ry="18"/>
<text text-anchor="middle" x="65.53" y="-84.58" font-family="Times New Roman,serif" font-size="14.00">:design&#45;system</text>
</g>
<!-- :feature:settings&#45;&gt;:design&#45;system -->
<g id="edge1" class="edge">
<title>:feature:settings&#45;&gt;:design&#45;system</title>
<path fill="none" stroke="black" d="M148.2,-215.87C132.03,-191.46 102.23,-146.43 83.17,-117.64"/>
<polygon fill="black" stroke="black" points="86.19,-115.86 77.75,-109.45 80.35,-119.72 86.19,-115.86"/>
</g>
<!-- :domain:model -->
<g id="node3" class="node">
<title>:domain:model</title>
<ellipse fill="none" stroke="black" cx="159.53" cy="-18" rx="65.04" ry="18"/>
<text text-anchor="middle" x="159.53" y="-12.57" font-family="Times New Roman,serif" font-size="14.00">:domain:model</text>
</g>
<!-- :feature:settings&#45;&gt;:domain:model -->
<g id="edge2" class="edge">
<title>:feature:settings&#45;&gt;:domain:model</title>
<path fill="none" stroke="black" d="M159.53,-215.85C159.53,-179.14 159.53,-92.66 159.53,-47.53"/>
<polygon fill="black" stroke="black" points="163.03,-47.75 159.53,-37.75 156.03,-47.75 163.03,-47.75"/>
</g>
<!-- :domain:repository -->
<g id="node4" class="node">
<title>:domain:repository</title>
<ellipse fill="none" stroke="black" cx="267.53" cy="-162" rx="80.01" ry="18"/>
<text text-anchor="middle" x="267.53" y="-156.57" font-family="Times New Roman,serif" font-size="14.00">:domain:repository</text>
</g>
<!-- :feature:settings&#45;&gt;:domain:repository -->
<g id="edge3" class="edge">
<title>:feature:settings&#45;&gt;:domain:repository</title>
<path fill="none" stroke="red" stroke-width="2" d="M184.31,-216.94C198.65,-207.65 216.92,-195.81 232.69,-185.59"/>
<polygon fill="red" stroke="red" stroke-width="2" points="233.09,-189.49 239.58,-181.12 229.29,-183.62 233.09,-189.49"/>
</g>
<!-- :design&#45;system&#45;&gt;:domain:model -->
<g id="edge4" class="edge">
<title>:design&#45;system&#45;&gt;:domain:model</title>
<path fill="none" stroke="black" d="M87.34,-72.76C99.59,-63.64 115.08,-52.1 128.57,-42.06"/>
<polygon fill="black" stroke="black" points="130.38,-45.07 136.31,-36.29 126.2,-39.46 130.38,-45.07"/>
</g>
<!-- :domain:repository&#45;&gt;:domain:model -->
<g id="edge5" class="edge">
<title>:domain:repository&#45;&gt;:domain:model</title>
<path fill="none" stroke="black" d="M249.63,-144.12C239.41,-134.08 226.66,-120.83 216.53,-108 200.96,-88.25 185.72,-64.13 174.92,-45.98"/>
<polygon fill="black" stroke="black" points="177.95,-44.23 169.87,-37.37 171.91,-47.77 177.95,-44.23"/>
</g>
<!-- :domain:framework -->
<g id="node5" class="node">
<title>:domain:framework</title>
<ellipse fill="none" stroke="black" cx="307.53" cy="-90" rx="82" ry="18"/>
<text text-anchor="middle" x="307.53" y="-84.58" font-family="Times New Roman,serif" font-size="14.00">:domain:framework</text>
</g>
<!-- :domain:repository&#45;&gt;:domain:framework -->
<g id="edge6" class="edge">
<title>:domain:repository&#45;&gt;:domain:framework</title>
<path fill="none" stroke="red" stroke-width="2" d="M277.42,-143.7C281.88,-135.9 287.24,-126.51 292.2,-117.83"/>
<polygon fill="red" stroke="red" stroke-width="2" points="294.34,-121.15 296.26,-110.73 288.26,-117.68 294.34,-121.15"/>
</g>
<!-- :domain:framework&#45;&gt;:domain:model -->
<g id="edge7" class="edge">
<title>:domain:framework&#45;&gt;:domain:model</title>
<path fill="none" stroke="red" stroke-width="2" d="M273.95,-73.12C252.5,-62.97 224.52,-49.74 201.6,-38.89"/>
<polygon fill="red" stroke="red" stroke-width="2" points="204.74,-36.51 194.2,-35.4 201.74,-42.84 204.74,-36.51"/>
</g>
<!-- :domain:broadcast&#45;receiver -->
<g id="node6" class="node">
<title>:domain:broadcast&#45;receiver</title>
<ellipse fill="none" stroke="black" cx="353.53" cy="-18" rx="110.94" ry="18"/>
<text text-anchor="middle" x="353.53" y="-12.57" font-family="Times New Roman,serif" font-size="14.00">:domain:broadcast&#45;receiver</text>
</g>
<!-- :domain:framework&#45;&gt;:domain:broadcast&#45;receiver -->
<g id="edge8" class="edge">
<title>:domain:framework&#45;&gt;:domain:broadcast&#45;receiver</title>
<path fill="none" stroke="black" d="M318.91,-71.7C324.09,-63.81 330.33,-54.3 336.09,-45.55"/>
<polygon fill="black" stroke="black" points="338.9,-47.65 341.46,-37.37 333.05,-43.8 338.9,-47.65"/>
</g>
</g>
</svg>
