<?xml version="1.0" encoding="UTF-8" standalone="no"?>
<!DOCTYPE svg PUBLIC "-//W3C//DTD SVG 1.1//EN"
 "http://www.w3.org/Graphics/SVG/1.1/DTD/svg11.dtd">
<!-- Generated by graphviz version 11.0.0 (20240428.1522)
 -->
<!-- Title: G Pages: 1 -->
<svg width="687pt" height="404pt"
 viewBox="0.00 0.00 687.24 404.00" xmlns="http://www.w3.org/2000/svg" xmlns:xlink="http://www.w3.org/1999/xlink">
<g id="graph0" class="graph" transform="scale(1 1) rotate(0) translate(4 400)">
<title>G</title>
<polygon fill="white" stroke="none" points="-4,4 -4,-400 683.24,-400 683.24,4 -4,4"/>
<!-- :framework:notification&#45;manager -->
<g id="node1" class="node">
<title>:framework:notification&#45;manager</title>
<ellipse fill="none" stroke="black" cx="220.02" cy="-378" rx="129.91" ry="18"/>
<text text-anchor="middle" x="220.02" y="-372.57" font-family="Times New Roman,serif" font-size="14.00">:framework:notification&#45;manager</text>
</g>
<!-- :broadcast&#45;receiver -->
<g id="node2" class="node">
<title>:broadcast&#45;receiver</title>
<ellipse fill="none" stroke="black" cx="308.02" cy="-306" rx="81.5" ry="18"/>
<text text-anchor="middle" x="308.02" y="-300.57" font-family="Times New Roman,serif" font-size="14.00">:broadcast&#45;receiver</text>
</g>
<!-- :framework:notification&#45;manager&#45;&gt;:broadcast&#45;receiver -->
<g id="edge1" class="edge">
<title>:framework:notification&#45;manager&#45;&gt;:broadcast&#45;receiver</title>
<path fill="none" stroke="red" stroke-width="2" d="M241.32,-360.05C252.34,-351.28 265.99,-340.43 278.06,-330.83"/>
<polygon fill="red" stroke="red" stroke-width="2" points="278.89,-334.64 284.54,-325.67 274.54,-329.16 278.89,-334.64"/>
</g>
<!-- :common -->
<g id="node3" class="node">
<title>:common</title>
<ellipse fill="none" stroke="black" cx="149.02" cy="-234" rx="45.57" ry="18"/>
<text text-anchor="middle" x="149.02" y="-228.57" font-family="Times New Roman,serif" font-size="14.00">:common</text>
</g>
<!-- :framework:notification&#45;manager&#45;&gt;:common -->
<g id="edge2" class="edge">
<title>:framework:notification&#45;manager&#45;&gt;:common</title>
<path fill="none" stroke="black" d="M211.31,-359.59C199.16,-335.29 177,-290.97 162.65,-262.27"/>
<polygon fill="black" stroke="black" points="165.85,-260.84 158.25,-253.46 159.59,-263.97 165.85,-260.84"/>
</g>
<!-- :domain:common -->
<g id="node4" class="node">
<title>:domain:common</title>
<ellipse fill="none" stroke="black" cx="75.02" cy="-162" rx="75.02" ry="18"/>
<text text-anchor="middle" x="75.02" y="-156.57" font-family="Times New Roman,serif" font-size="14.00">:domain:common</text>
</g>
<!-- :framework:notification&#45;manager&#45;&gt;:domain:common -->
<g id="edge3" class="edge">
<title>:framework:notification&#45;manager&#45;&gt;:domain:common</title>
<path fill="none" stroke="black" d="M195.67,-359.91C166.73,-338.25 119.2,-298.11 94.02,-252 83.88,-233.43 79.15,-209.94 76.94,-191.76"/>
<polygon fill="black" stroke="black" points="80.43,-191.52 75.95,-181.92 73.47,-192.22 80.43,-191.52"/>
</g>
<!-- :domain:framework -->
<g id="node5" class="node">
<title>:domain:framework</title>
<ellipse fill="none" stroke="black" cx="395.02" cy="-90" rx="82" ry="18"/>
<text text-anchor="middle" x="395.02" y="-84.58" font-family="Times New Roman,serif" font-size="14.00">:domain:framework</text>
</g>
<!-- :framework:notification&#45;manager&#45;&gt;:domain:framework -->
<g id="edge4" class="edge">
<title>:framework:notification&#45;manager&#45;&gt;:domain:framework</title>
<path fill="none" stroke="black" d="M336.46,-369.7C453.64,-354.94 623.85,-310.86 673.02,-180 678.64,-165.02 683.22,-156.33 673.02,-144 649.42,-115.48 557.28,-102.17 485.46,-96.05"/>
<polygon fill="black" stroke="black" points="485.89,-92.57 475.64,-95.25 485.32,-99.55 485.89,-92.57"/>
</g>
<!-- :broadcast&#45;receiver&#45;&gt;:common -->
<g id="edge5" class="edge">
<title>:broadcast&#45;receiver&#45;&gt;:common</title>
<path fill="none" stroke="black" d="M272.73,-289.46C247.99,-278.57 214.88,-264 189.14,-252.66"/>
<polygon fill="black" stroke="black" points="190.55,-249.46 179.99,-248.64 187.73,-255.87 190.55,-249.46"/>
</g>
<!-- :broadcast&#45;receiver&#45;&gt;:domain:common -->
<g id="edge6" class="edge">
<title>:broadcast&#45;receiver&#45;&gt;:domain:common</title>
<path fill="none" stroke="black" d="M286.25,-288.25C273.2,-278.03 256.41,-264.56 242.02,-252 224.49,-236.7 223.55,-228.63 204.02,-216 181.36,-201.35 153.99,-189.41 130.29,-180.6"/>
<polygon fill="black" stroke="black" points="131.71,-177.39 121.12,-177.29 129.34,-183.97 131.71,-177.39"/>
</g>
<!-- :broadcast&#45;receiver&#45;&gt;:domain:framework -->
<g id="edge8" class="edge">
<title>:broadcast&#45;receiver&#45;&gt;:domain:framework</title>
<path fill="none" stroke="black" d="M387.23,-301.42C469.59,-292.97 594.73,-265.79 655.02,-180 700.11,-115.83 580.07,-97.37 488.39,-92.38"/>
<polygon fill="black" stroke="black" points="488.75,-88.89 478.59,-91.9 488.41,-95.89 488.75,-88.89"/>
</g>
<!-- :domain:foreground&#45;service -->
<g id="node6" class="node">
<title>:domain:foreground&#45;service</title>
<ellipse fill="none" stroke="black" cx="534.02" cy="-162" rx="112.44" ry="18"/>
<text text-anchor="middle" x="534.02" y="-156.57" font-family="Times New Roman,serif" font-size="14.00">:domain:foreground&#45;service</text>
</g>
<!-- :broadcast&#45;receiver&#45;&gt;:domain:foreground&#45;service -->
<g id="edge7" class="edge">
<title>:broadcast&#45;receiver&#45;&gt;:domain:foreground&#45;service</title>
<path fill="none" stroke="black" d="M340.57,-289.07C360.42,-279.04 386.09,-265.48 408.02,-252 441.4,-231.48 477.78,-205.34 502.83,-186.72"/>
<polygon fill="black" stroke="black" points="504.72,-189.67 510.63,-180.88 500.53,-184.07 504.72,-189.67"/>
</g>
<!-- :domain:use&#45;case -->
<g id="node7" class="node">
<title>:domain:use&#45;case</title>
<ellipse fill="none" stroke="black" cx="325.02" cy="-234" rx="74.02" ry="18"/>
<text text-anchor="middle" x="325.02" y="-228.57" font-family="Times New Roman,serif" font-size="14.00">:domain:use&#45;case</text>
</g>
<!-- :broadcast&#45;receiver&#45;&gt;:domain:use&#45;case -->
<g id="edge9" class="edge">
<title>:broadcast&#45;receiver&#45;&gt;:domain:use&#45;case</title>
<path fill="none" stroke="red" stroke-width="2" d="M312.22,-287.7C314.01,-280.32 316.15,-271.52 318.15,-263.25"/>
<polygon fill="red" stroke="red" stroke-width="2" points="321.19,-265.59 320.15,-255.05 314.39,-263.94 321.19,-265.59"/>
</g>
<!-- :common&#45;&gt;:domain:common -->
<g id="edge10" class="edge">
<title>:common&#45;&gt;:domain:common</title>
<path fill="none" stroke="black" d="M132.22,-217.12C123.03,-208.42 111.43,-197.45 101.09,-187.66"/>
<polygon fill="black" stroke="black" points="103.54,-185.17 93.87,-180.84 98.73,-190.25 103.54,-185.17"/>
</g>
<!-- :domain:model -->
<g id="node8" class="node">
<title>:domain:model</title>
<ellipse fill="none" stroke="black" cx="285.02" cy="-18" rx="65.04" ry="18"/>
<text text-anchor="middle" x="285.02" y="-12.57" font-family="Times New Roman,serif" font-size="14.00">:domain:model</text>
</g>
<!-- :domain:framework&#45;&gt;:domain:model -->
<g id="edge11" class="edge">
<title>:domain:framework&#45;&gt;:domain:model</title>
<path fill="none" stroke="red" stroke-width="2" d="M369.23,-72.59C354.5,-63.22 335.84,-51.34 319.83,-41.16"/>
<polygon fill="red" stroke="red" stroke-width="2" points="323.13,-39.11 312.82,-36.69 319.38,-45.01 323.13,-39.11"/>
</g>
<!-- :domain:use&#45;case&#45;&gt;:domain:common -->
<g id="edge13" class="edge">
<title>:domain:use&#45;case&#45;&gt;:domain:common</title>
<path fill="none" stroke="black" d="M277.7,-219.75C236.72,-208.28 177.29,-191.64 133.37,-179.34"/>
<polygon fill="black" stroke="black" points="134.59,-176.05 124.02,-176.72 132.71,-182.79 134.59,-176.05"/>
</g>
<!-- :domain:use&#45;case&#45;&gt;:domain:framework -->
<g id="edge15" class="edge">
<title>:domain:use&#45;case&#45;&gt;:domain:framework</title>
<path fill="none" stroke="black" d="M345.31,-216.31C355.69,-206.72 367.65,-193.85 375.02,-180 384.97,-161.28 389.98,-137.79 392.5,-119.65"/>
<polygon fill="black" stroke="black" points="395.96,-120.18 393.67,-109.84 389.01,-119.36 395.96,-120.18"/>
</g>
<!-- :domain:use&#45;case&#45;&gt;:domain:foreground&#45;service -->
<g id="edge14" class="edge">
<title>:domain:use&#45;case&#45;&gt;:domain:foreground&#45;service</title>
<path fill="none" stroke="black" d="M367.31,-218.83C398.63,-208.34 441.67,-193.93 476.17,-182.37"/>
<polygon fill="black" stroke="black" points="477.25,-185.71 485.62,-179.21 475.02,-179.07 477.25,-185.71"/>
</g>
<!-- :domain:use&#45;case&#45;&gt;:domain:model -->
<g id="edge12" class="edge">
<title>:domain:use&#45;case&#45;&gt;:domain:model</title>
<path fill="none" stroke="black" d="M264.62,-223.21C239.3,-215.8 212.25,-202.8 197.02,-180 165.8,-133.29 219.36,-74.53 255.7,-42.49"/>
<polygon fill="black" stroke="black" points="257.6,-45.47 262.91,-36.3 253.04,-40.16 257.6,-45.47"/>
</g>
<!-- :domain:repository -->
<g id="node9" class="node">
<title>:domain:repository</title>
<ellipse fill="none" stroke="black" cx="286.02" cy="-162" rx="80.01" ry="18"/>
<text text-anchor="middle" x="286.02" y="-156.57" font-family="Times New Roman,serif" font-size="14.00">:domain:repository</text>
</g>
<!-- :domain:use&#45;case&#45;&gt;:domain:repository -->
<g id="edge16" class="edge">
<title>:domain:use&#45;case&#45;&gt;:domain:repository</title>
<path fill="none" stroke="red" stroke-width="2" d="M315.38,-215.7C311.08,-207.98 305.91,-198.71 301.12,-190.11"/>
<polygon fill="red" stroke="red" stroke-width="2" points="304.94,-189.78 297.02,-182.75 298.83,-193.19 304.94,-189.78"/>
</g>
<!-- :domain:repository&#45;&gt;:domain:framework -->
<g id="edge18" class="edge">
<title>:domain:repository&#45;&gt;:domain:framework</title>
<path fill="none" stroke="red" stroke-width="2" d="M311.57,-144.59C325.95,-135.35 344.12,-123.68 359.83,-113.59"/>
<polygon fill="red" stroke="red" stroke-width="2" points="360.17,-117.54 366.7,-109.19 356.39,-111.65 360.17,-117.54"/>
</g>
<!-- :domain:repository&#45;&gt;:domain:model -->
<g id="edge17" class="edge">
<title>:domain:repository&#45;&gt;:domain:model</title>
<path fill="none" stroke="black" d="M285.89,-143.59C285.72,-119.61 285.42,-76.14 285.22,-47.42"/>
<polygon fill="black" stroke="black" points="288.72,-47.6 285.15,-37.62 281.72,-47.65 288.72,-47.6"/>
</g>
</g>
</svg>
