<?xml version="1.0" encoding="UTF-8" standalone="no"?>
<!DOCTYPE svg PUBLIC "-//W3C//DTD SVG 1.1//EN"
 "http://www.w3.org/Graphics/SVG/1.1/DTD/svg11.dtd">
<!-- Generated by graphviz version 11.0.0 (20240428.1522)
 -->
<!-- Title: G Pages: 1 -->
<svg width="312pt" height="116pt"
 viewBox="0.00 0.00 311.55 116.00" xmlns="http://www.w3.org/2000/svg" xmlns:xlink="http://www.w3.org/1999/xlink">
<g id="graph0" class="graph" transform="scale(1 1) rotate(0) translate(4 112)">
<title>G</title>
<polygon fill="white" stroke="none" points="-4,4 -4,-112 307.55,-112 307.55,4 -4,4"/>
<!-- :core:ui -->
<g id="node1" class="node">
<title>:core:ui</title>
<ellipse fill="none" stroke="black" cx="164" cy="-90" rx="37.59" ry="18"/>
<text text-anchor="middle" x="164" y="-84.58" font-family="Times New Roman,serif" font-size="14.00">:core:ui</text>
</g>
<!-- :core:design&#45;system -->
<g id="node2" class="node">
<title>:core:design&#45;system</title>
<ellipse fill="none" stroke="black" cx="84" cy="-18" rx="84" ry="18"/>
<text text-anchor="middle" x="84" y="-12.57" font-family="Times New Roman,serif" font-size="14.00">:core:design&#45;system</text>
</g>
<!-- :core:ui&#45;&gt;:core:design&#45;system -->
<g id="edge1" class="edge">
<title>:core:ui&#45;&gt;:core:design&#45;system</title>
<path fill="none" stroke="red" stroke-width="2" d="M146.64,-73.81C136.46,-64.9 123.36,-53.44 111.78,-43.31"/>
<polygon fill="red" stroke="red" stroke-width="2" points="115.39,-41.82 105.56,-37.87 110.78,-47.09 115.39,-41.82"/>
</g>
<!-- :core:domain -->
<g id="node3" class="node">
<title>:core:domain</title>
<ellipse fill="none" stroke="black" cx="245" cy="-18" rx="58.55" ry="18"/>
<text text-anchor="middle" x="245" y="-12.57" font-family="Times New Roman,serif" font-size="14.00">:core:domain</text>
</g>
<!-- :core:ui&#45;&gt;:core:domain -->
<g id="edge2" class="edge">
<title>:core:ui&#45;&gt;:core:domain</title>
<path fill="none" stroke="black" d="M181.57,-73.81C192.03,-64.78 205.52,-53.11 217.38,-42.87"/>
<polygon fill="black" stroke="black" points="219.62,-45.56 224.9,-36.37 215.04,-40.26 219.62,-45.56"/>
</g>
</g>
</svg>
