<?xml version="1.0" encoding="UTF-8" standalone="no"?>
<!DOCTYPE svg PUBLIC "-//W3C//DTD SVG 1.1//EN"
 "http://www.w3.org/Graphics/SVG/1.1/DTD/svg11.dtd">
<!-- Generated by graphviz version 11.0.0 (20240428.1522)
 -->
<!-- Title: G Pages: 1 -->
<svg width="3212pt" height="260pt"
 viewBox="0.00 0.00 3211.67 260.00" xmlns="http://www.w3.org/2000/svg" xmlns:xlink="http://www.w3.org/1999/xlink">
<g id="graph0" class="graph" transform="scale(1 1) rotate(0) translate(4 256)">
<title>G</title>
<polygon fill="white" stroke="none" points="-4,4 -4,-256 3207.67,-256 3207.67,4 -4,4"/>
<!-- :app -->
<g id="node1" class="node">
<title>:app</title>
<ellipse fill="none" stroke="black" cx="1309.27" cy="-234" rx="27" ry="18"/>
<text text-anchor="middle" x="1309.27" y="-228.57" font-family="Times New Roman,serif" font-size="14.00">:app</text>
</g>
<!-- :data:repository -->
<g id="node2" class="node">
<title>:data:repository</title>
<ellipse fill="none" stroke="black" cx="1309.27" cy="-162" rx="68.03" ry="18"/>
<text text-anchor="middle" x="1309.27" y="-156.57" font-family="Times New Roman,serif" font-size="14.00">:data:repository</text>
</g>
<!-- :app&#45;&gt;:data:repository -->
<g id="edge1" class="edge">
<title>:app&#45;&gt;:data:repository</title>
<path fill="none" stroke="red" stroke-width="2" d="M1309.27,-215.7C1309.27,-208.41 1309.27,-199.73 1309.27,-191.54"/>
<polygon fill="red" stroke="red" stroke-width="2" points="1312.77,-193.13 1309.27,-183.13 1305.77,-193.13 1312.77,-193.13"/>
</g>
<!-- :design&#45;system -->
<g id="node3" class="node">
<title>:design&#45;system</title>
<ellipse fill="none" stroke="black" cx="562.27" cy="-90" rx="65.53" ry="18"/>
<text text-anchor="middle" x="562.27" y="-84.58" font-family="Times New Roman,serif" font-size="14.00">:design&#45;system</text>
</g>
<!-- :app&#45;&gt;:design&#45;system -->
<g id="edge2" class="edge">
<title>:app&#45;&gt;:design&#45;system</title>
<path fill="none" stroke="black" d="M1282.14,-232.81C1182.47,-231.75 837.22,-224.84 738.27,-180 717.08,-170.4 719.95,-156.41 700.27,-144 675.1,-128.13 644.42,-115.77 618.39,-106.98"/>
<polygon fill="black" stroke="black" points="619.58,-103.69 608.98,-103.91 617.4,-110.34 619.58,-103.69"/>
</g>
<!-- :domain -->
<g id="node4" class="node">
<title>:domain</title>
<ellipse fill="none" stroke="black" cx="980.27" cy="-18" rx="40.09" ry="18"/>
<text text-anchor="middle" x="980.27" y="-12.57" font-family="Times New Roman,serif" font-size="14.00">:domain</text>
</g>
<!-- :app&#45;&gt;:domain -->
<g id="edge3" class="edge">
<title>:app&#45;&gt;:domain</title>
<path fill="none" stroke="black" d="M1282.07,-232.94C1099.63,-232.42 59.75,-227.38 14.27,-180 -116.81,-43.45 710.85,-22.64 928.69,-19.53"/>
<polygon fill="black" stroke="black" points="928.62,-23.03 938.57,-19.4 928.53,-16.03 928.62,-23.03"/>
</g>
<!-- :feature:apps -->
<g id="node5" class="node">
<title>:feature:apps</title>
<ellipse fill="none" stroke="black" cx="346.27" cy="-162" rx="57.55" ry="18"/>
<text text-anchor="middle" x="346.27" y="-156.57" font-family="Times New Roman,serif" font-size="14.00">:feature:apps</text>
</g>
<!-- :app&#45;&gt;:feature:apps -->
<g id="edge4" class="edge">
<title>:app&#45;&gt;:feature:apps</title>
<path fill="none" stroke="black" d="M1281.91,-233.3C1171.99,-234.1 752.1,-233.29 412.27,-180 407.86,-179.31 403.31,-178.45 398.77,-177.49"/>
<polygon fill="black" stroke="black" points="399.56,-174.08 389.03,-175.27 398,-180.91 399.56,-174.08"/>
</g>
<!-- :feature:app&#45;settings -->
<g id="node6" class="node">
<title>:feature:app&#45;settings</title>
<ellipse fill="none" stroke="black" cx="1138.27" cy="-162" rx="84.5" ry="18"/>
<text text-anchor="middle" x="1138.27" y="-156.57" font-family="Times New Roman,serif" font-size="14.00">:feature:app&#45;settings</text>
</g>
<!-- :app&#45;&gt;:feature:app&#45;settings -->
<g id="edge5" class="edge">
<title>:app&#45;&gt;:feature:app&#45;settings</title>
<path fill="none" stroke="black" d="M1286.56,-223.7C1261.15,-213.3 1219.24,-196.15 1186.44,-182.72"/>
<polygon fill="black" stroke="black" points="1188.13,-179.63 1177.55,-179.08 1185.48,-186.11 1188.13,-179.63"/>
</g>
<!-- :feature:home -->
<g id="node7" class="node">
<title>:feature:home</title>
<ellipse fill="none" stroke="black" cx="631.27" cy="-162" rx="60.05" ry="18"/>
<text text-anchor="middle" x="631.27" y="-156.57" font-family="Times New Roman,serif" font-size="14.00">:feature:home</text>
</g>
<!-- :app&#45;&gt;:feature:home -->
<g id="edge6" class="edge">
<title>:app&#45;&gt;:feature:home</title>
<path fill="none" stroke="black" d="M1282.01,-231.95C1196.53,-228.38 926.21,-214.9 705.27,-180 699.33,-179.06 693.15,-177.92 687.02,-176.67"/>
<polygon fill="black" stroke="black" points="688.07,-173.32 677.56,-174.66 686.61,-180.16 688.07,-173.32"/>
</g>
<!-- :feature:service -->
<g id="node8" class="node">
<title>:feature:service</title>
<ellipse fill="none" stroke="black" cx="487.27" cy="-162" rx="65.53" ry="18"/>
<text text-anchor="middle" x="487.27" y="-156.57" font-family="Times New Roman,serif" font-size="14.00">:feature:service</text>
</g>
<!-- :app&#45;&gt;:feature:service -->
<g id="edge7" class="edge">
<title>:app&#45;&gt;:feature:service</title>
<path fill="none" stroke="black" d="M1281.97,-232.56C1184.04,-230.66 841.36,-221.29 562.27,-180 556.71,-179.18 550.96,-178.17 545.23,-177.05"/>
<polygon fill="black" stroke="black" points="546.25,-173.69 535.75,-175.11 544.84,-180.55 546.25,-173.69"/>
</g>
<!-- :feature:settings -->
<g id="node9" class="node">
<title>:feature:settings</title>
<ellipse fill="none" stroke="black" cx="815.27" cy="-162" rx="67.53" ry="18"/>
<text text-anchor="middle" x="815.27" y="-156.57" font-family="Times New Roman,serif" font-size="14.00">:feature:settings</text>
</g>
<!-- :app&#45;&gt;:feature:settings -->
<g id="edge8" class="edge">
<title>:app&#45;&gt;:feature:settings</title>
<path fill="none" stroke="black" d="M1282.73,-230.51C1216.42,-224.1 1038.26,-205.7 891.27,-180 886.05,-179.09 880.65,-178.06 875.24,-176.96"/>
<polygon fill="black" stroke="black" points="876.18,-173.58 865.67,-174.96 874.74,-180.44 876.18,-173.58"/>
</g>
<!-- :feature:shizuku -->
<g id="node10" class="node">
<title>:feature:shizuku</title>
<ellipse fill="none" stroke="black" cx="968.27" cy="-162" rx="67.53" ry="18"/>
<text text-anchor="middle" x="968.27" y="-156.57" font-family="Times New Roman,serif" font-size="14.00">:feature:shizuku</text>
</g>
<!-- :app&#45;&gt;:feature:shizuku -->
<g id="edge9" class="edge">
<title>:app&#45;&gt;:feature:shizuku</title>
<path fill="none" stroke="black" d="M1283.38,-227.97C1236.05,-218.75 1132.41,-198.36 1045.27,-180 1040.18,-178.93 1034.9,-177.8 1029.61,-176.65"/>
<polygon fill="black" stroke="black" points="1030.76,-173.32 1020.25,-174.62 1029.27,-180.16 1030.76,-173.32"/>
</g>
<!-- :broadcast&#45;receiver -->
<g id="node11" class="node">
<title>:broadcast&#45;receiver</title>
<ellipse fill="none" stroke="black" cx="1144.27" cy="-90" rx="81.5" ry="18"/>
<text text-anchor="middle" x="1144.27" y="-84.58" font-family="Times New Roman,serif" font-size="14.00">:broadcast&#45;receiver</text>
</g>
<!-- :app&#45;&gt;:broadcast&#45;receiver -->
<g id="edge10" class="edge">
<title>:app&#45;&gt;:broadcast&#45;receiver</title>
<path fill="none" stroke="black" d="M1332.48,-224.18C1350.78,-215.85 1375.02,-201.4 1386.27,-180 1393.71,-165.84 1396.3,-156.47 1386.27,-144 1380.8,-137.21 1285.25,-117.77 1215.88,-104.43"/>
<polygon fill="black" stroke="black" points="1216.95,-101.07 1206.47,-102.62 1215.64,-107.94 1216.95,-101.07"/>
</g>
<!-- :foreground&#45;service -->
<g id="node12" class="node">
<title>:foreground&#45;service</title>
<ellipse fill="none" stroke="black" cx="1327.27" cy="-90" rx="83" ry="18"/>
<text text-anchor="middle" x="1327.27" y="-84.58" font-family="Times New Roman,serif" font-size="14.00">:foreground&#45;service</text>
</g>
<!-- :app&#45;&gt;:foreground&#45;service -->
<g id="edge11" class="edge">
<title>:app&#45;&gt;:foreground&#45;service</title>
<path fill="none" stroke="black" d="M1335.48,-228.57C1361.8,-222.58 1401,-209.08 1419.27,-180 1427.78,-166.45 1427.27,-157.85 1419.27,-144 1410.87,-129.48 1396.82,-118.58 1382.2,-110.57"/>
<polygon fill="black" stroke="black" points="1383.9,-107.51 1373.39,-106.16 1380.76,-113.77 1383.9,-107.51"/>
</g>
<!-- :framework:asset&#45;manager -->
<g id="node13" class="node">
<title>:framework:asset&#45;manager</title>
<ellipse fill="none" stroke="black" cx="1535.27" cy="-90" rx="106.95" ry="18"/>
<text text-anchor="middle" x="1535.27" y="-84.58" font-family="Times New Roman,serif" font-size="14.00">:framework:asset&#45;manager</text>
</g>
<!-- :app&#45;&gt;:framework:asset&#45;manager -->
<g id="edge12" class="edge">
<title>:app&#45;&gt;:framework:asset&#45;manager</title>
<path fill="none" stroke="black" d="M1333.37,-225.66C1359.82,-216.99 1402.95,-201.07 1436.27,-180 1464.85,-161.92 1493.11,-135.43 1512.07,-116.05"/>
<polygon fill="black" stroke="black" points="1514.39,-118.69 1518.8,-109.05 1509.34,-113.84 1514.39,-118.69"/>
</g>
<!-- :framework:clipboard&#45;manager -->
<g id="node14" class="node">
<title>:framework:clipboard&#45;manager</title>
<ellipse fill="none" stroke="black" cx="147.27" cy="-162" rx="123.92" ry="18"/>
<text text-anchor="middle" x="147.27" y="-156.57" font-family="Times New Roman,serif" font-size="14.00">:framework:clipboard&#45;manager</text>
</g>
<!-- :app&#45;&gt;:framework:clipboard&#45;manager -->
<g id="edge13" class="edge">
<title>:app&#45;&gt;:framework:clipboard&#45;manager</title>
<path fill="none" stroke="black" d="M1282.16,-232.37C1163.36,-229.44 676.95,-215.79 279.27,-180 268.31,-179.01 256.86,-177.81 245.48,-176.49"/>
<polygon fill="black" stroke="black" points="245.99,-173.03 235.65,-175.33 245.16,-179.98 245.99,-173.03"/>
</g>
<!-- :framework:notification&#45;manager -->
<g id="node15" class="node">
<title>:framework:notification&#45;manager</title>
<ellipse fill="none" stroke="black" cx="1790.27" cy="-90" rx="129.91" ry="18"/>
<text text-anchor="middle" x="1790.27" y="-84.58" font-family="Times New Roman,serif" font-size="14.00">:framework:notification&#45;manager</text>
</g>
<!-- :app&#45;&gt;:framework:notification&#45;manager -->
<g id="edge14" class="edge">
<title>:app&#45;&gt;:framework:notification&#45;manager</title>
<path fill="none" stroke="black" d="M1333.78,-225.76C1405.78,-204.51 1618.3,-141.77 1726.06,-109.95"/>
<polygon fill="black" stroke="black" points="1726.73,-113.41 1735.33,-107.22 1724.75,-106.69 1726.73,-113.41"/>
</g>
<!-- :framework:package&#45;manager -->
<g id="node16" class="node">
<title>:framework:package&#45;manager</title>
<ellipse fill="none" stroke="black" cx="2057.27" cy="-90" rx="118.93" ry="18"/>
<text text-anchor="middle" x="2057.27" y="-84.58" font-family="Times New Roman,serif" font-size="14.00">:framework:package&#45;manager</text>
</g>
<!-- :app&#45;&gt;:framework:package&#45;manager -->
<g id="edge15" class="edge">
<title>:app&#45;&gt;:framework:package&#45;manager</title>
<path fill="none" stroke="black" d="M1335.01,-228.11C1435.78,-208.98 1806.04,-138.69 1973.74,-106.86"/>
<polygon fill="black" stroke="black" points="1974.32,-110.31 1983.49,-105.01 1973.01,-103.43 1974.32,-110.31"/>
</g>
<!-- :framework:secure&#45;settings -->
<g id="node17" class="node">
<title>:framework:secure&#45;settings</title>
<ellipse fill="none" stroke="black" cx="2303.27" cy="-90" rx="109.45" ry="18"/>
<text text-anchor="middle" x="2303.27" y="-84.58" font-family="Times New Roman,serif" font-size="14.00">:framework:secure&#45;settings</text>
</g>
<!-- :app&#45;&gt;:framework:secure&#45;settings -->
<g id="edge16" class="edge">
<title>:app&#45;&gt;:framework:secure&#45;settings</title>
<path fill="none" stroke="black" d="M1335.63,-229.49C1398.33,-221.13 1561.29,-199.27 1697.27,-180 1880.6,-154.02 2094.91,-122.2 2213.23,-104.51"/>
<polygon fill="black" stroke="black" points="2213.51,-108.01 2222.88,-103.07 2212.47,-101.09 2213.51,-108.01"/>
</g>
<!-- :framework:shizuku -->
<g id="node18" class="node">
<title>:framework:shizuku</title>
<ellipse fill="none" stroke="black" cx="2589.27" cy="-90" rx="82.5" ry="18"/>
<text text-anchor="middle" x="2589.27" y="-84.58" font-family="Times New Roman,serif" font-size="14.00">:framework:shizuku</text>
</g>
<!-- :app&#45;&gt;:framework:shizuku -->
<g id="edge17" class="edge">
<title>:app&#45;&gt;:framework:shizuku</title>
<path fill="none" stroke="black" d="M1335.99,-230.57C1463.17,-218.91 2019.86,-166.85 2474.27,-108 2486.57,-106.41 2499.6,-104.6 2512.3,-102.77"/>
<polygon fill="black" stroke="black" points="2512.45,-106.28 2521.84,-101.38 2511.44,-99.36 2512.45,-106.28"/>
</g>
<!-- :framework:shortcut&#45;manager -->
<g id="node19" class="node">
<title>:framework:shortcut&#45;manager</title>
<ellipse fill="none" stroke="black" cx="2808.27" cy="-90" rx="118.93" ry="18"/>
<text text-anchor="middle" x="2808.27" y="-84.58" font-family="Times New Roman,serif" font-size="14.00">:framework:shortcut&#45;manager</text>
</g>
<!-- :app&#45;&gt;:framework:shortcut&#45;manager -->
<g id="edge18" class="edge">
<title>:app&#45;&gt;:framework:shortcut&#45;manager</title>
<path fill="none" stroke="black" d="M1336.32,-231.35C1431.17,-225.49 1757.48,-204.7 2026.27,-180 2317.9,-153.2 2390.55,-143.43 2681.27,-108 2690.89,-106.83 2700.92,-105.56 2710.94,-104.27"/>
<polygon fill="black" stroke="black" points="2711.26,-107.75 2720.72,-102.99 2710.36,-100.81 2711.26,-107.75"/>
</g>
<!-- :framework:usage&#45;stats&#45;manager -->
<g id="node20" class="node">
<title>:framework:usage&#45;stats&#45;manager</title>
<ellipse fill="none" stroke="black" cx="3074.27" cy="-90" rx="129.41" ry="18"/>
<text text-anchor="middle" x="3074.27" y="-84.58" font-family="Times New Roman,serif" font-size="14.00">:framework:usage&#45;stats&#45;manager</text>
</g>
<!-- :app&#45;&gt;:framework:usage&#45;stats&#45;manager -->
<g id="edge19" class="edge">
<title>:app&#45;&gt;:framework:usage&#45;stats&#45;manager</title>
<path fill="none" stroke="black" d="M1336.32,-231.82C1445.96,-226.95 1867.92,-207.4 2214.27,-180 2535.74,-154.57 2615.77,-143.72 2936.27,-108 2947.06,-106.8 2958.33,-105.49 2969.56,-104.16"/>
<polygon fill="black" stroke="black" points="2969.75,-107.66 2979.27,-103 2968.92,-100.71 2969.75,-107.66"/>
</g>
<!-- :data:repository&#45;&gt;:domain -->
<g id="edge23" class="edge">
<title>:data:repository&#45;&gt;:domain</title>
<path fill="none" stroke="black" d="M1259.48,-149.34C1250.14,-147.38 1240.43,-145.5 1231.27,-144 1159.78,-132.27 955.58,-161.98 907.27,-108 896.6,-96.08 900,-86.25 907.27,-72 914.82,-57.18 928.67,-45.53 942.3,-36.98"/>
<polygon fill="black" stroke="black" points="943.89,-40.1 950.78,-32.05 940.37,-34.05 943.89,-40.1"/>
</g>
<!-- :common -->
<g id="node21" class="node">
<title>:common</title>
<ellipse fill="none" stroke="black" cx="2180.27" cy="-18" rx="45.57" ry="18"/>
<text text-anchor="middle" x="2180.27" y="-12.57" font-family="Times New Roman,serif" font-size="14.00">:common</text>
</g>
<!-- :data:repository&#45;&gt;:common -->
<g id="edge20" class="edge">
<title>:data:repository&#45;&gt;:common</title>
<path fill="none" stroke="black" d="M1377.46,-160.41C1618.37,-158 2416.95,-147.09 2454.27,-108 2520.22,-38.93 2335.36,-23.38 2237.14,-19.94"/>
<polygon fill="black" stroke="black" points="2237.52,-16.45 2227.42,-19.63 2237.3,-23.45 2237.52,-16.45"/>
</g>
<!-- :data:datastore -->
<g id="node22" class="node">
<title>:data:datastore</title>
<ellipse fill="none" stroke="black" cx="980.27" cy="-90" rx="64.04" ry="18"/>
<text text-anchor="middle" x="980.27" y="-84.58" font-family="Times New Roman,serif" font-size="14.00">:data:datastore</text>
</g>
<!-- :data:repository&#45;&gt;:data:datastore -->
<g id="edge21" class="edge">
<title>:data:repository&#45;&gt;:data:datastore</title>
<path fill="none" stroke="red" stroke-width="2" d="M1258.1,-149.73C1249.16,-147.8 1239.95,-145.82 1231.27,-144 1152.28,-127.41 1132.14,-125.15 1053.27,-108 1048.69,-107 1043.96,-105.95 1039.2,-104.88"/>
<polygon fill="red" stroke="red" stroke-width="2" points="1041.61,-101.84 1031.08,-103.03 1040.05,-108.66 1041.61,-101.84"/>
</g>
<!-- :data:room -->
<g id="node23" class="node">
<title>:data:room</title>
<ellipse fill="none" stroke="black" cx="810.27" cy="-90" rx="50.07" ry="18"/>
<text text-anchor="middle" x="810.27" y="-84.58" font-family="Times New Roman,serif" font-size="14.00">:data:room</text>
</g>
<!-- :data:repository&#45;&gt;:data:room -->
<g id="edge22" class="edge">
<title>:data:repository&#45;&gt;:data:room</title>
<path fill="none" stroke="black" d="M1259.91,-149.35C1250.44,-147.37 1240.57,-145.48 1231.27,-144 1073.77,-118.98 1031.16,-136.56 874.27,-108 869.36,-107.11 864.28,-106.03 859.23,-104.85"/>
<polygon fill="black" stroke="black" points="860.3,-101.51 849.75,-102.52 858.63,-108.31 860.3,-101.51"/>
</g>
<!-- :feature:apps&#45;&gt;:design&#45;system -->
<g id="edge27" class="edge">
<title>:feature:apps&#45;&gt;:design&#45;system</title>
<path fill="none" stroke="black" d="M384.88,-148.49C419.93,-137.13 471.89,-120.29 510.52,-107.77"/>
<polygon fill="black" stroke="black" points="511.17,-111.24 519.6,-104.83 509.01,-104.58 511.17,-111.24"/>
</g>
<!-- :feature:apps&#45;&gt;:domain -->
<g id="edge28" class="edge">
<title>:feature:apps&#45;&gt;:domain</title>
<path fill="none" stroke="black" d="M363.34,-144.5C386.11,-123.62 428.65,-88.39 472.27,-72 555.04,-40.89 817.17,-26.09 928.96,-21.06"/>
<polygon fill="black" stroke="black" points="928.9,-24.57 938.73,-20.63 928.59,-17.58 928.9,-24.57"/>
</g>
<!-- :feature:app&#45;settings&#45;&gt;:design&#45;system -->
<g id="edge29" class="edge">
<title>:feature:app&#45;settings&#45;&gt;:design&#45;system</title>
<path fill="none" stroke="black" d="M1077.09,-149.17C1066.5,-147.31 1055.58,-145.51 1045.27,-144 1040.22,-143.26 766.55,-113.33 633.45,-98.78"/>
<polygon fill="black" stroke="black" points="634.01,-95.32 623.69,-97.71 633.25,-102.28 634.01,-95.32"/>
</g>
<!-- :feature:app&#45;settings&#45;&gt;:domain -->
<g id="edge31" class="edge">
<title>:feature:app&#45;settings&#45;&gt;:domain</title>
<path fill="none" stroke="black" d="M1076.82,-149.24C1066.31,-147.38 1055.49,-145.56 1045.27,-144 980.2,-134.08 794.89,-157.29 751.27,-108 698.13,-47.96 846.47,-28.11 929.07,-21.8"/>
<polygon fill="black" stroke="black" points="929.28,-25.29 939,-21.08 928.77,-18.31 929.28,-25.29"/>
</g>
<!-- :feature:app&#45;settings&#45;&gt;:common -->
<g id="edge30" class="edge">
<title>:feature:app&#45;settings&#45;&gt;:common</title>
<path fill="none" stroke="black" d="M1197.75,-148.87C1209.16,-146.93 1221.05,-145.18 1232.27,-144 1297.99,-137.1 2375.25,-155.43 2421.27,-108 2479.15,-48.34 2325.01,-28.37 2236.89,-21.93"/>
<polygon fill="black" stroke="black" points="2237.17,-18.44 2226.95,-21.24 2236.69,-25.42 2237.17,-18.44"/>
</g>
<!-- :feature:home&#45;&gt;:design&#45;system -->
<g id="edge32" class="edge">
<title>:feature:home&#45;&gt;:design&#45;system</title>
<path fill="none" stroke="black" d="M614.92,-144.41C606.41,-135.78 595.84,-125.06 586.41,-115.5"/>
<polygon fill="black" stroke="black" points="589.08,-113.21 579.56,-108.55 584.09,-118.13 589.08,-113.21"/>
</g>
<!-- :feature:service&#45;&gt;:design&#45;system -->
<g id="edge33" class="edge">
<title>:feature:service&#45;&gt;:design&#45;system</title>
<path fill="none" stroke="black" d="M505.04,-144.41C514.31,-135.76 525.84,-125 536.11,-115.42"/>
<polygon fill="black" stroke="black" points="538.33,-118.13 543.25,-108.75 533.56,-113.01 538.33,-118.13"/>
</g>
<!-- :feature:service&#45;&gt;:domain -->
<g id="edge34" class="edge">
<title>:feature:service&#45;&gt;:domain</title>
<path fill="none" stroke="black" d="M481.22,-143.88C475.41,-123.99 469.82,-91.43 487.27,-72 516.42,-39.54 808.63,-25.25 928.93,-20.71"/>
<polygon fill="black" stroke="black" points="928.98,-24.21 938.85,-20.35 928.73,-17.22 928.98,-24.21"/>
</g>
<!-- :feature:settings&#45;&gt;:design&#45;system -->
<g id="edge35" class="edge">
<title>:feature:settings&#45;&gt;:design&#45;system</title>
<path fill="none" stroke="black" d="M769.74,-148.4C727.29,-136.66 663.85,-119.11 618.3,-106.5"/>
<polygon fill="black" stroke="black" points="619.45,-103.19 608.88,-103.9 617.59,-109.94 619.45,-103.19"/>
</g>
<!-- :feature:settings&#45;&gt;:domain -->
<g id="edge36" class="edge">
<title>:feature:settings&#45;&gt;:domain</title>
<path fill="none" stroke="black" d="M763.97,-149.9C741.28,-142.16 716.73,-129.27 703.27,-108 694.71,-94.48 693.07,-84.33 703.27,-72 731.36,-38.02 857.04,-25.62 929.08,-21.25"/>
<polygon fill="black" stroke="black" points="928.87,-24.77 938.65,-20.7 928.47,-17.78 928.87,-24.77"/>
</g>
<!-- :feature:shizuku&#45;&gt;:design&#45;system -->
<g id="edge37" class="edge">
<title>:feature:shizuku&#45;&gt;:design&#45;system</title>
<path fill="none" stroke="black" d="M918.48,-149.41C909.76,-147.51 900.77,-145.63 892.27,-144 802.17,-126.71 697.49,-110.56 630.61,-100.74"/>
<polygon fill="black" stroke="black" points="631.29,-97.3 620.89,-99.32 630.27,-104.23 631.29,-97.3"/>
</g>
<!-- :feature:shizuku&#45;&gt;:domain -->
<g id="edge38" class="edge">
<title>:feature:shizuku&#45;&gt;:domain</title>
<path fill="none" stroke="black" d="M918.01,-149.64C909.43,-147.73 900.59,-145.79 892.27,-144 810.45,-126.39 665.28,-136.78 718.27,-72 744.38,-40.08 860.5,-26.94 929.08,-21.88"/>
<polygon fill="black" stroke="black" points="929.24,-25.38 938.97,-21.19 928.75,-18.4 929.24,-25.38"/>
</g>
<!-- :broadcast&#45;receiver&#45;&gt;:domain -->
<g id="edge40" class="edge">
<title>:broadcast&#45;receiver&#45;&gt;:domain</title>
<path fill="none" stroke="black" d="M1107.87,-73.46C1081.58,-62.24 1046.12,-47.11 1019.25,-35.64"/>
<polygon fill="black" stroke="black" points="1020.64,-32.43 1010.07,-31.72 1017.89,-38.87 1020.64,-32.43"/>
</g>
<!-- :broadcast&#45;receiver&#45;&gt;:common -->
<g id="edge39" class="edge">
<title>:broadcast&#45;receiver&#45;&gt;:common</title>
<path fill="none" stroke="black" d="M1202.35,-77C1213.25,-75.07 1224.58,-73.29 1235.27,-72 1570,-31.52 1975.26,-21.88 2122.93,-19.65"/>
<polygon fill="black" stroke="black" points="2122.89,-23.15 2132.84,-19.51 2122.79,-16.15 2122.89,-23.15"/>
</g>
<!-- :foreground&#45;service&#45;&gt;:domain -->
<g id="edge42" class="edge">
<title>:foreground&#45;service&#45;&gt;:domain</title>
<path fill="none" stroke="black" d="M1268.01,-77.05C1200.04,-63.33 1089.96,-41.13 1027.5,-28.53"/>
<polygon fill="black" stroke="black" points="1028.39,-25.14 1017.89,-26.59 1027,-32 1028.39,-25.14"/>
</g>
<!-- :foreground&#45;service&#45;&gt;:common -->
<g id="edge41" class="edge">
<title>:foreground&#45;service&#45;&gt;:common</title>
<path fill="none" stroke="black" d="M1386.5,-77.04C1397.37,-75.13 1408.63,-73.35 1419.27,-72 1681.09,-38.8 1996.42,-25.17 2123.31,-20.76"/>
<polygon fill="black" stroke="black" points="2123.24,-24.27 2133.12,-20.43 2123,-17.27 2123.24,-24.27"/>
</g>
<!-- :framework:asset&#45;manager&#45;&gt;:domain -->
<g id="edge44" class="edge">
<title>:framework:asset&#45;manager&#45;&gt;:domain</title>
<path fill="none" stroke="black" d="M1457.31,-77.3C1444.6,-75.47 1431.57,-73.64 1419.27,-72 1278.57,-53.2 1112.09,-33.91 1030.48,-24.64"/>
<polygon fill="black" stroke="black" points="1030.9,-21.17 1020.57,-23.52 1030.11,-28.12 1030.9,-21.17"/>
</g>
<!-- :framework:asset&#45;manager&#45;&gt;:common -->
<g id="edge43" class="edge">
<title>:framework:asset&#45;manager&#45;&gt;:common</title>
<path fill="none" stroke="black" d="M1612.57,-77.17C1625.48,-75.34 1638.74,-73.54 1651.27,-72 1823.58,-50.75 2028.28,-32.11 2124.74,-23.72"/>
<polygon fill="black" stroke="black" points="2124.78,-27.23 2134.44,-22.88 2124.18,-20.26 2124.78,-27.23"/>
</g>
<!-- :framework:clipboard&#45;manager&#45;&gt;:domain -->
<g id="edge45" class="edge">
<title>:framework:clipboard&#45;manager&#45;&gt;:domain</title>
<path fill="none" stroke="black" d="M185.93,-144.45C235.84,-123.84 325.85,-89.27 406.27,-72 595.92,-31.27 827.43,-21.84 928.7,-19.65"/>
<polygon fill="black" stroke="black" points="928.66,-23.15 938.59,-19.46 928.53,-16.16 928.66,-23.15"/>
</g>
<!-- :framework:notification&#45;manager&#45;&gt;:domain -->
<g id="edge47" class="edge">
<title>:framework:notification&#45;manager&#45;&gt;:domain</title>
<path fill="none" stroke="black" d="M1697.24,-77.06C1681.89,-75.26 1666.14,-73.5 1651.27,-72 1420.22,-48.76 1143.56,-29.66 1031.32,-22.28"/>
<polygon fill="black" stroke="black" points="1031.74,-18.8 1021.54,-21.64 1031.29,-25.79 1031.74,-18.8"/>
</g>
<!-- :framework:notification&#45;manager&#45;&gt;:common -->
<g id="edge46" class="edge">
<title>:framework:notification&#45;manager&#45;&gt;:common</title>
<path fill="none" stroke="black" d="M1867.32,-75.17C1944.54,-61.31 2061.3,-40.35 2128.22,-28.34"/>
<polygon fill="black" stroke="black" points="2128.6,-31.83 2137.82,-26.62 2127.36,-24.94 2128.6,-31.83"/>
</g>
<!-- :framework:package&#45;manager&#45;&gt;:domain -->
<g id="edge49" class="edge">
<title>:framework:package&#45;manager&#45;&gt;:domain</title>
<path fill="none" stroke="black" d="M1973.37,-76.93C1958.69,-75.08 1943.55,-73.35 1929.27,-72 1587.31,-39.79 1174.05,-24.92 1031.5,-20.49"/>
<polygon fill="black" stroke="black" points="1031.74,-16.99 1021.64,-20.18 1031.53,-23.99 1031.74,-16.99"/>
</g>
<!-- :framework:package&#45;manager&#45;&gt;:common -->
<g id="edge48" class="edge">
<title>:framework:package&#45;manager&#45;&gt;:common</title>
<path fill="none" stroke="black" d="M2086.73,-72.23C2104.36,-62.2 2126.86,-49.39 2145.38,-38.86"/>
<polygon fill="black" stroke="black" points="2146.92,-42 2153.88,-34.02 2143.46,-35.92 2146.92,-42"/>
</g>
<!-- :framework:secure&#45;settings&#45;&gt;:domain -->
<g id="edge51" class="edge">
<title>:framework:secure&#45;settings&#45;&gt;:domain</title>
<path fill="none" stroke="black" d="M2226.59,-76.83C2212.86,-74.97 2198.66,-73.26 2185.27,-72 1740.14,-30.25 1199.35,-21.27 1032.07,-19.45"/>
<polygon fill="black" stroke="black" points="1032.22,-15.95 1022.19,-19.34 1032.15,-22.95 1032.22,-15.95"/>
</g>
<!-- :framework:secure&#45;settings&#45;&gt;:common -->
<g id="edge50" class="edge">
<title>:framework:secure&#45;settings&#45;&gt;:common</title>
<path fill="none" stroke="black" d="M2273.81,-72.23C2256.18,-62.2 2233.67,-49.39 2215.16,-38.86"/>
<polygon fill="black" stroke="black" points="2217.07,-35.92 2206.65,-34.02 2213.61,-42 2217.07,-35.92"/>
</g>
<!-- :framework:shizuku&#45;&gt;:domain -->
<g id="edge53" class="edge">
<title>:framework:shizuku&#45;&gt;:domain</title>
<path fill="none" stroke="black" d="M2517.82,-80.75C2488.01,-77.57 2453,-74.19 2421.27,-72 1878.46,-34.59 1218.69,-22.5 1031.8,-19.7"/>
<polygon fill="black" stroke="black" points="1031.99,-16.2 1021.94,-19.56 1031.89,-23.2 1031.99,-16.2"/>
</g>
<!-- :framework:shizuku&#45;&gt;:common -->
<g id="edge52" class="edge">
<title>:framework:shizuku&#45;&gt;:common</title>
<path fill="none" stroke="black" d="M2526.4,-77.93C2515.04,-75.95 2503.3,-73.9 2492.27,-72 2401.03,-56.26 2294.72,-38.27 2232.71,-27.82"/>
<polygon fill="black" stroke="black" points="2233.6,-24.42 2223.16,-26.21 2232.43,-31.33 2233.6,-24.42"/>
</g>
<!-- :framework:shortcut&#45;manager&#45;&gt;:domain -->
<g id="edge55" class="edge">
<title>:framework:shortcut&#45;manager&#45;&gt;:domain</title>
<path fill="none" stroke="black" d="M2725.74,-76.71C2710.96,-74.87 2695.68,-73.19 2681.27,-72 2032.07,-18.58 1239.46,-17.86 1031.95,-18.69"/>
<polygon fill="black" stroke="black" points="1032.03,-15.19 1022.05,-18.74 1032.06,-22.19 1032.03,-15.19"/>
</g>
<!-- :framework:shortcut&#45;manager&#45;&gt;:common -->
<g id="edge54" class="edge">
<title>:framework:shortcut&#45;manager&#45;&gt;:common</title>
<path fill="none" stroke="black" d="M2722.57,-77.2C2708.77,-75.39 2694.63,-73.6 2681.27,-72 2519.49,-52.62 2327.87,-33.38 2235.51,-24.34"/>
<polygon fill="black" stroke="black" points="2236.01,-20.87 2225.71,-23.38 2235.33,-27.84 2236.01,-20.87"/>
</g>
<!-- :framework:usage&#45;stats&#45;manager&#45;&gt;:domain -->
<g id="edge57" class="edge">
<title>:framework:usage&#45;stats&#45;manager&#45;&gt;:domain</title>
<path fill="none" stroke="black" d="M2984.57,-76.69C2968.51,-74.85 2951.91,-73.17 2936.27,-72 2550.32,-43.07 1301.77,-23.65 1031.97,-19.73"/>
<polygon fill="black" stroke="black" points="1032.16,-16.23 1022.11,-19.59 1032.06,-23.23 1032.16,-16.23"/>
</g>
<!-- :framework:usage&#45;stats&#45;manager&#45;&gt;:common -->
<g id="edge56" class="edge">
<title>:framework:usage&#45;stats&#45;manager&#45;&gt;:common</title>
<path fill="none" stroke="black" d="M2982.29,-76.99C2966.94,-75.18 2951.16,-73.44 2936.27,-72 2675.29,-46.79 2362.51,-28.71 2236.73,-21.94"/>
<polygon fill="black" stroke="black" points="2237.18,-18.46 2227.01,-21.42 2236.81,-25.45 2237.18,-18.46"/>
</g>
<!-- :data:datastore&#45;&gt;:domain -->
<g id="edge25" class="edge">
<title>:data:datastore&#45;&gt;:domain</title>
<path fill="none" stroke="black" d="M980.27,-71.7C980.27,-64.41 980.27,-55.73 980.27,-47.54"/>
<polygon fill="black" stroke="black" points="983.77,-47.62 980.27,-37.62 976.77,-47.62 983.77,-47.62"/>
</g>
<!-- :data:datastore&#45;&gt;:common -->
<g id="edge24" class="edge">
<title>:data:datastore&#45;&gt;:common</title>
<path fill="none" stroke="red" stroke-width="2" d="M1025.98,-77.01C1034.97,-75.04 1044.37,-73.23 1053.27,-72 1263.35,-42.85 1924.5,-25.09 2123.22,-20.31"/>
<polygon fill="red" stroke="red" stroke-width="2" points="2121.6,-23.85 2131.51,-20.11 2121.43,-16.85 2121.6,-23.85"/>
</g>
<!-- :data:room&#45;&gt;:domain -->
<g id="edge26" class="edge">
<title>:data:room&#45;&gt;:domain</title>
<path fill="none" stroke="black" d="M842.24,-75.83C870.17,-64.33 910.81,-47.6 940.76,-35.27"/>
<polygon fill="black" stroke="black" points="941.96,-38.56 949.87,-31.52 939.29,-32.09 941.96,-38.56"/>
</g>
</g>
</svg>
