<?xml version="1.0" encoding="UTF-8" standalone="no"?>
<!DOCTYPE svg PUBLIC "-//W3C//DTD SVG 1.1//EN"
 "http://www.w3.org/Graphics/SVG/1.1/DTD/svg11.dtd">
<!-- Generated by graphviz version 11.0.0 (20240428.1522)
 -->
<!-- Title: G Pages: 1 -->
<svg width="408pt" height="188pt"
 viewBox="0.00 0.00 407.87 188.00" xmlns="http://www.w3.org/2000/svg" xmlns:xlink="http://www.w3.org/1999/xlink">
<g id="graph0" class="graph" transform="scale(1 1) rotate(0) translate(4 184)">
<title>G</title>
<polygon fill="white" stroke="none" points="-4,4 -4,-184 403.87,-184 403.87,4 -4,4"/>
<!-- :framework:package&#45;manager -->
<g id="node1" class="node">
<title>:framework:package&#45;manager</title>
<ellipse fill="none" stroke="black" cx="118.93" cy="-162" rx="118.93" ry="18"/>
<text text-anchor="middle" x="118.93" y="-156.57" font-family="Times New Roman,serif" font-size="14.00">:framework:package&#45;manager</text>
</g>
<!-- :common -->
<g id="node2" class="node">
<title>:common</title>
<ellipse fill="none" stroke="black" cx="45.93" cy="-90" rx="45.57" ry="18"/>
<text text-anchor="middle" x="45.93" y="-84.58" font-family="Times New Roman,serif" font-size="14.00">:common</text>
</g>
<!-- :framework:package&#45;manager&#45;&gt;:common -->
<g id="edge1" class="edge">
<title>:framework:package&#45;manager&#45;&gt;:common</title>
<path fill="none" stroke="black" d="M101.26,-144.05C92.03,-135.2 80.58,-124.23 70.5,-114.57"/>
<polygon fill="black" stroke="black" points="73.17,-112.27 63.53,-107.88 68.32,-117.32 73.17,-112.27"/>
</g>
<!-- :domain:framework -->
<g id="node3" class="node">
<title>:domain:framework</title>
<ellipse fill="none" stroke="black" cx="191.93" cy="-90" rx="82" ry="18"/>
<text text-anchor="middle" x="191.93" y="-84.58" font-family="Times New Roman,serif" font-size="14.00">:domain:framework</text>
</g>
<!-- :framework:package&#45;manager&#45;&gt;:domain:framework -->
<g id="edge2" class="edge">
<title>:framework:package&#45;manager&#45;&gt;:domain:framework</title>
<path fill="none" stroke="red" stroke-width="2" d="M136.6,-144.05C145.41,-135.61 156.24,-125.22 165.97,-115.89"/>
<polygon fill="red" stroke="red" stroke-width="2" points="167.19,-119.57 171.98,-110.13 162.34,-114.52 167.19,-119.57"/>
</g>
<!-- :domain:model -->
<g id="node4" class="node">
<title>:domain:model</title>
<ellipse fill="none" stroke="black" cx="94.93" cy="-18" rx="65.04" ry="18"/>
<text text-anchor="middle" x="94.93" y="-12.57" font-family="Times New Roman,serif" font-size="14.00">:domain:model</text>
</g>
<!-- :domain:framework&#45;&gt;:domain:model -->
<g id="edge3" class="edge">
<title>:domain:framework&#45;&gt;:domain:model</title>
<path fill="none" stroke="red" stroke-width="2" d="M168.94,-72.41C156.29,-63.28 140.39,-51.81 126.58,-41.84"/>
<polygon fill="red" stroke="red" stroke-width="2" points="130.03,-40.01 119.87,-37 125.93,-45.69 130.03,-40.01"/>
</g>
<!-- :domain:broadcast&#45;receiver -->
<g id="node5" class="node">
<title>:domain:broadcast&#45;receiver</title>
<ellipse fill="none" stroke="black" cx="288.93" cy="-18" rx="110.94" ry="18"/>
<text text-anchor="middle" x="288.93" y="-12.57" font-family="Times New Roman,serif" font-size="14.00">:domain:broadcast&#45;receiver</text>
</g>
<!-- :domain:framework&#45;&gt;:domain:broadcast&#45;receiver -->
<g id="edge4" class="edge">
<title>:domain:framework&#45;&gt;:domain:broadcast&#45;receiver</title>
<path fill="none" stroke="black" d="M214.91,-72.41C227.3,-63.48 242.78,-52.3 256.38,-42.49"/>
<polygon fill="black" stroke="black" points="258.14,-45.53 264.2,-36.84 254.05,-39.86 258.14,-45.53"/>
</g>
</g>
</svg>
