<?xml version="1.0" encoding="UTF-8" standalone="no"?>
<!DOCTYPE svg PUBLIC "-//W3C//DTD SVG 1.1//EN"
 "http://www.w3.org/Graphics/SVG/1.1/DTD/svg11.dtd">
<!-- Generated by graphviz version 11.0.0 (20240428.1522)
 -->
<!-- Title: G Pages: 1 -->
<svg width="418pt" height="188pt"
 viewBox="0.00 0.00 418.35 188.00" xmlns="http://www.w3.org/2000/svg" xmlns:xlink="http://www.w3.org/1999/xlink">
<g id="graph0" class="graph" transform="scale(1 1) rotate(0) translate(4 184)">
<title>G</title>
<polygon fill="white" stroke="none" points="-4,4 -4,-184 414.35,-184 414.35,4 -4,4"/>
<!-- :framework:usage&#45;stats&#45;manager -->
<g id="node1" class="node">
<title>:framework:usage&#45;stats&#45;manager</title>
<ellipse fill="none" stroke="black" cx="129.41" cy="-162" rx="129.41" ry="18"/>
<text text-anchor="middle" x="129.41" y="-156.57" font-family="Times New Roman,serif" font-size="14.00">:framework:usage&#45;stats&#45;manager</text>
</g>
<!-- :common -->
<g id="node2" class="node">
<title>:common</title>
<ellipse fill="none" stroke="black" cx="56.41" cy="-90" rx="45.57" ry="18"/>
<text text-anchor="middle" x="56.41" y="-84.58" font-family="Times New Roman,serif" font-size="14.00">:common</text>
</g>
<!-- :framework:usage&#45;stats&#45;manager&#45;&gt;:common -->
<g id="edge1" class="edge">
<title>:framework:usage&#45;stats&#45;manager&#45;&gt;:common</title>
<path fill="none" stroke="black" d="M111.36,-143.7C102.35,-135.05 91.3,-124.46 81.48,-115.04"/>
<polygon fill="black" stroke="black" points="83.98,-112.59 74.34,-108.19 79.13,-117.64 83.98,-112.59"/>
</g>
<!-- :domain:framework -->
<g id="node3" class="node">
<title>:domain:framework</title>
<ellipse fill="none" stroke="black" cx="202.41" cy="-90" rx="82" ry="18"/>
<text text-anchor="middle" x="202.41" y="-84.58" font-family="Times New Roman,serif" font-size="14.00">:domain:framework</text>
</g>
<!-- :framework:usage&#45;stats&#45;manager&#45;&gt;:domain:framework -->
<g id="edge2" class="edge">
<title>:framework:usage&#45;stats&#45;manager&#45;&gt;:domain:framework</title>
<path fill="none" stroke="red" stroke-width="2" d="M147.45,-143.7C156.27,-135.24 167.03,-124.92 176.69,-115.66"/>
<polygon fill="red" stroke="red" stroke-width="2" points="177.84,-119.41 182.64,-109.96 173,-114.35 177.84,-119.41"/>
</g>
<!-- :domain:model -->
<g id="node4" class="node">
<title>:domain:model</title>
<ellipse fill="none" stroke="black" cx="105.41" cy="-18" rx="65.04" ry="18"/>
<text text-anchor="middle" x="105.41" y="-12.57" font-family="Times New Roman,serif" font-size="14.00">:domain:model</text>
</g>
<!-- :domain:framework&#45;&gt;:domain:model -->
<g id="edge3" class="edge">
<title>:domain:framework&#45;&gt;:domain:model</title>
<path fill="none" stroke="red" stroke-width="2" d="M179.42,-72.41C166.76,-63.28 150.87,-51.81 137.06,-41.84"/>
<polygon fill="red" stroke="red" stroke-width="2" points="140.51,-40.01 130.35,-37 136.41,-45.69 140.51,-40.01"/>
</g>
<!-- :domain:broadcast&#45;receiver -->
<g id="node5" class="node">
<title>:domain:broadcast&#45;receiver</title>
<ellipse fill="none" stroke="black" cx="299.41" cy="-18" rx="110.94" ry="18"/>
<text text-anchor="middle" x="299.41" y="-12.57" font-family="Times New Roman,serif" font-size="14.00">:domain:broadcast&#45;receiver</text>
</g>
<!-- :domain:framework&#45;&gt;:domain:broadcast&#45;receiver -->
<g id="edge4" class="edge">
<title>:domain:framework&#45;&gt;:domain:broadcast&#45;receiver</title>
<path fill="none" stroke="black" d="M225.39,-72.41C237.78,-63.48 253.26,-52.3 266.86,-42.49"/>
<polygon fill="black" stroke="black" points="268.62,-45.53 274.68,-36.84 264.53,-39.86 268.62,-45.53"/>
</g>
</g>
</svg>
