<?xml version="1.0" encoding="UTF-8" standalone="no"?>
<!DOCTYPE svg PUBLIC "-//W3C//DTD SVG 1.1//EN"
 "http://www.w3.org/Graphics/SVG/1.1/DTD/svg11.dtd">
<!-- Generated by graphviz version 11.0.0 (20240428.1522)
 -->
<!-- Title: G Pages: 1 -->
<svg width="636pt" height="332pt"
 viewBox="0.00 0.00 635.98 332.00" xmlns="http://www.w3.org/2000/svg" xmlns:xlink="http://www.w3.org/1999/xlink">
<g id="graph0" class="graph" transform="scale(1 1) rotate(0) translate(4 328)">
<title>G</title>
<polygon fill="white" stroke="none" points="-4,4 -4,-328 631.98,-328 631.98,4 -4,4"/>
<!-- :feature:service -->
<g id="node1" class="node">
<title>:feature:service</title>
<ellipse fill="none" stroke="black" cx="303.53" cy="-306" rx="65.53" ry="18"/>
<text text-anchor="middle" x="303.53" y="-300.57" font-family="Times New Roman,serif" font-size="14.00">:feature:service</text>
</g>
<!-- :design&#45;system -->
<g id="node2" class="node">
<title>:design&#45;system</title>
<ellipse fill="none" stroke="black" cx="65.53" cy="-90" rx="65.53" ry="18"/>
<text text-anchor="middle" x="65.53" y="-84.58" font-family="Times New Roman,serif" font-size="14.00">:design&#45;system</text>
</g>
<!-- :feature:service&#45;&gt;:design&#45;system -->
<g id="edge1" class="edge">
<title>:feature:service&#45;&gt;:design&#45;system</title>
<path fill="none" stroke="black" d="M275.5,-289.36C258.86,-279.53 237.73,-266.08 220.53,-252 168.13,-209.07 115.12,-149.82 86.69,-116.47"/>
<polygon fill="black" stroke="black" points="89.46,-114.32 80.33,-108.94 84.11,-118.84 89.46,-114.32"/>
</g>
<!-- :domain:foreground&#45;service -->
<g id="node3" class="node">
<title>:domain:foreground&#45;service</title>
<ellipse fill="none" stroke="black" cx="515.53" cy="-162" rx="112.44" ry="18"/>
<text text-anchor="middle" x="515.53" y="-156.57" font-family="Times New Roman,serif" font-size="14.00">:domain:foreground&#45;service</text>
</g>
<!-- :feature:service&#45;&gt;:domain:foreground&#45;service -->
<g id="edge2" class="edge">
<title>:feature:service&#45;&gt;:domain:foreground&#45;service</title>
<path fill="none" stroke="black" d="M329.11,-289C345.6,-278.6 367.45,-264.67 386.53,-252 419.3,-230.25 456.19,-204.69 482.1,-186.55"/>
<polygon fill="black" stroke="black" points="484.04,-189.47 490.22,-180.86 480.02,-183.73 484.04,-189.47"/>
</g>
<!-- :domain:use&#45;case -->
<g id="node4" class="node">
<title>:domain:use&#45;case</title>
<ellipse fill="none" stroke="black" cx="303.53" cy="-234" rx="74.02" ry="18"/>
<text text-anchor="middle" x="303.53" y="-228.57" font-family="Times New Roman,serif" font-size="14.00">:domain:use&#45;case</text>
</g>
<!-- :feature:service&#45;&gt;:domain:use&#45;case -->
<g id="edge3" class="edge">
<title>:feature:service&#45;&gt;:domain:use&#45;case</title>
<path fill="none" stroke="red" stroke-width="2" d="M303.53,-287.7C303.53,-280.41 303.53,-271.73 303.53,-263.54"/>
<polygon fill="red" stroke="red" stroke-width="2" points="307.03,-265.13 303.53,-255.13 300.03,-265.13 307.03,-265.13"/>
</g>
<!-- :domain:model -->
<g id="node5" class="node">
<title>:domain:model</title>
<ellipse fill="none" stroke="black" cx="159.53" cy="-18" rx="65.04" ry="18"/>
<text text-anchor="middle" x="159.53" y="-12.57" font-family="Times New Roman,serif" font-size="14.00">:domain:model</text>
</g>
<!-- :design&#45;system&#45;&gt;:domain:model -->
<g id="edge4" class="edge">
<title>:design&#45;system&#45;&gt;:domain:model</title>
<path fill="none" stroke="black" d="M87.34,-72.76C99.59,-63.64 115.08,-52.1 128.57,-42.06"/>
<polygon fill="black" stroke="black" points="130.38,-45.07 136.31,-36.29 126.2,-39.46 130.38,-45.07"/>
</g>
<!-- :domain:use&#45;case&#45;&gt;:domain:foreground&#45;service -->
<g id="edge6" class="edge">
<title>:domain:use&#45;case&#45;&gt;:domain:foreground&#45;service</title>
<path fill="none" stroke="black" d="M346.18,-218.92C378.18,-208.35 422.34,-193.77 457.54,-182.15"/>
<polygon fill="black" stroke="black" points="458.32,-185.58 466.72,-179.12 456.13,-178.93 458.32,-185.58"/>
</g>
<!-- :domain:use&#45;case&#45;&gt;:domain:model -->
<g id="edge5" class="edge">
<title>:domain:use&#45;case&#45;&gt;:domain:model</title>
<path fill="none" stroke="black" d="M246.35,-222.21C221.68,-214.58 194.8,-201.68 178.53,-180 149.6,-141.43 150.88,-82.39 154.9,-47.54"/>
<polygon fill="black" stroke="black" points="158.34,-48.17 156.19,-37.8 151.4,-47.25 158.34,-48.17"/>
</g>
<!-- :domain:framework -->
<g id="node6" class="node">
<title>:domain:framework</title>
<ellipse fill="none" stroke="black" cx="342.53" cy="-90" rx="82" ry="18"/>
<text text-anchor="middle" x="342.53" y="-84.58" font-family="Times New Roman,serif" font-size="14.00">:domain:framework</text>
</g>
<!-- :domain:use&#45;case&#45;&gt;:domain:framework -->
<g id="edge7" class="edge">
<title>:domain:use&#45;case&#45;&gt;:domain:framework</title>
<path fill="none" stroke="black" d="M327.18,-216.46C338.34,-207.18 350.51,-194.55 356.53,-180 364.58,-160.59 360.32,-137.04 354.46,-119.04"/>
<polygon fill="black" stroke="black" points="357.81,-118.01 351.11,-109.8 351.23,-120.39 357.81,-118.01"/>
</g>
<!-- :domain:repository -->
<g id="node7" class="node">
<title>:domain:repository</title>
<ellipse fill="none" stroke="black" cx="267.53" cy="-162" rx="80.01" ry="18"/>
<text text-anchor="middle" x="267.53" y="-156.57" font-family="Times New Roman,serif" font-size="14.00">:domain:repository</text>
</g>
<!-- :domain:use&#45;case&#45;&gt;:domain:repository -->
<g id="edge8" class="edge">
<title>:domain:use&#45;case&#45;&gt;:domain:repository</title>
<path fill="none" stroke="red" stroke-width="2" d="M294.64,-215.7C290.67,-207.98 285.9,-198.71 281.48,-190.11"/>
<polygon fill="red" stroke="red" stroke-width="2" points="285.4,-190.09 277.72,-182.8 279.18,-193.29 285.4,-190.09"/>
</g>
<!-- :domain:framework&#45;&gt;:domain:model -->
<g id="edge9" class="edge">
<title>:domain:framework&#45;&gt;:domain:model</title>
<path fill="none" stroke="red" stroke-width="2" d="M302.83,-73.81C274.74,-63.07 236.94,-48.61 207.22,-37.24"/>
<polygon fill="red" stroke="red" stroke-width="2" points="210.09,-34.59 199.5,-34.29 207.59,-41.13 210.09,-34.59"/>
</g>
<!-- :domain:broadcast&#45;receiver -->
<g id="node8" class="node">
<title>:domain:broadcast&#45;receiver</title>
<ellipse fill="none" stroke="black" cx="353.53" cy="-18" rx="110.94" ry="18"/>
<text text-anchor="middle" x="353.53" y="-12.57" font-family="Times New Roman,serif" font-size="14.00">:domain:broadcast&#45;receiver</text>
</g>
<!-- :domain:framework&#45;&gt;:domain:broadcast&#45;receiver -->
<g id="edge10" class="edge">
<title>:domain:framework&#45;&gt;:domain:broadcast&#45;receiver</title>
<path fill="none" stroke="black" d="M345.25,-71.7C346.41,-64.32 347.8,-55.52 349.1,-47.25"/>
<polygon fill="black" stroke="black" points="352.52,-48.02 350.61,-37.6 345.6,-46.93 352.52,-48.02"/>
</g>
<!-- :domain:repository&#45;&gt;:domain:model -->
<g id="edge11" class="edge">
<title>:domain:repository&#45;&gt;:domain:model</title>
<path fill="none" stroke="black" d="M254.51,-143.87C235.76,-119.22 201.02,-73.54 179.15,-44.79"/>
<polygon fill="black" stroke="black" points="182.03,-42.79 173.19,-36.95 176.46,-47.03 182.03,-42.79"/>
</g>
<!-- :domain:repository&#45;&gt;:domain:framework -->
<g id="edge12" class="edge">
<title>:domain:repository&#45;&gt;:domain:framework</title>
<path fill="none" stroke="red" stroke-width="2" d="M285.69,-144.05C294.83,-135.52 306.09,-125.01 316.17,-115.61"/>
<polygon fill="red" stroke="red" stroke-width="2" points="317.15,-119.48 322.07,-110.1 312.37,-114.36 317.15,-119.48"/>
</g>
</g>
</svg>
