<?xml version="1.0" encoding="UTF-8" standalone="no"?>
<!DOCTYPE svg PUBLIC "-//W3C//DTD SVG 1.1//EN"
 "http://www.w3.org/Graphics/SVG/1.1/DTD/svg11.dtd">
<!-- Generated by graphviz version 11.0.0 (20240428.1522)
 -->
<!-- Title: G Pages: 1 -->
<svg width="222pt" height="116pt"
 viewBox="0.00 0.00 221.90 116.00" xmlns="http://www.w3.org/2000/svg" xmlns:xlink="http://www.w3.org/1999/xlink">
<g id="graph0" class="graph" transform="scale(1 1) rotate(0) translate(4 112)">
<title>G</title>
<polygon fill="white" stroke="none" points="-4,4 -4,-112 217.9,-112 217.9,4 -4,4"/>
<!-- :framework:asset&#45;manager -->
<g id="node1" class="node">
<title>:framework:asset&#45;manager</title>
<ellipse fill="none" stroke="black" cx="106.95" cy="-90" rx="106.95" ry="18"/>
<text text-anchor="middle" x="106.95" y="-84.58" font-family="Times New Roman,serif" font-size="14.00">:framework:asset&#45;manager</text>
</g>
<!-- :common -->
<g id="node2" class="node">
<title>:common</title>
<ellipse fill="none" stroke="black" cx="54.95" cy="-18" rx="45.57" ry="18"/>
<text text-anchor="middle" x="54.95" y="-12.57" font-family="Times New Roman,serif" font-size="14.00">:common</text>
</g>
<!-- :framework:asset&#45;manager&#45;&gt;:common -->
<g id="edge1" class="edge">
<title>:framework:asset&#45;manager&#45;&gt;:common</title>
<path fill="none" stroke="red" stroke-width="2" d="M94.1,-71.7C88.03,-63.52 80.66,-53.6 73.96,-44.58"/>
<polygon fill="red" stroke="red" stroke-width="2" points="77.88,-43.99 69.1,-38.05 72.26,-48.17 77.88,-43.99"/>
</g>
<!-- :domain -->
<g id="node3" class="node">
<title>:domain</title>
<ellipse fill="none" stroke="black" cx="158.95" cy="-18" rx="40.09" ry="18"/>
<text text-anchor="middle" x="158.95" y="-12.57" font-family="Times New Roman,serif" font-size="14.00">:domain</text>
</g>
<!-- :framework:asset&#45;manager&#45;&gt;:domain -->
<g id="edge2" class="edge">
<title>:framework:asset&#45;manager&#45;&gt;:domain</title>
<path fill="none" stroke="black" d="M119.81,-71.7C125.88,-63.52 133.25,-53.6 139.95,-44.58"/>
<polygon fill="black" stroke="black" points="142.55,-46.95 145.7,-36.84 136.93,-42.78 142.55,-46.95"/>
</g>
</g>
</svg>
