<?xml version="1.0" encoding="UTF-8" standalone="no"?>
<!DOCTYPE svg PUBLIC "-//W3C//DTD SVG 1.1//EN"
 "http://www.w3.org/Graphics/SVG/1.1/DTD/svg11.dtd">
<!-- Generated by graphviz version 11.0.0 (20240428.1522)
 -->
<!-- Title: G Pages: 1 -->
<svg width="445pt" height="332pt"
 viewBox="0.00 0.00 444.97 332.00" xmlns="http://www.w3.org/2000/svg" xmlns:xlink="http://www.w3.org/1999/xlink">
<g id="graph0" class="graph" transform="scale(1 1) rotate(0) translate(4 328)">
<title>G</title>
<polygon fill="white" stroke="none" points="-4,4 -4,-328 440.97,-328 440.97,4 -4,4"/>
<!-- :data:repository -->
<g id="node1" class="node">
<title>:data:repository</title>
<ellipse fill="none" stroke="black" cx="287.02" cy="-306" rx="68.03" ry="18"/>
<text text-anchor="middle" x="287.02" y="-300.57" font-family="Times New Roman,serif" font-size="14.00">:data:repository</text>
</g>
<!-- :data:datastore -->
<g id="node2" class="node">
<title>:data:datastore</title>
<ellipse fill="none" stroke="black" cx="187.02" cy="-234" rx="64.04" ry="18"/>
<text text-anchor="middle" x="187.02" y="-228.57" font-family="Times New Roman,serif" font-size="14.00">:data:datastore</text>
</g>
<!-- :data:repository&#45;&gt;:data:datastore -->
<g id="edge1" class="edge">
<title>:data:repository&#45;&gt;:data:datastore</title>
<path fill="none" stroke="red" stroke-width="2" d="M263.82,-288.76C250.57,-279.49 233.75,-267.71 219.23,-257.55"/>
<polygon fill="red" stroke="red" stroke-width="2" points="222.76,-255.75 212.56,-252.88 218.75,-261.49 222.76,-255.75"/>
</g>
<!-- :data:room -->
<g id="node3" class="node">
<title>:data:room</title>
<ellipse fill="none" stroke="black" cx="365.02" cy="-234" rx="50.07" ry="18"/>
<text text-anchor="middle" x="365.02" y="-228.57" font-family="Times New Roman,serif" font-size="14.00">:data:room</text>
</g>
<!-- :data:repository&#45;&gt;:data:room -->
<g id="edge2" class="edge">
<title>:data:repository&#45;&gt;:data:room</title>
<path fill="none" stroke="black" d="M305.5,-288.41C315.38,-279.54 327.72,-268.47 338.6,-258.71"/>
<polygon fill="black" stroke="black" points="340.7,-261.52 345.81,-252.24 336.03,-256.31 340.7,-261.52"/>
</g>
<!-- :domain:common -->
<g id="node4" class="node">
<title>:domain:common</title>
<ellipse fill="none" stroke="black" cx="75.02" cy="-90" rx="75.02" ry="18"/>
<text text-anchor="middle" x="75.02" y="-84.58" font-family="Times New Roman,serif" font-size="14.00">:domain:common</text>
</g>
<!-- :data:repository&#45;&gt;:domain:common -->
<g id="edge3" class="edge">
<title>:data:repository&#45;&gt;:domain:common</title>
<path fill="none" stroke="black" d="M225.76,-297.87C159.34,-286.31 57.74,-256.41 20.02,-180 12.93,-165.65 13.76,-158.72 20.02,-144 24.77,-132.81 33.18,-122.84 42.01,-114.64"/>
<polygon fill="black" stroke="black" points="44.04,-117.51 49.35,-108.34 39.48,-112.2 44.04,-117.51"/>
</g>
<!-- :domain:framework -->
<g id="node5" class="node">
<title>:domain:framework</title>
<ellipse fill="none" stroke="black" cx="335.02" cy="-90" rx="82" ry="18"/>
<text text-anchor="middle" x="335.02" y="-84.58" font-family="Times New Roman,serif" font-size="14.00">:domain:framework</text>
</g>
<!-- :data:repository&#45;&gt;:domain:framework -->
<g id="edge4" class="edge">
<title>:data:repository&#45;&gt;:domain:framework</title>
<path fill="none" stroke="black" d="M347.28,-297.39C375.53,-290.47 406.71,-277.24 424.02,-252 455.77,-205.66 401.87,-146.99 365.03,-114.81"/>
<polygon fill="black" stroke="black" points="367.59,-112.4 357.71,-108.59 363.06,-117.73 367.59,-112.4"/>
</g>
<!-- :domain:repository -->
<g id="node6" class="node">
<title>:domain:repository</title>
<ellipse fill="none" stroke="black" cx="295.02" cy="-162" rx="80.01" ry="18"/>
<text text-anchor="middle" x="295.02" y="-156.57" font-family="Times New Roman,serif" font-size="14.00">:domain:repository</text>
</g>
<!-- :data:repository&#45;&gt;:domain:repository -->
<g id="edge5" class="edge">
<title>:data:repository&#45;&gt;:domain:repository</title>
<path fill="none" stroke="black" d="M288,-287.59C289.35,-263.61 291.8,-220.14 293.41,-191.42"/>
<polygon fill="black" stroke="black" points="296.9,-191.8 293.97,-181.62 289.91,-191.41 296.9,-191.8"/>
</g>
<!-- :data:datastore&#45;&gt;:domain:common -->
<g id="edge7" class="edge">
<title>:data:datastore&#45;&gt;:domain:common</title>
<path fill="none" stroke="black" d="M177.61,-215.79C167.12,-197.25 149.1,-167.27 130.02,-144 121.86,-134.05 111.99,-124.04 102.87,-115.43"/>
<polygon fill="black" stroke="black" points="105.28,-112.89 95.56,-108.68 100.54,-118.03 105.28,-112.89"/>
</g>
<!-- :data:datastore&#45;&gt;:domain:repository -->
<g id="edge9" class="edge">
<title>:data:datastore&#45;&gt;:domain:repository</title>
<path fill="none" stroke="red" stroke-width="2" d="M211.79,-216.94C226.13,-207.65 244.4,-195.81 260.17,-185.59"/>
<polygon fill="red" stroke="red" stroke-width="2" points="260.58,-189.49 267.06,-181.12 256.77,-183.62 260.58,-189.49"/>
</g>
<!-- :common -->
<g id="node7" class="node">
<title>:common</title>
<ellipse fill="none" stroke="black" cx="75.02" cy="-162" rx="45.57" ry="18"/>
<text text-anchor="middle" x="75.02" y="-156.57" font-family="Times New Roman,serif" font-size="14.00">:common</text>
</g>
<!-- :data:datastore&#45;&gt;:common -->
<g id="edge6" class="edge">
<title>:data:datastore&#45;&gt;:common</title>
<path fill="none" stroke="black" d="M161.6,-217.12C145.74,-207.2 125.16,-194.34 108.04,-183.64"/>
<polygon fill="black" stroke="black" points="110.04,-180.76 99.7,-178.43 106.33,-186.7 110.04,-180.76"/>
</g>
<!-- :domain:model -->
<g id="node8" class="node">
<title>:domain:model</title>
<ellipse fill="none" stroke="black" cx="280.02" cy="-18" rx="65.04" ry="18"/>
<text text-anchor="middle" x="280.02" y="-12.57" font-family="Times New Roman,serif" font-size="14.00">:domain:model</text>
</g>
<!-- :data:datastore&#45;&gt;:domain:model -->
<g id="edge8" class="edge">
<title>:data:datastore&#45;&gt;:domain:model</title>
<path fill="none" stroke="black" d="M189.23,-215.87C193.8,-185.14 206.36,-119.43 235.02,-72 240.88,-62.29 248.51,-52.56 255.81,-44.14"/>
<polygon fill="black" stroke="black" points="258.41,-46.48 262.5,-36.71 253.21,-41.8 258.41,-46.48"/>
</g>
<!-- :data:room&#45;&gt;:domain:repository -->
<g id="edge15" class="edge">
<title>:data:room&#45;&gt;:domain:repository</title>
<path fill="none" stroke="black" d="M348.78,-216.76C340.16,-208.14 329.38,-197.36 319.74,-187.73"/>
<polygon fill="black" stroke="black" points="322.27,-185.3 312.72,-180.7 317.32,-190.25 322.27,-185.3"/>
</g>
<!-- :data:room&#45;&gt;:domain:model -->
<g id="edge14" class="edge">
<title>:data:room&#45;&gt;:domain:model</title>
<path fill="none" stroke="black" d="M380.72,-216.66C408.17,-186.06 458.95,-119 426.02,-72 409.01,-47.73 379.69,-34.53 351.77,-27.37"/>
<polygon fill="black" stroke="black" points="352.76,-24.01 342.23,-25.16 351.19,-30.83 352.76,-24.01"/>
</g>
<!-- :domain:framework&#45;&gt;:domain:model -->
<g id="edge13" class="edge">
<title>:domain:framework&#45;&gt;:domain:model</title>
<path fill="none" stroke="red" stroke-width="2" d="M321.7,-72.05C315.28,-63.89 307.45,-53.91 300.31,-44.82"/>
<polygon fill="red" stroke="red" stroke-width="2" points="304.01,-43.87 295.08,-38.17 298.5,-48.19 304.01,-43.87"/>
</g>
<!-- :domain:repository&#45;&gt;:domain:framework -->
<g id="edge12" class="edge">
<title>:domain:repository&#45;&gt;:domain:framework</title>
<path fill="none" stroke="red" stroke-width="2" d="M304.9,-143.7C309.36,-135.9 314.73,-126.51 319.68,-117.83"/>
<polygon fill="red" stroke="red" stroke-width="2" points="321.82,-121.15 323.74,-110.73 315.74,-117.68 321.82,-121.15"/>
</g>
<!-- :domain:repository&#45;&gt;:domain:model -->
<g id="edge11" class="edge">
<title>:domain:repository&#45;&gt;:domain:model</title>
<path fill="none" stroke="black" d="M272.24,-144.28C261.5,-134.96 249.79,-122.33 244.02,-108 238.04,-93.16 239.31,-87.29 244.02,-72 246.98,-62.37 252.35,-52.92 258.05,-44.73"/>
<polygon fill="black" stroke="black" points="260.68,-47.07 263.87,-36.97 255.07,-42.87 260.68,-47.07"/>
</g>
<!-- :common&#45;&gt;:domain:common -->
<g id="edge10" class="edge">
<title>:common&#45;&gt;:domain:common</title>
<path fill="none" stroke="black" d="M75.02,-143.7C75.02,-136.41 75.02,-127.73 75.02,-119.54"/>
<polygon fill="black" stroke="black" points="78.52,-119.62 75.02,-109.62 71.52,-119.62 78.52,-119.62"/>
</g>
</g>
</svg>
