<?xml version="1.0" encoding="UTF-8" standalone="no"?>
<!DOCTYPE svg PUBLIC "-//W3C//DTD SVG 1.1//EN"
 "http://www.w3.org/Graphics/SVG/1.1/DTD/svg11.dtd">
<!-- Generated by graphviz version 11.0.0 (20240428.1522)
 -->
<!-- Title: G Pages: 1 -->
<svg width="420pt" height="260pt"
 viewBox="0.00 0.00 420.02 260.00" xmlns="http://www.w3.org/2000/svg" xmlns:xlink="http://www.w3.org/1999/xlink">
<g id="graph0" class="graph" transform="scale(1 1) rotate(0) translate(4 256)">
<title>G</title>
<polygon fill="white" stroke="none" points="-4,4 -4,-256 416.02,-256 416.02,4 -4,4"/>
<!-- :data:datastore -->
<g id="node1" class="node">
<title>:data:datastore</title>
<ellipse fill="none" stroke="black" cx="163.02" cy="-234" rx="64.04" ry="18"/>
<text text-anchor="middle" x="163.02" y="-228.57" font-family="Times New Roman,serif" font-size="14.00">:data:datastore</text>
</g>
<!-- :common -->
<g id="node2" class="node">
<title>:common</title>
<ellipse fill="none" stroke="black" cx="70.02" cy="-162" rx="45.57" ry="18"/>
<text text-anchor="middle" x="70.02" y="-156.57" font-family="Times New Roman,serif" font-size="14.00">:common</text>
</g>
<!-- :data:datastore&#45;&gt;:common -->
<g id="edge1" class="edge">
<title>:data:datastore&#45;&gt;:common</title>
<path fill="none" stroke="black" d="M141.45,-216.76C128.98,-207.38 113.11,-195.44 99.5,-185.2"/>
<polygon fill="black" stroke="black" points="101.82,-182.55 91.72,-179.34 97.61,-188.15 101.82,-182.55"/>
</g>
<!-- :domain:common -->
<g id="node3" class="node">
<title>:domain:common</title>
<ellipse fill="none" stroke="black" cx="75.02" cy="-90" rx="75.02" ry="18"/>
<text text-anchor="middle" x="75.02" y="-84.58" font-family="Times New Roman,serif" font-size="14.00">:domain:common</text>
</g>
<!-- :data:datastore&#45;&gt;:domain:common -->
<g id="edge2" class="edge">
<title>:data:datastore&#45;&gt;:domain:common</title>
<path fill="none" stroke="black" d="M157.67,-215.71C151.46,-197.09 140.11,-167.05 125.02,-144 118.47,-134 109.94,-124.16 101.79,-115.73"/>
<polygon fill="black" stroke="black" points="104.47,-113.46 94.92,-108.88 99.53,-118.42 104.47,-113.46"/>
</g>
<!-- :domain:model -->
<g id="node4" class="node">
<title>:domain:model</title>
<ellipse fill="none" stroke="black" cx="220.02" cy="-18" rx="65.04" ry="18"/>
<text text-anchor="middle" x="220.02" y="-12.57" font-family="Times New Roman,serif" font-size="14.00">:domain:model</text>
</g>
<!-- :data:datastore&#45;&gt;:domain:model -->
<g id="edge3" class="edge">
<title>:data:datastore&#45;&gt;:domain:model</title>
<path fill="none" stroke="black" d="M167.58,-215.85C177.38,-179.07 200.49,-92.29 212.49,-47.24"/>
<polygon fill="black" stroke="black" points="215.84,-48.26 215.04,-37.7 209.08,-46.46 215.84,-48.26"/>
</g>
<!-- :domain:repository -->
<g id="node5" class="node">
<title>:domain:repository</title>
<ellipse fill="none" stroke="black" cx="290.02" cy="-162" rx="80.01" ry="18"/>
<text text-anchor="middle" x="290.02" y="-156.57" font-family="Times New Roman,serif" font-size="14.00">:domain:repository</text>
</g>
<!-- :data:datastore&#45;&gt;:domain:repository -->
<g id="edge4" class="edge">
<title>:data:datastore&#45;&gt;:domain:repository</title>
<path fill="none" stroke="red" stroke-width="2" d="M191.2,-217.46C208.79,-207.77 231.69,-195.15 251.01,-184.5"/>
<polygon fill="red" stroke="red" stroke-width="2" points="251.31,-188.33 258.38,-180.44 247.93,-182.2 251.31,-188.33"/>
</g>
<!-- :common&#45;&gt;:domain:common -->
<g id="edge5" class="edge">
<title>:common&#45;&gt;:domain:common</title>
<path fill="none" stroke="black" d="M71.25,-143.7C71.77,-136.41 72.39,-127.73 72.98,-119.54"/>
<polygon fill="black" stroke="black" points="76.46,-119.84 73.69,-109.61 69.48,-119.34 76.46,-119.84"/>
</g>
<!-- :domain:repository&#45;&gt;:domain:model -->
<g id="edge6" class="edge">
<title>:domain:repository&#45;&gt;:domain:model</title>
<path fill="none" stroke="black" d="M268.99,-144.18C258.44,-134.65 246.38,-121.87 239.02,-108 229.09,-89.32 224.35,-65.83 222.09,-47.68"/>
<polygon fill="black" stroke="black" points="225.58,-47.44 221.06,-37.86 218.62,-48.17 225.58,-47.44"/>
</g>
<!-- :domain:framework -->
<g id="node6" class="node">
<title>:domain:framework</title>
<ellipse fill="none" stroke="black" cx="330.02" cy="-90" rx="82" ry="18"/>
<text text-anchor="middle" x="330.02" y="-84.58" font-family="Times New Roman,serif" font-size="14.00">:domain:framework</text>
</g>
<!-- :domain:repository&#45;&gt;:domain:framework -->
<g id="edge7" class="edge">
<title>:domain:repository&#45;&gt;:domain:framework</title>
<path fill="none" stroke="red" stroke-width="2" d="M299.9,-143.7C304.36,-135.9 309.73,-126.51 314.68,-117.83"/>
<polygon fill="red" stroke="red" stroke-width="2" points="316.82,-121.15 318.74,-110.73 310.74,-117.68 316.82,-121.15"/>
</g>
<!-- :domain:framework&#45;&gt;:domain:model -->
<g id="edge8" class="edge">
<title>:domain:framework&#45;&gt;:domain:model</title>
<path fill="none" stroke="red" stroke-width="2" d="M304.23,-72.59C289.5,-63.22 270.84,-51.34 254.83,-41.16"/>
<polygon fill="red" stroke="red" stroke-width="2" points="258.13,-39.11 247.82,-36.69 254.38,-45.01 258.13,-39.11"/>
</g>
</g>
</svg>
