<?xml version="1.0" encoding="UTF-8" standalone="no"?>
<!DOCTYPE svg PUBLIC "-//W3C//DTD SVG 1.1//EN"
 "http://www.w3.org/Graphics/SVG/1.1/DTD/svg11.dtd">
<!-- Generated by graphviz version 11.0.0 (20240428.1522)
 -->
<!-- Title: G Pages: 1 -->
<svg width="675pt" height="332pt"
 viewBox="0.00 0.00 674.61 332.00" xmlns="http://www.w3.org/2000/svg" xmlns:xlink="http://www.w3.org/1999/xlink">
<g id="graph0" class="graph" transform="scale(1 1) rotate(0) translate(4 328)">
<title>G</title>
<polygon fill="white" stroke="none" points="-4,4 -4,-328 670.61,-328 670.61,4 -4,4"/>
<!-- :broadcast&#45;receiver -->
<g id="node1" class="node">
<title>:broadcast&#45;receiver</title>
<ellipse fill="none" stroke="black" cx="178.02" cy="-306" rx="81.5" ry="18"/>
<text text-anchor="middle" x="178.02" y="-300.57" font-family="Times New Roman,serif" font-size="14.00">:broadcast&#45;receiver</text>
</g>
<!-- :common -->
<g id="node2" class="node">
<title>:common</title>
<ellipse fill="none" stroke="black" cx="66.02" cy="-234" rx="45.57" ry="18"/>
<text text-anchor="middle" x="66.02" y="-228.57" font-family="Times New Roman,serif" font-size="14.00">:common</text>
</g>
<!-- :broadcast&#45;receiver&#45;&gt;:common -->
<g id="edge1" class="edge">
<title>:broadcast&#45;receiver&#45;&gt;:common</title>
<path fill="none" stroke="black" d="M151.76,-288.59C135.97,-278.72 115.75,-266.09 98.91,-255.56"/>
<polygon fill="black" stroke="black" points="101.06,-252.78 90.73,-250.45 97.35,-258.71 101.06,-252.78"/>
</g>
<!-- :domain:common -->
<g id="node3" class="node">
<title>:domain:common</title>
<ellipse fill="none" stroke="black" cx="75.02" cy="-162" rx="75.02" ry="18"/>
<text text-anchor="middle" x="75.02" y="-156.57" font-family="Times New Roman,serif" font-size="14.00">:domain:common</text>
</g>
<!-- :broadcast&#45;receiver&#45;&gt;:domain:common -->
<g id="edge2" class="edge">
<title>:broadcast&#45;receiver&#45;&gt;:domain:common</title>
<path fill="none" stroke="black" d="M168.01,-287.78C157.14,-269.48 138.93,-239.95 121.02,-216 113.97,-206.59 105.71,-196.74 98.14,-188.12"/>
<polygon fill="black" stroke="black" points="100.86,-185.92 91.59,-180.79 95.64,-190.58 100.86,-185.92"/>
</g>
<!-- :domain:foreground&#45;service -->
<g id="node4" class="node">
<title>:domain:foreground&#45;service</title>
<ellipse fill="none" stroke="black" cx="318.02" cy="-162" rx="112.44" ry="18"/>
<text text-anchor="middle" x="318.02" y="-156.57" font-family="Times New Roman,serif" font-size="14.00">:domain:foreground&#45;service</text>
</g>
<!-- :broadcast&#45;receiver&#45;&gt;:domain:foreground&#45;service -->
<g id="edge3" class="edge">
<title>:broadcast&#45;receiver&#45;&gt;:domain:foreground&#45;service</title>
<path fill="none" stroke="black" d="M194.63,-288.15C219.02,-263.41 264.7,-217.08 293.12,-188.25"/>
<polygon fill="black" stroke="black" points="295.4,-190.92 299.93,-181.35 290.42,-186.01 295.4,-190.92"/>
</g>
<!-- :domain:framework -->
<g id="node5" class="node">
<title>:domain:framework</title>
<ellipse fill="none" stroke="black" cx="458.02" cy="-90" rx="82" ry="18"/>
<text text-anchor="middle" x="458.02" y="-84.58" font-family="Times New Roman,serif" font-size="14.00">:domain:framework</text>
</g>
<!-- :broadcast&#45;receiver&#45;&gt;:domain:framework -->
<g id="edge4" class="edge">
<title>:broadcast&#45;receiver&#45;&gt;:domain:framework</title>
<path fill="none" stroke="black" d="M174.17,-287.55C168.07,-254.81 160.32,-183.87 197.02,-144 220.18,-118.83 303.73,-105.05 370.15,-97.91"/>
<polygon fill="black" stroke="black" points="370.39,-101.4 379.98,-96.89 369.67,-94.44 370.39,-101.4"/>
</g>
<!-- :domain:use&#45;case -->
<g id="node6" class="node">
<title>:domain:use&#45;case</title>
<ellipse fill="none" stroke="black" cx="413.02" cy="-234" rx="74.02" ry="18"/>
<text text-anchor="middle" x="413.02" y="-228.57" font-family="Times New Roman,serif" font-size="14.00">:domain:use&#45;case</text>
</g>
<!-- :broadcast&#45;receiver&#45;&gt;:domain:use&#45;case -->
<g id="edge5" class="edge">
<title>:broadcast&#45;receiver&#45;&gt;:domain:use&#45;case</title>
<path fill="none" stroke="red" stroke-width="2" d="M225.29,-290.92C263.15,-279.64 316.36,-263.79 356.47,-251.84"/>
<polygon fill="red" stroke="red" stroke-width="2" points="355.93,-255.66 364.52,-249.45 353.93,-248.95 355.93,-255.66"/>
</g>
<!-- :common&#45;&gt;:domain:common -->
<g id="edge6" class="edge">
<title>:common&#45;&gt;:domain:common</title>
<path fill="none" stroke="black" d="M68.24,-215.7C69.19,-208.32 70.32,-199.52 71.38,-191.25"/>
<polygon fill="black" stroke="black" points="74.82,-191.97 72.62,-181.61 67.88,-191.08 74.82,-191.97"/>
</g>
<!-- :domain:model -->
<g id="node7" class="node">
<title>:domain:model</title>
<ellipse fill="none" stroke="black" cx="568.02" cy="-18" rx="65.04" ry="18"/>
<text text-anchor="middle" x="568.02" y="-12.57" font-family="Times New Roman,serif" font-size="14.00">:domain:model</text>
</g>
<!-- :domain:framework&#45;&gt;:domain:model -->
<g id="edge7" class="edge">
<title>:domain:framework&#45;&gt;:domain:model</title>
<path fill="none" stroke="red" stroke-width="2" d="M483.81,-72.59C498.53,-63.22 517.19,-51.34 533.2,-41.16"/>
<polygon fill="red" stroke="red" stroke-width="2" points="533.66,-45.01 540.21,-36.69 529.9,-39.11 533.66,-45.01"/>
</g>
<!-- :domain:use&#45;case&#45;&gt;:domain:common -->
<g id="edge9" class="edge">
<title>:domain:use&#45;case&#45;&gt;:domain:common</title>
<path fill="none" stroke="black" d="M357.96,-221.6C298.84,-209.35 204.91,-189.9 141.66,-176.8"/>
<polygon fill="black" stroke="black" points="142.6,-173.42 132.09,-174.82 141.18,-180.28 142.6,-173.42"/>
</g>
<!-- :domain:use&#45;case&#45;&gt;:domain:foreground&#45;service -->
<g id="edge10" class="edge">
<title>:domain:use&#45;case&#45;&gt;:domain:foreground&#45;service</title>
<path fill="none" stroke="black" d="M390.5,-216.41C378.49,-207.56 363.5,-196.52 350.28,-186.77"/>
<polygon fill="black" stroke="black" points="352.37,-183.97 342.25,-180.85 348.22,-189.6 352.37,-183.97"/>
</g>
<!-- :domain:use&#45;case&#45;&gt;:domain:framework -->
<g id="edge11" class="edge">
<title>:domain:use&#45;case&#45;&gt;:domain:framework</title>
<path fill="none" stroke="black" d="M422.8,-215.8C428.22,-205.65 434.72,-192.4 439.02,-180 445.82,-160.35 450.65,-137.38 453.74,-119.69"/>
<polygon fill="black" stroke="black" points="457.18,-120.33 455.35,-109.9 450.27,-119.19 457.18,-120.33"/>
</g>
<!-- :domain:use&#45;case&#45;&gt;:domain:model -->
<g id="edge8" class="edge">
<title>:domain:use&#45;case&#45;&gt;:domain:model</title>
<path fill="none" stroke="black" d="M482.29,-227.35C545.97,-220.54 633.65,-206.56 655.02,-180 690.33,-136.12 635.01,-75.8 597.65,-42.86"/>
<polygon fill="black" stroke="black" points="600.08,-40.33 590.21,-36.47 595.52,-45.64 600.08,-40.33"/>
</g>
<!-- :domain:repository -->
<g id="node8" class="node">
<title>:domain:repository</title>
<ellipse fill="none" stroke="black" cx="566.02" cy="-162" rx="80.01" ry="18"/>
<text text-anchor="middle" x="566.02" y="-156.57" font-family="Times New Roman,serif" font-size="14.00">:domain:repository</text>
</g>
<!-- :domain:use&#45;case&#45;&gt;:domain:repository -->
<g id="edge12" class="edge">
<title>:domain:use&#45;case&#45;&gt;:domain:repository</title>
<path fill="none" stroke="red" stroke-width="2" d="M446.59,-217.64C468.58,-207.58 497.57,-194.31 521.48,-183.37"/>
<polygon fill="red" stroke="red" stroke-width="2" points="521.33,-187.29 528.97,-179.95 518.42,-180.93 521.33,-187.29"/>
</g>
<!-- :domain:repository&#45;&gt;:domain:framework -->
<g id="edge14" class="edge">
<title>:domain:repository&#45;&gt;:domain:framework</title>
<path fill="none" stroke="red" stroke-width="2" d="M540.69,-144.59C526.44,-135.35 508.44,-123.68 492.87,-113.59"/>
<polygon fill="red" stroke="red" stroke-width="2" points="496.39,-111.7 486.09,-109.2 492.58,-117.57 496.39,-111.7"/>
</g>
<!-- :domain:repository&#45;&gt;:domain:model -->
<g id="edge13" class="edge">
<title>:domain:repository&#45;&gt;:domain:model</title>
<path fill="none" stroke="black" d="M566.26,-143.59C566.6,-119.61 567.21,-76.14 567.62,-47.42"/>
<polygon fill="black" stroke="black" points="571.11,-47.67 567.75,-37.62 564.11,-47.57 571.11,-47.67"/>
</g>
</g>
</svg>
