<?xml version="1.0" encoding="UTF-8" standalone="no"?>
<!DOCTYPE svg PUBLIC "-//W3C//DTD SVG 1.1//EN"
 "http://www.w3.org/Graphics/SVG/1.1/DTD/svg11.dtd">
<!-- Generated by graphviz version 11.0.0 (20240428.1522)
 -->
<!-- Title: G Pages: 1 -->
<svg width="467pt" height="188pt"
 viewBox="0.00 0.00 466.59 188.00" xmlns="http://www.w3.org/2000/svg" xmlns:xlink="http://www.w3.org/1999/xlink">
<g id="graph0" class="graph" transform="scale(1 1) rotate(0) translate(4 184)">
<title>G</title>
<polygon fill="white" stroke="none" points="-4,4 -4,-184 462.59,-184 462.59,4 -4,4"/>
<!-- :core:data -->
<g id="node1" class="node">
<title>:core:data</title>
<ellipse fill="none" stroke="black" cx="271.04" cy="-162" rx="46.57" ry="18"/>
<text text-anchor="middle" x="271.04" y="-156.57" font-family="Times New Roman,serif" font-size="14.00">:core:data</text>
</g>
<!-- :core:common -->
<g id="node2" class="node">
<title>:core:common</title>
<ellipse fill="none" stroke="black" cx="64.04" cy="-18" rx="64.04" ry="18"/>
<text text-anchor="middle" x="64.04" y="-12.57" font-family="Times New Roman,serif" font-size="14.00">:core:common</text>
</g>
<!-- :core:data&#45;&gt;:core:common -->
<g id="edge1" class="edge">
<title>:core:data&#45;&gt;:core:common</title>
<path fill="none" stroke="black" d="M229.6,-153.38C198.11,-145.97 155.07,-132.18 124.04,-108 103.08,-91.67 86.85,-65.92 76.59,-46.31"/>
<polygon fill="black" stroke="black" points="79.79,-44.88 72.19,-37.5 73.53,-48.01 79.79,-44.88"/>
</g>
<!-- :core:database -->
<g id="node3" class="node">
<title>:core:database</title>
<ellipse fill="none" stroke="black" cx="345.04" cy="-90" rx="63.54" ry="18"/>
<text text-anchor="middle" x="345.04" y="-84.58" font-family="Times New Roman,serif" font-size="14.00">:core:database</text>
</g>
<!-- :core:data&#45;&gt;:core:database -->
<g id="edge2" class="edge">
<title>:core:data&#45;&gt;:core:database</title>
<path fill="none" stroke="red" stroke-width="2" d="M287.83,-145.12C297.09,-136.36 308.79,-125.29 319.19,-115.45"/>
<polygon fill="red" stroke="red" stroke-width="2" points="320.48,-119.05 325.34,-109.63 315.67,-113.96 320.48,-119.05"/>
</g>
<!-- :core:datastore -->
<g id="node4" class="node">
<title>:core:datastore</title>
<ellipse fill="none" stroke="black" cx="198.04" cy="-90" rx="65.04" ry="18"/>
<text text-anchor="middle" x="198.04" y="-84.58" font-family="Times New Roman,serif" font-size="14.00">:core:datastore</text>
</g>
<!-- :core:data&#45;&gt;:core:datastore -->
<g id="edge3" class="edge">
<title>:core:data&#45;&gt;:core:datastore</title>
<path fill="none" stroke="black" d="M254.11,-144.76C245.02,-136.06 233.65,-125.15 223.52,-115.43"/>
<polygon fill="black" stroke="black" points="226.12,-113.08 216.48,-108.68 221.27,-118.13 226.12,-113.08"/>
</g>
<!-- :core:domain -->
<g id="node5" class="node">
<title>:core:domain</title>
<ellipse fill="none" stroke="black" cx="400.04" cy="-18" rx="58.55" ry="18"/>
<text text-anchor="middle" x="400.04" y="-12.57" font-family="Times New Roman,serif" font-size="14.00">:core:domain</text>
</g>
<!-- :core:data&#45;&gt;:core:domain -->
<g id="edge4" class="edge">
<title>:core:data&#45;&gt;:core:domain</title>
<path fill="none" stroke="black" d="M316.88,-157.95C350.96,-153 395.35,-140.3 418.04,-108 430.75,-89.91 424.13,-64.93 415.54,-46.03"/>
<polygon fill="black" stroke="black" points="418.8,-44.73 411.21,-37.34 412.54,-47.85 418.8,-44.73"/>
</g>
<!-- :core:database&#45;&gt;:core:domain -->
<g id="edge5" class="edge">
<title>:core:database&#45;&gt;:core:domain</title>
<path fill="none" stroke="red" stroke-width="2" d="M358.35,-72.05C364.77,-63.89 372.61,-53.91 379.75,-44.82"/>
<polygon fill="red" stroke="red" stroke-width="2" points="381.55,-48.19 384.98,-38.17 376.05,-43.87 381.55,-48.19"/>
</g>
<!-- :core:datastore&#45;&gt;:core:common -->
<g id="edge7" class="edge">
<title>:core:datastore&#45;&gt;:core:common</title>
<path fill="none" stroke="black" d="M168.63,-73.64C149.52,-63.65 124.37,-50.52 103.52,-39.63"/>
<polygon fill="black" stroke="black" points="105.2,-36.55 94.72,-35.03 101.96,-42.76 105.2,-36.55"/>
</g>
<!-- :core:datastore&#45;&gt;:core:domain -->
<g id="edge8" class="edge">
<title>:core:datastore&#45;&gt;:core:domain</title>
<path fill="none" stroke="black" d="M237.46,-75.34C270.14,-64.02 316.71,-47.88 351.64,-35.77"/>
<polygon fill="black" stroke="black" points="352.35,-39.23 360.65,-32.65 350.05,-32.62 352.35,-39.23"/>
</g>
<!-- :core:datastore&#45;proto -->
<g id="node6" class="node">
<title>:core:datastore&#45;proto</title>
<ellipse fill="none" stroke="black" cx="235.04" cy="-18" rx="88.49" ry="18"/>
<text text-anchor="middle" x="235.04" y="-12.57" font-family="Times New Roman,serif" font-size="14.00">:core:datastore&#45;proto</text>
</g>
<!-- :core:datastore&#45;&gt;:core:datastore&#45;proto -->
<g id="edge6" class="edge">
<title>:core:datastore&#45;&gt;:core:datastore&#45;proto</title>
<path fill="none" stroke="black" d="M207.18,-71.7C211.26,-63.98 216.16,-54.71 220.71,-46.11"/>
<polygon fill="black" stroke="black" points="223.71,-47.92 225.29,-37.44 217.52,-44.65 223.71,-47.92"/>
</g>
</g>
</svg>
