<?xml version="1.0" encoding="UTF-8" standalone="no"?>
<!DOCTYPE svg PUBLIC "-//W3C//DTD SVG 1.1//EN"
 "http://www.w3.org/Graphics/SVG/1.1/DTD/svg11.dtd">
<!-- Generated by graphviz version 11.0.0 (20240428.1522)
 -->
<!-- Title: G Pages: 1 -->
<svg width="347pt" height="116pt"
 viewBox="0.00 0.00 346.62 116.00" xmlns="http://www.w3.org/2000/svg" xmlns:xlink="http://www.w3.org/1999/xlink">
<g id="graph0" class="graph" transform="scale(1 1) rotate(0) translate(4 112)">
<title>G</title>
<polygon fill="white" stroke="none" points="-4,4 -4,-112 342.62,-112 342.62,4 -4,4"/>
<!-- :feature:app&#45;settings -->
<g id="node1" class="node">
<title>:feature:app&#45;settings</title>
<ellipse fill="none" stroke="black" cx="194.53" cy="-90" rx="84.5" ry="18"/>
<text text-anchor="middle" x="194.53" y="-84.58" font-family="Times New Roman,serif" font-size="14.00">:feature:app&#45;settings</text>
</g>
<!-- :design&#45;system -->
<g id="node2" class="node">
<title>:design&#45;system</title>
<ellipse fill="none" stroke="black" cx="65.53" cy="-18" rx="65.53" ry="18"/>
<text text-anchor="middle" x="65.53" y="-12.57" font-family="Times New Roman,serif" font-size="14.00">:design&#45;system</text>
</g>
<!-- :feature:app&#45;settings&#45;&gt;:design&#45;system -->
<g id="edge1" class="edge">
<title>:feature:app&#45;settings&#45;&gt;:design&#45;system</title>
<path fill="none" stroke="red" stroke-width="2" d="M164.62,-72.76C146.57,-62.97 123.4,-50.4 104,-39.88"/>
<polygon fill="red" stroke="red" stroke-width="2" points="107.08,-37.56 96.62,-35.87 103.74,-43.72 107.08,-37.56"/>
</g>
<!-- :common -->
<g id="node3" class="node">
<title>:common</title>
<ellipse fill="none" stroke="black" cx="194.53" cy="-18" rx="45.57" ry="18"/>
<text text-anchor="middle" x="194.53" y="-12.57" font-family="Times New Roman,serif" font-size="14.00">:common</text>
</g>
<!-- :feature:app&#45;settings&#45;&gt;:common -->
<g id="edge2" class="edge">
<title>:feature:app&#45;settings&#45;&gt;:common</title>
<path fill="none" stroke="black" d="M194.53,-71.7C194.53,-64.41 194.53,-55.73 194.53,-47.54"/>
<polygon fill="black" stroke="black" points="198.03,-47.62 194.53,-37.62 191.03,-47.62 198.03,-47.62"/>
</g>
<!-- :domain -->
<g id="node4" class="node">
<title>:domain</title>
<ellipse fill="none" stroke="black" cx="298.53" cy="-18" rx="40.09" ry="18"/>
<text text-anchor="middle" x="298.53" y="-12.57" font-family="Times New Roman,serif" font-size="14.00">:domain</text>
</g>
<!-- :feature:app&#45;settings&#45;&gt;:domain -->
<g id="edge3" class="edge">
<title>:feature:app&#45;settings&#45;&gt;:domain</title>
<path fill="none" stroke="black" d="M219.18,-72.41C233.71,-62.63 252.21,-50.18 267.7,-39.76"/>
<polygon fill="black" stroke="black" points="269.29,-42.9 275.63,-34.42 265.38,-37.1 269.29,-42.9"/>
</g>
</g>
</svg>
