<?xml version="1.0" encoding="UTF-8" standalone="no"?>
<!DOCTYPE svg PUBLIC "-//W3C//DTD SVG 1.1//EN"
 "http://www.w3.org/Graphics/SVG/1.1/DTD/svg11.dtd">
<!-- Generated by graphviz version 11.0.0 (20240428.1522)
 -->
<!-- Title: G Pages: 1 -->
<svg width="464pt" height="260pt"
 viewBox="0.00 0.00 464.20 260.00" xmlns="http://www.w3.org/2000/svg" xmlns:xlink="http://www.w3.org/1999/xlink">
<g id="graph0" class="graph" transform="scale(1 1) rotate(0) translate(4 256)">
<title>G</title>
<polygon fill="white" stroke="none" points="-4,4 -4,-256 460.2,-256 460.2,4 -4,4"/>
<!-- :domain:use&#45;case -->
<g id="node1" class="node">
<title>:domain:use&#45;case</title>
<ellipse fill="none" stroke="black" cx="198.19" cy="-234" rx="74.02" ry="18"/>
<text text-anchor="middle" x="198.19" y="-228.57" font-family="Times New Roman,serif" font-size="14.00">:domain:use&#45;case</text>
</g>
<!-- :domain:model -->
<g id="node2" class="node">
<title>:domain:model</title>
<ellipse fill="none" stroke="black" cx="267.19" cy="-18" rx="65.04" ry="18"/>
<text text-anchor="middle" x="267.19" y="-12.57" font-family="Times New Roman,serif" font-size="14.00">:domain:model</text>
</g>
<!-- :domain:use&#45;case&#45;&gt;:domain:model -->
<g id="edge1" class="edge">
<title>:domain:use&#45;case&#45;&gt;:domain:model</title>
<path fill="none" stroke="black" d="M130.15,-226.54C63.16,-217.17 -24.84,-194.94 7.19,-144 49.44,-76.8 139.03,-44.9 201.15,-30.34"/>
<polygon fill="black" stroke="black" points="201.55,-33.84 210.54,-28.24 200.02,-27.01 201.55,-33.84"/>
</g>
<!-- :domain:foreground&#45;service -->
<g id="node3" class="node">
<title>:domain:foreground&#45;service</title>
<ellipse fill="none" stroke="black" cx="128.19" cy="-162" rx="112.44" ry="18"/>
<text text-anchor="middle" x="128.19" y="-156.57" font-family="Times New Roman,serif" font-size="14.00">:domain:foreground&#45;service</text>
</g>
<!-- :domain:use&#45;case&#45;&gt;:domain:foreground&#45;service -->
<g id="edge2" class="edge">
<title>:domain:use&#45;case&#45;&gt;:domain:foreground&#45;service</title>
<path fill="none" stroke="black" d="M181.25,-216.05C172.94,-207.75 162.77,-197.58 153.57,-188.38"/>
<polygon fill="black" stroke="black" points="156.08,-185.94 146.54,-181.35 151.13,-190.89 156.08,-185.94"/>
</g>
<!-- :domain:framework -->
<g id="node4" class="node">
<title>:domain:framework</title>
<ellipse fill="none" stroke="black" cx="267.19" cy="-90" rx="82" ry="18"/>
<text text-anchor="middle" x="267.19" y="-84.58" font-family="Times New Roman,serif" font-size="14.00">:domain:framework</text>
</g>
<!-- :domain:use&#45;case&#45;&gt;:domain:framework -->
<g id="edge3" class="edge">
<title>:domain:use&#45;case&#45;&gt;:domain:framework</title>
<path fill="none" stroke="black" d="M219.02,-216.44C229.64,-206.9 241.84,-194.02 249.19,-180 258.99,-161.31 263.46,-137.82 265.5,-119.67"/>
<polygon fill="black" stroke="black" points="268.97,-120.13 266.4,-109.86 262,-119.5 268.97,-120.13"/>
</g>
<!-- :domain:repository -->
<g id="node5" class="node">
<title>:domain:repository</title>
<ellipse fill="none" stroke="black" cx="376.19" cy="-162" rx="80.01" ry="18"/>
<text text-anchor="middle" x="376.19" y="-156.57" font-family="Times New Roman,serif" font-size="14.00">:domain:repository</text>
</g>
<!-- :domain:use&#45;case&#45;&gt;:domain:repository -->
<g id="edge4" class="edge">
<title>:domain:use&#45;case&#45;&gt;:domain:repository</title>
<path fill="none" stroke="red" stroke-width="2" d="M235.94,-218.15C262.45,-207.73 298.17,-193.68 326.93,-182.37"/>
<polygon fill="red" stroke="red" stroke-width="2" points="326.73,-186.21 334.76,-179.29 324.17,-179.7 326.73,-186.21"/>
</g>
<!-- :domain:framework&#45;&gt;:domain:model -->
<g id="edge5" class="edge">
<title>:domain:framework&#45;&gt;:domain:model</title>
<path fill="none" stroke="red" stroke-width="2" d="M267.19,-71.7C267.19,-64.41 267.19,-55.73 267.19,-47.54"/>
<polygon fill="red" stroke="red" stroke-width="2" points="270.69,-49.13 267.19,-39.13 263.69,-49.13 270.69,-49.13"/>
</g>
<!-- :domain:repository&#45;&gt;:domain:model -->
<g id="edge6" class="edge">
<title>:domain:repository&#45;&gt;:domain:model</title>
<path fill="none" stroke="black" d="M376.73,-143.62C376.47,-124.38 373.43,-93.28 358.19,-72 347.71,-57.37 331.84,-46.15 316.26,-37.89"/>
<polygon fill="black" stroke="black" points="318.01,-34.85 307.49,-33.55 314.9,-41.12 318.01,-34.85"/>
</g>
<!-- :domain:repository&#45;&gt;:domain:framework -->
<g id="edge7" class="edge">
<title>:domain:repository&#45;&gt;:domain:framework</title>
<path fill="none" stroke="red" stroke-width="2" d="M350.63,-144.59C336.25,-135.35 318.08,-123.68 302.37,-113.59"/>
<polygon fill="red" stroke="red" stroke-width="2" points="305.82,-111.65 295.51,-109.19 302.03,-117.54 305.82,-111.65"/>
</g>
</g>
</svg>
