<?xml version="1.0" encoding="UTF-8" standalone="no"?>
<!DOCTYPE svg PUBLIC "-//W3C//DTD SVG 1.1//EN"
 "http://www.w3.org/Graphics/SVG/1.1/DTD/svg11.dtd">
<!-- Generated by graphviz version 11.0.0 (20240428.1522)
 -->
<!-- Title: G Pages: 1 -->
<svg width="287pt" height="188pt"
 viewBox="0.00 0.00 287.03 188.00" xmlns="http://www.w3.org/2000/svg" xmlns:xlink="http://www.w3.org/1999/xlink">
<g id="graph0" class="graph" transform="scale(1 1) rotate(0) translate(4 184)">
<title>G</title>
<polygon fill="white" stroke="none" points="-4,4 -4,-184 283.03,-184 283.03,4 -4,4"/>
<!-- :feature:app&#45;settings -->
<g id="node1" class="node">
<title>:feature:app&#45;settings</title>
<ellipse fill="none" stroke="black" cx="194.53" cy="-162" rx="84.5" ry="18"/>
<text text-anchor="middle" x="194.53" y="-156.57" font-family="Times New Roman,serif" font-size="14.00">:feature:app&#45;settings</text>
</g>
<!-- :design&#45;system -->
<g id="node2" class="node">
<title>:design&#45;system</title>
<ellipse fill="none" stroke="black" cx="65.53" cy="-90" rx="65.53" ry="18"/>
<text text-anchor="middle" x="65.53" y="-84.58" font-family="Times New Roman,serif" font-size="14.00">:design&#45;system</text>
</g>
<!-- :feature:app&#45;settings&#45;&gt;:design&#45;system -->
<g id="edge1" class="edge">
<title>:feature:app&#45;settings&#45;&gt;:design&#45;system</title>
<path fill="none" stroke="red" stroke-width="2" d="M164.62,-144.76C146.57,-134.97 123.4,-122.4 104,-111.88"/>
<polygon fill="red" stroke="red" stroke-width="2" points="107.08,-109.56 96.62,-107.87 103.74,-115.72 107.08,-109.56"/>
</g>
<!-- :common -->
<g id="node3" class="node">
<title>:common</title>
<ellipse fill="none" stroke="black" cx="194.53" cy="-90" rx="45.57" ry="18"/>
<text text-anchor="middle" x="194.53" y="-84.58" font-family="Times New Roman,serif" font-size="14.00">:common</text>
</g>
<!-- :feature:app&#45;settings&#45;&gt;:common -->
<g id="edge2" class="edge">
<title>:feature:app&#45;settings&#45;&gt;:common</title>
<path fill="none" stroke="black" d="M194.53,-143.7C194.53,-136.41 194.53,-127.73 194.53,-119.54"/>
<polygon fill="black" stroke="black" points="198.03,-119.62 194.53,-109.62 191.03,-119.62 198.03,-119.62"/>
</g>
<!-- :domain -->
<g id="node4" class="node">
<title>:domain</title>
<ellipse fill="none" stroke="black" cx="166.53" cy="-18" rx="40.09" ry="18"/>
<text text-anchor="middle" x="166.53" y="-12.57" font-family="Times New Roman,serif" font-size="14.00">:domain</text>
</g>
<!-- :feature:app&#45;settings&#45;&gt;:domain -->
<g id="edge3" class="edge">
<title>:feature:app&#45;settings&#45;&gt;:domain</title>
<path fill="none" stroke="black" d="M219.34,-144.42C230.84,-135.21 243.31,-122.64 249.53,-108 255.79,-93.28 257.22,-86.03 249.53,-72 240.35,-55.24 223.36,-43.01 207.13,-34.55"/>
<polygon fill="black" stroke="black" points="209.09,-31.61 198.56,-30.42 206.05,-37.91 209.09,-31.61"/>
</g>
<!-- :design&#45;system&#45;&gt;:domain -->
<g id="edge4" class="edge">
<title>:design&#45;system&#45;&gt;:domain</title>
<path fill="none" stroke="red" stroke-width="2" d="M88.96,-72.76C102.92,-63.09 120.8,-50.7 135.87,-40.25"/>
<polygon fill="red" stroke="red" stroke-width="2" points="136.59,-44.01 142.81,-35.44 132.6,-38.26 136.59,-44.01"/>
</g>
</g>
</svg>
