<?xml version="1.0" encoding="UTF-8" standalone="no"?>
<!DOCTYPE svg PUBLIC "-//W3C//DTD SVG 1.1//EN"
 "http://www.w3.org/Graphics/SVG/1.1/DTD/svg11.dtd">
<!-- Generated by graphviz version 11.0.0 (20240428.1522)
 -->
<!-- Title: G Pages: 1 -->
<svg width="378pt" height="188pt"
 viewBox="0.00 0.00 377.98 188.00" xmlns="http://www.w3.org/2000/svg" xmlns:xlink="http://www.w3.org/1999/xlink">
<g id="graph0" class="graph" transform="scale(1 1) rotate(0) translate(4 184)">
<title>G</title>
<polygon fill="white" stroke="none" points="-4,4 -4,-184 373.98,-184 373.98,4 -4,4"/>
<!-- :domain:repository -->
<g id="node1" class="node">
<title>:domain:repository</title>
<ellipse fill="none" stroke="black" cx="120.04" cy="-162" rx="80.01" ry="18"/>
<text text-anchor="middle" x="120.04" y="-156.57" font-family="Times New Roman,serif" font-size="14.00">:domain:repository</text>
</g>
<!-- :domain:model -->
<g id="node2" class="node">
<title>:domain:model</title>
<ellipse fill="none" stroke="black" cx="65.04" cy="-18" rx="65.04" ry="18"/>
<text text-anchor="middle" x="65.04" y="-12.57" font-family="Times New Roman,serif" font-size="14.00">:domain:model</text>
</g>
<!-- :domain:repository&#45;&gt;:domain:model -->
<g id="edge1" class="edge">
<title>:domain:repository&#45;&gt;:domain:model</title>
<path fill="none" stroke="black" d="M105.87,-143.85C98.35,-133.93 89.54,-120.89 84.04,-108 75.78,-88.66 70.97,-65.38 68.26,-47.48"/>
<polygon fill="black" stroke="black" points="71.76,-47.26 66.94,-37.83 64.83,-48.21 71.76,-47.26"/>
</g>
<!-- :domain:framework -->
<g id="node3" class="node">
<title>:domain:framework</title>
<ellipse fill="none" stroke="black" cx="175.04" cy="-90" rx="82" ry="18"/>
<text text-anchor="middle" x="175.04" y="-84.58" font-family="Times New Roman,serif" font-size="14.00">:domain:framework</text>
</g>
<!-- :domain:repository&#45;&gt;:domain:framework -->
<g id="edge2" class="edge">
<title>:domain:repository&#45;&gt;:domain:framework</title>
<path fill="none" stroke="red" stroke-width="2" d="M133.35,-144.05C139.77,-135.89 147.61,-125.91 154.75,-116.82"/>
<polygon fill="red" stroke="red" stroke-width="2" points="156.55,-120.19 159.97,-110.17 151.04,-115.87 156.55,-120.19"/>
</g>
<!-- :domain:framework&#45;&gt;:domain:model -->
<g id="edge3" class="edge">
<title>:domain:framework&#45;&gt;:domain:model</title>
<path fill="none" stroke="red" stroke-width="2" d="M149.25,-72.59C134.52,-63.22 115.86,-51.34 99.85,-41.16"/>
<polygon fill="red" stroke="red" stroke-width="2" points="103.15,-39.11 92.84,-36.69 99.4,-45.01 103.15,-39.11"/>
</g>
<!-- :domain:broadcast&#45;receiver -->
<g id="node4" class="node">
<title>:domain:broadcast&#45;receiver</title>
<ellipse fill="none" stroke="black" cx="259.04" cy="-18" rx="110.94" ry="18"/>
<text text-anchor="middle" x="259.04" y="-12.57" font-family="Times New Roman,serif" font-size="14.00">:domain:broadcast&#45;receiver</text>
</g>
<!-- :domain:framework&#45;&gt;:domain:broadcast&#45;receiver -->
<g id="edge4" class="edge">
<title>:domain:framework&#45;&gt;:domain:broadcast&#45;receiver</title>
<path fill="none" stroke="black" d="M194.94,-72.41C205.46,-63.65 218.56,-52.73 230.17,-43.06"/>
<polygon fill="black" stroke="black" points="232.08,-46.02 237.53,-36.93 227.6,-40.64 232.08,-46.02"/>
</g>
</g>
</svg>
