<?xml version="1.0" encoding="UTF-8" standalone="no"?>
<!DOCTYPE svg PUBLIC "-//W3C//DTD SVG 1.1//EN"
 "http://www.w3.org/Graphics/SVG/1.1/DTD/svg11.dtd">
<!-- Generated by graphviz version 11.0.0 (20240428.1522)
 -->
<!-- Title: G Pages: 1 -->
<svg width="3295pt" height="260pt"
 viewBox="0.00 0.00 3294.93 260.00" xmlns="http://www.w3.org/2000/svg" xmlns:xlink="http://www.w3.org/1999/xlink">
<g id="graph0" class="graph" transform="scale(1 1) rotate(0) translate(4 256)">
<title>G</title>
<polygon fill="white" stroke="none" points="-4,4 -4,-256 3290.93,-256 3290.93,4 -4,4"/>
<!-- :app -->
<g id="node1" class="node">
<title>:app</title>
<ellipse fill="none" stroke="black" cx="1993.91" cy="-234" rx="27" ry="18"/>
<text text-anchor="middle" x="1993.91" y="-228.57" font-family="Times New Roman,serif" font-size="14.00">:app</text>
</g>
<!-- :core:data -->
<g id="node2" class="node">
<title>:core:data</title>
<ellipse fill="none" stroke="black" cx="1993.91" cy="-162" rx="46.57" ry="18"/>
<text text-anchor="middle" x="1993.91" y="-156.57" font-family="Times New Roman,serif" font-size="14.00">:core:data</text>
</g>
<!-- :app&#45;&gt;:core:data -->
<g id="edge1" class="edge">
<title>:app&#45;&gt;:core:data</title>
<path fill="none" stroke="red" stroke-width="2" d="M1993.91,-215.7C1993.91,-208.41 1993.91,-199.73 1993.91,-191.54"/>
<polygon fill="red" stroke="red" stroke-width="2" points="1997.41,-193.13 1993.91,-183.13 1990.41,-193.13 1997.41,-193.13"/>
</g>
<!-- :core:design&#45;system -->
<g id="node3" class="node">
<title>:core:design&#45;system</title>
<ellipse fill="none" stroke="black" cx="2903.91" cy="-18" rx="84" ry="18"/>
<text text-anchor="middle" x="2903.91" y="-12.57" font-family="Times New Roman,serif" font-size="14.00">:core:design&#45;system</text>
</g>
<!-- :app&#45;&gt;:core:design&#45;system -->
<g id="edge2" class="edge">
<title>:app&#45;&gt;:core:design&#45;system</title>
<path fill="none" stroke="black" d="M2021.22,-232.92C2202.17,-232.27 3222.26,-226.54 3266.91,-180 3355.65,-87.48 3123.94,-44.42 2990.49,-27.78"/>
<polygon fill="black" stroke="black" points="2990.94,-24.31 2980.59,-26.58 2990.09,-31.26 2990.94,-24.31"/>
</g>
<!-- :core:domain -->
<g id="node4" class="node">
<title>:core:domain</title>
<ellipse fill="none" stroke="black" cx="2222.91" cy="-18" rx="58.55" ry="18"/>
<text text-anchor="middle" x="2222.91" y="-12.57" font-family="Times New Roman,serif" font-size="14.00">:core:domain</text>
</g>
<!-- :app&#45;&gt;:core:domain -->
<g id="edge3" class="edge">
<title>:app&#45;&gt;:core:domain</title>
<path fill="none" stroke="black" d="M2009.01,-218.7C2035.58,-193.54 2087.91,-144 2087.91,-144 2168.01,-107.77 2422.63,-172.94 2481.91,-108 2492.69,-96.18 2492.02,-84.4 2481.91,-72 2480.31,-70.04 2358.04,-45.64 2282.08,-30.64"/>
<polygon fill="black" stroke="black" points="2283.21,-27.29 2272.72,-28.79 2281.85,-34.16 2283.21,-27.29"/>
</g>
<!-- :feature:apps -->
<g id="node5" class="node">
<title>:feature:apps</title>
<ellipse fill="none" stroke="black" cx="3061.91" cy="-162" rx="57.55" ry="18"/>
<text text-anchor="middle" x="3061.91" y="-156.57" font-family="Times New Roman,serif" font-size="14.00">:feature:apps</text>
</g>
<!-- :app&#45;&gt;:feature:apps -->
<g id="edge4" class="edge">
<title>:app&#45;&gt;:feature:apps</title>
<path fill="none" stroke="black" d="M2021.11,-232.29C2160.98,-228.56 2800.05,-210.1 2995.91,-180 3000.32,-179.32 3004.86,-178.47 3009.41,-177.52"/>
<polygon fill="black" stroke="black" points="3010.17,-180.94 3019.15,-175.31 3008.62,-174.11 3010.17,-180.94"/>
</g>
<!-- :feature:app&#45;settings -->
<g id="node6" class="node">
<title>:feature:app&#45;settings</title>
<ellipse fill="none" stroke="black" cx="2446.91" cy="-162" rx="84.5" ry="18"/>
<text text-anchor="middle" x="2446.91" y="-156.57" font-family="Times New Roman,serif" font-size="14.00">:feature:app&#45;settings</text>
</g>
<!-- :app&#45;&gt;:feature:app&#45;settings -->
<g id="edge5" class="edge">
<title>:app&#45;&gt;:feature:app&#45;settings</title>
<path fill="none" stroke="black" d="M2020.15,-229.45C2079.64,-221.35 2229.24,-200.56 2353.91,-180 2360.34,-178.94 2367.01,-177.8 2373.7,-176.63"/>
<polygon fill="black" stroke="black" points="2374.2,-180.09 2383.44,-174.9 2372.98,-173.2 2374.2,-180.09"/>
</g>
<!-- :feature:home -->
<g id="node7" class="node">
<title>:feature:home</title>
<ellipse fill="none" stroke="black" cx="3197.91" cy="-162" rx="60.05" ry="18"/>
<text text-anchor="middle" x="3197.91" y="-156.57" font-family="Times New Roman,serif" font-size="14.00">:feature:home</text>
</g>
<!-- :app&#45;&gt;:feature:home -->
<g id="edge6" class="edge">
<title>:app&#45;&gt;:feature:home</title>
<path fill="none" stroke="black" d="M2021.16,-232.45C2171.95,-229.29 2905.14,-212.47 3128.91,-180 3133.85,-179.28 3138.95,-178.37 3144.04,-177.34"/>
<polygon fill="black" stroke="black" points="3144.6,-180.8 3153.62,-175.24 3143.1,-173.96 3144.6,-180.8"/>
</g>
<!-- :feature:service -->
<g id="node8" class="node">
<title>:feature:service</title>
<ellipse fill="none" stroke="black" cx="2614.91" cy="-162" rx="65.53" ry="18"/>
<text text-anchor="middle" x="2614.91" y="-156.57" font-family="Times New Roman,serif" font-size="14.00">:feature:service</text>
</g>
<!-- :app&#45;&gt;:feature:service -->
<g id="edge7" class="edge">
<title>:app&#45;&gt;:feature:service</title>
<path fill="none" stroke="black" d="M2021.05,-231.58C2100.96,-227.14 2342.22,-211.87 2539.91,-180 2545.23,-179.14 2550.74,-178.13 2556.24,-177.04"/>
<polygon fill="black" stroke="black" points="2556.91,-180.47 2565.99,-175.01 2555.49,-173.62 2556.91,-180.47"/>
</g>
<!-- :feature:settings -->
<g id="node9" class="node">
<title>:feature:settings</title>
<ellipse fill="none" stroke="black" cx="2765.91" cy="-162" rx="67.53" ry="18"/>
<text text-anchor="middle" x="2765.91" y="-156.57" font-family="Times New Roman,serif" font-size="14.00">:feature:settings</text>
</g>
<!-- :app&#45;&gt;:feature:settings -->
<g id="edge8" class="edge">
<title>:app&#45;&gt;:feature:settings</title>
<path fill="none" stroke="black" d="M2021.26,-232.33C2114.98,-229.74 2431.61,-218.52 2689.91,-180 2695.23,-179.21 2700.73,-178.25 2706.23,-177.2"/>
<polygon fill="black" stroke="black" points="2706.86,-180.64 2715.96,-175.23 2705.47,-173.78 2706.86,-180.64"/>
</g>
<!-- :feature:shizuku -->
<g id="node10" class="node">
<title>:feature:shizuku</title>
<ellipse fill="none" stroke="black" cx="2918.91" cy="-162" rx="67.53" ry="18"/>
<text text-anchor="middle" x="2918.91" y="-156.57" font-family="Times New Roman,serif" font-size="14.00">:feature:shizuku</text>
</g>
<!-- :app&#45;&gt;:feature:shizuku -->
<g id="edge9" class="edge">
<title>:app&#45;&gt;:feature:shizuku</title>
<path fill="none" stroke="black" d="M2021.19,-232.86C2127.23,-231.97 2521.97,-225.62 2842.91,-180 2848.45,-179.21 2854.19,-178.23 2859.92,-177.15"/>
<polygon fill="black" stroke="black" points="2860.27,-180.65 2869.39,-175.24 2858.89,-173.78 2860.27,-180.65"/>
</g>
<!-- :broadcast&#45;receiver -->
<g id="node11" class="node">
<title>:broadcast&#45;receiver</title>
<ellipse fill="none" stroke="black" cx="1982.91" cy="-90" rx="81.5" ry="18"/>
<text text-anchor="middle" x="1982.91" y="-84.58" font-family="Times New Roman,serif" font-size="14.00">:broadcast&#45;receiver</text>
</g>
<!-- :app&#45;&gt;:broadcast&#45;receiver -->
<g id="edge10" class="edge">
<title>:app&#45;&gt;:broadcast&#45;receiver</title>
<path fill="none" stroke="black" d="M1974.67,-221.02C1961.6,-211.65 1945.37,-197.34 1937.91,-180 1931.58,-165.3 1932.39,-159.02 1937.91,-144 1941.69,-133.68 1948.48,-124 1955.66,-115.8"/>
<polygon fill="black" stroke="black" points="1958.1,-118.31 1962.43,-108.64 1953.02,-113.5 1958.1,-118.31"/>
</g>
<!-- :foreground&#45;service -->
<g id="node12" class="node">
<title>:foreground&#45;service</title>
<ellipse fill="none" stroke="black" cx="360.91" cy="-90" rx="83" ry="18"/>
<text text-anchor="middle" x="360.91" y="-84.58" font-family="Times New Roman,serif" font-size="14.00">:foreground&#45;service</text>
</g>
<!-- :app&#45;&gt;:foreground&#45;service -->
<g id="edge11" class="edge">
<title>:app&#45;&gt;:foreground&#45;service</title>
<path fill="none" stroke="black" d="M1966.58,-232.38C1848.96,-229.55 1374.12,-216.37 985.91,-180 747.91,-157.71 688.95,-145.73 452.91,-108 446.43,-106.97 439.71,-105.83 432.99,-104.66"/>
<polygon fill="black" stroke="black" points="433.65,-101.23 423.19,-102.93 432.43,-108.12 433.65,-101.23"/>
</g>
<!-- :framework:asset&#45;manager -->
<g id="node13" class="node">
<title>:framework:asset&#45;manager</title>
<ellipse fill="none" stroke="black" cx="568.91" cy="-90" rx="106.95" ry="18"/>
<text text-anchor="middle" x="568.91" y="-84.58" font-family="Times New Roman,serif" font-size="14.00">:framework:asset&#45;manager</text>
</g>
<!-- :app&#45;&gt;:framework:asset&#45;manager -->
<g id="edge12" class="edge">
<title>:app&#45;&gt;:framework:asset&#45;manager</title>
<path fill="none" stroke="black" d="M1967.05,-231.11C1877.74,-224.75 1582.51,-203.26 1338.91,-180 1047.81,-152.2 974.95,-145.21 684.91,-108 676.08,-106.87 666.88,-105.63 657.7,-104.35"/>
<polygon fill="black" stroke="black" points="658.43,-100.91 648.04,-102.98 657.45,-107.84 658.43,-100.91"/>
</g>
<!-- :framework:clipboard&#45;manager -->
<g id="node14" class="node">
<title>:framework:clipboard&#45;manager</title>
<ellipse fill="none" stroke="black" cx="2220.91" cy="-162" rx="123.92" ry="18"/>
<text text-anchor="middle" x="2220.91" y="-156.57" font-family="Times New Roman,serif" font-size="14.00">:framework:clipboard&#45;manager</text>
</g>
<!-- :app&#45;&gt;:framework:clipboard&#45;manager -->
<g id="edge13" class="edge">
<title>:app&#45;&gt;:framework:clipboard&#45;manager</title>
<path fill="none" stroke="black" d="M2018.2,-225.51C2051.45,-215.26 2112.28,-196.5 2158.67,-182.19"/>
<polygon fill="black" stroke="black" points="2159.55,-185.58 2168.07,-179.29 2157.49,-178.89 2159.55,-185.58"/>
</g>
<!-- :framework:notification&#45;manager -->
<g id="node15" class="node">
<title>:framework:notification&#45;manager</title>
<ellipse fill="none" stroke="black" cx="129.91" cy="-90" rx="129.91" ry="18"/>
<text text-anchor="middle" x="129.91" y="-84.58" font-family="Times New Roman,serif" font-size="14.00">:framework:notification&#45;manager</text>
</g>
<!-- :app&#45;&gt;:framework:notification&#45;manager -->
<g id="edge14" class="edge">
<title>:app&#45;&gt;:framework:notification&#45;manager</title>
<path fill="none" stroke="black" d="M1966.54,-233.11C1828.5,-233.43 1194.99,-231.87 679.91,-180 513.06,-163.2 319.96,-128.34 212.68,-107.58"/>
<polygon fill="black" stroke="black" points="213.58,-104.19 203.1,-105.72 212.25,-111.06 213.58,-104.19"/>
</g>
<!-- :framework:package&#45;manager -->
<g id="node16" class="node">
<title>:framework:package&#45;manager</title>
<ellipse fill="none" stroke="black" cx="812.91" cy="-90" rx="118.93" ry="18"/>
<text text-anchor="middle" x="812.91" y="-84.58" font-family="Times New Roman,serif" font-size="14.00">:framework:package&#45;manager</text>
</g>
<!-- :app&#45;&gt;:framework:package&#45;manager -->
<g id="edge15" class="edge">
<title>:app&#45;&gt;:framework:package&#45;manager</title>
<path fill="none" stroke="black" d="M1967.13,-230.06C1899.35,-222.53 1715.55,-201.64 1562.91,-180 1463.07,-165.84 1438.95,-156.55 1338.91,-144 1162.68,-121.9 1117.42,-127.7 940.91,-108 930.84,-106.88 920.35,-105.62 909.88,-104.31"/>
<polygon fill="black" stroke="black" points="910.43,-100.86 900.07,-103.07 909.55,-107.8 910.43,-100.86"/>
</g>
<!-- :framework:secure&#45;settings -->
<g id="node17" class="node">
<title>:framework:secure&#45;settings</title>
<ellipse fill="none" stroke="black" cx="1058.91" cy="-90" rx="109.45" ry="18"/>
<text text-anchor="middle" x="1058.91" y="-84.58" font-family="Times New Roman,serif" font-size="14.00">:framework:secure&#45;settings</text>
</g>
<!-- :app&#45;&gt;:framework:secure&#45;settings -->
<g id="edge16" class="edge">
<title>:app&#45;&gt;:framework:secure&#45;settings</title>
<path fill="none" stroke="black" d="M1967.66,-229.21C1915.3,-221.45 1794.26,-202.6 1693.91,-180 1635,-166.73 1622.3,-154.85 1562.91,-144 1393.41,-113.05 1348.01,-128.29 1176.91,-108 1167.75,-106.91 1158.2,-105.69 1148.68,-104.41"/>
<polygon fill="black" stroke="black" points="1149.42,-100.98 1139.04,-103.09 1148.47,-107.92 1149.42,-100.98"/>
</g>
<!-- :framework:shizuku -->
<g id="node18" class="node">
<title>:framework:shizuku</title>
<ellipse fill="none" stroke="black" cx="1800.91" cy="-90" rx="82.5" ry="18"/>
<text text-anchor="middle" x="1800.91" y="-84.58" font-family="Times New Roman,serif" font-size="14.00">:framework:shizuku</text>
</g>
<!-- :app&#45;&gt;:framework:shizuku -->
<g id="edge17" class="edge">
<title>:app&#45;&gt;:framework:shizuku</title>
<path fill="none" stroke="black" d="M1976.44,-220.15C1943.9,-196.21 1873.59,-144.47 1832.51,-114.25"/>
<polygon fill="black" stroke="black" points="1834.82,-111.61 1824.69,-108.5 1830.67,-117.25 1834.82,-111.61"/>
</g>
<!-- :framework:shortcut&#45;manager -->
<g id="node19" class="node">
<title>:framework:shortcut&#45;manager</title>
<ellipse fill="none" stroke="black" cx="1304.91" cy="-90" rx="118.93" ry="18"/>
<text text-anchor="middle" x="1304.91" y="-84.58" font-family="Times New Roman,serif" font-size="14.00">:framework:shortcut&#45;manager</text>
</g>
<!-- :app&#45;&gt;:framework:shortcut&#45;manager -->
<g id="edge18" class="edge">
<title>:app&#45;&gt;:framework:shortcut&#45;manager</title>
<path fill="none" stroke="black" d="M1967.91,-228.06C1926.95,-219.96 1845.1,-202.47 1777.91,-180 1739.39,-167.12 1733.05,-154.84 1693.91,-144 1686.89,-142.06 1516.05,-119.11 1403.13,-104.06"/>
<polygon fill="black" stroke="black" points="1403.93,-100.63 1393.55,-102.78 1403,-107.57 1403.93,-100.63"/>
</g>
<!-- :framework:usage&#45;stats&#45;manager -->
<g id="node20" class="node">
<title>:framework:usage&#45;stats&#45;manager</title>
<ellipse fill="none" stroke="black" cx="1570.91" cy="-90" rx="129.41" ry="18"/>
<text text-anchor="middle" x="1570.91" y="-84.58" font-family="Times New Roman,serif" font-size="14.00">:framework:usage&#45;stats&#45;manager</text>
</g>
<!-- :app&#45;&gt;:framework:usage&#45;stats&#45;manager -->
<g id="edge19" class="edge">
<title>:app&#45;&gt;:framework:usage&#45;stats&#45;manager</title>
<path fill="none" stroke="black" d="M1971.53,-223.31C1924.38,-202.98 1816.01,-156.66 1777.91,-144 1736,-130.08 1688.31,-117.64 1649.28,-108.33"/>
<polygon fill="black" stroke="black" points="1650.26,-104.96 1639.72,-106.07 1648.65,-111.77 1650.26,-104.96"/>
</g>
<!-- :core:data&#45;&gt;:core:domain -->
<g id="edge23" class="edge">
<title>:core:data&#45;&gt;:core:domain</title>
<path fill="none" stroke="black" d="M2029.85,-150.19C2038.04,-147.95 2046.73,-145.74 2054.91,-144 2107.86,-132.71 2260.56,-149.02 2295.91,-108 2306.35,-95.88 2303.17,-86.25 2295.91,-72 2288.99,-58.43 2276.8,-47.53 2264.34,-39.22"/>
<polygon fill="black" stroke="black" points="2266.48,-36.43 2256.13,-34.16 2262.81,-42.39 2266.48,-36.43"/>
</g>
<!-- :core:common -->
<g id="node21" class="node">
<title>:core:common</title>
<ellipse fill="none" stroke="black" cx="1437.91" cy="-18" rx="64.04" ry="18"/>
<text text-anchor="middle" x="1437.91" y="-12.57" font-family="Times New Roman,serif" font-size="14.00">:core:common</text>
</g>
<!-- :core:data&#45;&gt;:core:common -->
<g id="edge20" class="edge">
<title>:core:data&#45;&gt;:core:common</title>
<path fill="none" stroke="black" d="M2025.93,-148.79C2043.5,-140.24 2063.74,-126.93 2073.91,-108 2081.48,-93.9 2084.74,-83.77 2073.91,-72 2036.61,-31.47 1673.51,-21.92 1513.26,-19.68"/>
<polygon fill="black" stroke="black" points="1513.64,-16.19 1503.59,-19.56 1513.55,-23.19 1513.64,-16.19"/>
</g>
<!-- :core:database -->
<g id="node22" class="node">
<title>:core:database</title>
<ellipse fill="none" stroke="black" cx="2222.91" cy="-90" rx="63.54" ry="18"/>
<text text-anchor="middle" x="2222.91" y="-84.58" font-family="Times New Roman,serif" font-size="14.00">:core:database</text>
</g>
<!-- :core:data&#45;&gt;:core:database -->
<g id="edge21" class="edge">
<title>:core:data&#45;&gt;:core:database</title>
<path fill="none" stroke="red" stroke-width="2" d="M2029.69,-150.06C2067.3,-138.57 2126.87,-120.36 2169.93,-107.19"/>
<polygon fill="red" stroke="red" stroke-width="2" points="2169.33,-111.04 2177.87,-104.76 2167.29,-104.34 2169.33,-111.04"/>
</g>
<!-- :core:datastore -->
<g id="node23" class="node">
<title>:core:datastore</title>
<ellipse fill="none" stroke="black" cx="2407.91" cy="-90" rx="65.04" ry="18"/>
<text text-anchor="middle" x="2407.91" y="-84.58" font-family="Times New Roman,serif" font-size="14.00">:core:datastore</text>
</g>
<!-- :core:data&#45;&gt;:core:datastore -->
<g id="edge22" class="edge">
<title>:core:data&#45;&gt;:core:datastore</title>
<path fill="none" stroke="black" d="M2029.83,-150.08C2038.02,-147.85 2046.72,-145.67 2054.91,-144 2175.25,-119.45 2207.88,-128.94 2328.91,-108 2335.19,-106.91 2341.74,-105.67 2348.26,-104.37"/>
<polygon fill="black" stroke="black" points="2348.57,-107.88 2357.66,-102.45 2347.16,-101.03 2348.57,-107.88"/>
</g>
<!-- :feature:apps&#45;&gt;:core:design&#45;system -->
<g id="edge28" class="edge">
<title>:feature:apps&#45;&gt;:core:design&#45;system</title>
<path fill="none" stroke="black" d="M3043.78,-144.71C3016.22,-119.94 2963.57,-72.62 2931.32,-43.64"/>
<polygon fill="black" stroke="black" points="2933.7,-41.07 2923.92,-36.99 2929.02,-46.28 2933.7,-41.07"/>
</g>
<!-- :feature:apps&#45;&gt;:core:domain -->
<g id="edge30" class="edge">
<title>:feature:apps&#45;&gt;:core:domain</title>
<path fill="none" stroke="black" d="M3031.5,-146.37C3010.95,-136.2 2983.38,-122.01 2959.91,-108 2935.45,-93.41 2933.86,-81.19 2906.91,-72 2781.31,-29.19 2442.55,-52.62 2310.91,-36 2301.15,-34.77 2290.84,-33.11 2280.86,-31.31"/>
<polygon fill="black" stroke="black" points="2281.72,-27.91 2271.25,-29.51 2280.43,-34.79 2281.72,-27.91"/>
</g>
<!-- :core:ui -->
<g id="node25" class="node">
<title>:core:ui</title>
<ellipse fill="none" stroke="black" cx="2832.91" cy="-90" rx="37.59" ry="18"/>
<text text-anchor="middle" x="2832.91" y="-84.58" font-family="Times New Roman,serif" font-size="14.00">:core:ui</text>
</g>
<!-- :feature:apps&#45;&gt;:core:ui -->
<g id="edge29" class="edge">
<title>:feature:apps&#45;&gt;:core:ui</title>
<path fill="none" stroke="black" d="M3021.75,-148.73C2980.63,-136.16 2916.96,-116.69 2875.1,-103.9"/>
<polygon fill="black" stroke="black" points="2876.21,-100.58 2865.62,-101 2874.16,-107.27 2876.21,-100.58"/>
</g>
<!-- :feature:app&#45;settings&#45;&gt;:core:design&#45;system -->
<g id="edge32" class="edge">
<title>:feature:app&#45;settings&#45;&gt;:core:design&#45;system</title>
<path fill="none" stroke="black" d="M2487.72,-145.9C2538.33,-127.42 2627.41,-95.65 2704.91,-72 2749.51,-58.39 2800.32,-44.89 2839.43,-34.92"/>
<polygon fill="black" stroke="black" points="2840.1,-38.36 2848.93,-32.51 2838.38,-31.58 2840.1,-38.36"/>
</g>
<!-- :feature:app&#45;settings&#45;&gt;:core:domain -->
<g id="edge35" class="edge">
<title>:feature:app&#45;settings&#45;&gt;:core:domain</title>
<path fill="none" stroke="black" d="M2494.81,-146.77C2513.54,-138.61 2533.09,-126.24 2543.91,-108 2552.07,-94.24 2554.32,-84.15 2543.91,-72 2509.8,-32.23 2362.52,-44.97 2310.91,-36 2301.54,-34.37 2291.63,-32.55 2281.97,-30.73"/>
<polygon fill="black" stroke="black" points="2282.77,-27.32 2272.29,-28.88 2281.45,-34.19 2282.77,-27.32"/>
</g>
<!-- :feature:app&#45;settings&#45;&gt;:core:common -->
<g id="edge34" class="edge">
<title>:feature:app&#45;settings&#45;&gt;:core:common</title>
<path fill="none" stroke="black" d="M2384.38,-149.52C2374.2,-147.66 2363.76,-145.77 2353.91,-144 2263.29,-127.72 2235.91,-140.87 2149.91,-108 2121.57,-97.17 2120.72,-81.49 2091.91,-72 1986.26,-37.2 1661.22,-24.65 1512.98,-20.66"/>
<polygon fill="black" stroke="black" points="1513.37,-17.17 1503.28,-20.4 1513.18,-24.16 1513.37,-17.17"/>
</g>
<!-- :feature:app&#45;settings&#45;&gt;:core:ui -->
<g id="edge33" class="edge">
<title>:feature:app&#45;settings&#45;&gt;:core:ui</title>
<path fill="none" stroke="black" d="M2509.43,-149.55C2519.62,-147.69 2530.05,-145.79 2539.91,-144 2627.22,-128.12 2729.19,-109.71 2786.89,-99.3"/>
<polygon fill="black" stroke="black" points="2787.46,-102.75 2796.68,-97.53 2786.22,-95.86 2787.46,-102.75"/>
</g>
<!-- :feature:home&#45;&gt;:core:design&#45;system -->
<g id="edge36" class="edge">
<title>:feature:home&#45;&gt;:core:design&#45;system</title>
<path fill="none" stroke="black" d="M3167.27,-146.21C3114.69,-120.81 3007.12,-68.85 2947,-39.81"/>
<polygon fill="black" stroke="black" points="2948.59,-36.7 2938.07,-35.5 2945.55,-43 2948.59,-36.7"/>
</g>
<!-- :feature:home&#45;&gt;:core:ui -->
<g id="edge37" class="edge">
<title>:feature:home&#45;&gt;:core:ui</title>
<path fill="none" stroke="black" d="M3153.46,-149.6C3145.31,-147.64 3136.87,-145.69 3128.91,-144 3041.06,-125.33 2937.61,-107.82 2879.2,-98.34"/>
<polygon fill="black" stroke="black" points="2880.06,-94.93 2869.63,-96.8 2878.94,-101.84 2880.06,-94.93"/>
</g>
<!-- :feature:service&#45;&gt;:core:design&#45;system -->
<g id="edge38" class="edge">
<title>:feature:service&#45;&gt;:core:design&#45;system</title>
<path fill="none" stroke="black" d="M2641.72,-145.29C2659.63,-134.77 2683.71,-120.6 2704.91,-108 2731.64,-92.11 2736.93,-85.59 2764.91,-72 2791.84,-58.91 2822.88,-46.81 2848.79,-37.48"/>
<polygon fill="black" stroke="black" points="2849.88,-40.81 2858.13,-34.17 2847.54,-34.21 2849.88,-40.81"/>
</g>
<!-- :feature:service&#45;&gt;:core:domain -->
<g id="edge40" class="edge">
<title>:feature:service&#45;&gt;:core:domain</title>
<path fill="none" stroke="black" d="M2609.52,-143.72C2602.12,-123.03 2586.68,-89.05 2560.91,-72 2467.27,-10.08 2421.6,-54.65 2310.91,-36 2301.53,-34.42 2291.62,-32.63 2281.96,-30.81"/>
<polygon fill="black" stroke="black" points="2282.75,-27.4 2272.27,-28.96 2281.44,-34.27 2282.75,-27.4"/>
</g>
<!-- :feature:service&#45;&gt;:core:ui -->
<g id="edge39" class="edge">
<title>:feature:service&#45;&gt;:core:ui</title>
<path fill="none" stroke="black" d="M2656.42,-147.67C2695.21,-135.21 2752.8,-116.72 2791.54,-104.28"/>
<polygon fill="black" stroke="black" points="2792.54,-107.64 2800.99,-101.25 2790.4,-100.97 2792.54,-107.64"/>
</g>
<!-- :feature:settings&#45;&gt;:core:design&#45;system -->
<g id="edge41" class="edge">
<title>:feature:settings&#45;&gt;:core:design&#45;system</title>
<path fill="none" stroke="black" d="M2765.41,-143.64C2765.76,-124.12 2769.18,-92.48 2785.91,-72 2799.33,-55.56 2818.92,-44.04 2838.3,-36.04"/>
<polygon fill="black" stroke="black" points="2839.5,-39.33 2847.59,-32.49 2837,-32.79 2839.5,-39.33"/>
</g>
<!-- :feature:settings&#45;&gt;:core:domain -->
<g id="edge43" class="edge">
<title>:feature:settings&#45;&gt;:core:domain</title>
<path fill="none" stroke="black" d="M2740.83,-144.84C2707.69,-124.33 2646.85,-89.51 2589.91,-72 2470.4,-35.26 2434.34,-55.87 2310.91,-36 2301.52,-34.49 2291.6,-32.73 2281.94,-30.93"/>
<polygon fill="black" stroke="black" points="2282.73,-27.52 2272.25,-29.09 2281.42,-34.39 2282.73,-27.52"/>
</g>
<!-- :feature:settings&#45;&gt;:core:ui -->
<g id="edge42" class="edge">
<title>:feature:settings&#45;&gt;:core:ui</title>
<path fill="none" stroke="black" d="M2782.12,-144.05C2790.51,-135.29 2800.89,-124.45 2810.07,-114.86"/>
<polygon fill="black" stroke="black" points="2812.32,-117.57 2816.71,-107.92 2807.26,-112.73 2812.32,-117.57"/>
</g>
<!-- :feature:shizuku&#45;&gt;:core:design&#45;system -->
<g id="edge44" class="edge">
<title>:feature:shizuku&#45;&gt;:core:design&#45;system</title>
<path fill="none" stroke="black" d="M2918.25,-143.56C2917.45,-125.58 2915.83,-96.76 2912.91,-72 2911.96,-64 2910.63,-55.37 2909.28,-47.44"/>
<polygon fill="black" stroke="black" points="2912.73,-46.84 2907.53,-37.61 2905.84,-48.07 2912.73,-46.84"/>
</g>
<!-- :feature:shizuku&#45;&gt;:core:domain -->
<g id="edge46" class="edge">
<title>:feature:shizuku&#45;&gt;:core:domain</title>
<path fill="none" stroke="black" d="M2916.68,-143.55C2913,-122.69 2903.54,-88.54 2879.91,-72 2828,-35.68 2373.74,-44.02 2310.91,-36 2301.15,-34.75 2290.85,-33.09 2280.86,-31.28"/>
<polygon fill="black" stroke="black" points="2281.73,-27.88 2271.25,-29.48 2280.44,-34.76 2281.73,-27.88"/>
</g>
<!-- :feature:shizuku&#45;&gt;:core:ui -->
<g id="edge45" class="edge">
<title>:feature:shizuku&#45;&gt;:core:ui</title>
<path fill="none" stroke="black" d="M2898.52,-144.41C2887.01,-135.04 2872.48,-123.21 2860.02,-113.07"/>
<polygon fill="black" stroke="black" points="2862.52,-110.59 2852.55,-106.99 2858.1,-116.02 2862.52,-110.59"/>
</g>
<!-- :broadcast&#45;receiver&#45;&gt;:core:domain -->
<g id="edge48" class="edge">
<title>:broadcast&#45;receiver&#45;&gt;:core:domain</title>
<path fill="none" stroke="black" d="M2030.9,-75C2071.24,-63.23 2128.83,-46.44 2170.4,-34.31"/>
<polygon fill="black" stroke="black" points="2171.33,-37.69 2179.95,-31.53 2169.37,-30.97 2171.33,-37.69"/>
</g>
<!-- :broadcast&#45;receiver&#45;&gt;:core:common -->
<g id="edge47" class="edge">
<title>:broadcast&#45;receiver&#45;&gt;:core:common</title>
<path fill="none" stroke="black" d="M1923.94,-77.25C1913.62,-75.36 1902.97,-73.53 1892.91,-72 1757.9,-51.41 1599.28,-34.6 1509.48,-25.76"/>
<polygon fill="black" stroke="black" points="1509.87,-22.28 1499.58,-24.79 1509.19,-29.25 1509.87,-22.28"/>
</g>
<!-- :foreground&#45;service&#45;&gt;:core:domain -->
<g id="edge50" class="edge">
<title>:foreground&#45;service&#45;&gt;:core:domain</title>
<path fill="none" stroke="black" d="M419.11,-76.86C430.28,-74.92 441.92,-73.17 452.91,-72 538.73,-62.84 1836.38,-28.96 2153.42,-20.78"/>
<polygon fill="black" stroke="black" points="2153.3,-24.29 2163.21,-20.53 2153.12,-17.29 2153.3,-24.29"/>
</g>
<!-- :foreground&#45;service&#45;&gt;:core:common -->
<g id="edge49" class="edge">
<title>:foreground&#45;service&#45;&gt;:core:common</title>
<path fill="none" stroke="black" d="M419.63,-76.98C430.65,-75.06 442.1,-73.28 452.91,-72 790.45,-31.9 1196.7,-22.12 1362.21,-19.75"/>
<polygon fill="black" stroke="black" points="1362.24,-23.25 1372.19,-19.61 1362.14,-16.25 1362.24,-23.25"/>
</g>
<!-- :framework:asset&#45;manager&#45;&gt;:core:domain -->
<g id="edge52" class="edge">
<title>:framework:asset&#45;manager&#45;&gt;:core:domain</title>
<path fill="none" stroke="black" d="M643.64,-76.8C657.34,-74.92 671.53,-73.21 684.91,-72 832.04,-58.72 1873.04,-28.82 2153.47,-20.94"/>
<polygon fill="black" stroke="black" points="2153.27,-24.44 2163.17,-20.66 2153.08,-17.45 2153.27,-24.44"/>
</g>
<!-- :framework:asset&#45;manager&#45;&gt;:core:common -->
<g id="edge51" class="edge">
<title>:framework:asset&#45;manager&#45;&gt;:core:common</title>
<path fill="none" stroke="black" d="M645.24,-76.98C658.44,-75.14 672.06,-73.39 684.91,-72 932.73,-45.16 1227.97,-28.94 1363.37,-22.38"/>
<polygon fill="black" stroke="black" points="1363.46,-25.88 1373.28,-21.91 1363.12,-18.89 1363.46,-25.88"/>
</g>
<!-- :framework:clipboard&#45;manager&#45;&gt;:core:domain -->
<g id="edge53" class="edge">
<title>:framework:clipboard&#45;manager&#45;&gt;:core:domain</title>
<path fill="none" stroke="black" d="M2305.27,-148.49C2389.71,-135.56 2508.1,-116.15 2514.91,-108 2616.62,13.69 2608.42,-90.99 2310.91,-36 2301.67,-34.29 2291.89,-32.45 2282.35,-30.62"/>
<polygon fill="black" stroke="black" points="2283.26,-27.23 2272.78,-28.78 2281.94,-34.1 2283.26,-27.23"/>
</g>
<!-- :framework:notification&#45;manager&#45;&gt;:core:domain -->
<g id="edge55" class="edge">
<title>:framework:notification&#45;manager&#45;&gt;:core:domain</title>
<path fill="none" stroke="black" d="M220.26,-76.69C236.43,-74.85 253.15,-73.17 268.91,-72 364.59,-64.87 1816.5,-28.97 2153.44,-20.7"/>
<polygon fill="black" stroke="black" points="2153.06,-24.21 2162.97,-20.47 2152.89,-17.21 2153.06,-24.21"/>
</g>
<!-- :framework:notification&#45;manager&#45;&gt;:core:common -->
<g id="edge54" class="edge">
<title>:framework:notification&#45;manager&#45;&gt;:core:common</title>
<path fill="none" stroke="black" d="M221.02,-76.85C236.96,-75.01 253.4,-73.3 268.91,-72 681.12,-37.5 1177.12,-24.35 1362.86,-20.42"/>
<polygon fill="black" stroke="black" points="1362.68,-23.92 1372.61,-20.21 1362.54,-16.92 1362.68,-23.92"/>
</g>
<!-- :framework:package&#45;manager&#45;&gt;:core:domain -->
<g id="edge57" class="edge">
<title>:framework:package&#45;manager&#45;&gt;:core:domain</title>
<path fill="none" stroke="black" d="M896.44,-76.8C911.23,-74.95 926.5,-73.25 940.91,-72 1402.24,-31.91 1959.67,-21.98 2152.94,-19.66"/>
<polygon fill="black" stroke="black" points="2152.85,-23.17 2162.81,-19.55 2152.77,-16.17 2152.85,-23.17"/>
</g>
<!-- :framework:package&#45;manager&#45;&gt;:core:common -->
<g id="edge56" class="edge">
<title>:framework:package&#45;manager&#45;&gt;:core:common</title>
<path fill="none" stroke="black" d="M898.93,-77.26C912.95,-75.44 927.33,-73.63 940.91,-72 1092.42,-53.86 1270.29,-35.63 1366.82,-26"/>
<polygon fill="black" stroke="black" points="1367.07,-29.49 1376.67,-25.02 1366.37,-22.53 1367.07,-29.49"/>
</g>
<!-- :framework:secure&#45;settings&#45;&gt;:core:domain -->
<g id="edge59" class="edge">
<title>:framework:secure&#45;settings&#45;&gt;:core:domain</title>
<path fill="none" stroke="black" d="M1135.9,-76.86C1149.54,-75.01 1163.62,-73.29 1176.91,-72 1543.37,-36.39 1984.54,-23.96 2152.95,-20.31"/>
<polygon fill="black" stroke="black" points="2152.93,-23.81 2162.85,-20.1 2152.78,-16.81 2152.93,-23.81"/>
</g>
<!-- :framework:secure&#45;settings&#45;&gt;:core:common -->
<g id="edge58" class="edge">
<title>:framework:secure&#45;settings&#45;&gt;:core:common</title>
<path fill="none" stroke="black" d="M1129.75,-75.92C1200.07,-62.93 1306.87,-43.2 1374.48,-30.71"/>
<polygon fill="black" stroke="black" points="1374.71,-34.23 1383.91,-28.97 1373.44,-27.35 1374.71,-34.23"/>
</g>
<!-- :framework:shizuku&#45;&gt;:core:domain -->
<g id="edge61" class="edge">
<title>:framework:shizuku&#45;&gt;:core:domain</title>
<path fill="none" stroke="black" d="M1861.56,-77.44C1871.69,-75.58 1882.09,-73.7 1891.91,-72 1985.14,-55.83 2093.46,-38.82 2160.1,-28.56"/>
<polygon fill="black" stroke="black" points="2160.39,-32.06 2169.74,-27.08 2159.32,-25.14 2160.39,-32.06"/>
</g>
<!-- :framework:shizuku&#45;&gt;:core:common -->
<g id="edge60" class="edge">
<title>:framework:shizuku&#45;&gt;:core:common</title>
<path fill="none" stroke="black" d="M1740.56,-77.36C1674.23,-64.57 1568.2,-44.12 1500.86,-31.14"/>
<polygon fill="black" stroke="black" points="1501.54,-27.71 1491.06,-29.25 1500.22,-34.58 1501.54,-27.71"/>
</g>
<!-- :framework:shortcut&#45;manager&#45;&gt;:core:domain -->
<g id="edge63" class="edge">
<title>:framework:shortcut&#45;manager&#45;&gt;:core:domain</title>
<path fill="none" stroke="black" d="M1389.5,-76.97C1403.96,-75.15 1418.85,-73.4 1432.91,-72 1698.99,-45.43 2016.85,-28.64 2154.16,-22.1"/>
<polygon fill="black" stroke="black" points="2153.97,-25.62 2163.79,-21.65 2153.64,-18.63 2153.97,-25.62"/>
</g>
<!-- :framework:shortcut&#45;manager&#45;&gt;:core:common -->
<g id="edge62" class="edge">
<title>:framework:shortcut&#45;manager&#45;&gt;:core:common</title>
<path fill="none" stroke="black" d="M1336.76,-72.23C1355.26,-62.5 1378.73,-50.15 1398.39,-39.79"/>
<polygon fill="black" stroke="black" points="1400.02,-42.89 1407.24,-35.14 1396.76,-36.7 1400.02,-42.89"/>
</g>
<!-- :framework:usage&#45;stats&#45;manager&#45;&gt;:core:domain -->
<g id="edge65" class="edge">
<title>:framework:usage&#45;stats&#45;manager&#45;&gt;:core:domain</title>
<path fill="none" stroke="black" d="M1664.41,-77.23C1679.29,-75.43 1694.51,-73.63 1708.91,-72 1869.46,-53.83 2058.54,-34.99 2156.52,-25.42"/>
<polygon fill="black" stroke="black" points="2156.6,-28.93 2166.21,-24.48 2155.92,-21.96 2156.6,-28.93"/>
</g>
<!-- :framework:usage&#45;stats&#45;manager&#45;&gt;:core:common -->
<g id="edge64" class="edge">
<title>:framework:usage&#45;stats&#45;manager&#45;&gt;:core:common</title>
<path fill="none" stroke="black" d="M1539.05,-72.23C1520.55,-62.5 1497.08,-50.15 1477.42,-39.79"/>
<polygon fill="black" stroke="black" points="1479.05,-36.7 1468.57,-35.14 1475.79,-42.89 1479.05,-36.7"/>
</g>
<!-- :core:database&#45;&gt;:core:domain -->
<g id="edge24" class="edge">
<title>:core:database&#45;&gt;:core:domain</title>
<path fill="none" stroke="red" stroke-width="2" d="M2222.91,-71.7C2222.91,-64.41 2222.91,-55.73 2222.91,-47.54"/>
<polygon fill="red" stroke="red" stroke-width="2" points="2226.41,-49.13 2222.91,-39.13 2219.41,-49.13 2226.41,-49.13"/>
</g>
<!-- :core:datastore&#45;&gt;:core:domain -->
<g id="edge27" class="edge">
<title>:core:datastore&#45;&gt;:core:domain</title>
<path fill="none" stroke="black" d="M2370.47,-74.83C2341.28,-63.79 2300.6,-48.4 2269.34,-36.57"/>
<polygon fill="black" stroke="black" points="2270.72,-33.35 2260.13,-33.09 2268.25,-39.9 2270.72,-33.35"/>
</g>
<!-- :core:datastore&#45;&gt;:core:common -->
<g id="edge26" class="edge">
<title>:core:datastore&#45;&gt;:core:common</title>
<path fill="none" stroke="black" d="M2353.63,-79.77C2335.34,-76.92 2314.78,-74.01 2295.91,-72 2007.36,-41.25 1662.18,-26.64 1512.84,-21.39"/>
<polygon fill="black" stroke="black" points="1513.2,-17.9 1503.09,-21.05 1512.96,-24.89 1513.2,-17.9"/>
</g>
<!-- :core:datastore&#45;proto -->
<g id="node24" class="node">
<title>:core:datastore&#45;proto</title>
<ellipse fill="none" stroke="black" cx="2407.91" cy="-18" rx="88.49" ry="18"/>
<text text-anchor="middle" x="2407.91" y="-12.57" font-family="Times New Roman,serif" font-size="14.00">:core:datastore&#45;proto</text>
</g>
<!-- :core:datastore&#45;&gt;:core:datastore&#45;proto -->
<g id="edge25" class="edge">
<title>:core:datastore&#45;&gt;:core:datastore&#45;proto</title>
<path fill="none" stroke="black" d="M2407.91,-71.7C2407.91,-64.41 2407.91,-55.73 2407.91,-47.54"/>
<polygon fill="black" stroke="black" points="2411.41,-47.62 2407.91,-37.62 2404.41,-47.62 2411.41,-47.62"/>
</g>
<!-- :core:ui&#45;&gt;:core:design&#45;system -->
<g id="edge31" class="edge">
<title>:core:ui&#45;&gt;:core:design&#45;system</title>
<path fill="none" stroke="black" d="M2848.66,-73.46C2857.47,-64.78 2868.66,-53.75 2878.66,-43.89"/>
<polygon fill="black" stroke="black" points="2880.96,-46.54 2885.62,-37.02 2876.04,-41.55 2880.96,-46.54"/>
</g>
</g>
</svg>
