<?xml version="1.0" encoding="UTF-8" standalone="no"?>
<!DOCTYPE svg PUBLIC "-//W3C//DTD SVG 1.1//EN"
 "http://www.w3.org/Graphics/SVG/1.1/DTD/svg11.dtd">
<!-- Generated by graphviz version 11.0.0 (20240428.1522)
 -->
<!-- Title: G Pages: 1 -->
<svg width="397pt" height="188pt"
 viewBox="0.00 0.00 396.94 188.00" xmlns="http://www.w3.org/2000/svg" xmlns:xlink="http://www.w3.org/1999/xlink">
<g id="graph0" class="graph" transform="scale(1 1) rotate(0) translate(4 184)">
<title>G</title>
<polygon fill="white" stroke="none" points="-4,4 -4,-184 392.94,-184 392.94,4 -4,4"/>
<!-- :framework:notification&#45;manager -->
<g id="node1" class="node">
<title>:framework:notification&#45;manager</title>
<ellipse fill="none" stroke="black" cx="129.91" cy="-162" rx="129.91" ry="18"/>
<text text-anchor="middle" x="129.91" y="-156.57" font-family="Times New Roman,serif" font-size="14.00">:framework:notification&#45;manager</text>
</g>
<!-- :common -->
<g id="node2" class="node">
<title>:common</title>
<ellipse fill="none" stroke="black" cx="55.91" cy="-90" rx="45.57" ry="18"/>
<text text-anchor="middle" x="55.91" y="-84.58" font-family="Times New Roman,serif" font-size="14.00">:common</text>
</g>
<!-- :framework:notification&#45;manager&#45;&gt;:common -->
<g id="edge1" class="edge">
<title>:framework:notification&#45;manager&#45;&gt;:common</title>
<path fill="none" stroke="black" d="M111.61,-143.7C102.48,-135.05 91.27,-124.46 81.32,-115.04"/>
<polygon fill="black" stroke="black" points="83.74,-112.51 74.07,-108.18 78.93,-117.6 83.74,-112.51"/>
</g>
<!-- :domain:broadcast&#45;receiver -->
<g id="node3" class="node">
<title>:domain:broadcast&#45;receiver</title>
<ellipse fill="none" stroke="black" cx="129.91" cy="-18" rx="110.94" ry="18"/>
<text text-anchor="middle" x="129.91" y="-12.57" font-family="Times New Roman,serif" font-size="14.00">:domain:broadcast&#45;receiver</text>
</g>
<!-- :framework:notification&#45;manager&#45;&gt;:domain:broadcast&#45;receiver -->
<g id="edge2" class="edge">
<title>:framework:notification&#45;manager&#45;&gt;:domain:broadcast&#45;receiver</title>
<path fill="none" stroke="black" d="M129.91,-143.59C129.91,-119.61 129.91,-76.14 129.91,-47.42"/>
<polygon fill="black" stroke="black" points="133.41,-47.62 129.91,-37.62 126.41,-47.62 133.41,-47.62"/>
</g>
<!-- :domain:framework -->
<g id="node4" class="node">
<title>:domain:framework</title>
<ellipse fill="none" stroke="black" cx="239.91" cy="-90" rx="82" ry="18"/>
<text text-anchor="middle" x="239.91" y="-84.58" font-family="Times New Roman,serif" font-size="14.00">:domain:framework</text>
</g>
<!-- :framework:notification&#45;manager&#45;&gt;:domain:framework -->
<g id="edge3" class="edge">
<title>:framework:notification&#45;manager&#45;&gt;:domain:framework</title>
<path fill="none" stroke="red" stroke-width="2" d="M156.53,-144.05C170.96,-134.87 188.98,-123.41 204.56,-113.49"/>
<polygon fill="red" stroke="red" stroke-width="2" points="204.79,-117.49 211.35,-109.17 201.03,-111.59 204.79,-117.49"/>
</g>
<!-- :domain:framework&#45;&gt;:domain:broadcast&#45;receiver -->
<g id="edge5" class="edge">
<title>:domain:framework&#45;&gt;:domain:broadcast&#45;receiver</title>
<path fill="none" stroke="black" d="M214.12,-72.59C199.71,-63.42 181.53,-51.85 165.75,-41.81"/>
<polygon fill="black" stroke="black" points="167.89,-39.02 157.57,-36.61 164.13,-44.93 167.89,-39.02"/>
</g>
<!-- :domain:model -->
<g id="node5" class="node">
<title>:domain:model</title>
<ellipse fill="none" stroke="black" cx="323.91" cy="-18" rx="65.04" ry="18"/>
<text text-anchor="middle" x="323.91" y="-12.57" font-family="Times New Roman,serif" font-size="14.00">:domain:model</text>
</g>
<!-- :domain:framework&#45;&gt;:domain:model -->
<g id="edge4" class="edge">
<title>:domain:framework&#45;&gt;:domain:model</title>
<path fill="none" stroke="red" stroke-width="2" d="M259.81,-72.41C270.48,-63.52 283.81,-52.41 295.55,-42.63"/>
<polygon fill="red" stroke="red" stroke-width="2" points="296.37,-46.5 301.82,-37.41 291.89,-41.12 296.37,-46.5"/>
</g>
</g>
</svg>
