<?xml version="1.0" encoding="UTF-8" standalone="no"?>
<!DOCTYPE svg PUBLIC "-//W3C//DTD SVG 1.1//EN"
 "http://www.w3.org/Graphics/SVG/1.1/DTD/svg11.dtd">
<!-- Generated by graphviz version 11.0.0 (20240428.1522)
 -->
<!-- Title: G Pages: 1 -->
<svg width="804pt" height="332pt"
 viewBox="0.00 0.00 803.98 332.00" xmlns="http://www.w3.org/2000/svg" xmlns:xlink="http://www.w3.org/1999/xlink">
<g id="graph0" class="graph" transform="scale(1 1) rotate(0) translate(4 328)">
<title>G</title>
<polygon fill="white" stroke="none" points="-4,4 -4,-328 799.98,-328 799.98,4 -4,4"/>
<!-- :feature:service -->
<g id="node1" class="node">
<title>:feature:service</title>
<ellipse fill="none" stroke="black" cx="374.53" cy="-306" rx="65.53" ry="18"/>
<text text-anchor="middle" x="374.53" y="-300.57" font-family="Times New Roman,serif" font-size="14.00">:feature:service</text>
</g>
<!-- :design&#45;system -->
<g id="node2" class="node">
<title>:design&#45;system</title>
<ellipse fill="none" stroke="black" cx="65.53" cy="-90" rx="65.53" ry="18"/>
<text text-anchor="middle" x="65.53" y="-84.58" font-family="Times New Roman,serif" font-size="14.00">:design&#45;system</text>
</g>
<!-- :feature:service&#45;&gt;:design&#45;system -->
<g id="edge1" class="edge">
<title>:feature:service&#45;&gt;:design&#45;system</title>
<path fill="none" stroke="black" d="M330.67,-292.19C303.53,-283.19 268.62,-269.61 240.53,-252 178.57,-213.14 118.56,-150.95 87.47,-116.34"/>
<polygon fill="black" stroke="black" points="90.11,-114.05 80.85,-108.89 84.88,-118.69 90.11,-114.05"/>
</g>
<!-- :domain:common -->
<g id="node3" class="node">
<title>:domain:common</title>
<ellipse fill="none" stroke="black" cx="478.53" cy="-162" rx="75.02" ry="18"/>
<text text-anchor="middle" x="478.53" y="-156.57" font-family="Times New Roman,serif" font-size="14.00">:domain:common</text>
</g>
<!-- :feature:service&#45;&gt;:domain:common -->
<g id="edge2" class="edge">
<title>:feature:service&#45;&gt;:domain:common</title>
<path fill="none" stroke="black" d="M387.08,-287.87C405.04,-263.35 438.23,-218.03 459.3,-189.26"/>
<polygon fill="black" stroke="black" points="461.97,-191.55 465.05,-181.41 456.32,-187.41 461.97,-191.55"/>
</g>
<!-- :domain:foreground&#45;service -->
<g id="node4" class="node">
<title>:domain:foreground&#45;service</title>
<ellipse fill="none" stroke="black" cx="683.53" cy="-162" rx="112.44" ry="18"/>
<text text-anchor="middle" x="683.53" y="-156.57" font-family="Times New Roman,serif" font-size="14.00">:domain:foreground&#45;service</text>
</g>
<!-- :feature:service&#45;&gt;:domain:foreground&#45;service -->
<g id="edge3" class="edge">
<title>:feature:service&#45;&gt;:domain:foreground&#45;service</title>
<path fill="none" stroke="black" d="M407.02,-290.07C462.21,-264.71 574.43,-213.14 637.62,-184.1"/>
<polygon fill="black" stroke="black" points="638.7,-187.46 646.33,-180.1 635.78,-181.09 638.7,-187.46"/>
</g>
<!-- :domain:use&#45;case -->
<g id="node5" class="node">
<title>:domain:use&#45;case</title>
<ellipse fill="none" stroke="black" cx="323.53" cy="-234" rx="74.02" ry="18"/>
<text text-anchor="middle" x="323.53" y="-228.57" font-family="Times New Roman,serif" font-size="14.00">:domain:use&#45;case</text>
</g>
<!-- :feature:service&#45;&gt;:domain:use&#45;case -->
<g id="edge4" class="edge">
<title>:feature:service&#45;&gt;:domain:use&#45;case</title>
<path fill="none" stroke="red" stroke-width="2" d="M362.19,-288.05C356.24,-279.89 348.97,-269.91 342.35,-260.82"/>
<polygon fill="red" stroke="red" stroke-width="2" points="346.27,-260.26 337.55,-254.24 340.61,-264.38 346.27,-260.26"/>
</g>
<!-- :domain:model -->
<g id="node6" class="node">
<title>:domain:model</title>
<ellipse fill="none" stroke="black" cx="214.53" cy="-18" rx="65.04" ry="18"/>
<text text-anchor="middle" x="214.53" y="-12.57" font-family="Times New Roman,serif" font-size="14.00">:domain:model</text>
</g>
<!-- :design&#45;system&#45;&gt;:domain:model -->
<g id="edge5" class="edge">
<title>:design&#45;system&#45;&gt;:domain:model</title>
<path fill="none" stroke="black" d="M97.5,-73.98C119.32,-63.73 148.47,-50.04 172.22,-38.88"/>
<polygon fill="black" stroke="black" points="173.43,-42.18 181,-34.76 170.46,-35.84 173.43,-42.18"/>
</g>
<!-- :domain:use&#45;case&#45;&gt;:domain:common -->
<g id="edge7" class="edge">
<title>:domain:use&#45;case&#45;&gt;:domain:common</title>
<path fill="none" stroke="black" d="M357.55,-217.64C379.98,-207.51 409.61,-194.13 433.92,-183.15"/>
<polygon fill="black" stroke="black" points="435.28,-186.38 442.95,-179.07 432.4,-180 435.28,-186.38"/>
</g>
<!-- :domain:use&#45;case&#45;&gt;:domain:foreground&#45;service -->
<g id="edge8" class="edge">
<title>:domain:use&#45;case&#45;&gt;:domain:foreground&#45;service</title>
<path fill="none" stroke="black" d="M380.18,-221.99C440.11,-210.33 535.19,-191.85 602.92,-178.68"/>
<polygon fill="black" stroke="black" points="603.33,-182.16 612.48,-176.82 601.99,-175.29 603.33,-182.16"/>
</g>
<!-- :domain:use&#45;case&#45;&gt;:domain:model -->
<g id="edge6" class="edge">
<title>:domain:use&#45;case&#45;&gt;:domain:model</title>
<path fill="none" stroke="black" d="M275.07,-220.08C252.08,-211.84 225.74,-199.05 207.53,-180 173.2,-144.06 163.93,-119.51 178.53,-72 181.5,-62.37 186.87,-52.92 192.57,-44.73"/>
<polygon fill="black" stroke="black" points="195.19,-47.07 198.39,-36.97 189.59,-42.87 195.19,-47.07"/>
</g>
<!-- :domain:framework -->
<g id="node7" class="node">
<title>:domain:framework</title>
<ellipse fill="none" stroke="black" cx="269.53" cy="-90" rx="82" ry="18"/>
<text text-anchor="middle" x="269.53" y="-84.58" font-family="Times New Roman,serif" font-size="14.00">:domain:framework</text>
</g>
<!-- :domain:use&#45;case&#45;&gt;:domain:framework -->
<g id="edge9" class="edge">
<title>:domain:use&#45;case&#45;&gt;:domain:framework</title>
<path fill="none" stroke="black" d="M272.52,-220.6C251.38,-212.67 228.94,-199.99 216.53,-180 208.1,-166.41 210.41,-158.78 216.53,-144 221.05,-133.09 229.03,-123.25 237.44,-115.1"/>
<polygon fill="black" stroke="black" points="239.65,-117.82 244.76,-108.55 234.98,-112.61 239.65,-117.82"/>
</g>
<!-- :domain:repository -->
<g id="node8" class="node">
<title>:domain:repository</title>
<ellipse fill="none" stroke="black" cx="305.53" cy="-162" rx="80.01" ry="18"/>
<text text-anchor="middle" x="305.53" y="-156.57" font-family="Times New Roman,serif" font-size="14.00">:domain:repository</text>
</g>
<!-- :domain:use&#45;case&#45;&gt;:domain:repository -->
<g id="edge10" class="edge">
<title>:domain:use&#45;case&#45;&gt;:domain:repository</title>
<path fill="none" stroke="red" stroke-width="2" d="M319.09,-215.7C317.19,-208.32 314.93,-199.52 312.8,-191.25"/>
<polygon fill="red" stroke="red" stroke-width="2" points="316.57,-191.85 310.69,-183.04 309.79,-193.59 316.57,-191.85"/>
</g>
<!-- :domain:framework&#45;&gt;:domain:model -->
<g id="edge11" class="edge">
<title>:domain:framework&#45;&gt;:domain:model</title>
<path fill="none" stroke="red" stroke-width="2" d="M256.22,-72.05C249.8,-63.89 241.97,-53.91 234.83,-44.82"/>
<polygon fill="red" stroke="red" stroke-width="2" points="238.53,-43.87 229.6,-38.17 233.02,-48.19 238.53,-43.87"/>
</g>
<!-- :domain:repository&#45;&gt;:domain:model -->
<g id="edge12" class="edge">
<title>:domain:repository&#45;&gt;:domain:model</title>
<path fill="none" stroke="black" d="M330.34,-144.42C341.84,-135.21 354.31,-122.64 360.53,-108 366.79,-93.28 369.72,-85.1 360.53,-72 343.52,-47.73 314.21,-34.53 286.29,-27.37"/>
<polygon fill="black" stroke="black" points="287.28,-24.01 276.75,-25.16 285.71,-30.83 287.28,-24.01"/>
</g>
<!-- :domain:repository&#45;&gt;:domain:framework -->
<g id="edge13" class="edge">
<title>:domain:repository&#45;&gt;:domain:framework</title>
<path fill="none" stroke="red" stroke-width="2" d="M296.64,-143.7C292.67,-135.98 287.9,-126.71 283.48,-118.11"/>
<polygon fill="red" stroke="red" stroke-width="2" points="287.4,-118.09 279.72,-110.8 281.18,-121.29 287.4,-118.09"/>
</g>
</g>
</svg>
