<?xml version="1.0" encoding="UTF-8" standalone="no"?>
<!DOCTYPE svg PUBLIC "-//W3C//DTD SVG 1.1//EN"
 "http://www.w3.org/Graphics/SVG/1.1/DTD/svg11.dtd">
<!-- Generated by graphviz version 11.0.0 (20240428.1522)
 -->
<!-- Title: G Pages: 1 -->
<svg width="408pt" height="188pt"
 viewBox="0.00 0.00 407.52 188.00" xmlns="http://www.w3.org/2000/svg" xmlns:xlink="http://www.w3.org/1999/xlink">
<g id="graph0" class="graph" transform="scale(1 1) rotate(0) translate(4 184)">
<title>G</title>
<polygon fill="white" stroke="none" points="-4,4 -4,-184 403.52,-184 403.52,4 -4,4"/>
<!-- :framework:asset&#45;manager -->
<g id="node1" class="node">
<title>:framework:asset&#45;manager</title>
<ellipse fill="none" stroke="black" cx="118.57" cy="-162" rx="106.95" ry="18"/>
<text text-anchor="middle" x="118.57" y="-156.57" font-family="Times New Roman,serif" font-size="14.00">:framework:asset&#45;manager</text>
</g>
<!-- :common -->
<g id="node2" class="node">
<title>:common</title>
<ellipse fill="none" stroke="black" cx="45.57" cy="-90" rx="45.57" ry="18"/>
<text text-anchor="middle" x="45.57" y="-84.58" font-family="Times New Roman,serif" font-size="14.00">:common</text>
</g>
<!-- :framework:asset&#45;manager&#45;&gt;:common -->
<g id="edge1" class="edge">
<title>:framework:asset&#45;manager&#45;&gt;:common</title>
<path fill="none" stroke="black" d="M100.9,-144.05C91.67,-135.2 80.23,-124.23 70.15,-114.57"/>
<polygon fill="black" stroke="black" points="72.82,-112.27 63.18,-107.88 67.97,-117.32 72.82,-112.27"/>
</g>
<!-- :domain:framework -->
<g id="node3" class="node">
<title>:domain:framework</title>
<ellipse fill="none" stroke="black" cx="191.57" cy="-90" rx="82" ry="18"/>
<text text-anchor="middle" x="191.57" y="-84.58" font-family="Times New Roman,serif" font-size="14.00">:domain:framework</text>
</g>
<!-- :framework:asset&#45;manager&#45;&gt;:domain:framework -->
<g id="edge2" class="edge">
<title>:framework:asset&#45;manager&#45;&gt;:domain:framework</title>
<path fill="none" stroke="red" stroke-width="2" d="M136.25,-144.05C145.06,-135.61 155.89,-125.22 165.62,-115.89"/>
<polygon fill="red" stroke="red" stroke-width="2" points="166.83,-119.57 171.63,-110.13 161.99,-114.52 166.83,-119.57"/>
</g>
<!-- :domain:model -->
<g id="node4" class="node">
<title>:domain:model</title>
<ellipse fill="none" stroke="black" cx="94.57" cy="-18" rx="65.04" ry="18"/>
<text text-anchor="middle" x="94.57" y="-12.57" font-family="Times New Roman,serif" font-size="14.00">:domain:model</text>
</g>
<!-- :domain:framework&#45;&gt;:domain:model -->
<g id="edge3" class="edge">
<title>:domain:framework&#45;&gt;:domain:model</title>
<path fill="none" stroke="red" stroke-width="2" d="M168.59,-72.41C155.93,-63.28 140.04,-51.81 126.23,-41.84"/>
<polygon fill="red" stroke="red" stroke-width="2" points="129.67,-40.01 119.52,-37 125.58,-45.69 129.67,-40.01"/>
</g>
<!-- :domain:broadcast&#45;receiver -->
<g id="node5" class="node">
<title>:domain:broadcast&#45;receiver</title>
<ellipse fill="none" stroke="black" cx="288.57" cy="-18" rx="110.94" ry="18"/>
<text text-anchor="middle" x="288.57" y="-12.57" font-family="Times New Roman,serif" font-size="14.00">:domain:broadcast&#45;receiver</text>
</g>
<!-- :domain:framework&#45;&gt;:domain:broadcast&#45;receiver -->
<g id="edge4" class="edge">
<title>:domain:framework&#45;&gt;:domain:broadcast&#45;receiver</title>
<path fill="none" stroke="black" d="M214.56,-72.41C226.94,-63.48 242.43,-52.3 256.03,-42.49"/>
<polygon fill="black" stroke="black" points="257.79,-45.53 263.85,-36.84 253.69,-39.86 257.79,-45.53"/>
</g>
</g>
</svg>
