<?xml version="1.0" encoding="UTF-8" standalone="no"?>
<!DOCTYPE svg PUBLIC "-//W3C//DTD SVG 1.1//EN"
 "http://www.w3.org/Graphics/SVG/1.1/DTD/svg11.dtd">
<!-- Generated by graphviz version 11.0.0 (20240428.1522)
 -->
<!-- Title: G Pages: 1 -->
<svg width="632pt" height="260pt"
 viewBox="0.00 0.00 632.49 260.00" xmlns="http://www.w3.org/2000/svg" xmlns:xlink="http://www.w3.org/1999/xlink">
<g id="graph0" class="graph" transform="scale(1 1) rotate(0) translate(4 256)">
<title>G</title>
<polygon fill="white" stroke="none" points="-4,4 -4,-256 628.49,-256 628.49,4 -4,4"/>
<!-- :domain:use&#45;case -->
<g id="node1" class="node">
<title>:domain:use&#45;case</title>
<ellipse fill="none" stroke="black" cx="296.48" cy="-234" rx="74.02" ry="18"/>
<text text-anchor="middle" x="296.48" y="-228.57" font-family="Times New Roman,serif" font-size="14.00">:domain:use&#45;case</text>
</g>
<!-- :domain:model -->
<g id="node2" class="node">
<title>:domain:model</title>
<ellipse fill="none" stroke="black" cx="435.48" cy="-18" rx="65.04" ry="18"/>
<text text-anchor="middle" x="435.48" y="-12.57" font-family="Times New Roman,serif" font-size="14.00">:domain:model</text>
</g>
<!-- :domain:use&#45;case&#45;&gt;:domain:model -->
<g id="edge1" class="edge">
<title>:domain:use&#45;case&#45;&gt;:domain:model</title>
<path fill="none" stroke="black" d="M223.8,-229.97C147.37,-225.08 34.5,-212.43 7.48,-180 -2.76,-167.71 -2.12,-156.8 7.48,-144 50.76,-86.27 257.93,-46.34 367.38,-28.89"/>
<polygon fill="black" stroke="black" points="367.79,-32.37 377.12,-27.36 366.7,-25.46 367.79,-32.37"/>
</g>
<!-- :domain:common -->
<g id="node3" class="node">
<title>:domain:common</title>
<ellipse fill="none" stroke="black" cx="91.48" cy="-162" rx="75.02" ry="18"/>
<text text-anchor="middle" x="91.48" y="-156.57" font-family="Times New Roman,serif" font-size="14.00">:domain:common</text>
</g>
<!-- :domain:use&#45;case&#45;&gt;:domain:common -->
<g id="edge2" class="edge">
<title>:domain:use&#45;case&#45;&gt;:domain:common</title>
<path fill="none" stroke="black" d="M255,-218.83C223.01,-207.91 178.56,-192.73 144.07,-180.96"/>
<polygon fill="black" stroke="black" points="145.28,-177.67 134.69,-177.75 143.02,-184.3 145.28,-177.67"/>
</g>
<!-- :domain:foreground&#45;service -->
<g id="node4" class="node">
<title>:domain:foreground&#45;service</title>
<ellipse fill="none" stroke="black" cx="296.48" cy="-162" rx="112.44" ry="18"/>
<text text-anchor="middle" x="296.48" y="-156.57" font-family="Times New Roman,serif" font-size="14.00">:domain:foreground&#45;service</text>
</g>
<!-- :domain:use&#45;case&#45;&gt;:domain:foreground&#45;service -->
<g id="edge3" class="edge">
<title>:domain:use&#45;case&#45;&gt;:domain:foreground&#45;service</title>
<path fill="none" stroke="black" d="M296.48,-215.7C296.48,-208.41 296.48,-199.73 296.48,-191.54"/>
<polygon fill="black" stroke="black" points="299.98,-191.62 296.48,-181.62 292.98,-191.62 299.98,-191.62"/>
</g>
<!-- :domain:framework -->
<g id="node5" class="node">
<title>:domain:framework</title>
<ellipse fill="none" stroke="black" cx="435.48" cy="-90" rx="82" ry="18"/>
<text text-anchor="middle" x="435.48" y="-84.58" font-family="Times New Roman,serif" font-size="14.00">:domain:framework</text>
</g>
<!-- :domain:use&#45;case&#45;&gt;:domain:framework -->
<g id="edge4" class="edge">
<title>:domain:use&#45;case&#45;&gt;:domain:framework</title>
<path fill="none" stroke="black" d="M350.48,-221.36C374.37,-213.53 400.78,-200.71 417.48,-180 431.1,-163.11 435.28,-138.65 436.23,-119.65"/>
<polygon fill="black" stroke="black" points="439.73,-119.94 436.43,-109.87 432.73,-119.8 439.73,-119.94"/>
</g>
<!-- :domain:repository -->
<g id="node6" class="node">
<title>:domain:repository</title>
<ellipse fill="none" stroke="black" cx="544.48" cy="-162" rx="80.01" ry="18"/>
<text text-anchor="middle" x="544.48" y="-156.57" font-family="Times New Roman,serif" font-size="14.00">:domain:repository</text>
</g>
<!-- :domain:use&#45;case&#45;&gt;:domain:repository -->
<g id="edge5" class="edge">
<title>:domain:use&#45;case&#45;&gt;:domain:repository</title>
<path fill="none" stroke="red" stroke-width="2" d="M343.42,-219.75C383.59,-208.41 441.65,-192.02 485.06,-179.77"/>
<polygon fill="red" stroke="red" stroke-width="2" points="484.45,-183.58 493.13,-177.49 482.55,-176.84 484.45,-183.58"/>
</g>
<!-- :domain:framework&#45;&gt;:domain:model -->
<g id="edge6" class="edge">
<title>:domain:framework&#45;&gt;:domain:model</title>
<path fill="none" stroke="red" stroke-width="2" d="M435.48,-71.7C435.48,-64.41 435.48,-55.73 435.48,-47.54"/>
<polygon fill="red" stroke="red" stroke-width="2" points="438.98,-49.13 435.48,-39.13 431.98,-49.13 438.98,-49.13"/>
</g>
<!-- :domain:repository&#45;&gt;:domain:model -->
<g id="edge7" class="edge">
<title>:domain:repository&#45;&gt;:domain:model</title>
<path fill="none" stroke="black" d="M545.02,-143.62C544.76,-124.38 541.72,-93.28 526.48,-72 516,-57.37 500.13,-46.15 484.55,-37.89"/>
<polygon fill="black" stroke="black" points="486.3,-34.85 475.78,-33.55 483.19,-41.12 486.3,-34.85"/>
</g>
<!-- :domain:repository&#45;&gt;:domain:framework -->
<g id="edge8" class="edge">
<title>:domain:repository&#45;&gt;:domain:framework</title>
<path fill="none" stroke="red" stroke-width="2" d="M518.92,-144.59C504.54,-135.35 486.37,-123.68 470.66,-113.59"/>
<polygon fill="red" stroke="red" stroke-width="2" points="474.11,-111.65 463.8,-109.19 470.32,-117.54 474.11,-111.65"/>
</g>
</g>
</svg>
