<?xml version="1.0" encoding="UTF-8" standalone="no"?>
<!DOCTYPE svg PUBLIC "-//W3C//DTD SVG 1.1//EN"
 "http://www.w3.org/Graphics/SVG/1.1/DTD/svg11.dtd">
<!-- Generated by graphviz version 11.0.0 (20240428.1522)
 -->
<!-- Title: G Pages: 1 -->
<svg width="513pt" height="404pt"
 viewBox="0.00 0.00 513.10 404.00" xmlns="http://www.w3.org/2000/svg" xmlns:xlink="http://www.w3.org/1999/xlink">
<g id="graph0" class="graph" transform="scale(1 1) rotate(0) translate(4 400)">
<title>G</title>
<polygon fill="white" stroke="none" points="-4,4 -4,-400 509.1,-400 509.1,4 -4,4"/>
<!-- :framework:notification&#45;manager -->
<g id="node1" class="node">
<title>:framework:notification&#45;manager</title>
<ellipse fill="none" stroke="black" cx="297.51" cy="-378" rx="129.91" ry="18"/>
<text text-anchor="middle" x="297.51" y="-372.57" font-family="Times New Roman,serif" font-size="14.00">:framework:notification&#45;manager</text>
</g>
<!-- :broadcast&#45;receiver -->
<g id="node2" class="node">
<title>:broadcast&#45;receiver</title>
<ellipse fill="none" stroke="black" cx="297.51" cy="-306" rx="81.5" ry="18"/>
<text text-anchor="middle" x="297.51" y="-300.57" font-family="Times New Roman,serif" font-size="14.00">:broadcast&#45;receiver</text>
</g>
<!-- :framework:notification&#45;manager&#45;&gt;:broadcast&#45;receiver -->
<g id="edge1" class="edge">
<title>:framework:notification&#45;manager&#45;&gt;:broadcast&#45;receiver</title>
<path fill="none" stroke="red" stroke-width="2" d="M297.51,-359.7C297.51,-352.41 297.51,-343.73 297.51,-335.54"/>
<polygon fill="red" stroke="red" stroke-width="2" points="301.01,-337.13 297.51,-327.13 294.01,-337.13 301.01,-337.13"/>
</g>
<!-- :common -->
<g id="node3" class="node">
<title>:common</title>
<ellipse fill="none" stroke="black" cx="108.51" cy="-234" rx="45.57" ry="18"/>
<text text-anchor="middle" x="108.51" y="-228.57" font-family="Times New Roman,serif" font-size="14.00">:common</text>
</g>
<!-- :framework:notification&#45;manager&#45;&gt;:common -->
<g id="edge2" class="edge">
<title>:framework:notification&#45;manager&#45;&gt;:common</title>
<path fill="none" stroke="black" d="M264.9,-360.18C247.08,-350.46 224.95,-337.51 206.51,-324 179.5,-304.21 151.5,-278.12 132.38,-259.31"/>
<polygon fill="black" stroke="black" points="134.88,-256.87 125.33,-252.3 129.95,-261.83 134.88,-256.87"/>
</g>
<!-- :domain:framework -->
<g id="node4" class="node">
<title>:domain:framework</title>
<ellipse fill="none" stroke="black" cx="209.51" cy="-90" rx="82" ry="18"/>
<text text-anchor="middle" x="209.51" y="-84.58" font-family="Times New Roman,serif" font-size="14.00">:domain:framework</text>
</g>
<!-- :framework:notification&#45;manager&#45;&gt;:domain:framework -->
<g id="edge3" class="edge">
<title>:framework:notification&#45;manager&#45;&gt;:domain:framework</title>
<path fill="none" stroke="black" d="M330.25,-360.14C400.74,-321.71 555.31,-224.68 488.51,-144 464.79,-115.34 372.06,-102.05 299.94,-95.97"/>
<polygon fill="black" stroke="black" points="300.32,-92.49 290.07,-95.18 299.76,-99.47 300.32,-92.49"/>
</g>
<!-- :broadcast&#45;receiver&#45;&gt;:common -->
<g id="edge4" class="edge">
<title>:broadcast&#45;receiver&#45;&gt;:common</title>
<path fill="none" stroke="black" d="M256.97,-289.98C225.92,-278.48 183.19,-262.66 151.54,-250.93"/>
<polygon fill="black" stroke="black" points="152.86,-247.69 142.26,-247.5 150.42,-254.25 152.86,-247.69"/>
</g>
<!-- :broadcast&#45;receiver&#45;&gt;:domain:framework -->
<g id="edge6" class="edge">
<title>:broadcast&#45;receiver&#45;&gt;:domain:framework</title>
<path fill="none" stroke="black" d="M337,-289.89C401.67,-262.94 518.35,-203.79 469.51,-144 448.03,-117.69 365.02,-104.11 298.5,-97.32"/>
<polygon fill="black" stroke="black" points="298.93,-93.84 288.64,-96.35 298.25,-100.81 298.93,-93.84"/>
</g>
<!-- :domain:foreground&#45;service -->
<g id="node5" class="node">
<title>:domain:foreground&#45;service</title>
<ellipse fill="none" stroke="black" cx="348.51" cy="-162" rx="112.44" ry="18"/>
<text text-anchor="middle" x="348.51" y="-156.57" font-family="Times New Roman,serif" font-size="14.00">:domain:foreground&#45;service</text>
</g>
<!-- :broadcast&#45;receiver&#45;&gt;:domain:foreground&#45;service -->
<g id="edge5" class="edge">
<title>:broadcast&#45;receiver&#45;&gt;:domain:foreground&#45;service</title>
<path fill="none" stroke="black" d="M309.72,-288.09C316.45,-278.04 324.45,-264.79 329.51,-252 337.21,-232.54 342.03,-209.4 344.89,-191.59"/>
<polygon fill="black" stroke="black" points="348.35,-192.12 346.34,-181.72 341.42,-191.1 348.35,-192.12"/>
</g>
<!-- :domain:use&#45;case -->
<g id="node6" class="node">
<title>:domain:use&#45;case</title>
<ellipse fill="none" stroke="black" cx="246.51" cy="-234" rx="74.02" ry="18"/>
<text text-anchor="middle" x="246.51" y="-228.57" font-family="Times New Roman,serif" font-size="14.00">:domain:use&#45;case</text>
</g>
<!-- :broadcast&#45;receiver&#45;&gt;:domain:use&#45;case -->
<g id="edge7" class="edge">
<title>:broadcast&#45;receiver&#45;&gt;:domain:use&#45;case</title>
<path fill="none" stroke="red" stroke-width="2" d="M285.17,-288.05C279.22,-279.89 271.95,-269.91 265.33,-260.82"/>
<polygon fill="red" stroke="red" stroke-width="2" points="269.25,-260.26 260.53,-254.24 263.59,-264.38 269.25,-260.26"/>
</g>
<!-- :domain:model -->
<g id="node7" class="node">
<title>:domain:model</title>
<ellipse fill="none" stroke="black" cx="99.51" cy="-18" rx="65.04" ry="18"/>
<text text-anchor="middle" x="99.51" y="-12.57" font-family="Times New Roman,serif" font-size="14.00">:domain:model</text>
</g>
<!-- :domain:framework&#45;&gt;:domain:model -->
<g id="edge8" class="edge">
<title>:domain:framework&#45;&gt;:domain:model</title>
<path fill="none" stroke="red" stroke-width="2" d="M183.72,-72.59C169,-63.22 150.34,-51.34 134.33,-41.16"/>
<polygon fill="red" stroke="red" stroke-width="2" points="137.63,-39.11 127.32,-36.69 133.87,-45.01 137.63,-39.11"/>
</g>
<!-- :domain:use&#45;case&#45;&gt;:domain:framework -->
<g id="edge11" class="edge">
<title>:domain:use&#45;case&#45;&gt;:domain:framework</title>
<path fill="none" stroke="black" d="M239.72,-216.02C235.77,-205.72 230.93,-192.24 227.51,-180 221.94,-160.01 217.34,-137.05 214.19,-119.46"/>
<polygon fill="black" stroke="black" points="217.66,-118.98 212.5,-109.73 210.76,-120.18 217.66,-118.98"/>
</g>
<!-- :domain:use&#45;case&#45;&gt;:domain:foreground&#45;service -->
<g id="edge10" class="edge">
<title>:domain:use&#45;case&#45;&gt;:domain:foreground&#45;service</title>
<path fill="none" stroke="black" d="M270.43,-216.59C283.57,-207.57 300.08,-196.24 314.54,-186.32"/>
<polygon fill="black" stroke="black" points="316.17,-189.44 322.44,-180.9 312.21,-183.67 316.17,-189.44"/>
</g>
<!-- :domain:use&#45;case&#45;&gt;:domain:model -->
<g id="edge9" class="edge">
<title>:domain:use&#45;case&#45;&gt;:domain:model</title>
<path fill="none" stroke="black" d="M191.68,-221.51C123.14,-207.03 14.37,-183.57 11.51,-180 -23.75,-135.89 32.03,-75.66 69.67,-42.79"/>
<polygon fill="black" stroke="black" points="71.81,-45.56 77.16,-36.42 67.28,-40.23 71.81,-45.56"/>
</g>
<!-- :domain:repository -->
<g id="node8" class="node">
<title>:domain:repository</title>
<ellipse fill="none" stroke="black" cx="100.51" cy="-162" rx="80.01" ry="18"/>
<text text-anchor="middle" x="100.51" y="-156.57" font-family="Times New Roman,serif" font-size="14.00">:domain:repository</text>
</g>
<!-- :domain:use&#45;case&#45;&gt;:domain:repository -->
<g id="edge12" class="edge">
<title>:domain:use&#45;case&#45;&gt;:domain:repository</title>
<path fill="none" stroke="red" stroke-width="2" d="M214.11,-217.46C193.44,-207.55 166.41,-194.59 143.9,-183.8"/>
<polygon fill="red" stroke="red" stroke-width="2" points="146.84,-181.33 136.31,-180.16 143.82,-187.64 146.84,-181.33"/>
</g>
<!-- :domain:repository&#45;&gt;:domain:framework -->
<g id="edge14" class="edge">
<title>:domain:repository&#45;&gt;:domain:framework</title>
<path fill="none" stroke="red" stroke-width="2" d="M126.07,-144.59C140.45,-135.35 158.62,-123.68 174.33,-113.59"/>
<polygon fill="red" stroke="red" stroke-width="2" points="174.67,-117.54 181.19,-109.19 170.89,-111.65 174.67,-117.54"/>
</g>
<!-- :domain:repository&#45;&gt;:domain:model -->
<g id="edge13" class="edge">
<title>:domain:repository&#45;&gt;:domain:model</title>
<path fill="none" stroke="black" d="M100.39,-143.59C100.22,-119.61 99.92,-76.14 99.71,-47.42"/>
<polygon fill="black" stroke="black" points="103.22,-47.6 99.64,-37.62 96.22,-47.65 103.22,-47.6"/>
</g>
</g>
</svg>
