<?xml version="1.0" encoding="UTF-8" standalone="no"?>
<!DOCTYPE svg PUBLIC "-//W3C//DTD SVG 1.1//EN"
 "http://www.w3.org/Graphics/SVG/1.1/DTD/svg11.dtd">
<!-- Generated by graphviz version 11.0.0 (20240428.1522)
 -->
<!-- Title: G Pages: 1 -->
<svg width="391pt" height="116pt"
 viewBox="0.00 0.00 390.58 116.00" xmlns="http://www.w3.org/2000/svg" xmlns:xlink="http://www.w3.org/1999/xlink">
<g id="graph0" class="graph" transform="scale(1 1) rotate(0) translate(4 112)">
<title>G</title>
<polygon fill="white" stroke="none" points="-4,4 -4,-112 386.58,-112 386.58,4 -4,4"/>
<!-- :data:datastore -->
<g id="node1" class="node">
<title>:data:datastore</title>
<ellipse fill="none" stroke="black" cx="238.49" cy="-90" rx="64.04" ry="18"/>
<text text-anchor="middle" x="238.49" y="-84.58" font-family="Times New Roman,serif" font-size="14.00">:data:datastore</text>
</g>
<!-- :data:datastore&#45;proto -->
<g id="node2" class="node">
<title>:data:datastore&#45;proto</title>
<ellipse fill="none" stroke="black" cx="87.49" cy="-18" rx="87.49" ry="18"/>
<text text-anchor="middle" x="87.49" y="-12.57" font-family="Times New Roman,serif" font-size="14.00">:data:datastore&#45;proto</text>
</g>
<!-- :data:datastore&#45;&gt;:data:datastore&#45;proto -->
<g id="edge1" class="edge">
<title>:data:datastore&#45;&gt;:data:datastore&#45;proto</title>
<path fill="none" stroke="red" stroke-width="2" d="M206.47,-74.15C184.82,-64.12 155.95,-50.74 132.07,-39.66"/>
<polygon fill="red" stroke="red" stroke-width="2" points="135.12,-37.22 124.58,-36.19 132.18,-43.57 135.12,-37.22"/>
</g>
<!-- :common -->
<g id="node3" class="node">
<title>:common</title>
<ellipse fill="none" stroke="black" cx="238.49" cy="-18" rx="45.57" ry="18"/>
<text text-anchor="middle" x="238.49" y="-12.57" font-family="Times New Roman,serif" font-size="14.00">:common</text>
</g>
<!-- :data:datastore&#45;&gt;:common -->
<g id="edge2" class="edge">
<title>:data:datastore&#45;&gt;:common</title>
<path fill="none" stroke="black" d="M238.49,-71.7C238.49,-64.41 238.49,-55.73 238.49,-47.54"/>
<polygon fill="black" stroke="black" points="241.99,-47.62 238.49,-37.62 234.99,-47.62 241.99,-47.62"/>
</g>
<!-- :domain -->
<g id="node4" class="node">
<title>:domain</title>
<ellipse fill="none" stroke="black" cx="342.49" cy="-18" rx="40.09" ry="18"/>
<text text-anchor="middle" x="342.49" y="-12.57" font-family="Times New Roman,serif" font-size="14.00">:domain</text>
</g>
<!-- :data:datastore&#45;&gt;:domain -->
<g id="edge3" class="edge">
<title>:data:datastore&#45;&gt;:domain</title>
<path fill="none" stroke="black" d="M262.35,-72.94C276.95,-63.11 295.79,-50.43 311.53,-39.84"/>
<polygon fill="black" stroke="black" points="313.27,-42.89 319.61,-34.4 309.36,-37.08 313.27,-42.89"/>
</g>
</g>
</svg>
