<?xml version="1.0" encoding="UTF-8" standalone="no"?>
<!DOCTYPE svg PUBLIC "-//W3C//DTD SVG 1.1//EN"
 "http://www.w3.org/Graphics/SVG/1.1/DTD/svg11.dtd">
<!-- Generated by graphviz version 11.0.0 (20240428.1522)
 -->
<!-- Title: G Pages: 1 -->
<svg width="238pt" height="116pt"
 viewBox="0.00 0.00 237.62 116.00" xmlns="http://www.w3.org/2000/svg" xmlns:xlink="http://www.w3.org/1999/xlink">
<g id="graph0" class="graph" transform="scale(1 1) rotate(0) translate(4 112)">
<title>G</title>
<polygon fill="white" stroke="none" points="-4,4 -4,-112 233.62,-112 233.62,4 -4,4"/>
<!-- :feature:settings -->
<g id="node1" class="node">
<title>:feature:settings</title>
<ellipse fill="none" stroke="black" cx="127.53" cy="-90" rx="67.53" ry="18"/>
<text text-anchor="middle" x="127.53" y="-84.58" font-family="Times New Roman,serif" font-size="14.00">:feature:settings</text>
</g>
<!-- :design&#45;system -->
<g id="node2" class="node">
<title>:design&#45;system</title>
<ellipse fill="none" stroke="black" cx="65.53" cy="-18" rx="65.53" ry="18"/>
<text text-anchor="middle" x="65.53" y="-12.57" font-family="Times New Roman,serif" font-size="14.00">:design&#45;system</text>
</g>
<!-- :feature:settings&#45;&gt;:design&#45;system -->
<g id="edge1" class="edge">
<title>:feature:settings&#45;&gt;:design&#45;system</title>
<path fill="none" stroke="red" stroke-width="2" d="M112.53,-72.05C105.14,-63.71 96.08,-53.49 87.9,-44.25"/>
<polygon fill="red" stroke="red" stroke-width="2" points="91.66,-43.22 82.41,-38.06 86.42,-47.86 91.66,-43.22"/>
</g>
<!-- :domain -->
<g id="node3" class="node">
<title>:domain</title>
<ellipse fill="none" stroke="black" cx="189.53" cy="-18" rx="40.09" ry="18"/>
<text text-anchor="middle" x="189.53" y="-12.57" font-family="Times New Roman,serif" font-size="14.00">:domain</text>
</g>
<!-- :feature:settings&#45;&gt;:domain -->
<g id="edge2" class="edge">
<title>:feature:settings&#45;&gt;:domain</title>
<path fill="none" stroke="black" d="M142.54,-72.05C150.15,-63.47 159.52,-52.89 167.89,-43.44"/>
<polygon fill="black" stroke="black" points="170.5,-45.77 174.51,-35.96 165.26,-41.13 170.5,-45.77"/>
</g>
</g>
</svg>
