<?xml version="1.0" encoding="UTF-8" standalone="no"?>
<!DOCTYPE svg PUBLIC "-//W3C//DTD SVG 1.1//EN"
 "http://www.w3.org/Graphics/SVG/1.1/DTD/svg11.dtd">
<!-- Generated by graphviz version 11.0.0 (20240428.1522)
 -->
<!-- Title: G Pages: 1 -->
<svg width="445pt" height="188pt"
 viewBox="0.00 0.00 444.55 188.00" xmlns="http://www.w3.org/2000/svg" xmlns:xlink="http://www.w3.org/1999/xlink">
<g id="graph0" class="graph" transform="scale(1 1) rotate(0) translate(4 184)">
<title>G</title>
<polygon fill="white" stroke="none" points="-4,4 -4,-184 440.55,-184 440.55,4 -4,4"/>
<!-- :feature:app&#45;settings -->
<g id="node1" class="node">
<title>:feature:app&#45;settings</title>
<ellipse fill="none" stroke="black" cx="177" cy="-162" rx="84.5" ry="18"/>
<text text-anchor="middle" x="177" y="-156.57" font-family="Times New Roman,serif" font-size="14.00">:feature:app&#45;settings</text>
</g>
<!-- :core:design&#45;system -->
<g id="node2" class="node">
<title>:core:design&#45;system</title>
<ellipse fill="none" stroke="black" cx="84" cy="-18" rx="84" ry="18"/>
<text text-anchor="middle" x="84" y="-12.57" font-family="Times New Roman,serif" font-size="14.00">:core:design&#45;system</text>
</g>
<!-- :feature:app&#45;settings&#45;&gt;:core:design&#45;system -->
<g id="edge1" class="edge">
<title>:feature:app&#45;settings&#45;&gt;:core:design&#45;system</title>
<path fill="none" stroke="black" d="M123.46,-147.63C103.08,-139.66 81.91,-127.2 70,-108 58.61,-89.64 63.58,-65.19 70.58,-46.56"/>
<polygon fill="black" stroke="black" points="73.75,-48.06 74.36,-37.48 67.28,-45.37 73.75,-48.06"/>
</g>
<!-- :core:ui -->
<g id="node3" class="node">
<title>:core:ui</title>
<ellipse fill="none" stroke="black" cx="117" cy="-90" rx="37.59" ry="18"/>
<text text-anchor="middle" x="117" y="-84.58" font-family="Times New Roman,serif" font-size="14.00">:core:ui</text>
</g>
<!-- :feature:app&#45;settings&#45;&gt;:core:ui -->
<g id="edge2" class="edge">
<title>:feature:app&#45;settings&#45;&gt;:core:ui</title>
<path fill="none" stroke="red" stroke-width="2" d="M162.47,-144.05C155.11,-135.47 146.04,-124.89 137.95,-115.44"/>
<polygon fill="red" stroke="red" stroke-width="2" points="141.7,-114.44 132.54,-109.13 136.39,-119 141.7,-114.44"/>
</g>
<!-- :core:common -->
<g id="node4" class="node">
<title>:core:common</title>
<ellipse fill="none" stroke="black" cx="237" cy="-90" rx="64.04" ry="18"/>
<text text-anchor="middle" x="237" y="-84.58" font-family="Times New Roman,serif" font-size="14.00">:core:common</text>
</g>
<!-- :feature:app&#45;settings&#45;&gt;:core:common -->
<g id="edge3" class="edge">
<title>:feature:app&#45;settings&#45;&gt;:core:common</title>
<path fill="none" stroke="black" d="M191.52,-144.05C198.67,-135.71 207.43,-125.49 215.35,-116.25"/>
<polygon fill="black" stroke="black" points="217.77,-118.81 221.62,-108.94 212.46,-114.25 217.77,-118.81"/>
</g>
<!-- :core:domain -->
<g id="node5" class="node">
<title>:core:domain</title>
<ellipse fill="none" stroke="black" cx="378" cy="-90" rx="58.55" ry="18"/>
<text text-anchor="middle" x="378" y="-84.58" font-family="Times New Roman,serif" font-size="14.00">:core:domain</text>
</g>
<!-- :feature:app&#45;settings&#45;&gt;:core:domain -->
<g id="edge4" class="edge">
<title>:feature:app&#45;settings&#45;&gt;:core:domain</title>
<path fill="none" stroke="black" d="M219.62,-146.15C251.86,-134.93 296.14,-119.51 329.69,-107.82"/>
<polygon fill="black" stroke="black" points="330.45,-111.26 338.75,-104.67 328.15,-104.65 330.45,-111.26"/>
</g>
<!-- :core:ui&#45;&gt;:core:design&#45;system -->
<g id="edge5" class="edge">
<title>:core:ui&#45;&gt;:core:design&#45;system</title>
<path fill="none" stroke="red" stroke-width="2" d="M109.01,-72.05C105.41,-64.43 101.08,-55.23 97.03,-46.65"/>
<polygon fill="red" stroke="red" stroke-width="2" points="100.86,-46.57 93.43,-39.01 94.53,-49.55 100.86,-46.57"/>
</g>
</g>
</svg>
