<?xml version="1.0" encoding="UTF-8" standalone="no"?>
<!DOCTYPE svg PUBLIC "-//W3C//DTD SVG 1.1//EN"
 "http://www.w3.org/Graphics/SVG/1.1/DTD/svg11.dtd">
<!-- Generated by graphviz version 11.0.0 (20240428.1522)
 -->
<!-- Title: G Pages: 1 -->
<svg width="282pt" height="188pt"
 viewBox="0.00 0.00 281.58 188.00" xmlns="http://www.w3.org/2000/svg" xmlns:xlink="http://www.w3.org/1999/xlink">
<g id="graph0" class="graph" transform="scale(1 1) rotate(0) translate(4 184)">
<title>G</title>
<polygon fill="white" stroke="none" points="-4,4 -4,-184 277.58,-184 277.58,4 -4,4"/>
<!-- :framework:asset&#45;manager -->
<g id="node1" class="node">
<title>:framework:asset&#45;manager</title>
<ellipse fill="none" stroke="black" cx="118.57" cy="-162" rx="106.95" ry="18"/>
<text text-anchor="middle" x="118.57" y="-156.57" font-family="Times New Roman,serif" font-size="14.00">:framework:asset&#45;manager</text>
</g>
<!-- :common -->
<g id="node2" class="node">
<title>:common</title>
<ellipse fill="none" stroke="black" cx="45.57" cy="-90" rx="45.57" ry="18"/>
<text text-anchor="middle" x="45.57" y="-84.58" font-family="Times New Roman,serif" font-size="14.00">:common</text>
</g>
<!-- :framework:asset&#45;manager&#45;&gt;:common -->
<g id="edge1" class="edge">
<title>:framework:asset&#45;manager&#45;&gt;:common</title>
<path fill="none" stroke="black" d="M100.9,-144.05C91.67,-135.2 80.23,-124.23 70.15,-114.57"/>
<polygon fill="black" stroke="black" points="72.82,-112.27 63.18,-107.88 67.97,-117.32 72.82,-112.27"/>
</g>
<!-- :domain:framework -->
<g id="node3" class="node">
<title>:domain:framework</title>
<ellipse fill="none" stroke="black" cx="191.57" cy="-90" rx="82" ry="18"/>
<text text-anchor="middle" x="191.57" y="-84.58" font-family="Times New Roman,serif" font-size="14.00">:domain:framework</text>
</g>
<!-- :framework:asset&#45;manager&#45;&gt;:domain:framework -->
<g id="edge2" class="edge">
<title>:framework:asset&#45;manager&#45;&gt;:domain:framework</title>
<path fill="none" stroke="red" stroke-width="2" d="M136.25,-144.05C145.06,-135.61 155.89,-125.22 165.62,-115.89"/>
<polygon fill="red" stroke="red" stroke-width="2" points="166.83,-119.57 171.63,-110.13 161.99,-114.52 166.83,-119.57"/>
</g>
<!-- :domain:model -->
<g id="node4" class="node">
<title>:domain:model</title>
<ellipse fill="none" stroke="black" cx="191.57" cy="-18" rx="65.04" ry="18"/>
<text text-anchor="middle" x="191.57" y="-12.57" font-family="Times New Roman,serif" font-size="14.00">:domain:model</text>
</g>
<!-- :domain:framework&#45;&gt;:domain:model -->
<g id="edge3" class="edge">
<title>:domain:framework&#45;&gt;:domain:model</title>
<path fill="none" stroke="red" stroke-width="2" d="M191.57,-71.7C191.57,-64.41 191.57,-55.73 191.57,-47.54"/>
<polygon fill="red" stroke="red" stroke-width="2" points="195.08,-49.13 191.57,-39.13 188.08,-49.13 195.08,-49.13"/>
</g>
</g>
</svg>
