<?xml version="1.0" encoding="UTF-8" standalone="no"?>
<!DOCTYPE svg PUBLIC "-//W3C//DTD SVG 1.1//EN"
 "http://www.w3.org/Graphics/SVG/1.1/DTD/svg11.dtd">
<!-- Generated by graphviz version 11.0.0 (20240428.1522)
 -->
<!-- Title: G Pages: 1 -->
<svg width="256pt" height="188pt"
 viewBox="0.00 0.00 255.83 188.00" xmlns="http://www.w3.org/2000/svg" xmlns:xlink="http://www.w3.org/1999/xlink">
<g id="graph0" class="graph" transform="scale(1 1) rotate(0) translate(4 184)">
<title>G</title>
<polygon fill="white" stroke="none" points="-4,4 -4,-184 251.83,-184 251.83,4 -4,4"/>
<!-- :framework:clipboard&#45;manager -->
<g id="node1" class="node">
<title>:framework:clipboard&#45;manager</title>
<ellipse fill="none" stroke="black" cx="123.92" cy="-162" rx="123.92" ry="18"/>
<text text-anchor="middle" x="123.92" y="-156.57" font-family="Times New Roman,serif" font-size="14.00">:framework:clipboard&#45;manager</text>
</g>
<!-- :domain:framework -->
<g id="node2" class="node">
<title>:domain:framework</title>
<ellipse fill="none" stroke="black" cx="123.92" cy="-90" rx="82" ry="18"/>
<text text-anchor="middle" x="123.92" y="-84.58" font-family="Times New Roman,serif" font-size="14.00">:domain:framework</text>
</g>
<!-- :framework:clipboard&#45;manager&#45;&gt;:domain:framework -->
<g id="edge1" class="edge">
<title>:framework:clipboard&#45;manager&#45;&gt;:domain:framework</title>
<path fill="none" stroke="red" stroke-width="2" d="M123.92,-143.7C123.92,-136.41 123.92,-127.73 123.92,-119.54"/>
<polygon fill="red" stroke="red" stroke-width="2" points="127.42,-121.13 123.92,-111.13 120.42,-121.13 127.42,-121.13"/>
</g>
<!-- :domain:model -->
<g id="node3" class="node">
<title>:domain:model</title>
<ellipse fill="none" stroke="black" cx="123.92" cy="-18" rx="65.04" ry="18"/>
<text text-anchor="middle" x="123.92" y="-12.57" font-family="Times New Roman,serif" font-size="14.00">:domain:model</text>
</g>
<!-- :domain:framework&#45;&gt;:domain:model -->
<g id="edge2" class="edge">
<title>:domain:framework&#45;&gt;:domain:model</title>
<path fill="none" stroke="red" stroke-width="2" d="M123.92,-71.7C123.92,-64.41 123.92,-55.73 123.92,-47.54"/>
<polygon fill="red" stroke="red" stroke-width="2" points="127.42,-49.13 123.92,-39.13 120.42,-49.13 127.42,-49.13"/>
</g>
</g>
</svg>
