<?xml version="1.0" encoding="UTF-8" standalone="no"?>
<!DOCTYPE svg PUBLIC "-//W3C//DTD SVG 1.1//EN"
 "http://www.w3.org/Graphics/SVG/1.1/DTD/svg11.dtd">
<!-- Generated by graphviz version 11.0.0 (20240428.1522)
 -->
<!-- Title: G Pages: 1 -->
<svg width="248pt" height="116pt"
 viewBox="0.00 0.00 248.11 116.00" xmlns="http://www.w3.org/2000/svg" xmlns:xlink="http://www.w3.org/1999/xlink">
<g id="graph0" class="graph" transform="scale(1 1) rotate(0) translate(4 112)">
<title>G</title>
<polygon fill="white" stroke="none" points="-4,4 -4,-112 244.11,-112 244.11,4 -4,4"/>
<!-- :roborazzi -->
<g id="node1" class="node">
<title>:roborazzi</title>
<ellipse fill="none" stroke="black" cx="109.57" cy="-90" rx="47.57" ry="18"/>
<text text-anchor="middle" x="109.57" y="-84.58" font-family="Times New Roman,serif" font-size="14.00">:roborazzi</text>
</g>
<!-- :common -->
<g id="node2" class="node">
<title>:common</title>
<ellipse fill="none" stroke="black" cx="45.57" cy="-18" rx="45.57" ry="18"/>
<text text-anchor="middle" x="45.57" y="-12.57" font-family="Times New Roman,serif" font-size="14.00">:common</text>
</g>
<!-- :roborazzi&#45;&gt;:common -->
<g id="edge1" class="edge">
<title>:roborazzi&#45;&gt;:common</title>
<path fill="none" stroke="red" stroke-width="2" d="M94.73,-72.76C86.82,-64.11 76.91,-53.27 68.07,-43.6"/>
<polygon fill="red" stroke="red" stroke-width="2" points="71.71,-42.4 62.38,-37.38 66.55,-47.12 71.71,-42.4"/>
</g>
<!-- :design&#45;system -->
<g id="node3" class="node">
<title>:design&#45;system</title>
<ellipse fill="none" stroke="black" cx="174.57" cy="-18" rx="65.53" ry="18"/>
<text text-anchor="middle" x="174.57" y="-12.57" font-family="Times New Roman,serif" font-size="14.00">:design&#45;system</text>
</g>
<!-- :roborazzi&#45;&gt;:design&#45;system -->
<g id="edge2" class="edge">
<title>:roborazzi&#45;&gt;:design&#45;system</title>
<path fill="none" stroke="black" d="M124.65,-72.76C132.58,-64.23 142.46,-53.58 151.34,-44.02"/>
<polygon fill="black" stroke="black" points="153.86,-46.45 158.1,-36.74 148.73,-41.69 153.86,-46.45"/>
</g>
</g>
</svg>
