<?xml version="1.0" encoding="UTF-8" standalone="no"?>
<!DOCTYPE svg PUBLIC "-//W3C//DTD SVG 1.1//EN"
 "http://www.w3.org/Graphics/SVG/1.1/DTD/svg11.dtd">
<!-- Generated by graphviz version 11.0.0 (20240428.1522)
 -->
<!-- Title: G Pages: 1 -->
<svg width="272pt" height="116pt"
 viewBox="0.00 0.00 271.59 116.00" xmlns="http://www.w3.org/2000/svg" xmlns:xlink="http://www.w3.org/1999/xlink">
<g id="graph0" class="graph" transform="scale(1 1) rotate(0) translate(4 112)">
<title>G</title>
<polygon fill="white" stroke="none" points="-4,4 -4,-112 267.59,-112 267.59,4 -4,4"/>
<!-- :framework:shortcut&#45;manager -->
<g id="node1" class="node">
<title>:framework:shortcut&#45;manager</title>
<ellipse fill="none" stroke="black" cx="134.04" cy="-90" rx="118.93" ry="18"/>
<text text-anchor="middle" x="134.04" y="-84.58" font-family="Times New Roman,serif" font-size="14.00">:framework:shortcut&#45;manager</text>
</g>
<!-- :core:common -->
<g id="node2" class="node">
<title>:core:common</title>
<ellipse fill="none" stroke="black" cx="64.04" cy="-18" rx="64.04" ry="18"/>
<text text-anchor="middle" x="64.04" y="-12.57" font-family="Times New Roman,serif" font-size="14.00">:core:common</text>
</g>
<!-- :framework:shortcut&#45;manager&#45;&gt;:core:common -->
<g id="edge1" class="edge">
<title>:framework:shortcut&#45;manager&#45;&gt;:core:common</title>
<path fill="none" stroke="red" stroke-width="2" d="M116.73,-71.7C108.3,-63.27 98.01,-52.97 88.77,-43.73"/>
<polygon fill="red" stroke="red" stroke-width="2" points="92.35,-42.36 82.8,-37.76 87.4,-47.31 92.35,-42.36"/>
</g>
<!-- :core:domain -->
<g id="node3" class="node">
<title>:core:domain</title>
<ellipse fill="none" stroke="black" cx="205.04" cy="-18" rx="58.55" ry="18"/>
<text text-anchor="middle" x="205.04" y="-12.57" font-family="Times New Roman,serif" font-size="14.00">:core:domain</text>
</g>
<!-- :framework:shortcut&#45;manager&#45;&gt;:core:domain -->
<g id="edge2" class="edge">
<title>:framework:shortcut&#45;manager&#45;&gt;:core:domain</title>
<path fill="none" stroke="black" d="M151.22,-72.05C159.99,-63.42 170.8,-52.76 180.42,-43.27"/>
<polygon fill="black" stroke="black" points="182.76,-45.88 187.42,-36.37 177.84,-40.9 182.76,-45.88"/>
</g>
</g>
</svg>
