<?xml version="1.0" encoding="UTF-8" standalone="no"?>
<!DOCTYPE svg PUBLIC "-//W3C//DTD SVG 1.1//EN"
 "http://www.w3.org/Graphics/SVG/1.1/DTD/svg11.dtd">
<!-- Generated by graphviz version 11.0.0 (20240428.1522)
 -->
<!-- Title: G Pages: 1 -->
<svg width="322pt" height="188pt"
 viewBox="0.00 0.00 321.54 188.00" xmlns="http://www.w3.org/2000/svg" xmlns:xlink="http://www.w3.org/1999/xlink">
<g id="graph0" class="graph" transform="scale(1 1) rotate(0) translate(4 184)">
<title>G</title>
<polygon fill="white" stroke="none" points="-4,4 -4,-184 317.54,-184 317.54,4 -4,4"/>
<!-- :feature:shizuku -->
<g id="node1" class="node">
<title>:feature:shizuku</title>
<ellipse fill="none" stroke="black" cx="148.53" cy="-162" rx="67.53" ry="18"/>
<text text-anchor="middle" x="148.53" y="-156.57" font-family="Times New Roman,serif" font-size="14.00">:feature:shizuku</text>
</g>
<!-- :design&#45;system -->
<g id="node2" class="node">
<title>:design&#45;system</title>
<ellipse fill="none" stroke="black" cx="65.53" cy="-90" rx="65.53" ry="18"/>
<text text-anchor="middle" x="65.53" y="-84.58" font-family="Times New Roman,serif" font-size="14.00">:design&#45;system</text>
</g>
<!-- :feature:shizuku&#45;&gt;:design&#45;system -->
<g id="edge1" class="edge">
<title>:feature:shizuku&#45;&gt;:design&#45;system</title>
<path fill="none" stroke="red" stroke-width="2" d="M128.86,-144.41C118.32,-135.52 105.15,-124.41 93.55,-114.63"/>
<polygon fill="red" stroke="red" stroke-width="2" points="97.28,-113.19 87.38,-109.42 92.77,-118.54 97.28,-113.19"/>
</g>
<!-- :domain:framework -->
<g id="node3" class="node">
<title>:domain:framework</title>
<ellipse fill="none" stroke="black" cx="231.53" cy="-90" rx="82" ry="18"/>
<text text-anchor="middle" x="231.53" y="-84.58" font-family="Times New Roman,serif" font-size="14.00">:domain:framework</text>
</g>
<!-- :feature:shizuku&#45;&gt;:domain:framework -->
<g id="edge2" class="edge">
<title>:feature:shizuku&#45;&gt;:domain:framework</title>
<path fill="none" stroke="black" d="M168.2,-144.41C178.57,-135.67 191.47,-124.79 202.92,-115.13"/>
<polygon fill="black" stroke="black" points="205.17,-117.81 210.56,-108.69 200.66,-112.46 205.17,-117.81"/>
</g>
<!-- :domain:model -->
<g id="node4" class="node">
<title>:domain:model</title>
<ellipse fill="none" stroke="black" cx="148.53" cy="-18" rx="65.04" ry="18"/>
<text text-anchor="middle" x="148.53" y="-12.57" font-family="Times New Roman,serif" font-size="14.00">:domain:model</text>
</g>
<!-- :design&#45;system&#45;&gt;:domain:model -->
<g id="edge3" class="edge">
<title>:design&#45;system&#45;&gt;:domain:model</title>
<path fill="none" stroke="red" stroke-width="2" d="M85.2,-72.41C95.75,-63.52 108.92,-52.41 120.52,-42.63"/>
<polygon fill="red" stroke="red" stroke-width="2" points="121.3,-46.54 126.69,-37.42 116.79,-41.19 121.3,-46.54"/>
</g>
<!-- :domain:framework&#45;&gt;:domain:model -->
<g id="edge4" class="edge">
<title>:domain:framework&#45;&gt;:domain:model</title>
<path fill="none" stroke="black" d="M211.86,-72.41C201.32,-63.52 188.15,-52.41 176.55,-42.63"/>
<polygon fill="black" stroke="black" points="179.12,-40.22 169.22,-36.45 174.61,-45.57 179.12,-40.22"/>
</g>
</g>
</svg>
