<?xml version="1.0" encoding="UTF-8" standalone="no"?>
<!DOCTYPE svg PUBLIC "-//W3C//DTD SVG 1.1//EN"
 "http://www.w3.org/Graphics/SVG/1.1/DTD/svg11.dtd">
<!-- Generated by graphviz version 11.0.0 (20240428.1522)
 -->
<!-- Title: G Pages: 1 -->
<svg width="176pt" height="188pt"
 viewBox="0.00 0.00 176.00 188.00" xmlns="http://www.w3.org/2000/svg" xmlns:xlink="http://www.w3.org/1999/xlink">
<g id="graph0" class="graph" transform="scale(1 1) rotate(0) translate(4 184)">
<title>G</title>
<polygon fill="white" stroke="none" points="-4,4 -4,-184 172,-184 172,4 -4,4"/>
<!-- :feature:home -->
<g id="node1" class="node">
<title>:feature:home</title>
<ellipse fill="none" stroke="black" cx="84" cy="-162" rx="60.05" ry="18"/>
<text text-anchor="middle" x="84" y="-156.57" font-family="Times New Roman,serif" font-size="14.00">:feature:home</text>
</g>
<!-- :core:design&#45;system -->
<g id="node2" class="node">
<title>:core:design&#45;system</title>
<ellipse fill="none" stroke="black" cx="84" cy="-18" rx="84" ry="18"/>
<text text-anchor="middle" x="84" y="-12.57" font-family="Times New Roman,serif" font-size="14.00">:core:design&#45;system</text>
</g>
<!-- :feature:home&#45;&gt;:core:design&#45;system -->
<g id="edge1" class="edge">
<title>:feature:home&#45;&gt;:core:design&#45;system</title>
<path fill="none" stroke="black" d="M78.32,-144.04C75.18,-133.74 71.59,-120.27 70,-108 67.94,-92.13 67.94,-87.87 70,-72 71.05,-63.88 72.98,-55.24 75.07,-47.34"/>
<polygon fill="black" stroke="black" points="78.39,-48.47 77.76,-37.9 71.65,-46.55 78.39,-48.47"/>
</g>
<!-- :core:ui -->
<g id="node3" class="node">
<title>:core:ui</title>
<ellipse fill="none" stroke="black" cx="117" cy="-90" rx="37.59" ry="18"/>
<text text-anchor="middle" x="117" y="-84.58" font-family="Times New Roman,serif" font-size="14.00">:core:ui</text>
</g>
<!-- :feature:home&#45;&gt;:core:ui -->
<g id="edge2" class="edge">
<title>:feature:home&#45;&gt;:core:ui</title>
<path fill="none" stroke="red" stroke-width="2" d="M92.15,-143.7C95.81,-135.95 100.19,-126.64 104.26,-118.02"/>
<polygon fill="red" stroke="red" stroke-width="2" points="106.77,-120.9 107.87,-110.36 100.44,-117.91 106.77,-120.9"/>
</g>
<!-- :core:ui&#45;&gt;:core:design&#45;system -->
<g id="edge3" class="edge">
<title>:core:ui&#45;&gt;:core:design&#45;system</title>
<path fill="none" stroke="red" stroke-width="2" d="M109.01,-72.05C105.41,-64.43 101.08,-55.23 97.03,-46.65"/>
<polygon fill="red" stroke="red" stroke-width="2" points="100.86,-46.57 93.43,-39.01 94.53,-49.55 100.86,-46.57"/>
</g>
</g>
</svg>
