<?xml version="1.0" encoding="UTF-8" standalone="no"?>
<!DOCTYPE svg PUBLIC "-//W3C//DTD SVG 1.1//EN"
 "http://www.w3.org/Graphics/SVG/1.1/DTD/svg11.dtd">
<!-- Generated by graphviz version 11.0.0 (20240428.1522)
 -->
<!-- Title: G Pages: 1 -->
<svg width="296pt" height="188pt"
 viewBox="0.00 0.00 296.48 188.00" xmlns="http://www.w3.org/2000/svg" xmlns:xlink="http://www.w3.org/1999/xlink">
<g id="graph0" class="graph" transform="scale(1 1) rotate(0) translate(4 184)">
<title>G</title>
<polygon fill="white" stroke="none" points="-4,4 -4,-184 292.48,-184 292.48,4 -4,4"/>
<!-- :data:repository -->
<g id="node1" class="node">
<title>:data:repository</title>
<ellipse fill="none" stroke="black" cx="157.57" cy="-162" rx="68.03" ry="18"/>
<text text-anchor="middle" x="157.57" y="-156.57" font-family="Times New Roman,serif" font-size="14.00">:data:repository</text>
</g>
<!-- :common -->
<g id="node2" class="node">
<title>:common</title>
<ellipse fill="none" stroke="black" cx="45.57" cy="-18" rx="45.57" ry="18"/>
<text text-anchor="middle" x="45.57" y="-12.57" font-family="Times New Roman,serif" font-size="14.00">:common</text>
</g>
<!-- :data:repository&#45;&gt;:common -->
<g id="edge1" class="edge">
<title>:data:repository&#45;&gt;:common</title>
<path fill="none" stroke="black" d="M96.81,-153.71C68.06,-146.87 36.23,-133.63 18.57,-108 5.61,-89.18 15.24,-63.96 26.44,-45.17"/>
<polygon fill="black" stroke="black" points="29.22,-47.32 31.69,-37.01 23.33,-43.53 29.22,-47.32"/>
</g>
<!-- :data:datastore -->
<g id="node3" class="node">
<title>:data:datastore</title>
<ellipse fill="none" stroke="black" cx="91.57" cy="-90" rx="64.04" ry="18"/>
<text text-anchor="middle" x="91.57" y="-84.58" font-family="Times New Roman,serif" font-size="14.00">:data:datastore</text>
</g>
<!-- :data:repository&#45;&gt;:data:datastore -->
<g id="edge2" class="edge">
<title>:data:repository&#45;&gt;:data:datastore</title>
<path fill="none" stroke="red" stroke-width="2" d="M141.6,-144.05C133.65,-135.63 123.9,-125.28 115.11,-115.97"/>
<polygon fill="red" stroke="red" stroke-width="2" points="118.89,-114.87 109.48,-109.99 113.79,-119.67 118.89,-114.87"/>
</g>
<!-- :data:room -->
<g id="node4" class="node">
<title>:data:room</title>
<ellipse fill="none" stroke="black" cx="223.57" cy="-90" rx="50.07" ry="18"/>
<text text-anchor="middle" x="223.57" y="-84.58" font-family="Times New Roman,serif" font-size="14.00">:data:room</text>
</g>
<!-- :data:repository&#45;&gt;:data:room -->
<g id="edge3" class="edge">
<title>:data:repository&#45;&gt;:data:room</title>
<path fill="none" stroke="black" d="M173.55,-144.05C181.61,-135.5 191.54,-124.97 200.42,-115.56"/>
<polygon fill="black" stroke="black" points="202.85,-118.09 207.16,-108.41 197.75,-113.28 202.85,-118.09"/>
</g>
<!-- :domain -->
<g id="node5" class="node">
<title>:domain</title>
<ellipse fill="none" stroke="black" cx="223.57" cy="-18" rx="40.09" ry="18"/>
<text text-anchor="middle" x="223.57" y="-12.57" font-family="Times New Roman,serif" font-size="14.00">:domain</text>
</g>
<!-- :data:repository&#45;&gt;:domain -->
<g id="edge4" class="edge">
<title>:data:repository&#45;&gt;:domain</title>
<path fill="none" stroke="black" d="M214,-151.62C239.46,-144.26 267.22,-131.19 282.57,-108 291.41,-94.66 289.09,-86.61 282.57,-72 276.94,-59.36 266.63,-48.47 256.18,-39.91"/>
<polygon fill="black" stroke="black" points="258.37,-37.17 248.29,-33.91 254.14,-42.75 258.37,-37.17"/>
</g>
<!-- :data:datastore&#45;&gt;:common -->
<g id="edge5" class="edge">
<title>:data:datastore&#45;&gt;:common</title>
<path fill="none" stroke="red" stroke-width="2" d="M80.44,-72.05C75.18,-64.06 68.79,-54.33 62.92,-45.4"/>
<polygon fill="red" stroke="red" stroke-width="2" points="66.69,-44.75 58.27,-38.32 60.84,-48.6 66.69,-44.75"/>
</g>
<!-- :data:datastore&#45;&gt;:domain -->
<g id="edge6" class="edge">
<title>:data:datastore&#45;&gt;:domain</title>
<path fill="none" stroke="black" d="M120.54,-73.64C140.5,-63.05 167.14,-48.93 188.33,-37.69"/>
<polygon fill="black" stroke="black" points="189.71,-40.92 196.9,-33.15 186.43,-34.74 189.71,-40.92"/>
</g>
<!-- :data:room&#45;&gt;:domain -->
<g id="edge7" class="edge">
<title>:data:room&#45;&gt;:domain</title>
<path fill="none" stroke="black" d="M223.57,-71.7C223.57,-64.41 223.57,-55.73 223.57,-47.54"/>
<polygon fill="black" stroke="black" points="227.08,-47.62 223.57,-37.62 220.08,-47.62 227.08,-47.62"/>
</g>
</g>
</svg>
