<?xml version="1.0" encoding="UTF-8" standalone="no"?>
<!DOCTYPE svg PUBLIC "-//W3C//DTD SVG 1.1//EN"
 "http://www.w3.org/Graphics/SVG/1.1/DTD/svg11.dtd">
<!-- Generated by graphviz version 11.0.0 (20240428.1522)
 -->
<!-- Title: G Pages: 1 -->
<svg width="198pt" height="116pt"
 viewBox="0.00 0.00 197.66 116.00" xmlns="http://www.w3.org/2000/svg" xmlns:xlink="http://www.w3.org/1999/xlink">
<g id="graph0" class="graph" transform="scale(1 1) rotate(0) translate(4 112)">
<title>G</title>
<polygon fill="white" stroke="none" points="-4,4 -4,-112 193.66,-112 193.66,4 -4,4"/>
<!-- :data:datastore -->
<g id="node1" class="node">
<title>:data:datastore</title>
<ellipse fill="none" stroke="black" cx="97.57" cy="-90" rx="64.04" ry="18"/>
<text text-anchor="middle" x="97.57" y="-84.58" font-family="Times New Roman,serif" font-size="14.00">:data:datastore</text>
</g>
<!-- :common -->
<g id="node2" class="node">
<title>:common</title>
<ellipse fill="none" stroke="black" cx="45.57" cy="-18" rx="45.57" ry="18"/>
<text text-anchor="middle" x="45.57" y="-12.57" font-family="Times New Roman,serif" font-size="14.00">:common</text>
</g>
<!-- :data:datastore&#45;&gt;:common -->
<g id="edge1" class="edge">
<title>:data:datastore&#45;&gt;:common</title>
<path fill="none" stroke="red" stroke-width="2" d="M84.99,-72.05C78.92,-63.89 71.51,-53.91 64.76,-44.82"/>
<polygon fill="red" stroke="red" stroke-width="2" points="68.62,-44.16 59.85,-38.22 63.01,-48.33 68.62,-44.16"/>
</g>
<!-- :domain -->
<g id="node3" class="node">
<title>:domain</title>
<ellipse fill="none" stroke="black" cx="149.57" cy="-18" rx="40.09" ry="18"/>
<text text-anchor="middle" x="149.57" y="-12.57" font-family="Times New Roman,serif" font-size="14.00">:domain</text>
</g>
<!-- :data:datastore&#45;&gt;:domain -->
<g id="edge2" class="edge">
<title>:data:datastore&#45;&gt;:domain</title>
<path fill="none" stroke="black" d="M110.16,-72.05C116.32,-63.77 123.86,-53.62 130.69,-44.42"/>
<polygon fill="black" stroke="black" points="133.4,-46.64 136.56,-36.52 127.79,-42.46 133.4,-46.64"/>
</g>
</g>
</svg>
