<?xml version="1.0" encoding="UTF-8" standalone="no"?>
<!DOCTYPE svg PUBLIC "-//W3C//DTD SVG 1.1//EN"
 "http://www.w3.org/Graphics/SVG/1.1/DTD/svg11.dtd">
<!-- Generated by graphviz version 11.0.0 (20240428.1522)
 -->
<!-- Title: G Pages: 1 -->
<svg width="378pt" height="260pt"
 viewBox="0.00 0.00 377.98 260.00" xmlns="http://www.w3.org/2000/svg" xmlns:xlink="http://www.w3.org/1999/xlink">
<g id="graph0" class="graph" transform="scale(1 1) rotate(0) translate(4 256)">
<title>G</title>
<polygon fill="white" stroke="none" points="-4,4 -4,-256 373.98,-256 373.98,4 -4,4"/>
<!-- :data:room -->
<g id="node1" class="node">
<title>:data:room</title>
<ellipse fill="none" stroke="black" cx="100.04" cy="-234" rx="50.07" ry="18"/>
<text text-anchor="middle" x="100.04" y="-228.57" font-family="Times New Roman,serif" font-size="14.00">:data:room</text>
</g>
<!-- :domain:model -->
<g id="node2" class="node">
<title>:domain:model</title>
<ellipse fill="none" stroke="black" cx="65.04" cy="-18" rx="65.04" ry="18"/>
<text text-anchor="middle" x="65.04" y="-12.57" font-family="Times New Roman,serif" font-size="14.00">:domain:model</text>
</g>
<!-- :data:room&#45;&gt;:domain:model -->
<g id="edge1" class="edge">
<title>:data:room&#45;&gt;:domain:model</title>
<path fill="none" stroke="black" d="M85.58,-216.64C77.85,-206.77 69.1,-193.52 65.04,-180 51.57,-135.18 55.72,-80.11 60.2,-47.38"/>
<polygon fill="black" stroke="black" points="63.6,-48.29 61.61,-37.89 56.68,-47.26 63.6,-48.29"/>
</g>
<!-- :domain:repository -->
<g id="node3" class="node">
<title>:domain:repository</title>
<ellipse fill="none" stroke="black" cx="154.04" cy="-162" rx="80.01" ry="18"/>
<text text-anchor="middle" x="154.04" y="-156.57" font-family="Times New Roman,serif" font-size="14.00">:domain:repository</text>
</g>
<!-- :data:room&#45;&gt;:domain:repository -->
<g id="edge2" class="edge">
<title>:data:room&#45;&gt;:domain:repository</title>
<path fill="none" stroke="red" stroke-width="2" d="M112.83,-216.41C119.13,-208.25 126.87,-198.22 133.93,-189.07"/>
<polygon fill="red" stroke="red" stroke-width="2" points="135.77,-192.41 139.11,-182.35 130.23,-188.13 135.77,-192.41"/>
</g>
<!-- :domain:repository&#45;&gt;:domain:model -->
<g id="edge3" class="edge">
<title>:domain:repository&#45;&gt;:domain:model</title>
<path fill="none" stroke="black" d="M134.81,-144.26C124.41,-134.46 111.92,-121.42 103.04,-108 90.5,-89.06 80.61,-65.31 74.06,-47.11"/>
<polygon fill="black" stroke="black" points="77.4,-46.06 70.83,-37.75 70.79,-48.35 77.4,-46.06"/>
</g>
<!-- :domain:framework -->
<g id="node4" class="node">
<title>:domain:framework</title>
<ellipse fill="none" stroke="black" cx="194.04" cy="-90" rx="82" ry="18"/>
<text text-anchor="middle" x="194.04" y="-84.58" font-family="Times New Roman,serif" font-size="14.00">:domain:framework</text>
</g>
<!-- :domain:repository&#45;&gt;:domain:framework -->
<g id="edge4" class="edge">
<title>:domain:repository&#45;&gt;:domain:framework</title>
<path fill="none" stroke="red" stroke-width="2" d="M163.92,-143.7C168.38,-135.9 173.75,-126.51 178.7,-117.83"/>
<polygon fill="red" stroke="red" stroke-width="2" points="180.84,-121.15 182.76,-110.73 174.76,-117.68 180.84,-121.15"/>
</g>
<!-- :domain:framework&#45;&gt;:domain:model -->
<g id="edge5" class="edge">
<title>:domain:framework&#45;&gt;:domain:model</title>
<path fill="none" stroke="red" stroke-width="2" d="M164.12,-72.76C146.07,-62.97 122.9,-50.4 103.51,-39.88"/>
<polygon fill="red" stroke="red" stroke-width="2" points="106.58,-37.56 96.13,-35.87 103.25,-43.72 106.58,-37.56"/>
</g>
<!-- :domain:broadcast&#45;receiver -->
<g id="node5" class="node">
<title>:domain:broadcast&#45;receiver</title>
<ellipse fill="none" stroke="black" cx="259.04" cy="-18" rx="110.94" ry="18"/>
<text text-anchor="middle" x="259.04" y="-12.57" font-family="Times New Roman,serif" font-size="14.00">:domain:broadcast&#45;receiver</text>
</g>
<!-- :domain:framework&#45;&gt;:domain:broadcast&#45;receiver -->
<g id="edge6" class="edge">
<title>:domain:framework&#45;&gt;:domain:broadcast&#45;receiver</title>
<path fill="none" stroke="black" d="M209.77,-72.05C217.4,-63.84 226.73,-53.79 235.21,-44.66"/>
<polygon fill="black" stroke="black" points="237.72,-47.09 241.96,-37.38 232.6,-42.33 237.72,-47.09"/>
</g>
</g>
</svg>
