<?xml version="1.0" encoding="UTF-8" standalone="no"?>
<!DOCTYPE svg PUBLIC "-//W3C//DTD SVG 1.1//EN"
 "http://www.w3.org/Graphics/SVG/1.1/DTD/svg11.dtd">
<!-- Generated by graphviz version 11.0.0 (20240428.1522)
 -->
<!-- Title: G Pages: 1 -->
<svg width="173pt" height="188pt"
 viewBox="0.00 0.00 173.00 188.00" xmlns="http://www.w3.org/2000/svg" xmlns:xlink="http://www.w3.org/1999/xlink">
<g id="graph0" class="graph" transform="scale(1 1) rotate(0) translate(4 184)">
<title>G</title>
<polygon fill="white" stroke="none" points="-4,4 -4,-184 169,-184 169,4 -4,4"/>
<!-- :framework:shizuku -->
<g id="node1" class="node">
<title>:framework:shizuku</title>
<ellipse fill="none" stroke="black" cx="82.5" cy="-162" rx="82.5" ry="18"/>
<text text-anchor="middle" x="82.5" y="-156.57" font-family="Times New Roman,serif" font-size="14.00">:framework:shizuku</text>
</g>
<!-- :domain:framework -->
<g id="node2" class="node">
<title>:domain:framework</title>
<ellipse fill="none" stroke="black" cx="82.5" cy="-90" rx="82" ry="18"/>
<text text-anchor="middle" x="82.5" y="-84.58" font-family="Times New Roman,serif" font-size="14.00">:domain:framework</text>
</g>
<!-- :framework:shizuku&#45;&gt;:domain:framework -->
<g id="edge1" class="edge">
<title>:framework:shizuku&#45;&gt;:domain:framework</title>
<path fill="none" stroke="red" stroke-width="2" d="M82.5,-143.7C82.5,-136.41 82.5,-127.73 82.5,-119.54"/>
<polygon fill="red" stroke="red" stroke-width="2" points="86,-121.13 82.5,-111.13 79,-121.13 86,-121.13"/>
</g>
<!-- :domain:model -->
<g id="node3" class="node">
<title>:domain:model</title>
<ellipse fill="none" stroke="black" cx="82.5" cy="-18" rx="65.04" ry="18"/>
<text text-anchor="middle" x="82.5" y="-12.57" font-family="Times New Roman,serif" font-size="14.00">:domain:model</text>
</g>
<!-- :domain:framework&#45;&gt;:domain:model -->
<g id="edge2" class="edge">
<title>:domain:framework&#45;&gt;:domain:model</title>
<path fill="none" stroke="red" stroke-width="2" d="M82.5,-71.7C82.5,-64.41 82.5,-55.73 82.5,-47.54"/>
<polygon fill="red" stroke="red" stroke-width="2" points="86,-49.13 82.5,-39.13 79,-49.13 86,-49.13"/>
</g>
</g>
</svg>
