<?xml version="1.0" encoding="UTF-8" standalone="no"?>
<!DOCTYPE svg PUBLIC "-//W3C//DTD SVG 1.1//EN"
 "http://www.w3.org/Graphics/SVG/1.1/DTD/svg11.dtd">
<!-- Generated by graphviz version 11.0.0 (20240428.1522)
 -->
<!-- Title: G Pages: 1 -->
<svg width="2919pt" height="476pt"
 viewBox="0.00 0.00 2918.64 476.00" xmlns="http://www.w3.org/2000/svg" xmlns:xlink="http://www.w3.org/1999/xlink">
<g id="graph0" class="graph" transform="scale(1 1) rotate(0) translate(4 472)">
<title>G</title>
<polygon fill="white" stroke="none" points="-4,4 -4,-472 2914.64,-472 2914.64,4 -4,4"/>
<!-- :app -->
<g id="node1" class="node">
<title>:app</title>
<ellipse fill="none" stroke="black" cx="1041.53" cy="-450" rx="27" ry="18"/>
<text text-anchor="middle" x="1041.53" y="-444.57" font-family="Times New Roman,serif" font-size="14.00">:app</text>
</g>
<!-- :common -->
<g id="node2" class="node">
<title>:common</title>
<ellipse fill="none" stroke="black" cx="1751.53" cy="-234" rx="45.57" ry="18"/>
<text text-anchor="middle" x="1751.53" y="-228.57" font-family="Times New Roman,serif" font-size="14.00">:common</text>
</g>
<!-- :app&#45;&gt;:common -->
<g id="edge1" class="edge">
<title>:app&#45;&gt;:common</title>
<path fill="none" stroke="black" d="M1068.86,-449.14C1193.41,-449.13 1705.15,-441.86 1796.53,-324 1812.08,-303.95 1795.08,-277.69 1777.7,-258.9"/>
<polygon fill="black" stroke="black" points="1780.36,-256.61 1770.86,-251.92 1775.36,-261.51 1780.36,-256.61"/>
</g>
<!-- :design&#45;system -->
<g id="node3" class="node">
<title>:design&#45;system</title>
<ellipse fill="none" stroke="black" cx="257.53" cy="-234" rx="65.53" ry="18"/>
<text text-anchor="middle" x="257.53" y="-228.57" font-family="Times New Roman,serif" font-size="14.00">:design&#45;system</text>
</g>
<!-- :app&#45;&gt;:design&#45;system -->
<g id="edge2" class="edge">
<title>:app&#45;&gt;:design&#45;system</title>
<path fill="none" stroke="black" d="M1014.4,-449.01C883.62,-448.81 322.19,-445.1 263.53,-396 225.72,-364.35 237.14,-299.96 247.91,-262.92"/>
<polygon fill="black" stroke="black" points="251.12,-264.4 250.73,-253.81 244.43,-262.33 251.12,-264.4"/>
</g>
<!-- :data:repository -->
<g id="node4" class="node">
<title>:data:repository</title>
<ellipse fill="none" stroke="black" cx="926.53" cy="-378" rx="68.03" ry="18"/>
<text text-anchor="middle" x="926.53" y="-372.57" font-family="Times New Roman,serif" font-size="14.00">:data:repository</text>
</g>
<!-- :app&#45;&gt;:data:repository -->
<g id="edge3" class="edge">
<title>:app&#45;&gt;:data:repository</title>
<path fill="none" stroke="black" d="M1022.02,-437.13C1005.69,-427.18 981.94,-412.73 962.22,-400.72"/>
<polygon fill="black" stroke="black" points="964.28,-397.88 953.92,-395.67 960.64,-403.86 964.28,-397.88"/>
</g>
<!-- :domain:repository -->
<g id="node5" class="node">
<title>:domain:repository</title>
<ellipse fill="none" stroke="black" cx="681.53" cy="-162" rx="80.01" ry="18"/>
<text text-anchor="middle" x="681.53" y="-156.57" font-family="Times New Roman,serif" font-size="14.00">:domain:repository</text>
</g>
<!-- :app&#45;&gt;:domain:repository -->
<g id="edge4" class="edge">
<title>:app&#45;&gt;:domain:repository</title>
<path fill="none" stroke="black" d="M1014.5,-448.92C881.6,-448.33 301.26,-443.04 237.53,-396 170.23,-346.32 126.03,-277.68 182.53,-216 213.42,-182.28 547.24,-186.3 592.53,-180 599.28,-179.06 606.29,-177.95 613.29,-176.76"/>
<polygon fill="black" stroke="black" points="613.49,-180.28 622.73,-175.09 612.27,-173.39 613.49,-180.28"/>
</g>
<!-- :feature:apps -->
<g id="node6" class="node">
<title>:feature:apps</title>
<ellipse fill="none" stroke="black" cx="325.53" cy="-306" rx="57.55" ry="18"/>
<text text-anchor="middle" x="325.53" y="-300.57" font-family="Times New Roman,serif" font-size="14.00">:feature:apps</text>
</g>
<!-- :app&#45;&gt;:feature:apps -->
<g id="edge5" class="edge">
<title>:app&#45;&gt;:feature:apps</title>
<path fill="none" stroke="black" d="M1014.31,-447.64C918.94,-442.69 600.41,-424.35 502.53,-396 449.61,-380.67 393.61,-349.68 359.11,-328.63"/>
<polygon fill="black" stroke="black" points="361.18,-325.79 350.84,-323.5 357.5,-331.74 361.18,-325.79"/>
</g>
<!-- :feature:app&#45;settings -->
<g id="node7" class="node">
<title>:feature:app&#45;settings</title>
<ellipse fill="none" stroke="black" cx="893.53" cy="-306" rx="84.5" ry="18"/>
<text text-anchor="middle" x="893.53" y="-300.57" font-family="Times New Roman,serif" font-size="14.00">:feature:app&#45;settings</text>
</g>
<!-- :app&#45;&gt;:feature:app&#45;settings -->
<g id="edge6" class="edge">
<title>:app&#45;&gt;:feature:app&#45;settings</title>
<path fill="none" stroke="black" d="M1038.06,-431.91C1033.3,-412.36 1023.03,-380.41 1003.53,-360 989.26,-345.07 969.92,-333.83 951.44,-325.63"/>
<polygon fill="black" stroke="black" points="952.97,-322.47 942.4,-321.85 950.27,-328.93 952.97,-322.47"/>
</g>
<!-- :feature:home -->
<g id="node8" class="node">
<title>:feature:home</title>
<ellipse fill="none" stroke="black" cx="332.53" cy="-378" rx="60.05" ry="18"/>
<text text-anchor="middle" x="332.53" y="-372.57" font-family="Times New Roman,serif" font-size="14.00">:feature:home</text>
</g>
<!-- :app&#45;&gt;:feature:home -->
<g id="edge7" class="edge">
<title>:app&#45;&gt;:feature:home</title>
<path fill="none" stroke="black" d="M1014.43,-447.43C928.81,-442.31 656.48,-424.73 432.53,-396 419.9,-394.38 406.42,-392.32 393.59,-390.19"/>
<polygon fill="black" stroke="black" points="394.45,-386.79 384.01,-388.57 393.28,-393.69 394.45,-386.79"/>
</g>
<!-- :feature:service -->
<g id="node9" class="node">
<title>:feature:service</title>
<ellipse fill="none" stroke="black" cx="1262.53" cy="-306" rx="65.53" ry="18"/>
<text text-anchor="middle" x="1262.53" y="-300.57" font-family="Times New Roman,serif" font-size="14.00">:feature:service</text>
</g>
<!-- :app&#45;&gt;:feature:service -->
<g id="edge8" class="edge">
<title>:app&#45;&gt;:feature:service</title>
<path fill="none" stroke="black" d="M1060.37,-436.89C1097.6,-412.97 1181.05,-359.36 1228.27,-329.02"/>
<polygon fill="black" stroke="black" points="1229.97,-332.08 1236.49,-323.73 1226.18,-326.19 1229.97,-332.08"/>
</g>
<!-- :feature:settings -->
<g id="node10" class="node">
<title>:feature:settings</title>
<ellipse fill="none" stroke="black" cx="67.53" cy="-306" rx="67.53" ry="18"/>
<text text-anchor="middle" x="67.53" y="-300.57" font-family="Times New Roman,serif" font-size="14.00">:feature:settings</text>
</g>
<!-- :app&#45;&gt;:feature:settings -->
<g id="edge9" class="edge">
<title>:app&#45;&gt;:feature:settings</title>
<path fill="none" stroke="black" d="M1014.26,-448.59C873.14,-446.3 229.34,-433.85 149.53,-396 121.18,-382.55 98,-354.51 83.61,-333.47"/>
<polygon fill="black" stroke="black" points="86.69,-331.79 78.27,-325.35 80.84,-335.63 86.69,-331.79"/>
</g>
<!-- :feature:shizuku -->
<g id="node11" class="node">
<title>:feature:shizuku</title>
<ellipse fill="none" stroke="black" cx="468.53" cy="-306" rx="67.53" ry="18"/>
<text text-anchor="middle" x="468.53" y="-300.57" font-family="Times New Roman,serif" font-size="14.00">:feature:shizuku</text>
</g>
<!-- :app&#45;&gt;:feature:shizuku -->
<g id="edge10" class="edge">
<title>:app&#45;&gt;:feature:shizuku</title>
<path fill="none" stroke="black" d="M1014.12,-448.55C923.21,-446.67 632.83,-437.49 550.53,-396 522.67,-381.96 499.55,-354.26 485.03,-333.48"/>
<polygon fill="black" stroke="black" points="488.13,-331.81 479.64,-325.46 482.32,-335.71 488.13,-331.81"/>
</g>
<!-- :broadcast&#45;receiver -->
<g id="node12" class="node">
<title>:broadcast&#45;receiver</title>
<ellipse fill="none" stroke="black" cx="1542.53" cy="-306" rx="81.5" ry="18"/>
<text text-anchor="middle" x="1542.53" y="-300.57" font-family="Times New Roman,serif" font-size="14.00">:broadcast&#45;receiver</text>
</g>
<!-- :app&#45;&gt;:broadcast&#45;receiver -->
<g id="edge11" class="edge">
<title>:app&#45;&gt;:broadcast&#45;receiver</title>
<path fill="none" stroke="black" d="M1068.75,-448.77C1154.33,-447.58 1416.42,-440.34 1486.53,-396 1508.79,-381.92 1523.75,-355.44 1532.56,-335.01"/>
<polygon fill="black" stroke="black" points="1535.78,-336.39 1536.27,-325.81 1529.29,-333.77 1535.78,-336.39"/>
</g>
<!-- :foreground&#45;service -->
<g id="node13" class="node">
<title>:foreground&#45;service</title>
<ellipse fill="none" stroke="black" cx="1394.53" cy="-378" rx="83" ry="18"/>
<text text-anchor="middle" x="1394.53" y="-372.57" font-family="Times New Roman,serif" font-size="14.00">:foreground&#45;service</text>
</g>
<!-- :app&#45;&gt;:foreground&#45;service -->
<g id="edge12" class="edge">
<title>:app&#45;&gt;:foreground&#45;service</title>
<path fill="none" stroke="red" stroke-width="2" d="M1067.2,-443.91C1120.46,-433.35 1244.61,-408.73 1323.78,-393.03"/>
<polygon fill="red" stroke="red" stroke-width="2" points="1322.54,-396.84 1331.67,-391.47 1321.18,-389.98 1322.54,-396.84"/>
</g>
<!-- :framework:asset&#45;manager -->
<g id="node14" class="node">
<title>:framework:asset&#45;manager</title>
<ellipse fill="none" stroke="black" cx="2530.53" cy="-234" rx="106.95" ry="18"/>
<text text-anchor="middle" x="2530.53" y="-228.57" font-family="Times New Roman,serif" font-size="14.00">:framework:asset&#45;manager</text>
</g>
<!-- :app&#45;&gt;:framework:asset&#45;manager -->
<g id="edge13" class="edge">
<title>:app&#45;&gt;:framework:asset&#45;manager</title>
<path fill="none" stroke="black" d="M1068.86,-449.01C1218.39,-448.88 1938.67,-445.65 2154.53,-396 2283.94,-366.24 2424.91,-294.05 2491.51,-257.3"/>
<polygon fill="black" stroke="black" points="2493.19,-260.37 2500.22,-252.45 2489.78,-254.25 2493.19,-260.37"/>
</g>
<!-- :framework:clipboard&#45;manager -->
<g id="node15" class="node">
<title>:framework:clipboard&#45;manager</title>
<ellipse fill="none" stroke="black" cx="716.53" cy="-378" rx="123.92" ry="18"/>
<text text-anchor="middle" x="716.53" y="-372.57" font-family="Times New Roman,serif" font-size="14.00">:framework:clipboard&#45;manager</text>
</g>
<!-- :app&#45;&gt;:framework:clipboard&#45;manager -->
<g id="edge14" class="edge">
<title>:app&#45;&gt;:framework:clipboard&#45;manager</title>
<path fill="none" stroke="black" d="M1016.03,-443.51C968.92,-433.36 866.5,-411.3 794.6,-395.82"/>
<polygon fill="black" stroke="black" points="795.78,-392.49 785.26,-393.8 794.3,-399.33 795.78,-392.49"/>
</g>
<!-- :framework:notification&#45;manager -->
<g id="node16" class="node">
<title>:framework:notification&#45;manager</title>
<ellipse fill="none" stroke="black" cx="1953.53" cy="-378" rx="129.91" ry="18"/>
<text text-anchor="middle" x="1953.53" y="-372.57" font-family="Times New Roman,serif" font-size="14.00">:framework:notification&#45;manager</text>
</g>
<!-- :app&#45;&gt;:framework:notification&#45;manager -->
<g id="edge15" class="edge">
<title>:app&#45;&gt;:framework:notification&#45;manager</title>
<path fill="none" stroke="black" d="M1068.78,-447.6C1168.11,-442.39 1520.1,-423.05 1809.53,-396 1822.03,-394.83 1835.13,-393.47 1848.12,-392.04"/>
<polygon fill="black" stroke="black" points="1848.43,-395.53 1857.98,-390.94 1847.66,-388.57 1848.43,-395.53"/>
</g>
<!-- :framework:package&#45;manager -->
<g id="node17" class="node">
<title>:framework:package&#45;manager</title>
<ellipse fill="none" stroke="black" cx="2774.53" cy="-234" rx="118.93" ry="18"/>
<text text-anchor="middle" x="2774.53" y="-228.57" font-family="Times New Roman,serif" font-size="14.00">:framework:package&#45;manager</text>
</g>
<!-- :app&#45;&gt;:framework:package&#45;manager -->
<g id="edge16" class="edge">
<title>:app&#45;&gt;:framework:package&#45;manager</title>
<path fill="none" stroke="black" d="M1068.72,-448.67C1223.24,-446.66 1992.25,-434.84 2225.53,-396 2412.09,-364.94 2624.85,-291.01 2721.62,-255.17"/>
<polygon fill="black" stroke="black" points="2722.72,-258.5 2730.87,-251.73 2720.28,-251.94 2722.72,-258.5"/>
</g>
<!-- :framework:secure&#45;settings -->
<g id="node18" class="node">
<title>:framework:secure&#45;settings</title>
<ellipse fill="none" stroke="black" cx="1032.53" cy="-234" rx="109.45" ry="18"/>
<text text-anchor="middle" x="1032.53" y="-228.57" font-family="Times New Roman,serif" font-size="14.00">:framework:secure&#45;settings</text>
</g>
<!-- :app&#45;&gt;:framework:secure&#45;settings -->
<g id="edge17" class="edge">
<title>:app&#45;&gt;:framework:secure&#45;settings</title>
<path fill="none" stroke="black" d="M1040.81,-431.85C1039.27,-395.14 1035.63,-308.66 1033.73,-263.53"/>
<polygon fill="black" stroke="black" points="1037.24,-263.59 1033.32,-253.74 1030.24,-263.88 1037.24,-263.59"/>
</g>
<!-- :framework:shizuku -->
<g id="node19" class="node">
<title>:framework:shizuku</title>
<ellipse fill="none" stroke="black" cx="500.53" cy="-162" rx="82.5" ry="18"/>
<text text-anchor="middle" x="500.53" y="-156.57" font-family="Times New Roman,serif" font-size="14.00">:framework:shizuku</text>
</g>
<!-- :app&#45;&gt;:framework:shizuku -->
<g id="edge18" class="edge">
<title>:app&#45;&gt;:framework:shizuku</title>
<path fill="none" stroke="black" d="M1014.31,-449.5C926.18,-450.57 650.54,-449.51 583.53,-396 543.77,-364.25 563.77,-335.5 545.53,-288 539.32,-271.82 536.64,-268.22 530.53,-252 522.93,-231.82 515.18,-208.73 509.46,-191.13"/>
<polygon fill="black" stroke="black" points="512.79,-190.07 506.4,-181.63 506.13,-192.22 512.79,-190.07"/>
</g>
<!-- :framework:shortcut&#45;manager -->
<g id="node20" class="node">
<title>:framework:shortcut&#45;manager</title>
<ellipse fill="none" stroke="black" cx="1972.53" cy="-234" rx="118.93" ry="18"/>
<text text-anchor="middle" x="1972.53" y="-228.57" font-family="Times New Roman,serif" font-size="14.00">:framework:shortcut&#45;manager</text>
</g>
<!-- :app&#45;&gt;:framework:shortcut&#45;manager -->
<g id="edge19" class="edge">
<title>:app&#45;&gt;:framework:shortcut&#45;manager</title>
<path fill="none" stroke="black" d="M1068.86,-448.67C1230.58,-446.61 2056.2,-434.21 2092.53,-396 2135.43,-350.88 2060.07,-290.36 2010.58,-257.88"/>
<polygon fill="black" stroke="black" points="2012.64,-255.05 2002.34,-252.59 2008.86,-260.94 2012.64,-255.05"/>
</g>
<!-- :framework:usage&#45;stats&#45;manager -->
<g id="node21" class="node">
<title>:framework:usage&#45;stats&#45;manager</title>
<ellipse fill="none" stroke="black" cx="2276.53" cy="-234" rx="129.41" ry="18"/>
<text text-anchor="middle" x="2276.53" y="-228.57" font-family="Times New Roman,serif" font-size="14.00">:framework:usage&#45;stats&#45;manager</text>
</g>
<!-- :app&#45;&gt;:framework:usage&#45;stats&#45;manager -->
<g id="edge20" class="edge">
<title>:app&#45;&gt;:framework:usage&#45;stats&#45;manager</title>
<path fill="none" stroke="black" d="M1068.88,-448.8C1226.4,-447.52 2014.37,-438.99 2112.53,-396 2178.29,-367.2 2232.62,-299.36 2259.11,-261.58"/>
<polygon fill="black" stroke="black" points="2261.9,-263.69 2264.68,-253.46 2256.13,-259.73 2261.9,-263.69"/>
</g>
<!-- :domain:common -->
<g id="node22" class="node">
<title>:domain:common</title>
<ellipse fill="none" stroke="black" cx="1672.53" cy="-162" rx="75.02" ry="18"/>
<text text-anchor="middle" x="1672.53" y="-156.57" font-family="Times New Roman,serif" font-size="14.00">:domain:common</text>
</g>
<!-- :common&#45;&gt;:domain:common -->
<g id="edge21" class="edge">
<title>:common&#45;&gt;:domain:common</title>
<path fill="none" stroke="black" d="M1733.6,-217.12C1723.69,-208.33 1711.16,-197.23 1700.03,-187.37"/>
<polygon fill="black" stroke="black" points="1702.43,-184.81 1692.62,-180.8 1697.78,-190.05 1702.43,-184.81"/>
</g>
<!-- :domain:model -->
<g id="node23" class="node">
<title>:domain:model</title>
<ellipse fill="none" stroke="black" cx="847.53" cy="-18" rx="65.04" ry="18"/>
<text text-anchor="middle" x="847.53" y="-12.57" font-family="Times New Roman,serif" font-size="14.00">:domain:model</text>
</g>
<!-- :design&#45;system&#45;&gt;:domain:model -->
<g id="edge22" class="edge">
<title>:design&#45;system&#45;&gt;:domain:model</title>
<path fill="none" stroke="black" d="M272.54,-216.05C303.63,-182.2 378.93,-106.49 459.53,-72 514.56,-48.45 677.47,-32.22 773.81,-24.38"/>
<polygon fill="black" stroke="black" points="774.02,-27.88 783.7,-23.59 773.46,-20.9 774.02,-27.88"/>
</g>
<!-- :data:repository&#45;&gt;:domain:repository -->
<g id="edge27" class="edge">
<title>:data:repository&#45;&gt;:domain:repository</title>
<path fill="none" stroke="black" d="M877.89,-365.03C837.66,-354.38 784.49,-338.31 767.53,-324 725.36,-288.41 700.76,-226.73 689.35,-190.93"/>
<polygon fill="black" stroke="black" points="692.81,-190.28 686.54,-181.73 686.11,-192.32 692.81,-190.28"/>
</g>
<!-- :data:repository&#45;&gt;:domain:common -->
<g id="edge25" class="edge">
<title>:data:repository&#45;&gt;:domain:common</title>
<path fill="none" stroke="black" d="M994.96,-377.49C1078.4,-376.01 1222.53,-366.67 1337.53,-324 1419.35,-293.64 1422.62,-253.29 1501.53,-216 1535.74,-199.83 1576.08,-187.06 1608.99,-178.1"/>
<polygon fill="black" stroke="black" points="1609.62,-181.56 1618.38,-175.6 1607.82,-174.79 1609.62,-181.56"/>
</g>
<!-- :data:datastore -->
<g id="node24" class="node">
<title>:data:datastore</title>
<ellipse fill="none" stroke="black" cx="1706.53" cy="-306" rx="64.04" ry="18"/>
<text text-anchor="middle" x="1706.53" y="-300.57" font-family="Times New Roman,serif" font-size="14.00">:data:datastore</text>
</g>
<!-- :data:repository&#45;&gt;:data:datastore -->
<g id="edge23" class="edge">
<title>:data:repository&#45;&gt;:data:datastore</title>
<path fill="none" stroke="black" d="M994.18,-375.39C1120.5,-371.62 1400.53,-359.65 1633.53,-324 1638.72,-323.21 1644.1,-322.24 1649.46,-321.17"/>
<polygon fill="black" stroke="black" points="1649.85,-324.67 1658.92,-319.19 1648.41,-317.82 1649.85,-324.67"/>
</g>
<!-- :data:room -->
<g id="node25" class="node">
<title>:data:room</title>
<ellipse fill="none" stroke="black" cx="589.53" cy="-234" rx="50.07" ry="18"/>
<text text-anchor="middle" x="589.53" y="-228.57" font-family="Times New Roman,serif" font-size="14.00">:data:room</text>
</g>
<!-- :data:repository&#45;&gt;:data:room -->
<g id="edge24" class="edge">
<title>:data:repository&#45;&gt;:data:room</title>
<path fill="none" stroke="black" d="M876.52,-365.37C827.26,-353.6 755.71,-335.52 729.53,-324 688.73,-306.05 646.1,-277.28 618.76,-257.33"/>
<polygon fill="black" stroke="black" points="621.09,-254.7 610.97,-251.57 616.93,-260.33 621.09,-254.7"/>
</g>
<!-- :domain:framework -->
<g id="node26" class="node">
<title>:domain:framework</title>
<ellipse fill="none" stroke="black" cx="903.53" cy="-90" rx="82" ry="18"/>
<text text-anchor="middle" x="903.53" y="-84.58" font-family="Times New Roman,serif" font-size="14.00">:domain:framework</text>
</g>
<!-- :data:repository&#45;&gt;:domain:framework -->
<g id="edge26" class="edge">
<title>:data:repository&#45;&gt;:domain:framework</title>
<path fill="none" stroke="black" d="M882.04,-364.05C849.75,-353.64 810.12,-338.43 800.53,-324 770.24,-278.4 794.19,-233.91 850.53,-144 856.96,-133.75 865.71,-123.95 874.25,-115.63"/>
<polygon fill="black" stroke="black" points="876.58,-118.24 881.51,-108.87 871.81,-113.12 876.58,-118.24"/>
</g>
<!-- :domain:repository&#45;&gt;:domain:model -->
<g id="edge32" class="edge">
<title>:domain:repository&#45;&gt;:domain:model</title>
<path fill="none" stroke="black" d="M701.22,-144.15C730.63,-119 786.14,-71.52 819.69,-42.82"/>
<polygon fill="black" stroke="black" points="821.64,-45.75 826.97,-36.59 817.09,-40.43 821.64,-45.75"/>
</g>
<!-- :domain:repository&#45;&gt;:domain:framework -->
<g id="edge33" class="edge">
<title>:domain:repository&#45;&gt;:domain:framework</title>
<path fill="none" stroke="red" stroke-width="2" d="M726.72,-146.75C761.57,-135.76 809.96,-120.5 847.31,-108.73"/>
<polygon fill="red" stroke="red" stroke-width="2" points="846.65,-112.61 855.13,-106.26 844.54,-105.93 846.65,-112.61"/>
</g>
<!-- :feature:apps&#45;&gt;:design&#45;system -->
<g id="edge37" class="edge">
<title>:feature:apps&#45;&gt;:design&#45;system</title>
<path fill="none" stroke="black" d="M309.42,-288.41C301.03,-279.78 290.62,-269.06 281.33,-259.5"/>
<polygon fill="black" stroke="black" points="284.06,-257.29 274.58,-252.56 279.04,-262.17 284.06,-257.29"/>
</g>
<!-- :feature:apps&#45;&gt;:domain:framework -->
<g id="edge38" class="edge">
<title>:feature:apps&#45;&gt;:domain:framework</title>
<path fill="none" stroke="black" d="M326.87,-287.69C330.5,-253.87 343.68,-179.25 390.53,-144 423.46,-119.23 674.27,-102.68 812.6,-95.33"/>
<polygon fill="black" stroke="black" points="812.68,-98.83 822.48,-94.82 812.31,-91.84 812.68,-98.83"/>
</g>
<!-- :feature:app&#45;settings&#45;&gt;:design&#45;system -->
<g id="edge39" class="edge">
<title>:feature:app&#45;settings&#45;&gt;:design&#45;system</title>
<path fill="none" stroke="black" d="M819.64,-296.87C696.45,-283.31 450.64,-256.25 329.04,-242.87"/>
<polygon fill="black" stroke="black" points="329.5,-239.4 319.18,-241.78 328.73,-246.36 329.5,-239.4"/>
</g>
<!-- :feature:app&#45;settings&#45;&gt;:domain:repository -->
<g id="edge42" class="edge">
<title>:feature:app&#45;settings&#45;&gt;:domain:repository</title>
<path fill="none" stroke="black" d="M865.03,-288.62C847.63,-278.43 825.04,-264.85 805.53,-252 773.15,-230.68 737.28,-204.66 712.48,-186.27"/>
<polygon fill="black" stroke="black" points="714.88,-183.69 704.77,-180.53 710.7,-189.31 714.88,-183.69"/>
</g>
<!-- :feature:app&#45;settings&#45;&gt;:domain:common -->
<g id="edge40" class="edge">
<title>:feature:app&#45;settings&#45;&gt;:domain:common</title>
<path fill="none" stroke="black" d="M977.9,-303.95C1064.81,-300.69 1203.19,-289.37 1316.53,-252 1347.52,-241.78 1349.83,-227.07 1380.53,-216 1449.52,-191.13 1532.05,-177.53 1591.75,-170.36"/>
<polygon fill="black" stroke="black" points="1591.96,-173.86 1601.49,-169.23 1591.15,-166.91 1591.96,-173.86"/>
</g>
<!-- :feature:app&#45;settings&#45;&gt;:domain:framework -->
<g id="edge41" class="edge">
<title>:feature:app&#45;settings&#45;&gt;:domain:framework</title>
<path fill="none" stroke="black" d="M871.2,-288.2C860.66,-278.84 849.18,-266.22 843.53,-252 837.62,-237.13 839.98,-231.6 843.53,-216 851.71,-180.06 871.57,-142.39 886.21,-117.92"/>
<polygon fill="black" stroke="black" points="889.09,-119.93 891.33,-109.58 883.12,-116.27 889.09,-119.93"/>
</g>
<!-- :domain:use&#45;case -->
<g id="node27" class="node">
<title>:domain:use&#45;case</title>
<ellipse fill="none" stroke="black" cx="1233.53" cy="-234" rx="74.02" ry="18"/>
<text text-anchor="middle" x="1233.53" y="-228.57" font-family="Times New Roman,serif" font-size="14.00">:domain:use&#45;case</text>
</g>
<!-- :feature:app&#45;settings&#45;&gt;:domain:use&#45;case -->
<g id="edge43" class="edge">
<title>:feature:app&#45;settings&#45;&gt;:domain:use&#45;case</title>
<path fill="none" stroke="black" d="M952.75,-292.81C1012.58,-280.49 1104.82,-261.5 1167.09,-248.68"/>
<polygon fill="black" stroke="black" points="1167.79,-252.11 1176.88,-246.66 1166.38,-245.25 1167.79,-252.11"/>
</g>
<!-- :feature:home&#45;&gt;:design&#45;system -->
<g id="edge49" class="edge">
<title>:feature:home&#45;&gt;:design&#45;system</title>
<path fill="none" stroke="black" d="M299.87,-362.48C284.38,-353.73 267.36,-340.96 258.53,-324 248.87,-305.45 249.14,-281.64 251.55,-263.31"/>
<polygon fill="black" stroke="black" points="254.97,-264.1 253.11,-253.66 248.06,-262.98 254.97,-264.1"/>
</g>
<!-- :feature:service&#45;&gt;:design&#45;system -->
<g id="edge50" class="edge">
<title>:feature:service&#45;&gt;:design&#45;system</title>
<path fill="none" stroke="black" d="M1199.66,-300.62C1022.79,-288.3 521.45,-253.38 331.61,-240.16"/>
<polygon fill="black" stroke="black" points="332.1,-236.69 321.88,-239.48 331.62,-243.67 332.1,-236.69"/>
</g>
<!-- :feature:service&#45;&gt;:domain:common -->
<g id="edge51" class="edge">
<title>:feature:service&#45;&gt;:domain:common</title>
<path fill="none" stroke="black" d="M1294.52,-289.86C1335.4,-270.9 1408.64,-238.21 1473.53,-216 1517.96,-200.8 1569.18,-187.24 1608.53,-177.65"/>
<polygon fill="black" stroke="black" points="1609.19,-181.09 1618.09,-175.34 1607.55,-174.28 1609.19,-181.09"/>
</g>
<!-- :feature:service&#45;&gt;:domain:use&#45;case -->
<g id="edge53" class="edge">
<title>:feature:service&#45;&gt;:domain:use&#45;case</title>
<path fill="none" stroke="black" d="M1255.36,-287.7C1252.24,-280.15 1248.49,-271.12 1245,-262.68"/>
<polygon fill="black" stroke="black" points="1248.26,-261.4 1241.2,-253.5 1241.79,-264.08 1248.26,-261.4"/>
</g>
<!-- :domain:foreground&#45;service -->
<g id="node28" class="node">
<title>:domain:foreground&#45;service</title>
<ellipse fill="none" stroke="black" cx="1392.53" cy="-162" rx="112.44" ry="18"/>
<text text-anchor="middle" x="1392.53" y="-156.57" font-family="Times New Roman,serif" font-size="14.00">:domain:foreground&#45;service</text>
</g>
<!-- :feature:service&#45;&gt;:domain:foreground&#45;service -->
<g id="edge52" class="edge">
<title>:feature:service&#45;&gt;:domain:foreground&#45;service</title>
<path fill="none" stroke="black" d="M1280.43,-288.2C1291.14,-277.96 1304.88,-264.49 1316.53,-252 1335.77,-231.38 1356.49,-206.95 1371.43,-188.91"/>
<polygon fill="black" stroke="black" points="1374.06,-191.23 1377.71,-181.28 1368.65,-186.78 1374.06,-191.23"/>
</g>
<!-- :feature:settings&#45;&gt;:design&#45;system -->
<g id="edge54" class="edge">
<title>:feature:settings&#45;&gt;:design&#45;system</title>
<path fill="none" stroke="black" d="M105.98,-290.83C135.69,-279.89 177.01,-264.66 209,-252.88"/>
<polygon fill="black" stroke="black" points="209.87,-256.29 218.04,-249.55 207.45,-249.72 209.87,-256.29"/>
</g>
<!-- :feature:settings&#45;&gt;:domain:repository -->
<g id="edge55" class="edge">
<title>:feature:settings&#45;&gt;:domain:repository</title>
<path fill="none" stroke="black" d="M77.5,-288.02C90.9,-266.97 116.86,-231.93 149.53,-216 238.31,-172.71 494.66,-193.28 592.53,-180 599.28,-179.08 606.3,-177.99 613.29,-176.81"/>
<polygon fill="black" stroke="black" points="613.49,-180.33 622.74,-175.15 612.28,-173.43 613.49,-180.33"/>
</g>
<!-- :feature:shizuku&#45;&gt;:design&#45;system -->
<g id="edge56" class="edge">
<title>:feature:shizuku&#45;&gt;:design&#45;system</title>
<path fill="none" stroke="black" d="M427.35,-291.34C393.55,-280.12 345.5,-264.18 309.13,-252.12"/>
<polygon fill="black" stroke="black" points="310.28,-248.81 299.69,-248.99 308.08,-255.46 310.28,-248.81"/>
</g>
<!-- :feature:shizuku&#45;&gt;:domain:framework -->
<g id="edge57" class="edge">
<title>:feature:shizuku&#45;&gt;:domain:framework</title>
<path fill="none" stroke="black" d="M452.43,-288.33C423.69,-256.58 370.05,-186.82 408.53,-144 434.94,-114.61 676.18,-100.17 811.87,-94.31"/>
<polygon fill="black" stroke="black" points="811.7,-97.82 821.54,-93.9 811.4,-90.83 811.7,-97.82"/>
</g>
<!-- :broadcast&#45;receiver&#45;&gt;:common -->
<g id="edge58" class="edge">
<title>:broadcast&#45;receiver&#45;&gt;:common</title>
<path fill="none" stroke="black" d="M1586.09,-290.41C1621.54,-278.54 1671.38,-261.85 1707.07,-249.89"/>
<polygon fill="black" stroke="black" points="1707.86,-253.32 1716.23,-246.82 1705.63,-246.68 1707.86,-253.32"/>
</g>
<!-- :broadcast&#45;receiver&#45;&gt;:domain:common -->
<g id="edge59" class="edge">
<title>:broadcast&#45;receiver&#45;&gt;:domain:common</title>
<path fill="none" stroke="black" d="M1569.76,-288.76C1584.38,-279.21 1602.1,-266.24 1615.53,-252 1633.08,-233.39 1648.42,-208.66 1658.75,-189.99"/>
<polygon fill="black" stroke="black" points="1661.73,-191.85 1663.38,-181.38 1655.56,-188.53 1661.73,-191.85"/>
</g>
<!-- :broadcast&#45;receiver&#45;&gt;:domain:framework -->
<g id="edge61" class="edge">
<title>:broadcast&#45;receiver&#45;&gt;:domain:framework</title>
<path fill="none" stroke="black" d="M1545.45,-287.52C1549.92,-254.07 1554.13,-181.04 1513.53,-144 1476.19,-109.93 1157.66,-97.23 996.35,-92.95"/>
<polygon fill="black" stroke="black" points="996.61,-89.46 986.53,-92.7 996.43,-96.46 996.61,-89.46"/>
</g>
<!-- :broadcast&#45;receiver&#45;&gt;:domain:use&#45;case -->
<g id="edge62" class="edge">
<title>:broadcast&#45;receiver&#45;&gt;:domain:use&#45;case</title>
<path fill="none" stroke="red" stroke-width="2" d="M1486.93,-292.4C1433.69,-280.34 1353.43,-262.16 1297.55,-249.5"/>
<polygon fill="red" stroke="red" stroke-width="2" points="1299.84,-246.43 1289.31,-247.64 1298.29,-253.26 1299.84,-246.43"/>
</g>
<!-- :broadcast&#45;receiver&#45;&gt;:domain:foreground&#45;service -->
<g id="edge60" class="edge">
<title>:broadcast&#45;receiver&#45;&gt;:domain:foreground&#45;service</title>
<path fill="none" stroke="black" d="M1524.73,-288.15C1498.35,-263.17 1448.7,-216.17 1418.32,-187.42"/>
<polygon fill="black" stroke="black" points="1421.07,-185.2 1411.4,-180.87 1416.26,-190.28 1421.07,-185.2"/>
</g>
<!-- :foreground&#45;service&#45;&gt;:common -->
<g id="edge64" class="edge">
<title>:foreground&#45;service&#45;&gt;:common</title>
<path fill="none" stroke="black" d="M1477.61,-377.77C1578.84,-376.73 1741.18,-367.99 1779.53,-324 1794.94,-306.32 1783.97,-280.18 1771.52,-260.8"/>
<polygon fill="black" stroke="black" points="1774.43,-258.85 1765.87,-252.6 1768.67,-262.82 1774.43,-258.85"/>
</g>
<!-- :foreground&#45;service&#45;&gt;:broadcast&#45;receiver -->
<g id="edge63" class="edge">
<title>:foreground&#45;service&#45;&gt;:broadcast&#45;receiver</title>
<path fill="none" stroke="red" stroke-width="2" d="M1428.11,-361.12C1449.02,-351.23 1476.14,-338.4 1498.73,-327.72"/>
<polygon fill="red" stroke="red" stroke-width="2" points="1498.8,-331.56 1506.34,-324.12 1495.81,-325.23 1498.8,-331.56"/>
</g>
<!-- :foreground&#45;service&#45;&gt;:domain:common -->
<g id="edge65" class="edge">
<title>:foreground&#45;service&#45;&gt;:domain:common</title>
<path fill="none" stroke="black" d="M1402.34,-359.85C1411.8,-340.52 1429.28,-309.06 1451.53,-288 1479.88,-261.17 1574.76,-211.64 1630.56,-183.66"/>
<polygon fill="black" stroke="black" points="1632.1,-186.81 1639.48,-179.21 1628.97,-180.54 1632.1,-186.81"/>
</g>
<!-- :foreground&#45;service&#45;&gt;:domain:framework -->
<g id="edge67" class="edge">
<title>:foreground&#45;service&#45;&gt;:domain:framework</title>
<path fill="none" stroke="black" d="M1334.07,-365.37C1211.15,-341.16 941.38,-284.83 914.53,-252 883.94,-214.59 889.58,-154.49 896.51,-119.27"/>
<polygon fill="black" stroke="black" points="899.86,-120.34 898.55,-109.83 893.02,-118.87 899.86,-120.34"/>
</g>
<!-- :foreground&#45;service&#45;&gt;:domain:use&#45;case -->
<g id="edge68" class="edge">
<title>:foreground&#45;service&#45;&gt;:domain:use&#45;case</title>
<path fill="none" stroke="black" d="M1323.81,-368.2C1270.69,-359.96 1204.33,-345.65 1187.53,-324 1172.18,-304.22 1188.64,-278.54 1205.99,-259.86"/>
<polygon fill="black" stroke="black" points="1208.32,-262.47 1212.85,-252.89 1203.34,-257.56 1208.32,-262.47"/>
</g>
<!-- :foreground&#45;service&#45;&gt;:domain:foreground&#45;service -->
<g id="edge66" class="edge">
<title>:foreground&#45;service&#45;&gt;:domain:foreground&#45;service</title>
<path fill="none" stroke="black" d="M1394.37,-359.85C1394.03,-323.14 1393.22,-236.66 1392.8,-191.53"/>
<polygon fill="black" stroke="black" points="1396.3,-191.71 1392.71,-181.75 1389.3,-191.78 1396.3,-191.71"/>
</g>
<!-- :framework:asset&#45;manager&#45;&gt;:domain:common -->
<g id="edge69" class="edge">
<title>:framework:asset&#45;manager&#45;&gt;:domain:common</title>
<path fill="none" stroke="black" d="M2454.2,-220.99C2440.99,-219.15 2427.38,-217.4 2414.53,-216 2176.79,-190.12 1894.77,-173.95 1756.91,-166.98"/>
<polygon fill="black" stroke="black" points="1757.3,-163.5 1747.14,-166.49 1756.95,-170.49 1757.3,-163.5"/>
</g>
<!-- :framework:asset&#45;manager&#45;&gt;:domain:framework -->
<g id="edge70" class="edge">
<title>:framework:asset&#45;manager&#45;&gt;:domain:framework</title>
<path fill="none" stroke="black" d="M2483.04,-217.48C2416.64,-196.55 2291.89,-160.07 2182.53,-144 1953.66,-110.37 1251.25,-96.39 996.8,-92.34"/>
<polygon fill="black" stroke="black" points="996.96,-88.84 986.9,-92.18 996.85,-95.84 996.96,-88.84"/>
</g>
<!-- :framework:clipboard&#45;manager&#45;&gt;:domain:framework -->
<g id="edge71" class="edge">
<title>:framework:clipboard&#45;manager&#45;&gt;:domain:framework</title>
<path fill="none" stroke="black" d="M720.97,-359.6C732.28,-318.1 765.61,-211.73 825.53,-144 836.08,-132.08 849.86,-121.57 862.91,-113.12"/>
<polygon fill="black" stroke="black" points="864.73,-116.11 871.38,-107.86 861.04,-110.16 864.73,-116.11"/>
</g>
<!-- :framework:notification&#45;manager&#45;&gt;:common -->
<g id="edge73" class="edge">
<title>:framework:notification&#45;manager&#45;&gt;:common</title>
<path fill="none" stroke="black" d="M1936.28,-359.97C1916.57,-341.04 1882.86,-310.22 1850.53,-288 1831.64,-275.02 1809.22,-262.78 1790.49,-253.34"/>
<polygon fill="black" stroke="black" points="1792.11,-250.24 1781.59,-248.93 1789,-256.51 1792.11,-250.24"/>
</g>
<!-- :framework:notification&#45;manager&#45;&gt;:broadcast&#45;receiver -->
<g id="edge72" class="edge">
<title>:framework:notification&#45;manager&#45;&gt;:broadcast&#45;receiver</title>
<path fill="none" stroke="black" d="M1870.57,-363.74C1805.93,-353.29 1713.94,-338.17 1633.53,-324 1627.14,-322.87 1620.51,-321.68 1613.86,-320.47"/>
<polygon fill="black" stroke="black" points="1614.66,-317.06 1604.2,-318.7 1613.4,-323.94 1614.66,-317.06"/>
</g>
<!-- :framework:notification&#45;manager&#45;&gt;:domain:common -->
<g id="edge74" class="edge">
<title>:framework:notification&#45;manager&#45;&gt;:domain:common</title>
<path fill="none" stroke="black" d="M1942.2,-359.74C1929.63,-341.15 1908.24,-311.13 1886.53,-288 1869.71,-270.07 1862.79,-268.46 1844.53,-252 1827.25,-236.43 1826.15,-228.51 1806.53,-216 1782.92,-200.95 1754.33,-188.93 1729.64,-180.16"/>
<polygon fill="black" stroke="black" points="1730.99,-176.92 1720.4,-176.98 1728.71,-183.54 1730.99,-176.92"/>
</g>
<!-- :framework:notification&#45;manager&#45;&gt;:domain:framework -->
<g id="edge75" class="edge">
<title>:framework:notification&#45;manager&#45;&gt;:domain:framework</title>
<path fill="none" stroke="black" d="M1989.26,-360.41C2045.46,-332.07 2143.88,-271.95 2100.53,-216 2022.1,-114.76 1948.06,-163.78 1821.53,-144 1522.8,-97.29 1163.62,-90.68 996.95,-90.41"/>
<polygon fill="black" stroke="black" points="997.28,-86.91 987.28,-90.4 997.28,-93.91 997.28,-86.91"/>
</g>
<!-- :framework:package&#45;manager&#45;&gt;:domain:common -->
<g id="edge76" class="edge">
<title>:framework:package&#45;manager&#45;&gt;:domain:common</title>
<path fill="none" stroke="black" d="M2690.64,-220.91C2675.96,-219.07 2660.82,-217.34 2646.53,-216 2319.15,-185.4 1928.08,-170.73 1758.26,-165.43"/>
<polygon fill="black" stroke="black" points="1758.52,-161.93 1748.42,-165.12 1758.31,-168.93 1758.52,-161.93"/>
</g>
<!-- :framework:package&#45;manager&#45;&gt;:domain:framework -->
<g id="edge77" class="edge">
<title>:framework:package&#45;manager&#45;&gt;:domain:framework</title>
<path fill="none" stroke="black" d="M2710.21,-218.53C2615.87,-197.98 2434.18,-160.96 2277.53,-144 2028.21,-117 1262.61,-98.62 996.13,-92.9"/>
<polygon fill="black" stroke="black" points="996.55,-89.4 986.47,-92.69 996.4,-96.4 996.55,-89.4"/>
</g>
<!-- :framework:secure&#45;settings&#45;&gt;:domain:common -->
<g id="edge78" class="edge">
<title>:framework:secure&#45;settings&#45;&gt;:domain:common</title>
<path fill="none" stroke="black" d="M1111.49,-221.13C1124.52,-219.32 1137.89,-217.54 1150.53,-216 1311.47,-196.44 1352.26,-196.62 1513.53,-180 1539.75,-177.3 1568.39,-174.26 1594.06,-171.51"/>
<polygon fill="black" stroke="black" points="1594.16,-175.02 1603.73,-170.47 1593.41,-168.06 1594.16,-175.02"/>
</g>
<!-- :framework:secure&#45;settings&#45;&gt;:domain:framework -->
<g id="edge79" class="edge">
<title>:framework:secure&#45;settings&#45;&gt;:domain:framework</title>
<path fill="none" stroke="black" d="M1016.97,-215.87C994.38,-191 952.36,-144.75 926.29,-116.05"/>
<polygon fill="black" stroke="black" points="929.08,-113.92 919.76,-108.87 923.9,-118.62 929.08,-113.92"/>
</g>
<!-- :framework:shizuku&#45;&gt;:domain:framework -->
<g id="edge80" class="edge">
<title>:framework:shizuku&#45;&gt;:domain:framework</title>
<path fill="none" stroke="black" d="M561.87,-149.54C572.11,-147.67 582.62,-145.76 592.53,-144 673.04,-129.7 765.41,-114.06 828.43,-103.5"/>
<polygon fill="black" stroke="black" points="828.68,-107 837.96,-101.9 827.52,-100.1 828.68,-107"/>
</g>
<!-- :framework:shortcut&#45;manager&#45;&gt;:domain:common -->
<g id="edge81" class="edge">
<title>:framework:shortcut&#45;manager&#45;&gt;:domain:common</title>
<path fill="none" stroke="black" d="M1909.64,-218.33C1858.58,-206.41 1786.91,-189.69 1735.75,-177.75"/>
<polygon fill="black" stroke="black" points="1736.85,-174.41 1726.32,-175.55 1735.26,-181.23 1736.85,-174.41"/>
</g>
<!-- :framework:shortcut&#45;manager&#45;&gt;:domain:framework -->
<g id="edge82" class="edge">
<title>:framework:shortcut&#45;manager&#45;&gt;:domain:framework</title>
<path fill="none" stroke="black" d="M1941.41,-216.33C1900.37,-195.27 1825.3,-159.84 1756.53,-144 1614.22,-111.21 1186.39,-97.51 996.3,-92.93"/>
<polygon fill="black" stroke="black" points="996.55,-89.43 986.47,-92.7 996.38,-96.43 996.55,-89.43"/>
</g>
<!-- :framework:usage&#45;stats&#45;manager&#45;&gt;:domain:common -->
<g id="edge83" class="edge">
<title>:framework:usage&#45;stats&#45;manager&#45;&gt;:domain:common</title>
<path fill="none" stroke="black" d="M2179.49,-221.75C2060.16,-207.92 1860,-184.73 1750.28,-172.01"/>
<polygon fill="black" stroke="black" points="1750.82,-168.55 1740.48,-170.88 1750.01,-175.5 1750.82,-168.55"/>
</g>
<!-- :framework:usage&#45;stats&#45;manager&#45;&gt;:domain:framework -->
<g id="edge84" class="edge">
<title>:framework:usage&#45;stats&#45;manager&#45;&gt;:domain:framework</title>
<path fill="none" stroke="black" d="M2256.88,-216.08C2230.73,-194.74 2182.14,-159.03 2133.53,-144 2026.14,-110.79 1264.76,-96.37 996.66,-92.29"/>
<polygon fill="black" stroke="black" points="996.98,-88.79 986.93,-92.14 996.87,-95.79 996.98,-88.79"/>
</g>
<!-- :data:datastore&#45;&gt;:common -->
<g id="edge28" class="edge">
<title>:data:datastore&#45;&gt;:common</title>
<path fill="none" stroke="black" d="M1717.42,-288.05C1722.56,-280.06 1728.82,-270.33 1734.56,-261.4"/>
<polygon fill="black" stroke="black" points="1737.46,-263.37 1739.92,-253.06 1731.57,-259.58 1737.46,-263.37"/>
</g>
<!-- :data:datastore&#45;&gt;:domain:repository -->
<g id="edge31" class="edge">
<title>:data:datastore&#45;&gt;:domain:repository</title>
<path fill="none" stroke="black" d="M1660.82,-293.04C1651.82,-291.06 1642.42,-289.25 1633.53,-288 1316.68,-243.54 1227.63,-317.9 914.53,-252 845.15,-237.4 769.2,-205.06 723.47,-183.65"/>
<polygon fill="black" stroke="black" points="725.25,-180.63 714.72,-179.51 722.26,-186.95 725.25,-180.63"/>
</g>
<!-- :data:datastore&#45;&gt;:domain:common -->
<g id="edge29" class="edge">
<title>:data:datastore&#45;&gt;:domain:common</title>
<path fill="none" stroke="black" d="M1702.36,-287.59C1696.6,-263.5 1686.12,-219.75 1679.24,-191.03"/>
<polygon fill="black" stroke="black" points="1682.71,-190.49 1676.98,-181.58 1675.9,-192.12 1682.71,-190.49"/>
</g>
<!-- :data:datastore&#45;&gt;:domain:model -->
<g id="edge30" class="edge">
<title>:data:datastore&#45;&gt;:domain:model</title>
<path fill="none" stroke="black" d="M1770.55,-304.58C2012.99,-302.7 2863.13,-293.18 2902.53,-252 2913.59,-240.44 2913,-228.1 2902.53,-216 2770.52,-63.4 1280.69,-26.84 923.95,-20.24"/>
<polygon fill="black" stroke="black" points="924.06,-16.74 913.99,-20.06 923.93,-23.74 924.06,-16.74"/>
</g>
<!-- :data:room&#45;&gt;:domain:repository -->
<g id="edge36" class="edge">
<title>:data:room&#45;&gt;:domain:repository</title>
<path fill="none" stroke="black" d="M609.95,-217.46C621.91,-208.37 637.24,-196.7 650.65,-186.49"/>
<polygon fill="black" stroke="black" points="652.52,-189.47 658.36,-180.63 648.28,-183.9 652.52,-189.47"/>
</g>
<!-- :data:room&#45;&gt;:domain:model -->
<g id="edge35" class="edge">
<title>:data:room&#45;&gt;:domain:model</title>
<path fill="none" stroke="black" d="M542.19,-227.58C476.63,-218.13 370.34,-194.58 408.53,-144 453.19,-84.84 667.01,-45.39 778.91,-28.44"/>
<polygon fill="black" stroke="black" points="779.2,-31.94 788.57,-27 778.16,-25.01 779.2,-31.94"/>
</g>
<!-- :domain:framework&#45;&gt;:domain:model -->
<g id="edge34" class="edge">
<title>:domain:framework&#45;&gt;:domain:model</title>
<path fill="none" stroke="red" stroke-width="2" d="M889.97,-72.05C883.37,-63.8 875.29,-53.7 867.96,-44.54"/>
<polygon fill="red" stroke="red" stroke-width="2" points="871.83,-43.78 862.85,-38.15 866.37,-48.15 871.83,-43.78"/>
</g>
<!-- :domain:use&#45;case&#45;&gt;:domain:repository -->
<g id="edge48" class="edge">
<title>:domain:use&#45;case&#45;&gt;:domain:repository</title>
<path fill="none" stroke="red" stroke-width="2" d="M1179.64,-221.23C1169.97,-219.33 1159.97,-217.5 1150.53,-216 1017.1,-194.84 861,-178.95 766.78,-170.32"/>
<polygon fill="red" stroke="red" stroke-width="2" points="768.61,-166.97 758.34,-169.55 767.98,-173.95 768.61,-166.97"/>
</g>
<!-- :domain:use&#45;case&#45;&gt;:domain:common -->
<g id="edge45" class="edge">
<title>:domain:use&#45;case&#45;&gt;:domain:common</title>
<path fill="none" stroke="black" d="M1289.33,-221.86C1300.01,-219.83 1311.1,-217.79 1321.53,-216 1416.51,-199.66 1526.43,-183.51 1597.6,-173.41"/>
<polygon fill="black" stroke="black" points="1597.77,-176.92 1607.18,-172.05 1596.79,-169.99 1597.77,-176.92"/>
</g>
<!-- :domain:use&#45;case&#45;&gt;:domain:model -->
<g id="edge44" class="edge">
<title>:domain:use&#45;case&#45;&gt;:domain:model</title>
<path fill="none" stroke="black" d="M1212.88,-216.48C1172.76,-185.01 1080.64,-115.68 994.53,-72 965.16,-57.1 930.59,-44.42 902.36,-35.19"/>
<polygon fill="black" stroke="black" points="903.51,-31.89 892.92,-32.17 901.38,-38.55 903.51,-31.89"/>
</g>
<!-- :domain:use&#45;case&#45;&gt;:domain:framework -->
<g id="edge47" class="edge">
<title>:domain:use&#45;case&#45;&gt;:domain:framework</title>
<path fill="none" stroke="black" d="M1198.21,-217.8C1138.24,-192 1016.51,-139.62 949.81,-110.91"/>
<polygon fill="black" stroke="black" points="951.55,-107.85 940.98,-107.12 948.79,-114.28 951.55,-107.85"/>
</g>
<!-- :domain:use&#45;case&#45;&gt;:domain:foreground&#45;service -->
<g id="edge46" class="edge">
<title>:domain:use&#45;case&#45;&gt;:domain:foreground&#45;service</title>
<path fill="none" stroke="black" d="M1268.03,-217.81C1290.57,-207.89 1320.3,-194.8 1345.05,-183.9"/>
<polygon fill="black" stroke="black" points="1346.2,-187.22 1353.94,-179.99 1343.38,-180.82 1346.2,-187.22"/>
</g>
</g>
</svg>
