<?xml version="1.0" encoding="UTF-8" standalone="no"?>
<!DOCTYPE svg PUBLIC "-//W3C//DTD SVG 1.1//EN"
 "http://www.w3.org/Graphics/SVG/1.1/DTD/svg11.dtd">
<!-- Generated by graphviz version 11.0.0 (20240428.1522)
 -->
<!-- Title: G Pages: 1 -->
<svg width="821pt" height="332pt"
 viewBox="0.00 0.00 821.11 332.00" xmlns="http://www.w3.org/2000/svg" xmlns:xlink="http://www.w3.org/1999/xlink">
<g id="graph0" class="graph" transform="scale(1 1) rotate(0) translate(4 328)">
<title>G</title>
<polygon fill="white" stroke="none" points="-4,4 -4,-328 817.11,-328 817.11,4 -4,4"/>
<!-- :feature:app&#45;settings -->
<g id="node1" class="node">
<title>:feature:app&#45;settings</title>
<ellipse fill="none" stroke="black" cx="628.53" cy="-306" rx="84.5" ry="18"/>
<text text-anchor="middle" x="628.53" y="-300.57" font-family="Times New Roman,serif" font-size="14.00">:feature:app&#45;settings</text>
</g>
<!-- :design&#45;system -->
<g id="node2" class="node">
<title>:design&#45;system</title>
<ellipse fill="none" stroke="black" cx="65.53" cy="-90" rx="65.53" ry="18"/>
<text text-anchor="middle" x="65.53" y="-84.58" font-family="Times New Roman,serif" font-size="14.00">:design&#45;system</text>
</g>
<!-- :feature:app&#45;settings&#45;&gt;:design&#45;system -->
<g id="edge1" class="edge">
<title>:feature:app&#45;settings&#45;&gt;:design&#45;system</title>
<path fill="none" stroke="black" d="M552.33,-297.94C455.51,-286.11 286.16,-255.61 162.53,-180 133.96,-162.52 106.31,-135.89 87.89,-116.31"/>
<polygon fill="black" stroke="black" points="90.49,-113.96 81.14,-108.98 85.34,-118.71 90.49,-113.96"/>
</g>
<!-- :common -->
<g id="node3" class="node">
<title>:common</title>
<ellipse fill="none" stroke="black" cx="767.53" cy="-234" rx="45.57" ry="18"/>
<text text-anchor="middle" x="767.53" y="-228.57" font-family="Times New Roman,serif" font-size="14.00">:common</text>
</g>
<!-- :feature:app&#45;settings&#45;&gt;:common -->
<g id="edge2" class="edge">
<title>:feature:app&#45;settings&#45;&gt;:common</title>
<path fill="none" stroke="black" d="M660.42,-288.94C681.23,-278.46 708.46,-264.75 730.26,-253.77"/>
<polygon fill="black" stroke="black" points="731.77,-256.93 739.12,-249.31 728.62,-250.68 731.77,-256.93"/>
</g>
<!-- :domain:broadcast&#45;receiver -->
<g id="node4" class="node">
<title>:domain:broadcast&#45;receiver</title>
<ellipse fill="none" stroke="black" cx="616.53" cy="-18" rx="110.94" ry="18"/>
<text text-anchor="middle" x="616.53" y="-12.57" font-family="Times New Roman,serif" font-size="14.00">:domain:broadcast&#45;receiver</text>
</g>
<!-- :feature:app&#45;settings&#45;&gt;:domain:broadcast&#45;receiver -->
<g id="edge3" class="edge">
<title>:feature:app&#45;settings&#45;&gt;:domain:broadcast&#45;receiver</title>
<path fill="none" stroke="black" d="M642.52,-288.04C649.73,-278.18 657.78,-265.13 661.53,-252 682.41,-178.97 649.88,-90.27 630.03,-46.36"/>
<polygon fill="black" stroke="black" points="633.34,-45.16 625.94,-37.57 626.99,-48.11 633.34,-45.16"/>
</g>
<!-- :domain:framework -->
<g id="node5" class="node">
<title>:domain:framework</title>
<ellipse fill="none" stroke="black" cx="547.53" cy="-90" rx="82" ry="18"/>
<text text-anchor="middle" x="547.53" y="-84.58" font-family="Times New Roman,serif" font-size="14.00">:domain:framework</text>
</g>
<!-- :feature:app&#45;settings&#45;&gt;:domain:framework -->
<g id="edge4" class="edge">
<title>:feature:app&#45;settings&#45;&gt;:domain:framework</title>
<path fill="none" stroke="black" d="M635.1,-287.63C645.68,-256.52 662.81,-190.23 636.53,-144 628.38,-129.65 614.62,-118.77 600.34,-110.72"/>
<polygon fill="black" stroke="black" points="602.26,-107.78 591.77,-106.29 599.04,-114 602.26,-107.78"/>
</g>
<!-- :domain:repository -->
<g id="node6" class="node">
<title>:domain:repository</title>
<ellipse fill="none" stroke="black" cx="547.53" cy="-162" rx="80.01" ry="18"/>
<text text-anchor="middle" x="547.53" y="-156.57" font-family="Times New Roman,serif" font-size="14.00">:domain:repository</text>
</g>
<!-- :feature:app&#45;settings&#45;&gt;:domain:repository -->
<g id="edge5" class="edge">
<title>:feature:app&#45;settings&#45;&gt;:domain:repository</title>
<path fill="none" stroke="black" d="M618.76,-287.87C604.9,-263.56 579.38,-218.82 562.94,-190.01"/>
<polygon fill="black" stroke="black" points="566.08,-188.46 558.09,-181.5 560,-191.92 566.08,-188.46"/>
</g>
<!-- :domain:use&#45;case -->
<g id="node7" class="node">
<title>:domain:use&#45;case</title>
<ellipse fill="none" stroke="black" cx="439.53" cy="-234" rx="74.02" ry="18"/>
<text text-anchor="middle" x="439.53" y="-228.57" font-family="Times New Roman,serif" font-size="14.00">:domain:use&#45;case</text>
</g>
<!-- :feature:app&#45;settings&#45;&gt;:domain:use&#45;case -->
<g id="edge6" class="edge">
<title>:feature:app&#45;settings&#45;&gt;:domain:use&#45;case</title>
<path fill="none" stroke="red" stroke-width="2" d="M587.52,-289.81C558.68,-279.13 519.92,-264.77 489.31,-253.43"/>
<polygon fill="red" stroke="red" stroke-width="2" points="492.28,-250.8 481.69,-250.61 489.85,-257.37 492.28,-250.8"/>
</g>
<!-- :domain:model -->
<g id="node8" class="node">
<title>:domain:model</title>
<ellipse fill="none" stroke="black" cx="325.53" cy="-18" rx="65.04" ry="18"/>
<text text-anchor="middle" x="325.53" y="-12.57" font-family="Times New Roman,serif" font-size="14.00">:domain:model</text>
</g>
<!-- :design&#45;system&#45;&gt;:domain:model -->
<g id="edge7" class="edge">
<title>:design&#45;system&#45;&gt;:domain:model</title>
<path fill="none" stroke="black" d="M111.12,-76.73C155.08,-64.89 221.71,-46.95 269.02,-34.22"/>
<polygon fill="black" stroke="black" points="269.79,-37.63 278.54,-31.65 267.97,-30.87 269.79,-37.63"/>
</g>
<!-- :domain:framework&#45;&gt;:domain:broadcast&#45;receiver -->
<g id="edge9" class="edge">
<title>:domain:framework&#45;&gt;:domain:broadcast&#45;receiver</title>
<path fill="none" stroke="black" d="M564.24,-72.05C572.42,-63.75 582.45,-53.58 591.52,-44.38"/>
<polygon fill="black" stroke="black" points="593.92,-46.93 598.44,-37.35 588.93,-42.02 593.92,-46.93"/>
</g>
<!-- :domain:framework&#45;&gt;:domain:model -->
<g id="edge8" class="edge">
<title>:domain:framework&#45;&gt;:domain:model</title>
<path fill="none" stroke="red" stroke-width="2" d="M502.07,-74.67C466.05,-63.31 415.68,-47.42 377.96,-35.53"/>
<polygon fill="red" stroke="red" stroke-width="2" points="380.66,-32.71 370.07,-33.04 378.56,-39.39 380.66,-32.71"/>
</g>
<!-- :domain:repository&#45;&gt;:domain:framework -->
<g id="edge11" class="edge">
<title>:domain:repository&#45;&gt;:domain:framework</title>
<path fill="none" stroke="red" stroke-width="2" d="M547.53,-143.7C547.53,-136.41 547.53,-127.73 547.53,-119.54"/>
<polygon fill="red" stroke="red" stroke-width="2" points="551.03,-121.13 547.53,-111.13 544.03,-121.13 551.03,-121.13"/>
</g>
<!-- :domain:repository&#45;&gt;:domain:model -->
<g id="edge10" class="edge">
<title>:domain:repository&#45;&gt;:domain:model</title>
<path fill="none" stroke="black" d="M518.54,-144.79C500.51,-134.55 476.96,-120.86 456.53,-108 422.14,-86.34 383.78,-60.01 357.51,-41.63"/>
<polygon fill="black" stroke="black" points="359.84,-38.99 349.64,-36.12 355.82,-44.72 359.84,-38.99"/>
</g>
<!-- :domain:use&#45;case&#45;&gt;:domain:framework -->
<g id="edge14" class="edge">
<title>:domain:use&#45;case&#45;&gt;:domain:framework</title>
<path fill="none" stroke="black" d="M439.26,-215.64C439.8,-196.41 443.25,-165.32 458.53,-144 468.41,-130.22 483.08,-119.41 497.67,-111.24"/>
<polygon fill="black" stroke="black" points="499.11,-114.43 506.36,-106.7 495.87,-108.23 499.11,-114.43"/>
</g>
<!-- :domain:use&#45;case&#45;&gt;:domain:repository -->
<g id="edge15" class="edge">
<title>:domain:use&#45;case&#45;&gt;:domain:repository</title>
<path fill="none" stroke="red" stroke-width="2" d="M464.58,-216.76C478.93,-207.47 497.15,-195.66 512.85,-185.48"/>
<polygon fill="red" stroke="red" stroke-width="2" points="513.22,-189.41 519.71,-181.04 509.41,-183.54 513.22,-189.41"/>
</g>
<!-- :domain:use&#45;case&#45;&gt;:domain:model -->
<g id="edge12" class="edge">
<title>:domain:use&#45;case&#45;&gt;:domain:model</title>
<path fill="none" stroke="black" d="M368.76,-228.48C299.85,-222.44 202.16,-208.91 178.53,-180 135.38,-127.2 225.79,-68.97 283.13,-39.11"/>
<polygon fill="black" stroke="black" points="284.4,-42.39 291.72,-34.73 281.22,-36.15 284.4,-42.39"/>
</g>
<!-- :domain:foreground&#45;service -->
<g id="node9" class="node">
<title>:domain:foreground&#45;service</title>
<ellipse fill="none" stroke="black" cx="299.53" cy="-162" rx="112.44" ry="18"/>
<text text-anchor="middle" x="299.53" y="-156.57" font-family="Times New Roman,serif" font-size="14.00">:domain:foreground&#45;service</text>
</g>
<!-- :domain:use&#45;case&#45;&gt;:domain:foreground&#45;service -->
<g id="edge13" class="edge">
<title>:domain:use&#45;case&#45;&gt;:domain:foreground&#45;service</title>
<path fill="none" stroke="black" d="M408.12,-217.29C388.86,-207.66 363.93,-195.2 342.82,-184.64"/>
<polygon fill="black" stroke="black" points="344.66,-181.65 334.15,-180.31 341.53,-187.91 344.66,-181.65"/>
</g>
</g>
</svg>
