<?xml version="1.0" encoding="UTF-8" standalone="no"?>
<!DOCTYPE svg PUBLIC "-//W3C//DTD SVG 1.1//EN"
 "http://www.w3.org/Graphics/SVG/1.1/DTD/svg11.dtd">
<!-- Generated by graphviz version 11.0.0 (20240428.1522)
 -->
<!-- Title: G Pages: 1 -->
<svg width="403pt" height="332pt"
 viewBox="0.00 0.00 402.58 332.00" xmlns="http://www.w3.org/2000/svg" xmlns:xlink="http://www.w3.org/1999/xlink">
<g id="graph0" class="graph" transform="scale(1 1) rotate(0) translate(4 328)">
<title>G</title>
<polygon fill="white" stroke="none" points="-4,4 -4,-328 398.58,-328 398.58,4 -4,4"/>
<!-- :data:repository -->
<g id="node1" class="node">
<title>:data:repository</title>
<ellipse fill="none" stroke="black" cx="261.57" cy="-306" rx="68.03" ry="18"/>
<text text-anchor="middle" x="261.57" y="-300.57" font-family="Times New Roman,serif" font-size="14.00">:data:repository</text>
</g>
<!-- :common -->
<g id="node2" class="node">
<title>:common</title>
<ellipse fill="none" stroke="black" cx="45.57" cy="-162" rx="45.57" ry="18"/>
<text text-anchor="middle" x="45.57" y="-156.57" font-family="Times New Roman,serif" font-size="14.00">:common</text>
</g>
<!-- :data:repository&#45;&gt;:common -->
<g id="edge1" class="edge">
<title>:data:repository&#45;&gt;:common</title>
<path fill="none" stroke="black" d="M201.85,-297.08C148.4,-288.71 75.61,-273.69 56.57,-252 42.35,-235.8 40.3,-211.08 41.41,-191.81"/>
<polygon fill="black" stroke="black" points="44.89,-192.14 42.33,-181.86 37.92,-191.5 44.89,-192.14"/>
</g>
<!-- :data:datastore -->
<g id="node3" class="node">
<title>:data:datastore</title>
<ellipse fill="none" stroke="black" cx="129.57" cy="-234" rx="64.04" ry="18"/>
<text text-anchor="middle" x="129.57" y="-228.57" font-family="Times New Roman,serif" font-size="14.00">:data:datastore</text>
</g>
<!-- :data:repository&#45;&gt;:data:datastore -->
<g id="edge2" class="edge">
<title>:data:repository&#45;&gt;:data:datastore</title>
<path fill="none" stroke="red" stroke-width="2" d="M232.28,-289.46C213.57,-279.54 189.08,-266.56 168.71,-255.75"/>
<polygon fill="red" stroke="red" stroke-width="2" points="171.94,-253.5 161.46,-251.91 168.66,-259.69 171.94,-253.5"/>
</g>
<!-- :data:room -->
<g id="node4" class="node">
<title>:data:room</title>
<ellipse fill="none" stroke="black" cx="261.57" cy="-234" rx="50.07" ry="18"/>
<text text-anchor="middle" x="261.57" y="-228.57" font-family="Times New Roman,serif" font-size="14.00">:data:room</text>
</g>
<!-- :data:repository&#45;&gt;:data:room -->
<g id="edge3" class="edge">
<title>:data:repository&#45;&gt;:data:room</title>
<path fill="none" stroke="black" d="M261.57,-287.7C261.57,-280.41 261.57,-271.73 261.57,-263.54"/>
<polygon fill="black" stroke="black" points="265.08,-263.62 261.57,-253.62 258.08,-263.62 265.08,-263.62"/>
</g>
<!-- :domain:framework -->
<g id="node5" class="node">
<title>:domain:framework</title>
<ellipse fill="none" stroke="black" cx="312.57" cy="-90" rx="82" ry="18"/>
<text text-anchor="middle" x="312.57" y="-84.58" font-family="Times New Roman,serif" font-size="14.00">:domain:framework</text>
</g>
<!-- :data:repository&#45;&gt;:domain:framework -->
<g id="edge4" class="edge">
<title>:data:repository&#45;&gt;:domain:framework</title>
<path fill="none" stroke="black" d="M291.73,-289.64C307.01,-280.52 324.79,-267.67 336.57,-252 356.94,-224.93 355.94,-213.4 361.57,-180 364.24,-164.22 367.41,-158.9 361.57,-144 357.44,-133.43 350.1,-123.71 342.34,-115.56"/>
<polygon fill="black" stroke="black" points="344.91,-113.18 335.3,-108.72 340.03,-118.2 344.91,-113.18"/>
</g>
<!-- :domain:repository -->
<g id="node6" class="node">
<title>:domain:repository</title>
<ellipse fill="none" stroke="black" cx="272.57" cy="-162" rx="80.01" ry="18"/>
<text text-anchor="middle" x="272.57" y="-156.57" font-family="Times New Roman,serif" font-size="14.00">:domain:repository</text>
</g>
<!-- :data:repository&#45;&gt;:domain:repository -->
<g id="edge5" class="edge">
<title>:data:repository&#45;&gt;:domain:repository</title>
<path fill="none" stroke="black" d="M287.83,-289.02C300.24,-279.89 313.79,-267.22 320.57,-252 327.09,-237.39 326.33,-230.93 320.57,-216 316.53,-205.51 309.34,-195.81 301.74,-187.66"/>
<polygon fill="black" stroke="black" points="304.42,-185.38 294.86,-180.81 299.48,-190.35 304.42,-185.38"/>
</g>
<!-- :data:datastore&#45;&gt;:common -->
<g id="edge6" class="edge">
<title>:data:datastore&#45;&gt;:common</title>
<path fill="none" stroke="black" d="M109.67,-216.41C98.77,-207.33 85.09,-195.93 73.17,-186"/>
<polygon fill="black" stroke="black" points="75.56,-183.43 65.64,-179.72 71.08,-188.81 75.56,-183.43"/>
</g>
<!-- :data:datastore&#45;&gt;:domain:repository -->
<g id="edge8" class="edge">
<title>:data:datastore&#45;&gt;:domain:repository</title>
<path fill="none" stroke="red" stroke-width="2" d="M160.6,-217.81C180.88,-207.88 207.64,-194.78 229.92,-183.88"/>
<polygon fill="red" stroke="red" stroke-width="2" points="229.96,-187.76 237.4,-180.22 226.88,-181.47 229.96,-187.76"/>
</g>
<!-- :domain:model -->
<g id="node7" class="node">
<title>:domain:model</title>
<ellipse fill="none" stroke="black" cx="183.57" cy="-18" rx="65.04" ry="18"/>
<text text-anchor="middle" x="183.57" y="-12.57" font-family="Times New Roman,serif" font-size="14.00">:domain:model</text>
</g>
<!-- :data:datastore&#45;&gt;:domain:model -->
<g id="edge7" class="edge">
<title>:data:datastore&#45;&gt;:domain:model</title>
<path fill="none" stroke="black" d="M129.46,-215.52C129.77,-185.34 132.74,-121.9 150.57,-72 153.9,-62.71 159.02,-53.33 164.26,-45.09"/>
<polygon fill="black" stroke="black" points="167.05,-47.21 169.73,-36.96 161.25,-43.3 167.05,-47.21"/>
</g>
<!-- :data:room&#45;&gt;:domain:repository -->
<g id="edge13" class="edge">
<title>:data:room&#45;&gt;:domain:repository</title>
<path fill="none" stroke="black" d="M264.29,-215.7C265.45,-208.32 266.84,-199.52 268.14,-191.25"/>
<polygon fill="black" stroke="black" points="271.56,-192.02 269.65,-181.6 264.64,-190.93 271.56,-192.02"/>
</g>
<!-- :data:room&#45;&gt;:domain:model -->
<g id="edge12" class="edge">
<title>:data:room&#45;&gt;:domain:model</title>
<path fill="none" stroke="black" d="M229.13,-219.98C212.27,-211.35 193.23,-198.23 183.57,-180 161.34,-138.02 168.63,-80.81 176.04,-47.11"/>
<polygon fill="black" stroke="black" points="179.37,-48.24 178.27,-37.7 172.56,-46.62 179.37,-48.24"/>
</g>
<!-- :domain:framework&#45;&gt;:domain:model -->
<g id="edge11" class="edge">
<title>:domain:framework&#45;&gt;:domain:model</title>
<path fill="none" stroke="red" stroke-width="2" d="M282.66,-72.76C264.61,-62.97 241.44,-50.4 222.04,-39.88"/>
<polygon fill="red" stroke="red" stroke-width="2" points="225.12,-37.56 214.66,-35.87 221.78,-43.72 225.12,-37.56"/>
</g>
<!-- :domain:repository&#45;&gt;:domain:framework -->
<g id="edge10" class="edge">
<title>:domain:repository&#45;&gt;:domain:framework</title>
<path fill="none" stroke="red" stroke-width="2" d="M282.46,-143.7C286.92,-135.9 292.28,-126.51 297.24,-117.83"/>
<polygon fill="red" stroke="red" stroke-width="2" points="299.38,-121.15 301.3,-110.73 293.3,-117.68 299.38,-121.15"/>
</g>
<!-- :domain:repository&#45;&gt;:domain:model -->
<g id="edge9" class="edge">
<title>:domain:repository&#45;&gt;:domain:model</title>
<path fill="none" stroke="black" d="M253.35,-144.26C242.95,-134.46 230.46,-121.42 221.57,-108 209.04,-89.06 199.15,-65.31 192.6,-47.11"/>
<polygon fill="black" stroke="black" points="195.94,-46.06 189.37,-37.75 189.32,-48.35 195.94,-46.06"/>
</g>
</g>
</svg>
