<?xml version="1.0" encoding="UTF-8" standalone="no"?>
<!DOCTYPE svg PUBLIC "-//W3C//DTD SVG 1.1//EN"
 "http://www.w3.org/Graphics/SVG/1.1/DTD/svg11.dtd">
<!-- Generated by graphviz version 11.0.0 (20240428.1522)
 -->
<!-- Title: G Pages: 1 -->
<svg width="227pt" height="116pt"
 viewBox="0.00 0.00 226.89 116.00" xmlns="http://www.w3.org/2000/svg" xmlns:xlink="http://www.w3.org/1999/xlink">
<g id="graph0" class="graph" transform="scale(1 1) rotate(0) translate(4 112)">
<title>G</title>
<polygon fill="white" stroke="none" points="-4,4 -4,-112 222.89,-112 222.89,4 -4,4"/>
<!-- :framework:secure&#45;settings -->
<g id="node1" class="node">
<title>:framework:secure&#45;settings</title>
<ellipse fill="none" stroke="black" cx="109.45" cy="-90" rx="109.45" ry="18"/>
<text text-anchor="middle" x="109.45" y="-84.58" font-family="Times New Roman,serif" font-size="14.00">:framework:secure&#45;settings</text>
</g>
<!-- :common -->
<g id="node2" class="node">
<title>:common</title>
<ellipse fill="none" stroke="black" cx="57.45" cy="-18" rx="45.57" ry="18"/>
<text text-anchor="middle" x="57.45" y="-12.57" font-family="Times New Roman,serif" font-size="14.00">:common</text>
</g>
<!-- :framework:secure&#45;settings&#45;&gt;:common -->
<g id="edge1" class="edge">
<title>:framework:secure&#45;settings&#45;&gt;:common</title>
<path fill="none" stroke="red" stroke-width="2" d="M96.59,-71.7C90.52,-63.52 83.15,-53.6 76.45,-44.58"/>
<polygon fill="red" stroke="red" stroke-width="2" points="80.37,-43.99 71.6,-38.05 74.75,-48.17 80.37,-43.99"/>
</g>
<!-- :domain -->
<g id="node3" class="node">
<title>:domain</title>
<ellipse fill="none" stroke="black" cx="161.45" cy="-18" rx="40.09" ry="18"/>
<text text-anchor="middle" x="161.45" y="-12.57" font-family="Times New Roman,serif" font-size="14.00">:domain</text>
</g>
<!-- :framework:secure&#45;settings&#45;&gt;:domain -->
<g id="edge2" class="edge">
<title>:framework:secure&#45;settings&#45;&gt;:domain</title>
<path fill="none" stroke="black" d="M122.3,-71.7C128.37,-63.52 135.74,-53.6 142.44,-44.58"/>
<polygon fill="black" stroke="black" points="145.04,-46.95 148.2,-36.84 139.42,-42.78 145.04,-46.95"/>
</g>
</g>
</svg>
