<?xml version="1.0" encoding="UTF-8" standalone="no"?>
<!DOCTYPE svg PUBLIC "-//W3C//DTD SVG 1.1//EN"
 "http://www.w3.org/Graphics/SVG/1.1/DTD/svg11.dtd">
<!-- Generated by graphviz version 11.0.0 (20240428.1522)
 -->
<!-- Title: G Pages: 1 -->
<svg width="312pt" height="188pt"
 viewBox="0.00 0.00 311.55 188.00" xmlns="http://www.w3.org/2000/svg" xmlns:xlink="http://www.w3.org/1999/xlink">
<g id="graph0" class="graph" transform="scale(1 1) rotate(0) translate(4 184)">
<title>G</title>
<polygon fill="white" stroke="none" points="-4,4 -4,-184 307.55,-184 307.55,4 -4,4"/>
<!-- :feature:apps -->
<g id="node1" class="node">
<title>:feature:apps</title>
<ellipse fill="none" stroke="black" cx="171" cy="-162" rx="57.55" ry="18"/>
<text text-anchor="middle" x="171" y="-156.57" font-family="Times New Roman,serif" font-size="14.00">:feature:apps</text>
</g>
<!-- :core:design&#45;system -->
<g id="node2" class="node">
<title>:core:design&#45;system</title>
<ellipse fill="none" stroke="black" cx="84" cy="-18" rx="84" ry="18"/>
<text text-anchor="middle" x="84" y="-12.57" font-family="Times New Roman,serif" font-size="14.00">:core:design&#45;system</text>
</g>
<!-- :feature:apps&#45;&gt;:core:design&#45;system -->
<g id="edge1" class="edge">
<title>:feature:apps&#45;&gt;:core:design&#45;system</title>
<path fill="none" stroke="black" d="M153.91,-144.41C144.29,-134.47 132.54,-121.22 124,-108 111.57,-88.77 101.11,-65.03 94.01,-46.91"/>
<polygon fill="black" stroke="black" points="97.3,-45.71 90.48,-37.6 90.75,-48.19 97.3,-45.71"/>
</g>
<!-- :core:ui -->
<g id="node3" class="node">
<title>:core:ui</title>
<ellipse fill="none" stroke="black" cx="171" cy="-90" rx="37.59" ry="18"/>
<text text-anchor="middle" x="171" y="-84.58" font-family="Times New Roman,serif" font-size="14.00">:core:ui</text>
</g>
<!-- :feature:apps&#45;&gt;:core:ui -->
<g id="edge2" class="edge">
<title>:feature:apps&#45;&gt;:core:ui</title>
<path fill="none" stroke="red" stroke-width="2" d="M171,-143.7C171,-136.41 171,-127.73 171,-119.54"/>
<polygon fill="red" stroke="red" stroke-width="2" points="174.5,-121.13 171,-111.13 167.5,-121.13 174.5,-121.13"/>
</g>
<!-- :core:domain -->
<g id="node4" class="node">
<title>:core:domain</title>
<ellipse fill="none" stroke="black" cx="245" cy="-18" rx="58.55" ry="18"/>
<text text-anchor="middle" x="245" y="-12.57" font-family="Times New Roman,serif" font-size="14.00">:core:domain</text>
</g>
<!-- :feature:apps&#45;&gt;:core:domain -->
<g id="edge3" class="edge">
<title>:feature:apps&#45;&gt;:core:domain</title>
<path fill="none" stroke="black" d="M188.73,-144.8C198.56,-134.99 210.31,-121.74 218,-108 228.6,-89.04 235.52,-65.43 239.69,-47.29"/>
<polygon fill="black" stroke="black" points="243.06,-48.26 241.73,-37.75 236.22,-46.79 243.06,-48.26"/>
</g>
<!-- :core:ui&#45;&gt;:core:design&#45;system -->
<g id="edge4" class="edge">
<title>:core:ui&#45;&gt;:core:design&#45;system</title>
<path fill="none" stroke="red" stroke-width="2" d="M152.55,-74.15C141.2,-65.02 126.4,-53.12 113.46,-42.71"/>
<polygon fill="red" stroke="red" stroke-width="2" points="117.21,-41.23 107.22,-37.69 112.82,-46.68 117.21,-41.23"/>
</g>
<!-- :core:ui&#45;&gt;:core:domain -->
<g id="edge5" class="edge">
<title>:core:ui&#45;&gt;:core:domain</title>
<path fill="none" stroke="black" d="M187.42,-73.46C196.83,-64.57 208.84,-53.21 219.45,-43.16"/>
<polygon fill="black" stroke="black" points="221.63,-45.92 226.49,-36.51 216.82,-40.84 221.63,-45.92"/>
</g>
</g>
</svg>
