<?xml version="1.0" encoding="UTF-8" standalone="no"?>
<!DOCTYPE svg PUBLIC "-//W3C//DTD SVG 1.1//EN"
 "http://www.w3.org/Graphics/SVG/1.1/DTD/svg11.dtd">
<!-- Generated by graphviz version 11.0.0 (20240428.1522)
 -->
<!-- Title: G Pages: 1 -->
<svg width="265pt" height="260pt"
 viewBox="0.00 0.00 265.04 260.00" xmlns="http://www.w3.org/2000/svg" xmlns:xlink="http://www.w3.org/1999/xlink">
<g id="graph0" class="graph" transform="scale(1 1) rotate(0) translate(4 256)">
<title>G</title>
<polygon fill="white" stroke="none" points="-4,4 -4,-256 261.04,-256 261.04,4 -4,4"/>
<!-- :data:room -->
<g id="node1" class="node">
<title>:data:room</title>
<ellipse fill="none" stroke="black" cx="81.04" cy="-234" rx="50.07" ry="18"/>
<text text-anchor="middle" x="81.04" y="-228.57" font-family="Times New Roman,serif" font-size="14.00">:data:room</text>
</g>
<!-- :domain:model -->
<g id="node2" class="node">
<title>:domain:model</title>
<ellipse fill="none" stroke="black" cx="65.04" cy="-18" rx="65.04" ry="18"/>
<text text-anchor="middle" x="65.04" y="-12.57" font-family="Times New Roman,serif" font-size="14.00">:domain:model</text>
</g>
<!-- :data:room&#45;&gt;:domain:model -->
<g id="edge1" class="edge">
<title>:data:room&#45;&gt;:domain:model</title>
<path fill="none" stroke="black" d="M66.58,-216.64C58.85,-206.77 50.1,-193.52 46.04,-180 32.42,-134.67 44.89,-79.42 55.05,-46.84"/>
<polygon fill="black" stroke="black" points="58.24,-48.35 58.03,-37.76 51.59,-46.17 58.24,-48.35"/>
</g>
<!-- :domain:repository -->
<g id="node3" class="node">
<title>:domain:repository</title>
<ellipse fill="none" stroke="black" cx="135.04" cy="-162" rx="80.01" ry="18"/>
<text text-anchor="middle" x="135.04" y="-156.57" font-family="Times New Roman,serif" font-size="14.00">:domain:repository</text>
</g>
<!-- :data:room&#45;&gt;:domain:repository -->
<g id="edge2" class="edge">
<title>:data:room&#45;&gt;:domain:repository</title>
<path fill="none" stroke="red" stroke-width="2" d="M93.83,-216.41C100.13,-208.25 107.87,-198.22 114.93,-189.07"/>
<polygon fill="red" stroke="red" stroke-width="2" points="116.77,-192.41 120.11,-182.35 111.23,-188.13 116.77,-192.41"/>
</g>
<!-- :domain:repository&#45;&gt;:domain:model -->
<g id="edge3" class="edge">
<title>:domain:repository&#45;&gt;:domain:model</title>
<path fill="none" stroke="black" d="M114.01,-144.18C103.46,-134.65 91.4,-121.87 84.04,-108 74.11,-89.32 69.37,-65.83 67.11,-47.68"/>
<polygon fill="black" stroke="black" points="70.6,-47.44 66.08,-37.86 63.64,-48.17 70.6,-47.44"/>
</g>
<!-- :domain:framework -->
<g id="node4" class="node">
<title>:domain:framework</title>
<ellipse fill="none" stroke="black" cx="175.04" cy="-90" rx="82" ry="18"/>
<text text-anchor="middle" x="175.04" y="-84.58" font-family="Times New Roman,serif" font-size="14.00">:domain:framework</text>
</g>
<!-- :domain:repository&#45;&gt;:domain:framework -->
<g id="edge4" class="edge">
<title>:domain:repository&#45;&gt;:domain:framework</title>
<path fill="none" stroke="red" stroke-width="2" d="M144.92,-143.7C149.38,-135.9 154.75,-126.51 159.7,-117.83"/>
<polygon fill="red" stroke="red" stroke-width="2" points="161.84,-121.15 163.76,-110.73 155.76,-117.68 161.84,-121.15"/>
</g>
<!-- :domain:framework&#45;&gt;:domain:model -->
<g id="edge5" class="edge">
<title>:domain:framework&#45;&gt;:domain:model</title>
<path fill="none" stroke="red" stroke-width="2" d="M149.25,-72.59C134.52,-63.22 115.86,-51.34 99.85,-41.16"/>
<polygon fill="red" stroke="red" stroke-width="2" points="103.15,-39.11 92.84,-36.69 99.4,-45.01 103.15,-39.11"/>
</g>
</g>
</svg>
