<?xml version="1.0" encoding="UTF-8" standalone="no"?>
<!DOCTYPE svg PUBLIC "-//W3C//DTD SVG 1.1//EN"
 "http://www.w3.org/Graphics/SVG/1.1/DTD/svg11.dtd">
<!-- Generated by graphviz version 11.0.0 (20240428.1522)
 -->
<!-- Title: G Pages: 1 -->
<svg width="391pt" height="188pt"
 viewBox="0.00 0.00 390.66 188.00" xmlns="http://www.w3.org/2000/svg" xmlns:xlink="http://www.w3.org/1999/xlink">
<g id="graph0" class="graph" transform="scale(1 1) rotate(0) translate(4 184)">
<title>G</title>
<polygon fill="white" stroke="none" points="-4,4 -4,-184 386.66,-184 386.66,4 -4,4"/>
<!-- :data:repository -->
<g id="node1" class="node">
<title>:data:repository</title>
<ellipse fill="none" stroke="black" cx="247.57" cy="-162" rx="68.03" ry="18"/>
<text text-anchor="middle" x="247.57" y="-156.57" font-family="Times New Roman,serif" font-size="14.00">:data:repository</text>
</g>
<!-- :common -->
<g id="node2" class="node">
<title>:common</title>
<ellipse fill="none" stroke="black" cx="45.57" cy="-18" rx="45.57" ry="18"/>
<text text-anchor="middle" x="45.57" y="-12.57" font-family="Times New Roman,serif" font-size="14.00">:common</text>
</g>
<!-- :data:repository&#45;&gt;:common -->
<g id="edge1" class="edge">
<title>:data:repository&#45;&gt;:common</title>
<path fill="none" stroke="black" d="M197.34,-149.6C169.18,-141.4 134.6,-128.18 108.57,-108 87.24,-91.46 70.13,-65.73 59.15,-46.18"/>
<polygon fill="black" stroke="black" points="62.24,-44.53 54.42,-37.39 56.08,-47.85 62.24,-44.53"/>
</g>
<!-- :data:datastore -->
<g id="node3" class="node">
<title>:data:datastore</title>
<ellipse fill="none" stroke="black" cx="181.57" cy="-90" rx="64.04" ry="18"/>
<text text-anchor="middle" x="181.57" y="-84.58" font-family="Times New Roman,serif" font-size="14.00">:data:datastore</text>
</g>
<!-- :data:repository&#45;&gt;:data:datastore -->
<g id="edge2" class="edge">
<title>:data:repository&#45;&gt;:data:datastore</title>
<path fill="none" stroke="red" stroke-width="2" d="M231.6,-144.05C223.65,-135.63 213.9,-125.28 205.11,-115.97"/>
<polygon fill="red" stroke="red" stroke-width="2" points="208.89,-114.87 199.48,-109.99 203.79,-119.67 208.89,-114.87"/>
</g>
<!-- :data:room -->
<g id="node4" class="node">
<title>:data:room</title>
<ellipse fill="none" stroke="black" cx="313.57" cy="-90" rx="50.07" ry="18"/>
<text text-anchor="middle" x="313.57" y="-84.58" font-family="Times New Roman,serif" font-size="14.00">:data:room</text>
</g>
<!-- :data:repository&#45;&gt;:data:room -->
<g id="edge3" class="edge">
<title>:data:repository&#45;&gt;:data:room</title>
<path fill="none" stroke="black" d="M263.55,-144.05C271.61,-135.5 281.54,-124.97 290.42,-115.56"/>
<polygon fill="black" stroke="black" points="292.85,-118.09 297.16,-108.41 287.75,-113.28 292.85,-118.09"/>
</g>
<!-- :domain -->
<g id="node5" class="node">
<title>:domain</title>
<ellipse fill="none" stroke="black" cx="342.57" cy="-18" rx="40.09" ry="18"/>
<text text-anchor="middle" x="342.57" y="-12.57" font-family="Times New Roman,serif" font-size="14.00">:domain</text>
</g>
<!-- :data:repository&#45;&gt;:domain -->
<g id="edge4" class="edge">
<title>:data:repository&#45;&gt;:domain</title>
<path fill="none" stroke="black" d="M304,-151.62C329.46,-144.26 357.22,-131.19 372.57,-108 385.39,-88.64 374.67,-63.28 362.63,-44.58"/>
<polygon fill="black" stroke="black" points="365.57,-42.69 357,-36.47 359.82,-46.68 365.57,-42.69"/>
</g>
<!-- :data:datastore&#45;&gt;:common -->
<g id="edge6" class="edge">
<title>:data:datastore&#45;&gt;:common</title>
<path fill="none" stroke="black" d="M151.73,-73.64C131.44,-63.19 104.44,-49.3 82.75,-38.13"/>
<polygon fill="black" stroke="black" points="84.42,-35.06 73.93,-33.59 81.22,-41.28 84.42,-35.06"/>
</g>
<!-- :data:datastore&#45;&gt;:domain -->
<g id="edge7" class="edge">
<title>:data:datastore&#45;&gt;:domain</title>
<path fill="none" stroke="black" d="M215.33,-74.33C241.29,-63.04 277.19,-47.43 304.24,-35.67"/>
<polygon fill="black" stroke="black" points="305.34,-39.01 313.11,-31.81 302.55,-32.59 305.34,-39.01"/>
</g>
<!-- :data:datastore&#45;proto -->
<g id="node6" class="node">
<title>:data:datastore&#45;proto</title>
<ellipse fill="none" stroke="black" cx="196.57" cy="-18" rx="87.49" ry="18"/>
<text text-anchor="middle" x="196.57" y="-12.57" font-family="Times New Roman,serif" font-size="14.00">:data:datastore&#45;proto</text>
</g>
<!-- :data:datastore&#45;&gt;:data:datastore&#45;proto -->
<g id="edge5" class="edge">
<title>:data:datastore&#45;&gt;:data:datastore&#45;proto</title>
<path fill="none" stroke="red" stroke-width="2" d="M185.28,-71.7C186.86,-64.32 188.75,-55.52 190.52,-47.25"/>
<polygon fill="red" stroke="red" stroke-width="2" points="193.6,-49.58 192.28,-39.06 186.76,-48.11 193.6,-49.58"/>
</g>
<!-- :data:room&#45;&gt;:domain -->
<g id="edge8" class="edge">
<title>:data:room&#45;&gt;:domain</title>
<path fill="none" stroke="black" d="M320.74,-71.7C323.87,-64.15 327.61,-55.12 331.11,-46.68"/>
<polygon fill="black" stroke="black" points="334.32,-48.08 334.91,-37.5 327.85,-45.4 334.32,-48.08"/>
</g>
</g>
</svg>
