<?xml version="1.0" encoding="UTF-8" standalone="no"?>
<!DOCTYPE svg PUBLIC "-//W3C//DTD SVG 1.1//EN"
 "http://www.w3.org/Graphics/SVG/1.1/DTD/svg11.dtd">
<!-- Generated by graphviz version 11.0.0 (20240428.1522)
 -->
<!-- Title: G Pages: 1 -->
<svg width="246pt" height="116pt"
 viewBox="0.00 0.00 245.85 116.00" xmlns="http://www.w3.org/2000/svg" xmlns:xlink="http://www.w3.org/1999/xlink">
<g id="graph0" class="graph" transform="scale(1 1) rotate(0) translate(4 112)">
<title>G</title>
<polygon fill="white" stroke="none" points="-4,4 -4,-112 241.85,-112 241.85,4 -4,4"/>
<!-- :framework:package&#45;manager -->
<g id="node1" class="node">
<title>:framework:package&#45;manager</title>
<ellipse fill="none" stroke="black" cx="118.93" cy="-90" rx="118.93" ry="18"/>
<text text-anchor="middle" x="118.93" y="-84.58" font-family="Times New Roman,serif" font-size="14.00">:framework:package&#45;manager</text>
</g>
<!-- :common -->
<g id="node2" class="node">
<title>:common</title>
<ellipse fill="none" stroke="black" cx="66.93" cy="-18" rx="45.57" ry="18"/>
<text text-anchor="middle" x="66.93" y="-12.57" font-family="Times New Roman,serif" font-size="14.00">:common</text>
</g>
<!-- :framework:package&#45;manager&#45;&gt;:common -->
<g id="edge1" class="edge">
<title>:framework:package&#45;manager&#45;&gt;:common</title>
<path fill="none" stroke="red" stroke-width="2" d="M106.07,-71.7C100,-63.52 92.63,-53.6 85.93,-44.58"/>
<polygon fill="red" stroke="red" stroke-width="2" points="89.85,-43.99 81.08,-38.05 84.23,-48.17 89.85,-43.99"/>
</g>
<!-- :domain -->
<g id="node3" class="node">
<title>:domain</title>
<ellipse fill="none" stroke="black" cx="170.93" cy="-18" rx="40.09" ry="18"/>
<text text-anchor="middle" x="170.93" y="-12.57" font-family="Times New Roman,serif" font-size="14.00">:domain</text>
</g>
<!-- :framework:package&#45;manager&#45;&gt;:domain -->
<g id="edge2" class="edge">
<title>:framework:package&#45;manager&#45;&gt;:domain</title>
<path fill="none" stroke="black" d="M131.78,-71.7C137.85,-63.52 145.22,-53.6 151.92,-44.58"/>
<polygon fill="black" stroke="black" points="154.52,-46.95 157.68,-36.84 148.9,-42.78 154.52,-46.95"/>
</g>
</g>
</svg>
