<?xml version="1.0" encoding="UTF-8" standalone="no"?>
<!DOCTYPE svg PUBLIC "-//W3C//DTD SVG 1.1//EN"
 "http://www.w3.org/Graphics/SVG/1.1/DTD/svg11.dtd">
<!-- Generated by graphviz version 11.0.0 (20240428.1522)
 -->
<!-- Title: G Pages: 1 -->
<svg width="430pt" height="188pt"
 viewBox="0.00 0.00 430.48 188.00" xmlns="http://www.w3.org/2000/svg" xmlns:xlink="http://www.w3.org/1999/xlink">
<g id="graph0" class="graph" transform="scale(1 1) rotate(0) translate(4 184)">
<title>G</title>
<polygon fill="white" stroke="none" points="-4,4 -4,-184 426.48,-184 426.48,4 -4,4"/>
<!-- :feature:apps -->
<g id="node1" class="node">
<title>:feature:apps</title>
<ellipse fill="none" stroke="black" cx="159.53" cy="-162" rx="57.55" ry="18"/>
<text text-anchor="middle" x="159.53" y="-156.57" font-family="Times New Roman,serif" font-size="14.00">:feature:apps</text>
</g>
<!-- :design&#45;system -->
<g id="node2" class="node">
<title>:design&#45;system</title>
<ellipse fill="none" stroke="black" cx="65.53" cy="-90" rx="65.53" ry="18"/>
<text text-anchor="middle" x="65.53" y="-84.58" font-family="Times New Roman,serif" font-size="14.00">:design&#45;system</text>
</g>
<!-- :feature:apps&#45;&gt;:design&#45;system -->
<g id="edge1" class="edge">
<title>:feature:apps&#45;&gt;:design&#45;system</title>
<path fill="none" stroke="red" stroke-width="2" d="M138.2,-145.12C125.88,-135.94 110.16,-124.23 96.5,-114.06"/>
<polygon fill="red" stroke="red" stroke-width="2" points="99.97,-112.28 89.86,-109.11 95.79,-117.89 99.97,-112.28"/>
</g>
<!-- :domain:framework -->
<g id="node3" class="node">
<title>:domain:framework</title>
<ellipse fill="none" stroke="black" cx="269.53" cy="-90" rx="82" ry="18"/>
<text text-anchor="middle" x="269.53" y="-84.58" font-family="Times New Roman,serif" font-size="14.00">:domain:framework</text>
</g>
<!-- :feature:apps&#45;&gt;:domain:framework -->
<g id="edge2" class="edge">
<title>:feature:apps&#45;&gt;:domain:framework</title>
<path fill="none" stroke="black" d="M184.22,-145.29C199.05,-135.86 218.15,-123.7 234.52,-113.29"/>
<polygon fill="black" stroke="black" points="235.95,-116.52 242.51,-108.2 232.19,-110.62 235.95,-116.52"/>
</g>
<!-- :domain:model -->
<g id="node4" class="node">
<title>:domain:model</title>
<ellipse fill="none" stroke="black" cx="117.53" cy="-18" rx="65.04" ry="18"/>
<text text-anchor="middle" x="117.53" y="-12.57" font-family="Times New Roman,serif" font-size="14.00">:domain:model</text>
</g>
<!-- :feature:apps&#45;&gt;:domain:model -->
<g id="edge3" class="edge">
<title>:feature:apps&#45;&gt;:domain:model</title>
<path fill="none" stroke="black" d="M156.89,-143.67C153.88,-125.54 148.34,-96.38 140.53,-72 137.84,-63.59 134.28,-54.7 130.77,-46.66"/>
<polygon fill="black" stroke="black" points="134.03,-45.38 126.72,-37.71 127.66,-48.26 134.03,-45.38"/>
</g>
<!-- :design&#45;system&#45;&gt;:domain:model -->
<g id="edge4" class="edge">
<title>:design&#45;system&#45;&gt;:domain:model</title>
<path fill="none" stroke="red" stroke-width="2" d="M78.12,-72.05C84.19,-63.89 91.6,-53.91 98.35,-44.82"/>
<polygon fill="red" stroke="red" stroke-width="2" points="100.1,-48.33 103.26,-38.22 94.48,-44.16 100.1,-48.33"/>
</g>
<!-- :domain:framework&#45;&gt;:domain:model -->
<g id="edge5" class="edge">
<title>:domain:framework&#45;&gt;:domain:model</title>
<path fill="none" stroke="black" d="M235.42,-73.29C213.16,-63.04 183.92,-49.57 160.13,-38.62"/>
<polygon fill="black" stroke="black" points="161.89,-35.57 151.35,-34.57 158.96,-41.93 161.89,-35.57"/>
</g>
<!-- :domain:broadcast&#45;receiver -->
<g id="node5" class="node">
<title>:domain:broadcast&#45;receiver</title>
<ellipse fill="none" stroke="black" cx="311.53" cy="-18" rx="110.94" ry="18"/>
<text text-anchor="middle" x="311.53" y="-12.57" font-family="Times New Roman,serif" font-size="14.00">:domain:broadcast&#45;receiver</text>
</g>
<!-- :domain:framework&#45;&gt;:domain:broadcast&#45;receiver -->
<g id="edge6" class="edge">
<title>:domain:framework&#45;&gt;:domain:broadcast&#45;receiver</title>
<path fill="none" stroke="black" d="M279.92,-71.7C284.6,-63.9 290.23,-54.51 295.44,-45.83"/>
<polygon fill="black" stroke="black" points="298.35,-47.78 300.49,-37.4 292.35,-44.18 298.35,-47.78"/>
</g>
</g>
</svg>
