<?xml version="1.0" encoding="UTF-8" standalone="no"?>
<!DOCTYPE svg PUBLIC "-//W3C//DTD SVG 1.1//EN"
 "http://www.w3.org/Graphics/SVG/1.1/DTD/svg11.dtd">
<!-- Generated by graphviz version 11.0.0 (20240428.1522)
 -->
<!-- Title: G Pages: 1 -->
<svg width="360pt" height="260pt"
 viewBox="0.00 0.00 359.54 260.00" xmlns="http://www.w3.org/2000/svg" xmlns:xlink="http://www.w3.org/1999/xlink">
<g id="graph0" class="graph" transform="scale(1 1) rotate(0) translate(4 256)">
<title>G</title>
<polygon fill="white" stroke="none" points="-4,4 -4,-256 355.54,-256 355.54,4 -4,4"/>
<!-- :feature:settings -->
<g id="node1" class="node">
<title>:feature:settings</title>
<ellipse fill="none" stroke="black" cx="119.53" cy="-234" rx="67.53" ry="18"/>
<text text-anchor="middle" x="119.53" y="-228.57" font-family="Times New Roman,serif" font-size="14.00">:feature:settings</text>
</g>
<!-- :design&#45;system -->
<g id="node2" class="node">
<title>:design&#45;system</title>
<ellipse fill="none" stroke="black" cx="65.53" cy="-90" rx="65.53" ry="18"/>
<text text-anchor="middle" x="65.53" y="-84.58" font-family="Times New Roman,serif" font-size="14.00">:design&#45;system</text>
</g>
<!-- :feature:settings&#45;&gt;:design&#45;system -->
<g id="edge1" class="edge">
<title>:feature:settings&#45;&gt;:design&#45;system</title>
<path fill="none" stroke="black" d="M106.13,-216.26C98.74,-206.27 89.99,-193.02 84.53,-180 76.44,-160.7 71.64,-137.55 68.89,-119.7"/>
<polygon fill="black" stroke="black" points="72.35,-119.22 67.5,-109.8 65.42,-120.19 72.35,-119.22"/>
</g>
<!-- :domain:repository -->
<g id="node3" class="node">
<title>:domain:repository</title>
<ellipse fill="none" stroke="black" cx="173.53" cy="-162" rx="80.01" ry="18"/>
<text text-anchor="middle" x="173.53" y="-156.57" font-family="Times New Roman,serif" font-size="14.00">:domain:repository</text>
</g>
<!-- :feature:settings&#45;&gt;:domain:repository -->
<g id="edge2" class="edge">
<title>:feature:settings&#45;&gt;:domain:repository</title>
<path fill="none" stroke="red" stroke-width="2" d="M132.61,-216.05C138.91,-207.89 146.6,-197.91 153.61,-188.82"/>
<polygon fill="red" stroke="red" stroke-width="2" points="155.4,-192.24 158.73,-182.19 149.85,-187.97 155.4,-192.24"/>
</g>
<!-- :domain:model -->
<g id="node4" class="node">
<title>:domain:model</title>
<ellipse fill="none" stroke="black" cx="159.53" cy="-18" rx="65.04" ry="18"/>
<text text-anchor="middle" x="159.53" y="-12.57" font-family="Times New Roman,serif" font-size="14.00">:domain:model</text>
</g>
<!-- :design&#45;system&#45;&gt;:domain:model -->
<g id="edge3" class="edge">
<title>:design&#45;system&#45;&gt;:domain:model</title>
<path fill="none" stroke="black" d="M87.34,-72.76C99.59,-63.64 115.08,-52.1 128.57,-42.06"/>
<polygon fill="black" stroke="black" points="130.38,-45.07 136.31,-36.29 126.2,-39.46 130.38,-45.07"/>
</g>
<!-- :domain:repository&#45;&gt;:domain:model -->
<g id="edge4" class="edge">
<title>:domain:repository&#45;&gt;:domain:model</title>
<path fill="none" stroke="black" d="M171.82,-143.59C169.45,-119.61 165.17,-76.14 162.34,-47.42"/>
<polygon fill="black" stroke="black" points="165.83,-47.23 161.37,-37.62 158.87,-47.91 165.83,-47.23"/>
</g>
<!-- :domain:framework -->
<g id="node5" class="node">
<title>:domain:framework</title>
<ellipse fill="none" stroke="black" cx="269.53" cy="-90" rx="82" ry="18"/>
<text text-anchor="middle" x="269.53" y="-84.58" font-family="Times New Roman,serif" font-size="14.00">:domain:framework</text>
</g>
<!-- :domain:repository&#45;&gt;:domain:framework -->
<g id="edge5" class="edge">
<title>:domain:repository&#45;&gt;:domain:framework</title>
<path fill="none" stroke="red" stroke-width="2" d="M196.29,-144.41C208.63,-135.41 224.09,-124.14 237.62,-114.27"/>
<polygon fill="red" stroke="red" stroke-width="2" points="238.15,-118.22 244.17,-109.5 234.03,-112.56 238.15,-118.22"/>
</g>
<!-- :domain:framework&#45;&gt;:domain:model -->
<g id="edge6" class="edge">
<title>:domain:framework&#45;&gt;:domain:model</title>
<path fill="none" stroke="red" stroke-width="2" d="M243.74,-72.59C229.02,-63.22 210.36,-51.34 194.35,-41.16"/>
<polygon fill="red" stroke="red" stroke-width="2" points="197.65,-39.11 187.34,-36.69 193.9,-45.01 197.65,-39.11"/>
</g>
</g>
</svg>
