<?xml version="1.0" encoding="UTF-8" standalone="no"?>
<!DOCTYPE svg PUBLIC "-//W3C//DTD SVG 1.1//EN"
 "http://www.w3.org/Graphics/SVG/1.1/DTD/svg11.dtd">
<!-- Generated by graphviz version 11.0.0 (20240428.1522)
 -->
<!-- Title: G Pages: 1 -->
<svg width="3294pt" height="260pt"
 viewBox="0.00 0.00 3294.08 260.00" xmlns="http://www.w3.org/2000/svg" xmlns:xlink="http://www.w3.org/1999/xlink">
<g id="graph0" class="graph" transform="scale(1 1) rotate(0) translate(4 256)">
<title>G</title>
<polygon fill="white" stroke="none" points="-4,4 -4,-256 3290.08,-256 3290.08,4 -4,4"/>
<!-- :app -->
<g id="node1" class="node">
<title>:app</title>
<ellipse fill="none" stroke="black" cx="1992.93" cy="-234" rx="27" ry="18"/>
<text text-anchor="middle" x="1992.93" y="-228.57" font-family="Times New Roman,serif" font-size="14.00">:app</text>
</g>
<!-- :core:data -->
<g id="node2" class="node">
<title>:core:data</title>
<ellipse fill="none" stroke="black" cx="1992.93" cy="-162" rx="46.57" ry="18"/>
<text text-anchor="middle" x="1992.93" y="-156.57" font-family="Times New Roman,serif" font-size="14.00">:core:data</text>
</g>
<!-- :app&#45;&gt;:core:data -->
<g id="edge1" class="edge">
<title>:app&#45;&gt;:core:data</title>
<path fill="none" stroke="red" stroke-width="2" d="M1992.93,-215.7C1992.93,-208.41 1992.93,-199.73 1992.93,-191.54"/>
<polygon fill="red" stroke="red" stroke-width="2" points="1996.43,-193.13 1992.93,-183.13 1989.43,-193.13 1996.43,-193.13"/>
</g>
<!-- :core:design&#45;system -->
<g id="node3" class="node">
<title>:core:design&#45;system</title>
<ellipse fill="none" stroke="black" cx="2899.93" cy="-18" rx="84" ry="18"/>
<text text-anchor="middle" x="2899.93" y="-12.57" font-family="Times New Roman,serif" font-size="14.00">:core:design&#45;system</text>
</g>
<!-- :app&#45;&gt;:core:design&#45;system -->
<g id="edge2" class="edge">
<title>:app&#45;&gt;:core:design&#45;system</title>
<path fill="none" stroke="black" d="M2020.24,-232.92C2201.19,-232.27 3221.28,-226.54 3265.93,-180 3355.43,-86.69 3120.94,-43.93 2986.53,-27.56"/>
<polygon fill="black" stroke="black" points="2987.29,-24.13 2976.95,-26.42 2986.47,-31.08 2987.29,-24.13"/>
</g>
<!-- :core:domain -->
<g id="node4" class="node">
<title>:core:domain</title>
<ellipse fill="none" stroke="black" cx="2371.93" cy="-18" rx="58.55" ry="18"/>
<text text-anchor="middle" x="2371.93" y="-12.57" font-family="Times New Roman,serif" font-size="14.00">:core:domain</text>
</g>
<!-- :app&#45;&gt;:core:domain -->
<g id="edge3" class="edge">
<title>:app&#45;&gt;:core:domain</title>
<path fill="none" stroke="black" d="M2008.03,-218.7C2034.6,-193.54 2086.93,-144 2086.93,-144 2163.13,-109.33 2405.63,-169.96 2461.93,-108 2472.69,-96.16 2469.87,-85.89 2461.93,-72 2452.92,-56.25 2437.2,-44.71 2421.4,-36.5"/>
<polygon fill="black" stroke="black" points="2422.96,-33.37 2412.43,-32.23 2419.95,-39.69 2422.96,-33.37"/>
</g>
<!-- :feature:apps -->
<g id="node5" class="node">
<title>:feature:apps</title>
<ellipse fill="none" stroke="black" cx="2758.93" cy="-162" rx="57.55" ry="18"/>
<text text-anchor="middle" x="2758.93" y="-156.57" font-family="Times New Roman,serif" font-size="14.00">:feature:apps</text>
</g>
<!-- :app&#45;&gt;:feature:apps -->
<g id="edge4" class="edge">
<title>:app&#45;&gt;:feature:apps</title>
<path fill="none" stroke="black" d="M2020.16,-232.66C2114.16,-231.13 2433.5,-222.89 2692.93,-180 2697.33,-179.27 2701.87,-178.39 2706.41,-177.41"/>
<polygon fill="black" stroke="black" points="2707.19,-180.83 2716.15,-175.17 2705.62,-174 2707.19,-180.83"/>
</g>
<!-- :feature:app&#45;settings -->
<g id="node6" class="node">
<title>:feature:app&#45;settings</title>
<ellipse fill="none" stroke="black" cx="2445.93" cy="-162" rx="84.5" ry="18"/>
<text text-anchor="middle" x="2445.93" y="-156.57" font-family="Times New Roman,serif" font-size="14.00">:feature:app&#45;settings</text>
</g>
<!-- :app&#45;&gt;:feature:app&#45;settings -->
<g id="edge5" class="edge">
<title>:app&#45;&gt;:feature:app&#45;settings</title>
<path fill="none" stroke="black" d="M2019.17,-229.45C2078.66,-221.35 2228.26,-200.56 2352.93,-180 2359.36,-178.94 2366.03,-177.8 2372.72,-176.63"/>
<polygon fill="black" stroke="black" points="2373.22,-180.09 2382.46,-174.9 2372,-173.2 2373.22,-180.09"/>
</g>
<!-- :feature:home -->
<g id="node7" class="node">
<title>:feature:home</title>
<ellipse fill="none" stroke="black" cx="3196.93" cy="-162" rx="60.05" ry="18"/>
<text text-anchor="middle" x="3196.93" y="-156.57" font-family="Times New Roman,serif" font-size="14.00">:feature:home</text>
</g>
<!-- :app&#45;&gt;:feature:home -->
<g id="edge6" class="edge">
<title>:app&#45;&gt;:feature:home</title>
<path fill="none" stroke="black" d="M2020.19,-232.45C2170.97,-229.29 2904.16,-212.47 3127.93,-180 3132.87,-179.28 3137.97,-178.37 3143.06,-177.34"/>
<polygon fill="black" stroke="black" points="3143.62,-180.8 3152.64,-175.24 3142.12,-173.96 3143.62,-180.8"/>
</g>
<!-- :feature:service -->
<g id="node8" class="node">
<title>:feature:service</title>
<ellipse fill="none" stroke="black" cx="2899.93" cy="-162" rx="65.53" ry="18"/>
<text text-anchor="middle" x="2899.93" y="-156.57" font-family="Times New Roman,serif" font-size="14.00">:feature:service</text>
</g>
<!-- :app&#45;&gt;:feature:service -->
<g id="edge7" class="edge">
<title>:app&#45;&gt;:feature:service</title>
<path fill="none" stroke="black" d="M2020.06,-232.87C2124.66,-232.03 2511.53,-225.81 2825.93,-180 2831.19,-179.23 2836.64,-178.28 2842.08,-177.23"/>
<polygon fill="black" stroke="black" points="2842.6,-180.7 2851.69,-175.25 2841.19,-173.84 2842.6,-180.7"/>
</g>
<!-- :feature:settings -->
<g id="node9" class="node">
<title>:feature:settings</title>
<ellipse fill="none" stroke="black" cx="3050.93" cy="-162" rx="67.53" ry="18"/>
<text text-anchor="middle" x="3050.93" y="-156.57" font-family="Times New Roman,serif" font-size="14.00">:feature:settings</text>
</g>
<!-- :app&#45;&gt;:feature:settings -->
<g id="edge8" class="edge">
<title>:app&#45;&gt;:feature:settings</title>
<path fill="none" stroke="black" d="M2020.03,-233.18C2135.67,-233.61 2599.03,-231.82 2974.93,-180 2980.48,-179.23 2986.22,-178.27 2991.95,-177.2"/>
<polygon fill="black" stroke="black" points="2992.3,-180.7 3001.42,-175.3 2990.92,-173.83 2992.3,-180.7"/>
</g>
<!-- :feature:shizuku -->
<g id="node10" class="node">
<title>:feature:shizuku</title>
<ellipse fill="none" stroke="black" cx="2615.93" cy="-162" rx="67.53" ry="18"/>
<text text-anchor="middle" x="2615.93" y="-156.57" font-family="Times New Roman,serif" font-size="14.00">:feature:shizuku</text>
</g>
<!-- :app&#45;&gt;:feature:shizuku -->
<g id="edge9" class="edge">
<title>:app&#45;&gt;:feature:shizuku</title>
<path fill="none" stroke="black" d="M2020.06,-231.53C2099.95,-226.94 2341.15,-211.31 2538.93,-180 2544.45,-179.13 2550.17,-178.1 2555.88,-176.99"/>
<polygon fill="black" stroke="black" points="2556.22,-180.49 2565.32,-175.07 2554.82,-173.63 2556.22,-180.49"/>
</g>
<!-- :broadcast&#45;receiver -->
<g id="node11" class="node">
<title>:broadcast&#45;receiver</title>
<ellipse fill="none" stroke="black" cx="613.93" cy="-90" rx="81.5" ry="18"/>
<text text-anchor="middle" x="613.93" y="-84.58" font-family="Times New Roman,serif" font-size="14.00">:broadcast&#45;receiver</text>
</g>
<!-- :app&#45;&gt;:broadcast&#45;receiver -->
<g id="edge10" class="edge">
<title>:app&#45;&gt;:broadcast&#45;receiver</title>
<path fill="none" stroke="black" d="M1965.98,-231.19C1876.37,-225.11 1580.17,-204.38 1335.93,-180 1066.48,-153.11 999.38,-143.47 730.93,-108 718.05,-106.3 704.39,-104.4 691.12,-102.5"/>
<polygon fill="black" stroke="black" points="691.99,-99.09 681.59,-101.13 690.99,-106.02 691.99,-99.09"/>
</g>
<!-- :foreground&#45;service -->
<g id="node12" class="node">
<title>:foreground&#45;service</title>
<ellipse fill="none" stroke="black" cx="1112.93" cy="-90" rx="83" ry="18"/>
<text text-anchor="middle" x="1112.93" y="-84.58" font-family="Times New Roman,serif" font-size="14.00">:foreground&#45;service</text>
</g>
<!-- :app&#45;&gt;:foreground&#45;service -->
<g id="edge11" class="edge">
<title>:app&#45;&gt;:foreground&#45;service</title>
<path fill="none" stroke="black" d="M1966.59,-229.21C1914.06,-221.48 1792.62,-202.65 1691.93,-180 1633.02,-166.75 1620.28,-155.08 1560.93,-144 1404.6,-114.83 1362.36,-130.47 1204.93,-108 1198.07,-107.02 1190.94,-105.9 1183.82,-104.7"/>
<polygon fill="black" stroke="black" points="1184.63,-101.29 1174.18,-103.04 1183.44,-108.19 1184.63,-101.29"/>
</g>
<!-- :framework:asset&#45;manager -->
<g id="node13" class="node">
<title>:framework:asset&#45;manager</title>
<ellipse fill="none" stroke="black" cx="1320.93" cy="-90" rx="106.95" ry="18"/>
<text text-anchor="middle" x="1320.93" y="-84.58" font-family="Times New Roman,serif" font-size="14.00">:framework:asset&#45;manager</text>
</g>
<!-- :app&#45;&gt;:framework:asset&#45;manager -->
<g id="edge12" class="edge">
<title>:app&#45;&gt;:framework:asset&#45;manager</title>
<path fill="none" stroke="black" d="M1966.95,-228.03C1925.99,-219.88 1844.17,-202.33 1776.93,-180 1737.99,-167.07 1731.46,-154.96 1691.93,-144 1581.63,-113.42 1550.22,-124.3 1436.93,-108 1428.43,-106.78 1419.58,-105.5 1410.73,-104.21"/>
<polygon fill="black" stroke="black" points="1411.44,-100.77 1401.04,-102.8 1410.43,-107.7 1411.44,-100.77"/>
</g>
<!-- :framework:clipboard&#45;manager -->
<g id="node14" class="node">
<title>:framework:clipboard&#45;manager</title>
<ellipse fill="none" stroke="black" cx="2219.93" cy="-162" rx="123.92" ry="18"/>
<text text-anchor="middle" x="2219.93" y="-156.57" font-family="Times New Roman,serif" font-size="14.00">:framework:clipboard&#45;manager</text>
</g>
<!-- :app&#45;&gt;:framework:clipboard&#45;manager -->
<g id="edge13" class="edge">
<title>:app&#45;&gt;:framework:clipboard&#45;manager</title>
<path fill="none" stroke="black" d="M2017.22,-225.51C2050.47,-215.26 2111.31,-196.5 2157.69,-182.19"/>
<polygon fill="black" stroke="black" points="2158.57,-185.58 2167.1,-179.29 2156.51,-178.89 2158.57,-185.58"/>
</g>
<!-- :framework:notification&#45;manager -->
<g id="node15" class="node">
<title>:framework:notification&#45;manager</title>
<ellipse fill="none" stroke="black" cx="881.93" cy="-90" rx="129.91" ry="18"/>
<text text-anchor="middle" x="881.93" y="-84.58" font-family="Times New Roman,serif" font-size="14.00">:framework:notification&#45;manager</text>
</g>
<!-- :app&#45;&gt;:framework:notification&#45;manager -->
<g id="edge14" class="edge">
<title>:app&#45;&gt;:framework:notification&#45;manager</title>
<path fill="none" stroke="black" d="M1966.09,-230.05C1898.16,-222.52 1713.93,-201.62 1560.93,-180 1460.65,-165.83 1436.26,-157.75 1335.93,-144 1196.32,-124.86 1160.86,-124.55 1020.93,-108 1010.15,-106.73 998.91,-105.38 987.69,-104.02"/>
<polygon fill="black" stroke="black" points="988.35,-100.58 978,-102.85 987.51,-107.53 988.35,-100.58"/>
</g>
<!-- :framework:package&#45;manager -->
<g id="node16" class="node">
<title>:framework:package&#45;manager</title>
<ellipse fill="none" stroke="black" cx="1564.93" cy="-90" rx="118.93" ry="18"/>
<text text-anchor="middle" x="1564.93" y="-84.58" font-family="Times New Roman,serif" font-size="14.00">:framework:package&#45;manager</text>
</g>
<!-- :app&#45;&gt;:framework:package&#45;manager -->
<g id="edge15" class="edge">
<title>:app&#45;&gt;:framework:package&#45;manager</title>
<path fill="none" stroke="black" d="M1971.25,-222.83C1932.77,-205.05 1849.74,-167.96 1776.93,-144 1733.45,-129.69 1683.86,-117.1 1643.58,-107.78"/>
<polygon fill="black" stroke="black" points="1644.48,-104.4 1633.95,-105.58 1642.92,-111.22 1644.48,-104.4"/>
</g>
<!-- :framework:secure&#45;settings -->
<g id="node17" class="node">
<title>:framework:secure&#45;settings</title>
<ellipse fill="none" stroke="black" cx="1810.93" cy="-90" rx="109.45" ry="18"/>
<text text-anchor="middle" x="1810.93" y="-84.58" font-family="Times New Roman,serif" font-size="14.00">:framework:secure&#45;settings</text>
</g>
<!-- :app&#45;&gt;:framework:secure&#45;settings -->
<g id="edge16" class="edge">
<title>:app&#45;&gt;:framework:secure&#45;settings</title>
<path fill="none" stroke="black" d="M1975.81,-219.64C1945,-195.61 1879.87,-144.79 1841.33,-114.72"/>
<polygon fill="black" stroke="black" points="1843.83,-112.24 1833.8,-108.84 1839.53,-117.75 1843.83,-112.24"/>
</g>
<!-- :framework:shizuku -->
<g id="node18" class="node">
<title>:framework:shizuku</title>
<ellipse fill="none" stroke="black" cx="2058.93" cy="-90" rx="82.5" ry="18"/>
<text text-anchor="middle" x="2058.93" y="-84.58" font-family="Times New Roman,serif" font-size="14.00">:framework:shizuku</text>
</g>
<!-- :app&#45;&gt;:framework:shizuku -->
<g id="edge17" class="edge">
<title>:app&#45;&gt;:framework:shizuku</title>
<path fill="none" stroke="black" d="M1973.7,-221.02C1960.62,-211.65 1944.39,-197.34 1936.93,-180 1930.6,-165.3 1928.15,-157.38 1936.93,-144 1948.63,-126.16 1967.78,-114.29 1987.47,-106.41"/>
<polygon fill="black" stroke="black" points="1988.48,-109.77 1996.68,-103.05 1986.08,-103.19 1988.48,-109.77"/>
</g>
<!-- :framework:shortcut&#45;manager -->
<g id="node19" class="node">
<title>:framework:shortcut&#45;manager</title>
<ellipse fill="none" stroke="black" cx="118.93" cy="-90" rx="118.93" ry="18"/>
<text text-anchor="middle" x="118.93" y="-84.58" font-family="Times New Roman,serif" font-size="14.00">:framework:shortcut&#45;manager</text>
</g>
<!-- :app&#45;&gt;:framework:shortcut&#45;manager -->
<g id="edge18" class="edge">
<title>:app&#45;&gt;:framework:shortcut&#45;manager</title>
<path fill="none" stroke="black" d="M1965.77,-232.89C1831.47,-232.13 1224.92,-226.17 730.93,-180 542.19,-162.36 322.69,-126.72 204.63,-106.3"/>
<polygon fill="black" stroke="black" points="205.47,-102.89 195.02,-104.63 204.28,-109.79 205.47,-102.89"/>
</g>
<!-- :framework:usage&#45;stats&#45;manager -->
<g id="node20" class="node">
<title>:framework:usage&#45;stats&#45;manager</title>
<ellipse fill="none" stroke="black" cx="384.93" cy="-90" rx="129.41" ry="18"/>
<text text-anchor="middle" x="384.93" y="-84.58" font-family="Times New Roman,serif" font-size="14.00">:framework:usage&#45;stats&#45;manager</text>
</g>
<!-- :app&#45;&gt;:framework:usage&#45;stats&#45;manager -->
<g id="edge19" class="edge">
<title>:app&#45;&gt;:framework:usage&#45;stats&#45;manager</title>
<path fill="none" stroke="black" d="M1965.86,-232.41C1850.35,-229.73 1387.34,-217.1 1008.93,-180 818.3,-161.31 596.64,-126.57 475.49,-106.47"/>
<polygon fill="black" stroke="black" points="476.38,-103.07 465.94,-104.88 475.23,-109.97 476.38,-103.07"/>
</g>
<!-- :core:data&#45;&gt;:core:domain -->
<g id="edge23" class="edge">
<title>:core:data&#45;&gt;:core:domain</title>
<path fill="none" stroke="black" d="M2028.48,-149.93C2036.77,-147.68 2045.6,-145.53 2053.93,-144 2096.84,-136.11 2415.53,-140.23 2444.93,-108 2455.71,-96.18 2452.19,-86.25 2444.93,-72 2438.01,-58.43 2425.82,-47.53 2413.36,-39.22"/>
<polygon fill="black" stroke="black" points="2415.5,-36.43 2405.15,-34.16 2411.83,-42.39 2415.5,-36.43"/>
</g>
<!-- :core:common -->
<g id="node21" class="node">
<title>:core:common</title>
<ellipse fill="none" stroke="black" cx="1216.93" cy="-18" rx="64.04" ry="18"/>
<text text-anchor="middle" x="1216.93" y="-12.57" font-family="Times New Roman,serif" font-size="14.00">:core:common</text>
</g>
<!-- :core:data&#45;&gt;:core:common -->
<g id="edge20" class="edge">
<title>:core:data&#45;&gt;:core:common</title>
<path fill="none" stroke="black" d="M1946.33,-159.9C1722.1,-154.5 764.16,-130.15 742.93,-108 731.86,-96.45 732.26,-83.93 742.93,-72 769.05,-42.79 1015.69,-27.8 1142.46,-21.97"/>
<polygon fill="black" stroke="black" points="1142.25,-25.48 1152.09,-21.54 1141.94,-18.49 1142.25,-25.48"/>
</g>
<!-- :core:database -->
<g id="node22" class="node">
<title>:core:database</title>
<ellipse fill="none" stroke="black" cx="2371.93" cy="-90" rx="63.54" ry="18"/>
<text text-anchor="middle" x="2371.93" y="-84.58" font-family="Times New Roman,serif" font-size="14.00">:core:database</text>
</g>
<!-- :core:data&#45;&gt;:core:database -->
<g id="edge21" class="edge">
<title>:core:data&#45;&gt;:core:database</title>
<path fill="none" stroke="red" stroke-width="2" d="M2028.87,-150.17C2037.06,-147.93 2045.75,-145.73 2053.93,-144 2161.59,-121.18 2190.79,-128.5 2298.93,-108 2303.81,-107.08 2308.85,-106.05 2313.91,-104.97"/>
<polygon fill="red" stroke="red" stroke-width="2" points="2312.95,-108.76 2321.97,-103.2 2311.45,-101.93 2312.95,-108.76"/>
</g>
<!-- :core:datastore -->
<g id="node23" class="node">
<title>:core:datastore</title>
<ellipse fill="none" stroke="black" cx="2224.93" cy="-90" rx="65.04" ry="18"/>
<text text-anchor="middle" x="2224.93" y="-84.58" font-family="Times New Roman,serif" font-size="14.00">:core:datastore</text>
</g>
<!-- :core:data&#45;&gt;:core:datastore -->
<g id="edge22" class="edge">
<title>:core:data&#45;&gt;:core:datastore</title>
<path fill="none" stroke="black" d="M2028.92,-150.14C2066.97,-138.66 2127.42,-120.42 2171.13,-107.23"/>
<polygon fill="black" stroke="black" points="2172.13,-110.59 2180.69,-104.35 2170.11,-103.88 2172.13,-110.59"/>
</g>
<!-- :feature:apps&#45;&gt;:core:design&#45;system -->
<g id="edge28" class="edge">
<title>:feature:apps&#45;&gt;:core:design&#45;system</title>
<path fill="none" stroke="black" d="M2788.78,-146.38C2805.94,-137.01 2827.15,-123.68 2842.93,-108 2861.08,-89.97 2876.36,-65.19 2886.52,-46.35"/>
<polygon fill="black" stroke="black" points="2889.54,-48.13 2891.06,-37.65 2883.33,-44.9 2889.54,-48.13"/>
</g>
<!-- :feature:apps&#45;&gt;:core:domain -->
<g id="edge30" class="edge">
<title>:feature:apps&#45;&gt;:core:domain</title>
<path fill="none" stroke="black" d="M2735.39,-145.26C2704.89,-125.52 2649.49,-91.86 2597.93,-72 2544.42,-51.39 2480.59,-37.32 2434.43,-28.88"/>
<polygon fill="black" stroke="black" points="2435.34,-25.49 2424.88,-27.18 2434.11,-32.38 2435.34,-25.49"/>
</g>
<!-- :core:ui -->
<g id="node25" class="node">
<title>:core:ui</title>
<ellipse fill="none" stroke="black" cx="2795.93" cy="-90" rx="37.59" ry="18"/>
<text text-anchor="middle" x="2795.93" y="-84.58" font-family="Times New Roman,serif" font-size="14.00">:core:ui</text>
</g>
<!-- :feature:apps&#45;&gt;:core:ui -->
<g id="edge29" class="edge">
<title>:feature:apps&#45;&gt;:core:ui</title>
<path fill="none" stroke="black" d="M2767.88,-144.05C2772.07,-136.14 2777.14,-126.54 2781.82,-117.69"/>
<polygon fill="black" stroke="black" points="2784.77,-119.6 2786.35,-109.13 2778.58,-116.33 2784.77,-119.6"/>
</g>
<!-- :feature:app&#45;settings&#45;&gt;:core:design&#45;system -->
<g id="edge33" class="edge">
<title>:feature:app&#45;settings&#45;&gt;:core:design&#45;system</title>
<path fill="none" stroke="black" d="M2483.38,-145.43C2529.87,-126.48 2611.84,-94.24 2683.93,-72 2732.36,-57.06 2787.92,-43.5 2830.56,-33.84"/>
<polygon fill="black" stroke="black" points="2831.2,-37.29 2840.19,-31.68 2829.66,-30.46 2831.2,-37.29"/>
</g>
<!-- :feature:app&#45;settings&#45;&gt;:core:domain -->
<g id="edge36" class="edge">
<title>:feature:app&#45;settings&#45;&gt;:core:domain</title>
<path fill="none" stroke="black" d="M2499.95,-147.76C2520.52,-139.8 2541.89,-127.32 2553.93,-108 2562.39,-94.42 2563.53,-84.8 2553.93,-72 2539.38,-52.61 2481.28,-37.98 2434.59,-29.06"/>
<polygon fill="black" stroke="black" points="2435.26,-25.62 2424.79,-27.24 2433.98,-32.5 2435.26,-25.62"/>
</g>
<!-- :feature:app&#45;settings&#45;&gt;:core:common -->
<g id="edge35" class="edge">
<title>:feature:app&#45;settings&#45;&gt;:core:common</title>
<path fill="none" stroke="black" d="M2385.52,-149.16C2374.69,-147.27 2363.5,-145.46 2352.93,-144 2267.58,-132.24 2045.39,-143.58 1966.93,-108 1945.74,-98.39 1950.2,-81.41 1928.93,-72 1816.63,-22.34 1451.71,-17.8 1292.44,-18.29"/>
<polygon fill="black" stroke="black" points="1292.83,-14.79 1282.84,-18.32 1292.86,-21.79 1292.83,-14.79"/>
</g>
<!-- :feature:app&#45;settings&#45;&gt;:core:ui -->
<g id="edge34" class="edge">
<title>:feature:app&#45;settings&#45;&gt;:core:ui</title>
<path fill="none" stroke="black" d="M2506.09,-148.97C2575.65,-135.06 2688.52,-112.48 2750.9,-100"/>
<polygon fill="black" stroke="black" points="2751.34,-103.49 2760.46,-98.09 2749.97,-96.62 2751.34,-103.49"/>
</g>
<!-- :feature:home&#45;&gt;:core:design&#45;system -->
<g id="edge37" class="edge">
<title>:feature:home&#45;&gt;:core:design&#45;system</title>
<path fill="none" stroke="black" d="M3169.32,-145.6C3136,-127.23 3078.04,-95.99 3026.93,-72 3001.79,-60.2 2973.31,-48.2 2949.7,-38.6"/>
<polygon fill="black" stroke="black" points="2951.21,-35.44 2940.62,-34.94 2948.59,-41.93 2951.21,-35.44"/>
</g>
<!-- :feature:home&#45;&gt;:core:ui -->
<g id="edge38" class="edge">
<title>:feature:home&#45;&gt;:core:ui</title>
<path fill="none" stroke="black" d="M3152.51,-149.48C3144.36,-147.53 3135.91,-145.62 3127.93,-144 3027.01,-123.55 2907.53,-106.12 2842.98,-97.25"/>
<polygon fill="black" stroke="black" points="2843.85,-93.84 2833.47,-95.96 2842.9,-100.78 2843.85,-93.84"/>
</g>
<!-- :feature:service&#45;&gt;:core:design&#45;system -->
<g id="edge39" class="edge">
<title>:feature:service&#45;&gt;:core:design&#45;system</title>
<path fill="none" stroke="black" d="M2905.61,-144.04C2908.75,-133.74 2912.33,-120.27 2913.93,-108 2915.99,-92.13 2915.99,-87.87 2913.93,-72 2912.87,-63.88 2910.95,-55.24 2908.85,-47.34"/>
<polygon fill="black" stroke="black" points="2912.27,-46.55 2906.17,-37.9 2905.54,-48.47 2912.27,-46.55"/>
</g>
<!-- :feature:service&#45;&gt;:core:domain -->
<g id="edge41" class="edge">
<title>:feature:service&#45;&gt;:core:domain</title>
<path fill="none" stroke="black" d="M2894.2,-143.93C2886.24,-123.12 2869.72,-88.67 2842.93,-72 2777.66,-31.39 2556.79,-21.83 2442.2,-19.62"/>
<polygon fill="black" stroke="black" points="2442.36,-16.12 2432.3,-19.45 2442.23,-23.12 2442.36,-16.12"/>
</g>
<!-- :feature:service&#45;&gt;:core:ui -->
<g id="edge40" class="edge">
<title>:feature:service&#45;&gt;:core:ui</title>
<path fill="none" stroke="black" d="M2876.07,-144.94C2861.37,-135.05 2842.37,-122.26 2826.57,-111.62"/>
<polygon fill="black" stroke="black" points="2828.71,-108.85 2818.46,-106.17 2824.8,-114.65 2828.71,-108.85"/>
</g>
<!-- :feature:settings&#45;&gt;:core:design&#45;system -->
<g id="edge42" class="edge">
<title>:feature:settings&#45;&gt;:core:design&#45;system</title>
<path fill="none" stroke="black" d="M3044.47,-143.71C3036.49,-124.25 3021.3,-92.68 2999.93,-72 2985.89,-58.42 2967.69,-47.4 2950.66,-38.99"/>
<polygon fill="black" stroke="black" points="2952.17,-35.84 2941.63,-34.74 2949.19,-42.17 2952.17,-35.84"/>
</g>
<!-- :feature:settings&#45;&gt;:core:domain -->
<g id="edge44" class="edge">
<title>:feature:settings&#45;&gt;:core:domain</title>
<path fill="none" stroke="black" d="M3025.89,-144.83C2992.48,-124.13 2930.79,-88.92 2872.93,-72 2723.74,-28.37 2540.25,-19.77 2441.97,-18.6"/>
<polygon fill="black" stroke="black" points="2442.25,-15.1 2432.22,-18.5 2442.19,-22.1 2442.25,-15.1"/>
</g>
<!-- :feature:settings&#45;&gt;:core:ui -->
<g id="edge43" class="edge">
<title>:feature:settings&#45;&gt;:core:ui</title>
<path fill="none" stroke="black" d="M3005.04,-148.4C2957.89,-135.46 2885.03,-115.46 2838.94,-102.81"/>
<polygon fill="black" stroke="black" points="2840.15,-99.51 2829.58,-100.24 2838.3,-106.26 2840.15,-99.51"/>
</g>
<!-- :feature:shizuku&#45;&gt;:core:design&#45;system -->
<g id="edge45" class="edge">
<title>:feature:shizuku&#45;&gt;:core:design&#45;system</title>
<path fill="none" stroke="black" d="M2637.02,-144.43C2662.42,-125.06 2706.93,-93 2748.93,-72 2777.67,-57.63 2811.26,-45.43 2839.45,-36.37"/>
<polygon fill="black" stroke="black" points="2840.44,-39.72 2848.92,-33.38 2838.33,-33.05 2840.44,-39.72"/>
</g>
<!-- :feature:shizuku&#45;&gt;:core:domain -->
<g id="edge47" class="edge">
<title>:feature:shizuku&#45;&gt;:core:domain</title>
<path fill="none" stroke="black" d="M2611.74,-143.54C2605.98,-123.32 2593.65,-90.43 2570.93,-72 2534.17,-42.19 2482.23,-29.04 2440.62,-23.29"/>
<polygon fill="black" stroke="black" points="2441.32,-19.85 2430.96,-22.07 2440.45,-26.79 2441.32,-19.85"/>
</g>
<!-- :feature:shizuku&#45;&gt;:core:ui -->
<g id="edge46" class="edge">
<title>:feature:shizuku&#45;&gt;:core:ui</title>
<path fill="none" stroke="black" d="M2652.79,-146.67C2683.15,-134.86 2726.08,-118.16 2757,-106.14"/>
<polygon fill="black" stroke="black" points="2757.93,-109.53 2765.98,-102.65 2755.39,-103.01 2757.93,-109.53"/>
</g>
<!-- :broadcast&#45;receiver&#45;&gt;:core:domain -->
<g id="edge49" class="edge">
<title>:broadcast&#45;receiver&#45;&gt;:core:domain</title>
<path fill="none" stroke="black" d="M679.41,-78.98C699.72,-76.24 722.21,-73.6 742.93,-72 1088.88,-45.29 1960.06,-82.36 2303.93,-36 2308.88,-35.33 2313.99,-34.44 2319.08,-33.42"/>
<polygon fill="black" stroke="black" points="2319.64,-36.88 2328.65,-31.32 2318.14,-30.04 2319.64,-36.88"/>
</g>
<!-- :broadcast&#45;receiver&#45;&gt;:core:common -->
<g id="edge48" class="edge">
<title>:broadcast&#45;receiver&#45;&gt;:core:common</title>
<path fill="none" stroke="black" d="M674.51,-77.6C686.24,-75.58 698.45,-73.61 709.93,-72 864.2,-50.31 1046.03,-33.39 1144.58,-24.93"/>
<polygon fill="black" stroke="black" points="1144.71,-28.43 1154.38,-24.1 1144.11,-21.46 1144.71,-28.43"/>
</g>
<!-- :foreground&#45;service&#45;&gt;:core:domain -->
<g id="edge51" class="edge">
<title>:foreground&#45;service&#45;&gt;:core:domain</title>
<path fill="none" stroke="black" d="M1171.14,-76.88C1182.31,-74.94 1193.95,-73.19 1204.93,-72 1690.8,-19.45 1819.93,-103.64 2303.93,-36 2308.87,-35.31 2313.98,-34.4 2319.07,-33.37"/>
<polygon fill="black" stroke="black" points="2319.63,-36.83 2328.65,-31.25 2318.13,-29.99 2319.63,-36.83"/>
</g>
<!-- :foreground&#45;service&#45;&gt;:core:common -->
<g id="edge50" class="edge">
<title>:foreground&#45;service&#45;&gt;:core:common</title>
<path fill="none" stroke="black" d="M1137.57,-72.41C1151.37,-63.12 1168.76,-51.42 1183.74,-41.34"/>
<polygon fill="black" stroke="black" points="1185.58,-44.32 1191.92,-35.83 1181.67,-38.51 1185.58,-44.32"/>
</g>
<!-- :framework:asset&#45;manager&#45;&gt;:core:domain -->
<g id="edge53" class="edge">
<title>:framework:asset&#45;manager&#45;&gt;:core:domain</title>
<path fill="none" stroke="black" d="M1395.98,-76.84C1409.58,-74.97 1423.65,-73.24 1436.93,-72 1820.91,-35.99 1922.21,-91.05 2303.93,-36 2308.87,-35.29 2313.98,-34.37 2319.07,-33.32"/>
<polygon fill="black" stroke="black" points="2319.63,-36.78 2328.64,-31.2 2318.12,-29.95 2319.63,-36.78"/>
</g>
<!-- :framework:asset&#45;manager&#45;&gt;:core:common -->
<g id="edge52" class="edge">
<title>:framework:asset&#45;manager&#45;&gt;:core:common</title>
<path fill="none" stroke="black" d="M1295.75,-72.05C1282.04,-62.83 1264.91,-51.29 1250.12,-41.34"/>
<polygon fill="black" stroke="black" points="1252.31,-38.59 1242.05,-35.91 1248.4,-44.4 1252.31,-38.59"/>
</g>
<!-- :framework:clipboard&#45;manager&#45;&gt;:core:domain -->
<g id="edge54" class="edge">
<title>:framework:clipboard&#45;manager&#45;&gt;:core:domain</title>
<path fill="none" stroke="black" d="M2304.86,-148.51C2389.88,-135.59 2509.07,-116.19 2515.93,-108 2546.13,-71.91 2482.22,-46.15 2430.11,-31.92"/>
<polygon fill="black" stroke="black" points="2431.24,-28.59 2420.67,-29.44 2429.46,-35.36 2431.24,-28.59"/>
</g>
<!-- :framework:notification&#45;manager&#45;&gt;:core:domain -->
<g id="edge56" class="edge">
<title>:framework:notification&#45;manager&#45;&gt;:core:domain</title>
<path fill="none" stroke="black" d="M972.28,-76.71C988.45,-74.86 1005.17,-73.18 1020.93,-72 1589.78,-29.33 1738.79,-113.63 2303.93,-36 2308.88,-35.32 2313.99,-34.42 2319.08,-33.39"/>
<polygon fill="black" stroke="black" points="2319.64,-36.85 2328.65,-31.29 2318.13,-30.02 2319.64,-36.85"/>
</g>
<!-- :framework:notification&#45;manager&#45;&gt;:core:common -->
<g id="edge55" class="edge">
<title>:framework:notification&#45;manager&#45;&gt;:core:common</title>
<path fill="none" stroke="black" d="M951.75,-74.41C1011.88,-61.85 1097.83,-43.89 1155.42,-31.85"/>
<polygon fill="black" stroke="black" points="1155.98,-35.31 1165.06,-29.84 1154.55,-28.46 1155.98,-35.31"/>
</g>
<!-- :framework:package&#45;manager&#45;&gt;:core:domain -->
<g id="edge58" class="edge">
<title>:framework:package&#45;manager&#45;&gt;:core:domain</title>
<path fill="none" stroke="black" d="M1649.17,-76.92C1663.74,-75.09 1678.76,-73.36 1692.93,-72 1963.72,-46.08 2035.03,-77.17 2303.93,-36 2308.8,-35.25 2313.82,-34.32 2318.84,-33.28"/>
<polygon fill="black" stroke="black" points="2319.26,-36.77 2328.26,-31.17 2317.73,-29.94 2319.26,-36.77"/>
</g>
<!-- :framework:package&#45;manager&#45;&gt;:core:common -->
<g id="edge57" class="edge">
<title>:framework:package&#45;manager&#45;&gt;:core:common</title>
<path fill="none" stroke="black" d="M1495.34,-75C1432.13,-62.29 1339.76,-43.71 1279,-31.49"/>
<polygon fill="black" stroke="black" points="1280.02,-28.12 1269.53,-29.58 1278.64,-34.98 1280.02,-28.12"/>
</g>
<!-- :framework:secure&#45;settings&#45;&gt;:core:domain -->
<g id="edge60" class="edge">
<title>:framework:secure&#45;settings&#45;&gt;:core:domain</title>
<path fill="none" stroke="black" d="M1900.02,-79.26C1921.9,-76.88 1945.26,-74.34 1966.93,-72 2116.69,-55.84 2155.62,-62.33 2303.93,-36 2308.58,-35.17 2313.38,-34.21 2318.18,-33.16"/>
<polygon fill="black" stroke="black" points="2318.88,-36.6 2327.84,-30.95 2317.31,-29.77 2318.88,-36.6"/>
</g>
<!-- :framework:secure&#45;settings&#45;&gt;:core:common -->
<g id="edge59" class="edge">
<title>:framework:secure&#45;settings&#45;&gt;:core:common</title>
<path fill="none" stroke="black" d="M1731.63,-77.22C1718.71,-75.4 1705.45,-73.6 1692.93,-72 1549.22,-53.65 1380.64,-35.73 1287.61,-26.15"/>
<polygon fill="black" stroke="black" points="1288.18,-22.69 1277.87,-25.15 1287.46,-29.66 1288.18,-22.69"/>
</g>
<!-- :framework:shizuku&#45;&gt;:core:domain -->
<g id="edge62" class="edge">
<title>:framework:shizuku&#45;&gt;:core:domain</title>
<path fill="none" stroke="black" d="M2117.46,-76.89C2167.17,-66.47 2240.35,-50.82 2303.93,-36 2308.2,-35 2312.63,-33.95 2317.07,-32.87"/>
<polygon fill="black" stroke="black" points="2317.73,-36.32 2326.61,-30.54 2316.07,-29.52 2317.73,-36.32"/>
</g>
<!-- :framework:shizuku&#45;&gt;:core:common -->
<g id="edge61" class="edge">
<title>:framework:shizuku&#45;&gt;:core:common</title>
<path fill="none" stroke="black" d="M1998.27,-77.39C1986.26,-75.36 1973.72,-73.45 1961.93,-72 1717.45,-41.96 1425.58,-27.32 1291.27,-21.76"/>
<polygon fill="black" stroke="black" points="1291.58,-18.27 1281.44,-21.36 1291.29,-25.27 1291.58,-18.27"/>
</g>
<!-- :framework:shortcut&#45;manager&#45;&gt;:core:domain -->
<g id="edge64" class="edge">
<title>:framework:shortcut&#45;manager&#45;&gt;:core:domain</title>
<path fill="none" stroke="black" d="M201.41,-76.63C216.52,-74.77 232.17,-73.11 246.93,-72 702.83,-37.85 1850.68,-95.83 2303.93,-36 2308.88,-35.35 2313.99,-34.47 2319.09,-33.45"/>
<polygon fill="black" stroke="black" points="2319.64,-36.91 2328.66,-31.35 2318.14,-30.07 2319.64,-36.91"/>
</g>
<!-- :framework:shortcut&#45;manager&#45;&gt;:core:common -->
<g id="edge63" class="edge">
<title>:framework:shortcut&#45;manager&#45;&gt;:core:common</title>
<path fill="none" stroke="black" d="M202.82,-76.91C217.5,-75.07 232.64,-73.34 246.93,-72 579.82,-40.85 978.82,-26.16 1141.92,-21.12"/>
<polygon fill="black" stroke="black" points="1141.85,-24.62 1151.73,-20.82 1141.63,-17.63 1141.85,-24.62"/>
</g>
<!-- :framework:usage&#45;stats&#45;manager&#45;&gt;:core:domain -->
<g id="edge66" class="edge">
<title>:framework:usage&#45;stats&#45;manager&#45;&gt;:core:domain</title>
<path fill="none" stroke="black" d="M474.25,-76.64C490.42,-74.79 507.16,-73.13 522.93,-72 917.78,-43.76 1911.54,-88.34 2303.93,-36 2308.88,-35.34 2313.99,-34.45 2319.08,-33.43"/>
<polygon fill="black" stroke="black" points="2319.64,-36.89 2328.66,-31.34 2318.14,-30.06 2319.64,-36.89"/>
</g>
<!-- :framework:usage&#45;stats&#45;manager&#45;&gt;:core:common -->
<g id="edge65" class="edge">
<title>:framework:usage&#45;stats&#45;manager&#45;&gt;:core:common</title>
<path fill="none" stroke="black" d="M477.28,-77.02C492.52,-75.22 508.15,-73.47 522.93,-72 748.55,-49.5 1016.27,-31.51 1143.17,-23.51"/>
<polygon fill="black" stroke="black" points="1143.36,-27 1153.12,-22.88 1142.92,-20.01 1143.36,-27"/>
</g>
<!-- :core:database&#45;&gt;:core:domain -->
<g id="edge24" class="edge">
<title>:core:database&#45;&gt;:core:domain</title>
<path fill="none" stroke="red" stroke-width="2" d="M2371.93,-71.7C2371.93,-64.41 2371.93,-55.73 2371.93,-47.54"/>
<polygon fill="red" stroke="red" stroke-width="2" points="2375.43,-49.13 2371.93,-39.13 2368.43,-49.13 2375.43,-49.13"/>
</g>
<!-- :core:datastore&#45;&gt;:core:domain -->
<g id="edge27" class="edge">
<title>:core:datastore&#45;&gt;:core:domain</title>
<path fill="none" stroke="black" d="M2256.46,-73.98C2278.26,-63.6 2307.47,-49.69 2331.06,-38.46"/>
<polygon fill="black" stroke="black" points="2332.56,-41.62 2340.08,-34.16 2329.55,-35.3 2332.56,-41.62"/>
</g>
<!-- :core:datastore&#45;&gt;:core:common -->
<g id="edge26" class="edge">
<title>:core:datastore&#45;&gt;:core:common</title>
<path fill="none" stroke="black" d="M2178.57,-77.09C2169.46,-75.11 2159.93,-73.28 2150.93,-72 1834.12,-26.95 1451.74,-19.85 1292.36,-18.97"/>
<polygon fill="black" stroke="black" points="1292.81,-15.47 1282.79,-18.92 1292.77,-22.47 1292.81,-15.47"/>
</g>
<!-- :core:datastore&#45;proto -->
<g id="node24" class="node">
<title>:core:datastore&#45;proto</title>
<ellipse fill="none" stroke="black" cx="2206.93" cy="-18" rx="88.49" ry="18"/>
<text text-anchor="middle" x="2206.93" y="-12.57" font-family="Times New Roman,serif" font-size="14.00">:core:datastore&#45;proto</text>
</g>
<!-- :core:datastore&#45;&gt;:core:datastore&#45;proto -->
<g id="edge25" class="edge">
<title>:core:datastore&#45;&gt;:core:datastore&#45;proto</title>
<path fill="none" stroke="black" d="M2220.48,-71.7C2218.58,-64.32 2216.32,-55.52 2214.19,-47.25"/>
<polygon fill="black" stroke="black" points="2217.58,-46.38 2211.7,-37.57 2210.8,-48.13 2217.58,-46.38"/>
</g>
<!-- :core:ui&#45;&gt;:core:design&#45;system -->
<g id="edge31" class="edge">
<title>:core:ui&#45;&gt;:core:design&#45;system</title>
<path fill="none" stroke="black" d="M2817.22,-74.67C2831.33,-65.17 2850.14,-52.51 2866.25,-41.67"/>
<polygon fill="black" stroke="black" points="2867.78,-44.86 2874.12,-36.37 2863.87,-39.05 2867.78,-44.86"/>
</g>
<!-- :core:ui&#45;&gt;:core:domain -->
<g id="edge32" class="edge">
<title>:core:ui&#45;&gt;:core:domain</title>
<path fill="none" stroke="black" d="M2761.78,-82.31C2744.98,-79.07 2724.41,-75.21 2705.93,-72 2611.74,-55.63 2502.24,-38.65 2435.02,-28.45"/>
<polygon fill="black" stroke="black" points="2435.69,-25.01 2425.28,-26.97 2434.65,-31.93 2435.69,-25.01"/>
</g>
</g>
</svg>
