<?xml version="1.0" encoding="UTF-8" standalone="no"?>
<!DOCTYPE svg PUBLIC "-//W3C//DTD SVG 1.1//EN"
 "http://www.w3.org/Graphics/SVG/1.1/DTD/svg11.dtd">
<!-- Generated by graphviz version 11.0.0 (20240428.1522)
 -->
<!-- Title: G Pages: 1 -->
<svg width="378pt" height="188pt"
 viewBox="0.00 0.00 377.98 188.00" xmlns="http://www.w3.org/2000/svg" xmlns:xlink="http://www.w3.org/1999/xlink">
<g id="graph0" class="graph" transform="scale(1 1) rotate(0) translate(4 184)">
<title>G</title>
<polygon fill="white" stroke="none" points="-4,4 -4,-184 373.98,-184 373.98,4 -4,4"/>
<!-- :framework:clipboard&#45;manager -->
<g id="node1" class="node">
<title>:framework:clipboard&#45;manager</title>
<ellipse fill="none" stroke="black" cx="162.04" cy="-162" rx="123.92" ry="18"/>
<text text-anchor="middle" x="162.04" y="-156.57" font-family="Times New Roman,serif" font-size="14.00">:framework:clipboard&#45;manager</text>
</g>
<!-- :domain:framework -->
<g id="node2" class="node">
<title>:domain:framework</title>
<ellipse fill="none" stroke="black" cx="162.04" cy="-90" rx="82" ry="18"/>
<text text-anchor="middle" x="162.04" y="-84.58" font-family="Times New Roman,serif" font-size="14.00">:domain:framework</text>
</g>
<!-- :framework:clipboard&#45;manager&#45;&gt;:domain:framework -->
<g id="edge1" class="edge">
<title>:framework:clipboard&#45;manager&#45;&gt;:domain:framework</title>
<path fill="none" stroke="red" stroke-width="2" d="M162.04,-143.7C162.04,-136.41 162.04,-127.73 162.04,-119.54"/>
<polygon fill="red" stroke="red" stroke-width="2" points="165.54,-121.13 162.04,-111.13 158.54,-121.13 165.54,-121.13"/>
</g>
<!-- :domain:model -->
<g id="node3" class="node">
<title>:domain:model</title>
<ellipse fill="none" stroke="black" cx="65.04" cy="-18" rx="65.04" ry="18"/>
<text text-anchor="middle" x="65.04" y="-12.57" font-family="Times New Roman,serif" font-size="14.00">:domain:model</text>
</g>
<!-- :domain:framework&#45;&gt;:domain:model -->
<g id="edge2" class="edge">
<title>:domain:framework&#45;&gt;:domain:model</title>
<path fill="none" stroke="red" stroke-width="2" d="M139.05,-72.41C126.39,-63.28 110.5,-51.81 96.69,-41.84"/>
<polygon fill="red" stroke="red" stroke-width="2" points="100.14,-40.01 89.98,-37 96.04,-45.69 100.14,-40.01"/>
</g>
<!-- :domain:broadcast&#45;receiver -->
<g id="node4" class="node">
<title>:domain:broadcast&#45;receiver</title>
<ellipse fill="none" stroke="black" cx="259.04" cy="-18" rx="110.94" ry="18"/>
<text text-anchor="middle" x="259.04" y="-12.57" font-family="Times New Roman,serif" font-size="14.00">:domain:broadcast&#45;receiver</text>
</g>
<!-- :domain:framework&#45;&gt;:domain:broadcast&#45;receiver -->
<g id="edge3" class="edge">
<title>:domain:framework&#45;&gt;:domain:broadcast&#45;receiver</title>
<path fill="none" stroke="black" d="M185.02,-72.41C197.4,-63.48 212.89,-52.3 226.49,-42.49"/>
<polygon fill="black" stroke="black" points="228.25,-45.53 234.31,-36.84 224.15,-39.86 228.25,-45.53"/>
</g>
</g>
</svg>
