<svg width="240" height="240" viewBox="0 0 240 240" fill="none" xmlns="http://www.w3.org/2000/svg">
<g clip-path="url(#clip0_0_1)">
<path d="M88.6541 56.2375C86.5862 57.0802 87.2205 59.3785 86.9795 61.12C86.7683 62.6452 85.7798 63.8378 84.4797 64.616C82.6973 65.6829 78.9082 67.6755 76.8 67.364C74.7811 67.0656 73.8138 64.9265 72 64.2375C69.2168 63.1802 65.4481 67.1996 64.3289 69.44C62.8044 72.4918 66.6279 73.9459 67.2983 76.48C67.8747 78.6592 65.7537 82.2406 64.8032 84.1587C64.1105 85.5568 63.0362 86.6957 61.44 86.968C59.3933 87.3174 56.5945 86.4598 56.0731 89.2813C55.7036 91.2803 55.274 96.5539 57.0862 97.8912C58.446 98.895 60.2319 98.3344 61.76 98.6861C63.3979 99.063 64.338 100.303 65.003 101.76C65.924 103.778 67.9634 107.208 67.1479 109.44C66.4076 111.466 63.8789 112.514 64.041 114.88C64.1963 117.148 67.2983 119.917 69.12 121.043C72.208 122.95 73.6874 119.23 76.16 118.319C78.105 117.602 80.7971 119.27 82.56 120.004C84.4227 120.779 86.4176 121.684 86.9139 123.84C87.2448 125.278 86.6653 126.999 87.5974 128.273C88.8877 130.036 92.7962 129.29 94.72 129.28C95.4518 129.276 96.2534 129.325 96.9459 129.043C99.1469 128.146 98.303 125.651 98.633 123.84C98.8618 122.586 99.7328 121.628 100.801 120.984C102.696 119.841 106.548 117.866 108.8 118.166C110.84 118.438 111.764 120.671 113.6 121.362C116.429 122.428 120.383 118.197 121.325 115.84C122.525 112.836 118.841 111.616 118.223 109.12C117.665 106.861 119.773 103.08 120.81 101.12C121.449 99.9133 122.455 98.8854 123.84 98.633C125.679 98.2979 128.535 99.1002 129.178 96.6339C129.363 95.9274 129.28 95.1232 129.28 94.4C129.281 92.5213 130.001 88.8621 128.273 87.5974C127.088 86.7309 125.508 87.1843 124.16 86.9715C122.228 86.6669 121.131 85.2102 120.393 83.52C119.556 81.6022 117.539 78.2768 118.319 76.16C119.072 74.1158 121.67 73.1478 121.551 70.72C121.44 68.465 118.277 65.6683 116.48 64.5575C113.368 62.6343 111.742 66.4329 109.12 67.2417C107.109 67.8622 104.23 66.0532 102.4 65.2753C100.768 64.5815 99.1546 63.5997 98.6941 61.7597C98.3283 60.2988 98.92 58.6335 98.0026 57.3148C96.6278 55.3391 93.279 55.9965 91.2 56C90.3715 56.0014 89.4387 55.9178 88.6541 56.2375Z" fill="#1893F8"/>
<path d="M86.72 57.92V62.08C87.2291 60.8668 87.2291 59.1332 86.72 57.92Z" fill="#C2E3FD"/>
<path d="M69.9733 63.7867C69.8311 63.9294 70.1689 63.9116 70.1867 63.8938C70.3289 63.751 69.9911 63.7689 69.9733 63.7867Z" fill="#95CEFC"/>
<path d="M70.4 63.68C70.7995 63.8991 70.8955 63.9196 71.36 64C70.9605 63.7809 70.8645 63.7604 70.4 63.68Z" fill="#5AB2FA"/>
<path d="M71.5733 63.7867C71.4311 63.9294 71.7689 63.9116 71.7867 63.8938C71.9289 63.751 71.5911 63.7689 71.5733 63.7867Z" fill="#D4EBFE"/>
<path d="M113.813 63.7867C113.671 63.9295 114.009 63.9116 114.027 63.8938C114.169 63.7511 113.831 63.7688 113.813 63.7867Z" fill="#95CDFC"/>
<path d="M114.24 63.68C114.639 63.8991 114.735 63.9196 115.2 64C114.801 63.7809 114.705 63.7604 114.24 63.68Z" fill="#5AB2FA"/>
<path d="M115.413 63.7867C115.271 63.9295 115.609 63.9116 115.627 63.8938C115.769 63.7511 115.431 63.7688 115.413 63.7867Z" fill="#D7ECFE"/>
<path d="M76.3734 67.3067C76.231 67.4494 76.569 67.4316 76.5866 67.4138C76.729 67.271 76.391 67.2889 76.3734 67.3067Z" fill="#96CEFC"/>
<path d="M76.8 67.2C77.2819 67.4186 77.5408 67.4643 78.08 67.52C77.5981 67.3014 77.3392 67.2557 76.8 67.2Z" fill="#BFE1FD"/>
<path d="M107.413 67.3067C107.271 67.4495 107.609 67.4316 107.627 67.4138C107.769 67.2711 107.431 67.2888 107.413 67.3067Z" fill="#99CFFC"/>
<path d="M107.84 67.2C108.322 67.4186 108.581 67.4643 109.12 67.52C108.638 67.3014 108.379 67.2557 107.84 67.2Z" fill="#C0E2FD"/>
<path d="M63.68 70.08V71.68C63.9456 71.0302 63.9456 70.7298 63.68 70.08Z" fill="#4FACF9"/>
<path d="M121.6 70.08V71.68C121.866 71.0302 121.866 70.7298 121.6 70.08Z" fill="#95CEFC"/>
<path d="M67.2 76.16V78.08C67.5043 77.3488 67.5043 76.8912 67.2 76.16Z" fill="#ADD9FD"/>
<path d="M90.88 77.44C91.9782 77.9008 93.216 77.76 94.4 77.76C93.3018 77.2992 92.064 77.44 90.88 77.44Z" fill="#7AC1FB"/>
<path d="M89.28 77.76C89.6794 77.9792 89.7757 77.9997 90.24 78.08C89.8406 77.8608 89.7446 77.8403 89.28 77.76Z" fill="#91CCFC"/>
<path d="M95.04 77.76C95.4394 77.9792 95.5354 77.9997 96 78.08C95.6006 77.8608 95.5046 77.8403 95.04 77.76Z" fill="#AAD7FD"/>
<path d="M88.5334 78.1866C88.391 78.3295 88.729 78.3116 88.7466 78.2939C88.889 78.151 88.551 78.1689 88.5334 78.1866Z" fill="#C0E2FD"/>
<path d="M58.24 86.72C59.4232 87.2166 60.8054 87.04 62.08 87.04C60.8968 86.5434 59.5146 86.72 58.24 86.72Z" fill="#C5E4FD"/>
<path d="M123.2 86.72C124.383 87.2166 125.765 87.04 127.04 87.04C125.857 86.5434 124.475 86.72 123.2 86.72Z" fill="#C5E4FD"/>
<path d="M173.44 87.68C173.232 89.0182 172.424 90.2973 170.88 90.2768C169.928 90.264 169.066 89.5558 168.246 90.393C167.392 91.2637 168.028 92.1162 168.037 93.12C168.051 94.6646 166.783 95.471 165.44 95.68C165.448 96.3526 165.363 97.1616 165.769 97.7462C166.421 98.6858 167.609 98.9194 167.951 100.162C168.271 101.325 167.107 102.581 168.373 103.47C169.181 104.036 170.01 103.511 170.88 103.553C172.301 103.622 173.088 104.68 173.44 105.92H176C176.215 104.562 177.042 103.523 178.56 103.563C179.521 103.587 180.482 104.189 181.241 103.257C181.874 102.479 181.376 101.659 181.334 100.8C181.26 99.2768 182.35 98.5149 183.68 98.24V95.68C182.327 95.4003 181.344 94.6298 181.308 93.1197C181.285 92.1414 181.873 91.1686 181.012 90.3603C180.22 89.616 179.453 90.2314 178.56 90.2611C177.014 90.3123 176.207 89.0102 176 87.68H173.44Z" fill="#169D53"/>
<path d="M173.12 88V89.28C173.347 88.7168 173.347 88.5629 173.12 88Z" fill="#59B985"/>
<path d="M176 88V89.28C176.227 88.7168 176.227 88.5632 176 88Z" fill="#99D4B4"/>
<path d="M107.307 88.8534C107.289 88.871 107.271 89.209 107.413 89.0666C107.431 89.049 107.449 88.711 107.307 88.8534Z" fill="#AED9FD"/>
<path d="M129.387 88.8534C129.369 88.871 129.351 89.209 129.493 89.0666C129.511 89.049 129.529 88.711 129.387 88.8534Z" fill="#6EBBFA"/>
<path d="M77.76 89.28V90.24C77.9827 89.7427 77.9827 89.7773 77.76 89.28Z" fill="#A9D7FD"/>
<path d="M129.28 89.28V96.64C130.011 94.8982 130.011 91.0218 129.28 89.28Z" fill="#3FA5F9"/>
<path d="M107.627 90.1334C107.609 90.151 107.591 90.489 107.733 90.3466C107.751 90.329 107.769 89.991 107.627 90.1334Z" fill="#7AC1FB"/>
<path d="M178.453 90.3466C178.311 90.4895 178.649 90.4715 178.667 90.4539C178.809 90.3109 178.471 90.3289 178.453 90.3466Z" fill="#D7EEE2"/>
<path d="M107.627 90.7734C107.609 90.791 107.591 91.129 107.733 90.9866C107.751 90.969 107.769 90.631 107.627 90.7734Z" fill="#BEE1FD"/>
<path d="M77.44 90.88V94.4C77.8979 93.3088 77.8979 91.9712 77.44 90.88Z" fill="#5CB3FA"/>
<path d="M168 92.48V93.44C168.223 92.9427 168.223 92.9773 168 92.48Z" fill="#DFF2E7"/>
<path d="M173.973 93.2266C173.831 93.3695 174.169 93.3516 174.187 93.3339C174.329 93.1909 173.991 93.2089 173.973 93.2266Z" fill="#DDF1E6"/>
<path d="M175.253 93.2266C175.111 93.3695 175.449 93.3516 175.467 93.3339C175.609 93.1909 175.271 93.2089 175.253 93.2266Z" fill="#B2DFC6"/>
<path d="M107.52 94.4V95.36C107.743 94.8627 107.743 94.8973 107.52 94.4Z" fill="#A4D4FC"/>
<path d="M77.76 95.04V96C77.9827 95.5027 77.9827 95.5373 77.76 95.04Z" fill="#A4D4FC"/>
<path d="M165.76 95.36C166.242 95.5786 166.501 95.6243 167.04 95.68C166.558 95.4614 166.299 95.4157 165.76 95.36ZM182.4 95.36C182.882 95.5786 183.141 95.6243 183.68 95.68C183.198 95.4614 182.939 95.4157 182.4 95.36Z" fill="#4FB57D"/>
<path d="M183.68 95.68V97.92C184.019 97.1091 184.019 96.4909 183.68 95.68Z" fill="#38AB6C"/>
<path d="M178.24 96V97.6C178.506 96.9501 178.506 96.6496 178.24 96Z" fill="#BDE3CE"/>
<path d="M107.307 96.5334C107.289 96.551 107.271 96.889 107.413 96.7466C107.431 96.729 107.449 96.391 107.307 96.5334Z" fill="#67B8FA"/>
<path d="M78.1866 96.8534C78.169 96.871 78.151 97.209 78.2934 97.0666C78.311 97.049 78.329 96.711 78.1866 96.8534Z" fill="#75BEFB"/>
<path d="M57.8133 98.3466C57.6711 98.4895 58.0089 98.4716 58.0267 98.4539C58.1689 98.311 57.8311 98.3289 57.8133 98.3466Z" fill="#52AEFA"/>
<path d="M165.76 98.24C166.242 98.4586 166.501 98.5043 167.04 98.56C166.558 98.3414 166.299 98.2957 165.76 98.24ZM182.4 98.24C182.799 98.4592 182.895 98.4797 183.36 98.56C182.961 98.3408 182.865 98.3203 182.4 98.24Z" fill="#8ACEA8"/>
<path d="M61.9733 98.6666C61.8311 98.8095 62.1689 98.7916 62.1867 98.7739C62.3289 98.631 61.9911 98.6489 61.9733 98.6666Z" fill="#98CFFC"/>
<path d="M123.093 98.6666C122.951 98.8095 123.289 98.7916 123.307 98.7739C123.449 98.631 123.111 98.6489 123.093 98.6666Z" fill="#A5D5FC"/>
<path d="M168.107 100.693C168.089 100.711 168.071 101.049 168.213 100.907C168.231 100.889 168.249 100.551 168.107 100.693Z" fill="#CFEBDC"/>
<path d="M173.76 100.48C174.326 100.729 174.732 100.772 175.36 100.8C174.794 100.551 174.388 100.508 173.76 100.48Z" fill="#B4DFC7"/>
<path d="M181.867 102.293C181.849 102.311 181.831 102.649 181.973 102.507C181.991 102.489 182.009 102.151 181.867 102.293Z" fill="#63BD8C"/>
<path d="M178.453 103.147C178.311 103.29 178.649 103.272 178.667 103.254C178.809 103.111 178.471 103.129 178.453 103.147Z" fill="#3CAD6F"/>
<path d="M168.64 104C169.039 104.219 169.135 104.24 169.6 104.32C169.201 104.101 169.105 104.08 168.64 104Z" fill="#70C395"/>
<path d="M180.053 104.107C179.911 104.25 180.249 104.232 180.267 104.214C180.409 104.071 180.071 104.089 180.053 104.107Z" fill="#4FB57D"/>
<path d="M173.12 104.64V105.92C173.347 105.357 173.347 105.203 173.12 104.64Z" fill="#5ABA85"/>
<path d="M176 104.64V105.6C176.223 105.103 176.223 105.137 176 104.64Z" fill="#98D4B3"/>
<path d="M173.44 105.92C174.186 106.235 174.866 106.234 175.68 106.24C174.934 105.925 174.254 105.926 173.44 105.92Z" fill="#4FB57D"/>
<path d="M133.44 120C133.44 121.125 133.022 123.316 133.769 124.243C134.286 124.884 135.294 124.743 135.966 125.128C136.88 125.65 137.42 126.725 137.769 127.68C138.735 130.322 135.521 131.675 138.246 134.031C138.699 134.422 139.208 134.805 139.84 134.75C141.186 134.634 141.858 133.383 143.36 133.705C144.532 133.957 145.954 134.609 146.551 135.698C146.965 136.452 146.737 137.612 147.622 138.047C148.448 138.453 150.723 138.5 151.352 137.727C151.871 137.089 151.734 136.113 152.237 135.428C152.92 134.5 154.403 133.843 155.52 133.654C157.091 133.387 158.175 135.333 159.68 134.508C163.373 132.483 159.902 130.172 161.027 127.36C161.368 126.508 161.762 125.65 162.595 125.177C163.4 124.72 164.546 124.908 165.111 124.058C165.64 123.264 165.736 120.978 164.927 120.329C164.283 119.811 163.294 119.98 162.594 119.487C161.597 118.786 160.875 117.34 160.644 116.16C160.228 114.032 162.669 113.134 160.912 111.059C160.661 110.763 160.328 110.48 159.998 110.275C158.548 109.369 157.797 110.559 156.48 110.97C155.621 111.239 154.683 110.813 153.921 110.43C151.272 109.098 151.996 105.295 148.179 106.342C146.572 106.782 146.715 109.19 145.274 110.13C144.521 110.621 143.318 111.154 142.4 111.003C140.247 110.649 139.23 108.92 137.42 111.366C136.138 113.099 137.905 113.852 138.071 115.52C138.356 118.383 135.885 119.978 133.44 120Z" fill="#EF3A5D"/>
<path d="M151.68 106.88V108.8C151.984 108.069 151.984 107.611 151.68 106.88Z" fill="#F68DA1"/>
<path d="M88.8534 107.307C88.711 107.45 89.049 107.432 89.0666 107.414C89.209 107.271 88.871 107.289 88.8534 107.307Z" fill="#A7D6FC"/>
<path d="M96.2134 107.307C96.071 107.45 96.409 107.432 96.4266 107.414C96.569 107.271 96.231 107.289 96.2134 107.307Z" fill="#8ECAFC"/>
<path d="M118.187 107.413C118.169 107.431 118.151 107.769 118.293 107.627C118.311 107.609 118.329 107.271 118.187 107.413Z" fill="#C1E2FD"/>
<path d="M146.56 107.2V109.12C146.864 108.389 146.864 107.931 146.56 107.2Z" fill="#FBC6D0"/>
<path d="M67.2 107.52V109.12C67.4656 108.47 67.4656 108.17 67.2 107.52Z" fill="#A1D3FC"/>
<path d="M89.92 107.52C90.3194 107.739 90.4154 107.76 90.88 107.84C90.4806 107.621 90.3846 107.6 89.92 107.52Z" fill="#6BBAFA"/>
<path d="M91.0934 107.627C90.951 107.77 91.289 107.752 91.3066 107.734C91.449 107.591 91.111 107.609 91.0934 107.627Z" fill="#D2EAFE"/>
<path d="M93.76 107.52C94.1594 107.739 94.2554 107.76 94.72 107.84C94.3206 107.621 94.2246 107.6 93.76 107.52Z" fill="#C6E4FE"/>
<path d="M94.9334 107.627C94.791 107.77 95.129 107.752 95.1466 107.734C95.289 107.591 94.951 107.609 94.9334 107.627Z" fill="#59B1FA"/>
<path d="M92.16 107.84C92.5594 108.059 92.6554 108.08 93.12 108.16C92.7206 107.941 92.6246 107.92 92.16 107.84Z" fill="#49AAF9"/>
<path d="M118.187 109.333C118.169 109.351 118.151 109.689 118.293 109.547C118.311 109.529 118.329 109.191 118.187 109.333Z" fill="#60B5FA"/>
<path d="M139.2 109.44C139.599 109.659 139.695 109.68 140.16 109.76C139.761 109.541 139.665 109.52 139.2 109.44Z" fill="#F8A3B4"/>
<path d="M158.4 109.44C158.799 109.659 158.895 109.68 159.36 109.76C158.961 109.541 158.865 109.52 158.4 109.44Z" fill="#F8A3B3"/>
<path d="M142.08 111.04C142.479 111.259 142.575 111.28 143.04 111.36C142.641 111.141 142.545 111.12 142.08 111.04ZM155.52 111.04C156.002 111.259 156.261 111.304 156.8 111.36C156.318 111.141 156.059 111.096 155.52 111.04Z" fill="#F79CAD"/>
<path d="M162.027 112.533C162.009 112.551 161.991 112.889 162.133 112.747C162.151 112.729 162.169 112.391 162.027 112.533Z" fill="#FBC9D3"/>
<path d="M63.68 113.92V115.2C63.9073 114.637 63.9073 114.483 63.68 113.92Z" fill="#4BABF9"/>
<path d="M121.6 113.92V115.2C121.827 114.637 121.827 114.483 121.6 113.92Z" fill="#92CCFC"/>
<path d="M160.32 114.88V116.16C160.547 115.597 160.547 115.443 160.32 114.88Z" fill="#FABFCB"/>
<path d="M148.16 115.52C148.906 115.835 149.586 115.834 150.4 115.84C149.654 115.525 148.974 115.526 148.16 115.52Z" fill="#F79CAD"/>
<path d="M147.413 115.947C147.271 116.09 147.609 116.072 147.627 116.054C147.769 115.911 147.431 115.929 147.413 115.947Z" fill="#FBCED7"/>
<path d="M76.0534 118.187C75.911 118.33 76.249 118.312 76.2666 118.294C76.409 118.151 76.071 118.169 76.0534 118.187Z" fill="#A9D7FD"/>
<path d="M77.6534 118.187C77.511 118.33 77.849 118.312 77.8666 118.294C78.009 118.151 77.671 118.169 77.6534 118.187Z" fill="#CDE8FE"/>
<path d="M107.413 118.187C107.271 118.33 107.609 118.312 107.627 118.294C107.769 118.151 107.431 118.169 107.413 118.187Z" fill="#D2EAFE"/>
<path d="M108.48 118.08C108.879 118.299 108.976 118.32 109.44 118.4C109.041 118.181 108.945 118.16 108.48 118.08Z" fill="#C8E6FE"/>
<path d="M133.76 119.68C134.506 119.995 135.186 119.994 136 120C135.254 119.685 134.574 119.686 133.76 119.68Z" fill="#F36A85"/>
<path d="M162.56 119.68C163.306 119.995 163.986 119.994 164.8 120C164.054 119.685 163.374 119.686 162.56 119.68Z" fill="#F36A85"/>
<path d="M133.12 120.32V124.16C133.604 123.007 133.604 121.473 133.12 120.32Z" fill="#FBCBD4"/>
<path d="M142.827 120.533C142.809 120.551 142.791 120.889 142.933 120.747C142.951 120.729 142.969 120.391 142.827 120.533Z" fill="#F9AFBD"/>
<path d="M155.627 120.533C155.609 120.551 155.591 120.889 155.733 120.747C155.751 120.729 155.769 120.391 155.627 120.533Z" fill="#FAC4CE"/>
<path d="M70.08 121.6C70.6461 121.849 71.0515 121.892 71.68 121.92C71.1139 121.671 70.7085 121.628 70.08 121.6Z" fill="#8BC9FB"/>
<path d="M113.92 121.6C114.486 121.849 114.892 121.892 115.52 121.92C114.954 121.671 114.548 121.628 113.92 121.6Z" fill="#8BC9FB"/>
<path d="M155.84 121.6V123.2C156.106 122.55 156.106 122.25 155.84 121.6Z" fill="#F3718A"/>
<path d="M86.8266 123.413C86.809 123.431 86.791 123.769 86.9334 123.627C86.951 123.609 86.969 123.271 86.8266 123.413Z" fill="#91CCFC"/>
<path d="M142.72 123.2V124.16C142.943 123.663 142.943 123.697 142.72 123.2Z" fill="#F9B8C4"/>
<path d="M86.72 123.84V127.36C87.1779 126.269 87.1779 124.931 86.72 123.84Z" fill="#C3E3FD"/>
<path d="M155.627 124.053C155.609 124.071 155.591 124.409 155.733 124.267C155.751 124.249 155.769 123.911 155.627 124.053Z" fill="#F5849A"/>
<path d="M134.4 124.8C134.966 125.049 135.372 125.092 136 125.12C135.434 124.871 135.028 124.828 134.4 124.8Z" fill="#FBCDD6"/>
<path d="M162.56 124.8C163.217 125.08 163.759 125.105 164.48 125.12C163.823 124.84 163.281 124.815 162.56 124.8Z" fill="#FBCDD6"/>
<path d="M147.52 128.64C147.919 128.859 148.015 128.88 148.48 128.96C148.081 128.741 147.985 128.72 147.52 128.64Z" fill="#F79EAF"/>
<path d="M149.76 128.64C150.159 128.859 150.255 128.88 150.72 128.96C150.321 128.741 150.225 128.72 149.76 128.64Z" fill="#F9B8C5"/>
<path d="M160.32 128.64V129.6C160.543 129.103 160.543 129.137 160.32 128.64Z" fill="#FABFCB"/>
<path d="M88.96 129.28C91.0224 130.145 94.0902 129.6 96.32 129.6C94.2576 128.735 91.1898 129.28 88.96 129.28Z" fill="#51ADF9"/>
<path d="M162.027 131.733C162.009 131.751 161.991 132.089 162.133 131.947C162.151 131.929 162.169 131.591 162.027 131.733Z" fill="#FBC9D2"/>
<path d="M146.56 135.36V137.6C146.899 136.789 146.899 136.171 146.56 135.36Z" fill="#FBC7D1"/>
<path d="M151.68 135.68V137.6C151.984 136.869 151.984 136.411 151.68 135.68Z" fill="#F68DA1"/>
<path d="M147.52 138.24C148.618 138.701 149.856 138.56 151.04 138.56C149.942 138.099 148.704 138.24 147.52 138.24Z" fill="#FBC7D1"/>
<path d="M133.44 162.88C135.777 162.937 138.609 164.923 137.989 167.68C137.645 169.21 136.233 169.909 137.42 171.514C139.24 173.973 140.242 172.206 142.4 171.881C143.323 171.742 144.513 172.349 145.274 172.824C146.659 173.689 146.537 176.116 147.913 176.538C148.759 176.797 150.737 176.883 151.352 176.127C151.873 175.487 151.753 174.493 152.237 173.795C152.847 172.917 153.896 172.439 154.88 172.107C156.825 171.451 158.203 173.726 159.998 172.605C160.759 172.131 161.704 171.202 161.718 170.24C161.732 169.268 160.818 168.594 160.624 167.68C160.425 166.74 161.008 165.607 161.449 164.805C162.376 163.119 163.687 163.562 164.927 162.552C165.665 161.952 165.564 160.203 165.338 159.379C164.947 157.951 163.631 158.34 162.595 157.751C161.673 157.228 161.246 156.149 160.902 155.2C159.973 152.631 163.09 151.057 160.314 148.902C158.792 147.72 157.993 148.855 156.48 149.223C155.608 149.435 154.697 149.069 153.921 148.695C153.183 148.34 152.47 147.899 152.057 147.166C151.388 145.978 151.774 144.813 150.074 144.659C149.316 144.59 148.031 144.465 147.393 144.969C146.748 145.478 146.922 146.507 146.551 147.182C145.958 148.264 144.52 148.936 143.36 149.212C141.94 149.549 141.157 148.39 139.84 148.304C139.234 148.265 138.712 148.54 138.246 148.902C135.45 151.076 138.704 152.643 137.769 155.2C137.421 156.151 136.881 157.236 135.966 157.751C135.296 158.129 134.277 157.949 133.769 158.593C133.023 159.539 133.44 161.738 133.44 162.88Z" fill="#FFD230"/>
<path d="M146.56 145.28V147.52C146.899 146.709 146.899 146.091 146.56 145.28Z" fill="#FFF2C3"/>
<path d="M151.68 145.28V147.2C151.984 146.469 151.984 146.011 151.68 145.28Z" fill="#FFE587"/>
<path d="M139.2 147.84C139.599 148.059 139.695 148.08 140.16 148.16C139.761 147.941 139.665 147.92 139.2 147.84Z" fill="#FFDF6B"/>
<path d="M158.4 147.84C158.799 148.059 158.896 148.08 159.36 148.16C158.961 147.941 158.865 147.92 158.4 147.84Z" fill="#FFDE6A"/>
<path d="M142.613 149.547C142.471 149.69 142.809 149.672 142.827 149.654C142.969 149.511 142.631 149.529 142.613 149.547Z" fill="#FFDA58"/>
<path d="M162.027 150.933C162.009 150.951 161.991 151.289 162.133 151.147C162.151 151.129 162.169 150.791 162.027 150.933Z" fill="#FFF5D0"/>
<path d="M160.32 152.96V154.24C160.547 153.677 160.547 153.523 160.32 152.96Z" fill="#FFEEB0"/>
<path d="M148.053 154.027C147.911 154.17 148.249 154.152 148.267 154.134C148.409 153.991 148.071 154.009 148.053 154.027Z" fill="#FFE897"/>
<path d="M148.48 153.92C149.137 154.2 149.679 154.225 150.4 154.24C149.743 153.96 149.201 153.935 148.48 153.92Z" fill="#FFF4CB"/>
<path d="M133.12 158.72V162.56C133.604 161.407 133.604 159.873 133.12 158.72Z" fill="#FFF3C8"/>
<path d="M142.827 158.933C142.809 158.951 142.791 159.289 142.933 159.147C142.951 159.129 142.969 158.791 142.827 158.933Z" fill="#FFF0B8"/>
<path d="M155.627 158.933C155.609 158.951 155.591 159.289 155.733 159.147C155.751 159.129 155.769 158.791 155.627 158.933Z" fill="#FFF4CD"/>
<path d="M155.84 160V161.6C156.106 160.95 156.106 160.65 155.84 160Z" fill="#FFDF6D"/>
<path d="M142.72 161.6V162.56C142.943 162.063 142.943 162.097 142.72 161.6Z" fill="#FFECA9"/>
<path d="M155.627 162.453C155.609 162.471 155.591 162.809 155.733 162.667C155.751 162.649 155.769 162.311 155.627 162.453Z" fill="#FFDF6C"/>
<path d="M133.76 162.88C134.417 163.16 134.959 163.185 135.68 163.2C135.023 162.92 134.481 162.895 133.76 162.88ZM162.88 162.88C163.537 163.16 164.079 163.185 164.8 163.2C164.143 162.92 163.601 162.895 162.88 162.88Z" fill="#FFDD63"/>
<path d="M160.32 166.72V168C160.547 167.437 160.547 167.283 160.32 166.72Z" fill="#FFEEB2"/>
<path d="M147.84 167.04C148.676 167.391 149.493 167.358 150.4 167.36C149.564 167.009 148.748 167.042 147.84 167.04Z" fill="#FFE897"/>
<path d="M142.08 171.52C142.479 171.739 142.575 171.76 143.04 171.84C142.641 171.621 142.545 171.6 142.08 171.52Z" fill="#FFE78F"/>
<path d="M155.84 171.52C156.239 171.739 156.335 171.76 156.8 171.84C156.401 171.621 156.305 171.6 155.84 171.52Z" fill="#FFE897"/>
<path d="M139.2 173.12C139.599 173.339 139.695 173.36 140.16 173.44C139.761 173.221 139.665 173.2 139.2 173.12Z" fill="#FFEA9F"/>
<path d="M158.4 173.12C158.799 173.339 158.895 173.36 159.36 173.44C158.961 173.221 158.865 173.2 158.4 173.12Z" fill="#FFEA9E"/>
<path d="M146.56 173.76V175.68C146.864 174.949 146.864 174.491 146.56 173.76Z" fill="#FFF2C4"/>
<path d="M151.68 174.08V176C151.984 175.269 151.984 174.811 151.68 174.08Z" fill="#FFE587"/>
</g>
<defs>
<clipPath id="clip0_0_1">
<path d="M40 120C40 75.8172 75.8172 40 120 40V40C164.183 40 200 75.8172 200 120V120C200 164.183 164.183 200 120 200V200C75.8172 200 40 164.183 40 120V120Z" fill="white"/>
</clipPath>
</defs>
</svg>
