<svg version="1.1" id="Layer_1" xmlns="http://www.w3.org/2000/svg" xmlns:xlink="http://www.w3.org/1999/xlink" x="0px" y="0px"
	 width="100%" viewBox="0 0 3179 3179" enable-background="new 0 0 3179 3179" xml:space="preserve">
<path fill="#666666" opacity="1.000000" stroke="none" 
	d="
M1.999970,2994.000000 
	C2.000000,2059.938232 2.000000,1125.876343 2.654153,190.477142 
	C4.103451,186.087860 5.089391,183.070251 5.645449,179.975372 
	C6.340571,176.106506 6.211080,172.041046 7.269095,168.295334 
	C9.913555,158.933090 13.156088,149.741653 15.926043,140.412613 
	C21.318319,122.251762 30.933832,106.098213 41.854477,91.086891 
	C51.301884,78.100647 63.088570,66.754425 74.314178,55.140408 
	C86.299774,42.740112 100.882484,33.581150 116.113739,25.913174 
	C130.106445,18.868731 144.971878,13.556829 159.459000,7.496421 
	C161.954926,6.452295 165.839508,6.605489 164.000000,2.000000 
	C1115.395142,2.000000 2066.790283,2.000000 3018.861328,2.725956 
	C3023.238525,5.493937 3026.788574,7.900455 3030.669922,9.508783 
	C3041.575439,14.027863 3053.113037,17.281366 3063.482178,22.770226 
	C3077.065186,29.960140 3090.622559,37.735855 3102.610352,47.250851 
	C3114.709961,56.854553 3125.540527,68.319366 3135.677734,80.048508 
	C3143.523926,89.126877 3150.023926,99.536324 3156.036377,109.979507 
	C3160.889160,118.408363 3164.460938,127.639511 3167.977783,136.755127 
	C3171.736084,146.496460 3174.687988,156.546982 3178.240723,166.372589 
	C3178.559082,167.253067 3180.703613,167.473206 3182.000000,168.000015 
	C3182.000000,174.066757 3182.000000,180.133499 3181.602539,187.047241 
	C3181.469971,188.596161 3181.734863,189.298080 3182.000000,190.000000 
	C3182.000000,1124.061890 3182.000000,2058.123779 3181.510742,2993.322510 
	C3181.347900,2994.972900 3181.673828,2995.486572 3182.000000,2996.000000 
	C3182.000000,3000.743164 3182.000000,3005.486572 3181.226807,3011.041016 
	C3178.198730,3017.906250 3175.876221,3023.936035 3173.705322,3030.019531 
	C3170.531982,3038.913330 3168.070557,3048.116699 3164.221680,3056.701904 
	C3157.436523,3071.837891 3148.009033,3085.407471 3138.182373,3098.790039 
	C3127.885254,3112.813721 3115.481934,3124.470215 3101.951904,3135.123047 
	C3092.626465,3142.465332 3082.617432,3148.665283 3072.361084,3154.709717 
	C3061.717041,3160.982666 3050.784668,3165.953125 3039.120361,3169.528809 
	C3031.022949,3172.011719 3022.760986,3173.955078 3014.592773,3176.212646 
	C3011.510010,3177.064453 3007.934082,3177.498535 3008.000000,3182.000000 
	C2065.271484,3182.000000 1122.542969,3182.000000 179.108963,3181.253418 
	C173.126099,3173.758057 164.446899,3174.988770 157.606369,3172.823242 
	C141.926819,3167.858887 126.733032,3162.697510 112.452553,3154.180420 
	C95.488655,3144.062744 79.886734,3132.636230 65.524742,3118.989258 
	C47.508427,3101.869873 34.617077,3081.407959 23.163069,3059.837891 
	C19.819786,3053.542236 18.440699,3046.235840 15.589042,3039.640137 
	C9.688358,3025.991211 5.340661,3012.059814 5.299527,2996.999756 
	C5.296788,2995.996826 3.149668,2994.999756 1.999970,2994.000000 
M2583.401855,1915.281006 
	C2580.525146,1852.689209 2577.523438,1790.102905 2574.812012,1727.504028 
	C2572.648682,1677.560059 2571.031006,1627.592407 2568.832764,1577.650146 
	C2564.670898,1483.091797 2560.456543,1388.534912 2555.839600,1293.998047 
	C2554.556396,1267.723999 2552.009277,1241.501953 2549.587402,1215.297974 
	C2548.515625,1203.703613 2546.697510,1192.140991 2544.537109,1180.692627 
	C2540.713379,1160.430054 2536.753174,1140.177490 2532.135742,1120.084839 
	C2527.298096,1099.032471 2522.465332,1077.912964 2516.117432,1057.288452 
	C2505.756104,1023.625488 2493.809570,990.508057 2479.994385,958.028015 
	C2458.730469,908.034851 2433.435791,860.249451 2404.070801,814.611938 
	C2364.463867,753.056946 2318.427002,696.718079 2265.844482,645.763306 
	C2207.970215,589.680359 2144.220459,541.433167 2074.181396,501.471985 
	C2043.549683,483.994934 2012.400391,467.577271 1979.738770,454.269989 
	C1954.521362,443.995789 1929.174194,433.933655 1903.442505,425.059418 
	C1879.591675,416.833771 1855.329834,409.640015 1830.922119,403.237762 
	C1810.030273,397.757751 1788.707642,393.883057 1767.512207,389.612701 
	C1756.425537,387.379028 1745.259644,385.305847 1734.029541,384.066742 
	C1710.862915,381.510559 1687.605469,379.786804 1664.427979,377.319885 
	C1606.107666,371.112366 1547.935547,374.698761 1489.792358,379.739929 
	C1476.197754,380.918640 1462.586548,382.479828 1449.156616,384.849518 
	C1428.523682,388.490112 1407.966919,392.649231 1387.514893,397.203766 
	C1365.124756,402.189880 1342.573120,406.835358 1320.667236,413.515656 
	C1292.402222,422.135193 1264.378052,431.779297 1236.843018,442.504364 
	C1192.505737,459.774109 1149.785034,480.724609 1108.738647,504.765930 
	C1055.811401,535.766052 1006.037354,571.341614 959.897278,611.842834 
	C906.143250,659.027710 858.029236,711.420715 815.904236,769.241638 
	C783.135925,814.219421 754.253601,861.610596 730.090515,911.741333 
	C719.137878,934.464600 709.241455,957.732666 699.745117,981.110840 
	C692.248718,999.565552 685.501526,1018.378235 679.496765,1037.371948 
	C671.784973,1061.765381 664.470032,1086.329468 658.266113,1111.140503 
	C653.352417,1130.791748 649.738403,1150.829590 646.678284,1170.868530 
	C642.105225,1200.814575 637.283997,1230.811646 634.833679,1260.970947 
	C631.677551,1299.817627 630.596741,1338.839111 628.916809,1377.797974 
	C626.576477,1432.071289 624.597778,1486.359985 622.301086,1540.635254 
	C619.736755,1601.236450 616.947632,1661.828003 614.334900,1722.427124 
	C612.066650,1775.036011 609.977661,1827.652710 607.681946,1880.260254 
	C605.270020,1935.531006 602.593445,1990.790405 600.241516,2046.063477 
	C597.946167,2100.005859 595.952637,2153.960938 593.754456,2207.907471 
	C592.275391,2244.203857 590.739136,2280.498291 589.106689,2316.788086 
	C586.470764,2375.384766 583.722534,2433.976562 581.046326,2492.571289 
	C579.845032,2518.872314 578.588684,2545.171631 577.572144,2571.479980 
	C576.813110,2591.127686 576.355774,2610.787354 575.839722,2630.443848 
	C574.873047,2667.261230 585.268799,2700.871338 605.803406,2731.142578 
	C630.059753,2766.900391 663.562988,2790.316406 704.943420,2802.561768 
	C725.047363,2808.510742 745.770142,2810.232422 766.311157,2807.756836 
	C790.029114,2804.898193 813.478455,2799.766602 837.013367,2795.452637 
	C848.465088,2793.353516 859.835083,2790.812256 871.262268,2788.574219 
	C883.013062,2786.272705 894.812195,2784.214355 906.547729,2781.839600 
	C927.091248,2777.682373 947.587036,2773.289062 968.131653,2769.137451 
	C986.393433,2765.447021 1004.689209,2761.923584 1022.979126,2758.373779 
	C1047.466187,2753.620850 1071.895508,2748.529053 1096.471069,2744.285156 
	C1125.930054,2739.197754 1155.510864,2739.288818 1185.011353,2744.415527 
	C1195.165894,2746.180664 1205.323853,2747.953857 1215.421143,2750.013672 
	C1233.343262,2753.670166 1251.242798,2757.444580 1269.110596,2761.358154 
	C1296.080933,2767.264893 1323.015991,2773.333740 1349.965942,2779.333008 
	C1359.384033,2781.429443 1368.814575,2783.471924 1378.217773,2785.632568 
	C1395.399902,2789.581055 1412.548340,2793.676025 1429.743164,2797.567627 
	C1449.531616,2802.046143 1469.297729,2806.654541 1489.183350,2810.661865 
	C1502.520996,2813.349609 1516.019531,2816.706787 1529.498047,2816.956299 
	C1572.814941,2817.758301 1616.156128,2817.322021 1659.487305,2817.175537 
	C1665.105957,2817.156494 1670.792114,2816.406982 1676.323364,2815.350098 
	C1689.057007,2812.915527 1701.726929,2810.140381 1714.399902,2807.398193 
	C1731.306763,2803.740479 1748.199097,2800.013916 1765.084961,2796.260254 
	C1783.588135,2792.147217 1802.064087,2787.912354 1820.575562,2783.837646 
	C1838.117798,2779.976562 1855.715942,2776.367432 1873.242676,2772.438477 
	C1890.765625,2768.510254 1908.200195,2764.187744 1925.728882,2760.286377 
	C1943.588623,2756.311523 1961.551636,2752.799561 1979.403442,2748.790527 
	C1998.624023,2744.474365 2017.996582,2741.791992 2037.705566,2740.890869 
	C2080.518066,2738.933350 2121.709229,2748.997559 2163.165039,2757.143066 
	C2181.775391,2760.799561 2200.262939,2765.076904 2218.858398,2768.813477 
	C2238.750000,2772.810303 2258.726562,2776.385986 2278.623535,2780.357422 
	C2300.484619,2784.721191 2322.297363,2789.329102 2344.132080,2793.825439 
	C2354.556396,2795.972168 2365.042969,2797.853760 2375.396240,2800.299805 
	C2397.513184,2805.526123 2419.734863,2808.964355 2442.616211,2808.548340 
	C2471.267578,2808.027344 2498.284424,2800.988037 2522.608154,2786.624512 
	C2580.590820,2752.384521 2611.687012,2701.484131 2613.131592,2633.469727 
	C2613.280029,2626.476074 2613.168213,2619.466553 2612.893311,2612.475586 
	C2611.217041,2569.849609 2609.458984,2527.226318 2607.728271,2484.602295 
	C2607.403564,2476.609863 2607.113281,2468.615723 2606.748535,2460.625000 
	C2604.072754,2402.029785 2601.255615,2343.440430 2598.734131,2284.838623 
	C2596.599365,2235.227295 2594.898438,2185.597168 2592.830811,2135.982910 
	C2589.791992,2063.058838 2586.597656,1990.141113 2583.401855,1915.281006 
z"/>
<path fill="#010101" opacity="1.000000" stroke="none" 
	d="
M1.999970,2994.937256 
	C3.149668,2994.999756 5.296788,2995.996826 5.299527,2996.999756 
	C5.340661,3012.059814 9.688358,3025.991211 15.589042,3039.640137 
	C18.440699,3046.235840 19.819786,3053.542236 23.163069,3059.837891 
	C34.617077,3081.407959 47.508427,3101.869873 65.524742,3118.989258 
	C79.886734,3132.636230 95.488655,3144.062744 112.452553,3154.180420 
	C126.733032,3162.697510 141.926819,3167.858887 157.606369,3172.823242 
	C164.446899,3174.988770 173.126099,3173.758057 178.201691,3181.253418 
	C119.474663,3182.000000 60.949326,3182.000000 2.000000,3182.000000 
	C2.000000,3119.958740 2.000000,3057.916748 1.999970,2994.937256 
z"/>
<path fill="#010101" opacity="1.000000" stroke="none" 
	d="
M163.062683,2.000000 
	C165.839508,6.605489 161.954926,6.452295 159.459000,7.496421 
	C144.971878,13.556829 130.106445,18.868731 116.113739,25.913174 
	C100.882484,33.581150 86.299774,42.740112 74.314178,55.140408 
	C63.088570,66.754425 51.301884,78.100647 41.854477,91.086891 
	C30.933832,106.098213 21.318319,122.251762 15.926043,140.412613 
	C13.156088,149.741653 9.913555,158.933090 7.269095,168.295334 
	C6.211080,172.041046 6.340571,176.106506 5.645449,179.975372 
	C5.089391,183.070251 4.103451,186.087860 2.654153,189.569885 
	C2.000000,127.490372 2.000000,64.980743 2.000000,2.000000 
	C55.374199,2.000000 108.749779,2.000000 163.062683,2.000000 
z"/>
<path fill="#010000" opacity="1.000000" stroke="none" 
	d="
M3008.937256,3182.000000 
	C3007.934082,3177.498535 3011.510010,3177.064453 3014.592773,3176.212646 
	C3022.760986,3173.955078 3031.022949,3172.011719 3039.120361,3169.528809 
	C3050.784668,3165.953125 3061.717041,3160.982666 3072.361084,3154.709717 
	C3082.617432,3148.665283 3092.626465,3142.465332 3101.951904,3135.123047 
	C3115.481934,3124.470215 3127.885254,3112.813721 3138.182373,3098.790039 
	C3148.009033,3085.407471 3157.436523,3071.837891 3164.221680,3056.701904 
	C3168.070557,3048.116699 3170.531982,3038.913330 3173.705322,3030.019531 
	C3175.876221,3023.936035 3178.198730,3017.906250 3181.226807,3011.926270 
	C3182.000000,3068.522217 3182.000000,3125.044434 3182.000000,3182.000000 
	C3124.625488,3182.000000 3067.250000,3182.000000 3008.937256,3182.000000 
z"/>
<path fill="#000101" opacity="1.000000" stroke="none" 
	d="
M3182.000000,167.062698 
	C3180.703613,167.473206 3178.559082,167.253067 3178.240723,166.372589 
	C3174.687988,156.546982 3171.736084,146.496460 3167.977783,136.755127 
	C3164.460938,127.639511 3160.889160,118.408363 3156.036377,109.979507 
	C3150.023926,99.536324 3143.523926,89.126877 3135.677734,80.048508 
	C3125.540527,68.319366 3114.709961,56.854553 3102.610352,47.250851 
	C3090.622559,37.735855 3077.065186,29.960140 3063.482178,22.770226 
	C3053.113037,17.281366 3041.575439,14.027863 3030.669922,9.508783 
	C3026.788574,7.900455 3023.238525,5.493937 3019.768555,2.725956 
	C3073.855469,2.000000 3127.711182,2.000000 3182.000000,2.000000 
	C3182.000000,56.707691 3182.000000,111.416527 3182.000000,167.062698 
z"/>
<path fill="#000101" opacity="1.000000" stroke="none" 
	d="
M3182.000000,189.500000 
	C3181.734863,189.298080 3181.469971,188.596161 3181.602539,187.947113 
	C3182.000000,188.000000 3182.000000,189.000000 3182.000000,189.500000 
z"/>
<path fill="#010000" opacity="1.000000" stroke="none" 
	d="
M3182.000000,2995.500000 
	C3181.673828,2995.486572 3181.347900,2994.972900 3181.510742,2994.229736 
	C3182.000000,2994.000000 3182.000000,2995.000000 3182.000000,2995.500000 
z"/>
<path fill="#FEFEFE" opacity="1.000000" stroke="none" 
	d="
M2583.435547,1916.250854 
	C2586.597656,1990.141113 2589.791992,2063.058838 2592.830811,2135.982910 
	C2594.898438,2185.597168 2596.599365,2235.227295 2598.734131,2284.838623 
	C2601.255615,2343.440430 2604.072754,2402.029785 2606.748535,2460.625000 
	C2607.113281,2468.615723 2607.403564,2476.609863 2607.728271,2484.602295 
	C2609.458984,2527.226318 2611.217041,2569.849609 2612.893311,2612.475586 
	C2613.168213,2619.466553 2613.280029,2626.476074 2613.131592,2633.469727 
	C2611.687012,2701.484131 2580.590820,2752.384521 2522.608154,2786.624512 
	C2498.284424,2800.988037 2471.267578,2808.027344 2442.616211,2808.548340 
	C2419.734863,2808.964355 2397.513184,2805.526123 2375.396240,2800.299805 
	C2365.042969,2797.853760 2354.556396,2795.972168 2344.132080,2793.825439 
	C2322.297363,2789.329102 2300.484619,2784.721191 2278.623535,2780.357422 
	C2258.726562,2776.385986 2238.750000,2772.810303 2218.858398,2768.813477 
	C2200.262939,2765.076904 2181.775391,2760.799561 2163.165039,2757.143066 
	C2121.709229,2748.997559 2080.518066,2738.933350 2037.705566,2740.890869 
	C2017.996582,2741.791992 1998.624023,2744.474365 1979.403442,2748.790527 
	C1961.551636,2752.799561 1943.588623,2756.311523 1925.728882,2760.286377 
	C1908.200195,2764.187744 1890.765625,2768.510254 1873.242676,2772.438477 
	C1855.715942,2776.367432 1838.117798,2779.976562 1820.575562,2783.837646 
	C1802.064087,2787.912354 1783.588135,2792.147217 1765.084961,2796.260254 
	C1748.199097,2800.013916 1731.306763,2803.740479 1714.399902,2807.398193 
	C1701.726929,2810.140381 1689.057007,2812.915527 1676.323364,2815.350098 
	C1670.792114,2816.406982 1665.105957,2817.156494 1659.487305,2817.175537 
	C1616.156128,2817.322021 1572.814941,2817.758301 1529.498047,2816.956299 
	C1516.019531,2816.706787 1502.520996,2813.349609 1489.183350,2810.661865 
	C1469.297729,2806.654541 1449.531616,2802.046143 1429.743164,2797.567627 
	C1412.548340,2793.676025 1395.399902,2789.581055 1378.217773,2785.632568 
	C1368.814575,2783.471924 1359.384033,2781.429443 1349.965942,2779.333008 
	C1323.015991,2773.333740 1296.080933,2767.264893 1269.110596,2761.358154 
	C1251.242798,2757.444580 1233.343262,2753.670166 1215.421143,2750.013672 
	C1205.323853,2747.953857 1195.165894,2746.180664 1185.011353,2744.415527 
	C1155.510864,2739.288818 1125.930054,2739.197754 1096.471069,2744.285156 
	C1071.895508,2748.529053 1047.466187,2753.620850 1022.979126,2758.373779 
	C1004.689209,2761.923584 986.393433,2765.447021 968.131653,2769.137451 
	C947.587036,2773.289062 927.091248,2777.682373 906.547729,2781.839600 
	C894.812195,2784.214355 883.013062,2786.272705 871.262268,2788.574219 
	C859.835083,2790.812256 848.465088,2793.353516 837.013367,2795.452637 
	C813.478455,2799.766602 790.029114,2804.898193 766.311157,2807.756836 
	C745.770142,2810.232422 725.047363,2808.510742 704.943420,2802.561768 
	C663.562988,2790.316406 630.059753,2766.900391 605.803406,2731.142578 
	C585.268799,2700.871338 574.873047,2667.261230 575.839722,2630.443848 
	C576.355774,2610.787354 576.813110,2591.127686 577.572144,2571.479980 
	C578.588684,2545.171631 579.845032,2518.872314 581.046326,2492.571289 
	C583.722534,2433.976562 586.470764,2375.384766 589.106689,2316.788086 
	C590.739136,2280.498291 592.275391,2244.203857 593.754456,2207.907471 
	C595.952637,2153.960938 597.946167,2100.005859 600.241516,2046.063477 
	C602.593445,1990.790405 605.270020,1935.531006 607.681946,1880.260254 
	C609.977661,1827.652710 612.066650,1775.036011 614.334900,1722.427124 
	C616.947632,1661.828003 619.736755,1601.236450 622.301086,1540.635254 
	C624.597778,1486.359985 626.576477,1432.071289 628.916809,1377.797974 
	C630.596741,1338.839111 631.677551,1299.817627 634.833679,1260.970947 
	C637.283997,1230.811646 642.105225,1200.814575 646.678284,1170.868530 
	C649.738403,1150.829590 653.352417,1130.791748 658.266113,1111.140503 
	C664.470032,1086.329468 671.784973,1061.765381 679.496765,1037.371948 
	C685.501526,1018.378235 692.248718,999.565552 699.745117,981.110840 
	C709.241455,957.732666 719.137878,934.464600 730.090515,911.741333 
	C754.253601,861.610596 783.135925,814.219421 815.904236,769.241638 
	C858.029236,711.420715 906.143250,659.027710 959.897278,611.842834 
	C1006.037354,571.341614 1055.811401,535.766052 1108.738647,504.765930 
	C1149.785034,480.724609 1192.505737,459.774109 1236.843018,442.504364 
	C1264.378052,431.779297 1292.402222,422.135193 1320.667236,413.515656 
	C1342.573120,406.835358 1365.124756,402.189880 1387.514893,397.203766 
	C1407.966919,392.649231 1428.523682,388.490112 1449.156616,384.849518 
	C1462.586548,382.479828 1476.197754,380.918640 1489.792358,379.739929 
	C1547.935547,374.698761 1606.107666,371.112366 1664.427979,377.319885 
	C1687.605469,379.786804 1710.862915,381.510559 1734.029541,384.066742 
	C1745.259644,385.305847 1756.425537,387.379028 1767.512207,389.612701 
	C1788.707642,393.883057 1810.030273,397.757751 1830.922119,403.237762 
	C1855.329834,409.640015 1879.591675,416.833771 1903.442505,425.059418 
	C1929.174194,433.933655 1954.521362,443.995789 1979.738770,454.269989 
	C2012.400391,467.577271 2043.549683,483.994934 2074.181396,501.471985 
	C2144.220459,541.433167 2207.970215,589.680359 2265.844482,645.763306 
	C2318.427002,696.718079 2364.463867,753.056946 2404.070801,814.611938 
	C2433.435791,860.249451 2458.730469,908.034851 2479.994385,958.028015 
	C2493.809570,990.508057 2505.756104,1023.625488 2516.117432,1057.288452 
	C2522.465332,1077.912964 2527.298096,1099.032471 2532.135742,1120.084839 
	C2536.753174,1140.177490 2540.713379,1160.430054 2544.537109,1180.692627 
	C2546.697510,1192.140991 2548.515625,1203.703613 2549.587402,1215.297974 
	C2552.009277,1241.501953 2554.556396,1267.723999 2555.839600,1293.998047 
	C2560.456543,1388.534912 2564.670898,1483.091797 2568.832764,1577.650146 
	C2571.031006,1627.592407 2572.648682,1677.560059 2574.812012,1727.504028 
	C2577.523438,1790.102905 2580.525146,1852.689209 2583.435547,1916.250854 
M2401.670166,1547.576538 
	C2398.031250,1533.386108 2395.078613,1518.976807 2390.635742,1505.042603 
	C2369.860840,1439.887939 2333.291260,1385.014893 2280.744385,1341.307373 
	C2222.765137,1293.081665 2155.880615,1265.502930 2080.694580,1258.616333 
	C2032.813599,1254.230835 1985.411987,1257.412842 1938.992432,1270.298462 
	C1880.462646,1286.545776 1828.738525,1315.361938 1784.736938,1357.316772 
	C1741.233643,1398.796509 1709.842163,1448.174683 1691.892700,1505.678955 
	C1670.768555,1573.354370 1668.294067,1642.044434 1684.156128,1710.991699 
	C1705.612305,1804.255737 1756.697388,1877.875854 1836.782104,1930.012817 
	C1921.752075,1985.330078 2015.496216,2001.309937 2114.482910,1982.994263 
	C2200.373535,1967.101807 2272.198486,1925.301147 2327.684326,1857.174805 
	C2378.446777,1794.847900 2404.115967,1722.868164 2407.873291,1642.864502 
	C2409.347656,1611.471680 2407.465332,1580.246338 2401.670166,1547.576538 
M1482.942871,1587.022217 
	C1370.372314,1587.022217 1257.801636,1587.022217 1145.469360,1587.022217 
	C1143.178467,1598.233154 1143.556763,1730.170410 1145.840332,1737.907959 
	C1154.958740,1737.907959 1164.259888,1737.907959 1173.560913,1737.907959 
	C1182.893433,1737.907959 1192.226074,1737.908203 1201.558594,1737.908203 
	C1210.557861,1737.908203 1219.557129,1737.908203 1228.556396,1737.908203 
	C1237.888916,1737.908203 1247.221558,1737.908203 1256.554077,1737.908203 
	C1265.886597,1737.908203 1275.219360,1737.873047 1284.551758,1737.917969 
	C1293.611816,1737.961548 1302.671631,1738.087158 1313.628174,1738.195435 
	C1290.512085,1767.871948 1263.222900,1786.962402 1228.417847,1793.921753 
	C1194.763428,1800.651001 1161.286377,1798.272217 1128.669678,1787.960571 
	C1092.772461,1776.611694 1068.118408,1752.818726 1054.609619,1717.560913 
	C1047.749634,1699.656616 1044.345825,1681.018188 1042.915039,1662.020508 
	C1040.465942,1629.499146 1042.154785,1597.346558 1054.124756,1566.547974 
	C1066.399292,1534.965942 1087.116455,1510.976807 1119.396973,1498.904541 
	C1150.311279,1487.343140 1181.991089,1486.800415 1213.629639,1496.092651 
	C1230.979492,1501.187988 1245.903564,1510.595703 1256.770630,1525.252808 
	C1260.630493,1530.459106 1264.634766,1532.148438 1270.915527,1532.129150 
	C1339.242676,1531.919678 1407.570679,1531.998413 1475.898438,1531.998657 
	C1479.148926,1531.998657 1482.399414,1531.998657 1485.718262,1531.998657 
	C1485.718262,1528.575317 1486.045898,1526.229492 1485.670044,1524.002319 
	C1477.697754,1476.751953 1460.139282,1433.711792 1428.897827,1396.901855 
	C1389.153198,1350.073486 1338.375122,1321.131104 1279.400757,1305.839111 
	C1236.459351,1294.704590 1192.749023,1291.674561 1148.533691,1293.574463 
	C1101.446411,1295.597778 1055.993408,1304.688477 1012.874817,1324.050293 
	C939.640930,1356.935181 887.466614,1410.609985 855.822632,1484.271851 
	C839.364197,1522.584229 830.457642,1562.691895 827.389038,1604.252441 
	C822.527710,1670.091797 830.224854,1733.978882 856.457947,1794.984375 
	C876.003235,1840.437378 904.393005,1879.415894 942.996765,1910.707397 
	C986.962646,1946.345337 1037.256226,1967.984863 1092.690308,1977.902100 
	C1142.662354,1986.842041 1192.834351,1986.866211 1242.952393,1979.120361 
	C1277.760376,1973.740601 1311.298340,1963.854004 1342.117188,1946.512939 
	C1401.698608,1912.987549 1449.230103,1866.725342 1485.590210,1808.861694 
	C1489.098999,1803.277954 1490.713013,1797.716187 1490.694946,1791.092163 
	C1490.519531,1726.764526 1490.590576,1662.436279 1490.585693,1598.108154 
	C1490.585571,1595.775513 1490.533325,1593.442627 1490.493530,1591.110107 
	C1490.428833,1587.318237 1487.749756,1587.093018 1482.942871,1587.022217 
M1484.035034,2448.875977 
	C1483.894165,2401.238770 1483.754272,2353.601562 1483.588623,2305.964355 
	C1483.587646,2305.706055 1483.237427,2305.435547 1483.023071,2305.194824 
	C1482.801880,2304.946777 1482.547485,2304.728271 1482.286377,2304.476562 
	C1461.103882,2302.611572 1375.007080,2303.468994 1367.986816,2305.618896 
	C1366.031494,2324.941895 1366.949219,2607.632324 1369.030396,2615.052734 
	C1523.737549,2615.052734 1678.483154,2615.052734 1833.492676,2615.052734 
	C1833.492676,2511.237305 1833.492676,2408.117432 1833.492676,2304.527588 
	C1794.784302,2304.527588 1756.671753,2304.527588 1717.464111,2304.527588 
	C1717.464111,2314.016357 1717.464233,2322.927979 1717.464233,2331.839600 
	C1717.464233,2341.169434 1717.464233,2350.499268 1717.464233,2359.829102 
	C1717.464233,2368.825684 1717.464233,2377.822266 1717.464233,2386.818848 
	C1717.464233,2395.815430 1717.464233,2404.812256 1717.464233,2413.808838 
	C1717.464233,2423.138672 1717.669312,2432.474121 1717.404663,2441.796387 
	C1717.154419,2450.610352 1718.660400,2459.558105 1716.324097,2468.309082 
	C1694.583374,2468.309082 1673.442749,2468.309082 1651.320190,2468.309082 
	C1651.320190,2420.068115 1651.320190,2372.548096 1651.320190,2324.561035 
	C1614.264404,2324.561035 1578.207397,2324.561035 1541.174316,2324.561035 
	C1541.174316,2372.800293 1541.174316,2420.302979 1541.174316,2468.368652 
	C1521.731689,2468.368652 1503.270020,2468.368652 1484.035034,2468.368652 
	C1484.035034,2462.077881 1484.035034,2456.454346 1484.035034,2448.875977 
M1759.000000,1097.872925 
	C1774.606201,1097.872925 1790.212402,1097.872925 1805.572144,1097.872925 
	C1806.292358,1096.107300 1806.921265,1095.218384 1806.983765,1094.291382 
	C1807.185303,1091.304199 1807.251343,1088.302856 1807.240601,1085.307373 
	C1807.033203,1027.671509 1806.808105,970.035645 1806.559448,912.399902 
	C1806.558350,912.139526 1806.181641,911.866516 1805.953003,911.625549 
	C1805.732544,911.393005 1805.476562,911.194275 1805.236206,910.980652 
	C1782.709351,908.859192 1386.035889,909.894104 1378.732666,912.122131 
	C1378.732666,973.618958 1378.732666,1035.142822 1378.732666,1096.345093 
	C1379.906250,1096.965454 1380.473755,1097.528076 1381.041626,1097.528687 
	C1506.361084,1097.669312 1631.680542,1097.770508 1759.000000,1097.872925 
M2065.000000,1097.872803 
	C2137.267578,1097.872803 2209.535156,1097.872803 2281.274170,1097.872803 
	C2282.142822,1096.407471 2282.656494,1095.876587 2282.777832,1095.267456 
	C2283.036377,1093.970093 2283.211426,1092.632202 2283.211670,1091.310913 
	C2283.227295,1032.979614 2283.224365,974.648315 2283.189941,916.317017 
	C2283.189209,915.011536 2282.825684,913.700439 2282.565186,912.405273 
	C2282.507080,912.115295 2282.184326,911.867554 2281.956055,911.626038 
	C2281.736084,911.393005 2281.480957,911.193115 2281.241211,910.978760 
	C2258.931152,908.865845 1862.041260,909.898865 1854.723633,912.119080 
	C1854.723633,973.614685 1854.723633,1035.138916 1854.723633,1097.872803 
	C1924.550415,1097.872803 1993.775146,1097.872803 2065.000000,1097.872803 
M899.116699,919.312378 
	C899.116699,978.491638 899.116699,1037.670898 899.116699,1097.256348 
	C1042.705078,1097.256348 1184.807983,1097.256348 1327.366943,1097.256348 
	C1327.366943,1034.903564 1327.366943,973.165039 1327.366943,910.367920 
	C1322.743042,910.367920 1318.822754,910.367859 1314.902466,910.367859 
	C1180.938354,910.367981 1046.974365,910.367920 913.010254,910.369995 
	C910.344421,910.370056 907.670227,910.536377 905.014526,910.379028 
	C899.799927,910.070190 898.928162,913.239868 899.116699,919.312378 
M1725.362061,1942.113770 
	C1724.213989,1936.550903 1719.700806,1938.429565 1716.455200,1938.425659 
	C1636.833130,1938.328491 1557.210938,1938.343262 1477.588745,1938.382812 
	C1475.042969,1938.384155 1472.497314,1938.859009 1469.832886,1939.125000 
	C1469.832886,1964.306885 1469.832886,1988.751831 1469.832886,2014.152100 
	C1496.386719,2014.152100 1522.209229,2014.152100 1549.241455,2014.152100 
	C1549.241455,2090.521729 1549.241455,2165.937256 1549.241455,2241.518555 
	C1581.568237,2241.518555 1612.659912,2241.518555 1644.396118,2241.518555 
	C1644.396118,2230.177979 1644.396118,2219.558350 1644.396118,2208.938477 
	C1644.396118,2197.944580 1644.396118,2186.950928 1644.396118,2175.957031 
	C1644.396118,2165.296387 1644.396118,2154.635498 1644.396118,2143.974854 
	C1644.396118,2132.980957 1644.396118,2121.987305 1644.396118,2110.993408 
	C1644.396118,2100.332764 1644.396118,2089.671875 1644.396118,2079.011230 
	C1644.396118,2068.017334 1644.334351,2057.022949 1644.413940,2046.029785 
	C1644.490112,2035.518677 1644.033325,2024.973145 1644.820312,2013.626953 
	C1672.205322,2013.626953 1698.379761,2013.626953 1725.461670,2013.626953 
	C1725.461670,1989.790039 1725.461670,1966.872681 1725.362061,1942.113770 
z"/>
<path fill="#666666" opacity="1.000000" stroke="none" 
	d="
M2401.791016,1548.427246 
	C2407.465332,1580.246338 2409.347656,1611.471680 2407.873291,1642.864502 
	C2404.115967,1722.868164 2378.446777,1794.847900 2327.684326,1857.174805 
	C2272.198486,1925.301147 2200.373535,1967.101807 2114.482910,1982.994263 
	C2015.496216,2001.309937 1921.752075,1985.330078 1836.782104,1930.012817 
	C1756.697388,1877.875854 1705.612305,1804.255737 1684.156128,1710.991699 
	C1668.294067,1642.044434 1670.768555,1573.354370 1691.892700,1505.678955 
	C1709.842163,1448.174683 1741.233643,1398.796509 1784.736938,1357.316772 
	C1828.738525,1315.361938 1880.462646,1286.545776 1938.992432,1270.298462 
	C1985.411987,1257.412842 2032.813599,1254.230835 2080.694580,1258.616333 
	C2155.880615,1265.502930 2222.765137,1293.081665 2280.744385,1341.307373 
	C2333.291260,1385.014893 2369.860840,1439.887939 2390.635742,1505.042603 
	C2395.078613,1518.976807 2398.031250,1533.386108 2401.791016,1548.427246 
M2181.513428,1622.933594 
	C2181.292969,1617.605591 2181.148926,1612.273071 2180.839355,1606.950195 
	C2179.355469,1581.428223 2174.492432,1556.694824 2162.748291,1533.745483 
	C2144.904297,1498.876709 2117.804443,1475.699829 2078.768555,1467.500854 
	C2057.631348,1463.061157 2036.489746,1462.761475 2015.183960,1465.702148 
	C1971.501709,1471.731323 1940.266235,1495.001709 1920.561157,1534.098022 
	C1909.592529,1555.860352 1904.707153,1579.275635 1902.990723,1603.387085 
	C1900.646606,1636.312988 1903.206055,1668.717651 1915.663330,1699.655518 
	C1930.537720,1736.596313 1955.790405,1762.968872 1994.722534,1774.519409 
	C2015.042969,1780.547974 2035.856689,1781.955811 2057.019287,1780.329590 
	C2111.369629,1776.153076 2148.139893,1748.359375 2168.508057,1698.222900 
	C2178.066895,1674.693359 2180.748291,1649.911499 2181.513428,1622.933594 
z"/>
<path fill="#676666" opacity="1.000000" stroke="none" 
	d="
M1483.941162,1587.037598 
	C1487.749756,1587.093018 1490.428833,1587.318237 1490.493530,1591.110107 
	C1490.533325,1593.442627 1490.585571,1595.775513 1490.585693,1598.108154 
	C1490.590576,1662.436279 1490.519531,1726.764526 1490.694946,1791.092163 
	C1490.713013,1797.716187 1489.098999,1803.277954 1485.590210,1808.861694 
	C1449.230103,1866.725342 1401.698608,1912.987549 1342.117188,1946.512939 
	C1311.298340,1963.854004 1277.760376,1973.740601 1242.952393,1979.120361 
	C1192.834351,1986.866211 1142.662354,1986.842041 1092.690308,1977.902100 
	C1037.256226,1967.984863 986.962646,1946.345337 942.996765,1910.707397 
	C904.393005,1879.415894 876.003235,1840.437378 856.457947,1794.984375 
	C830.224854,1733.978882 822.527710,1670.091797 827.389038,1604.252441 
	C830.457642,1562.691895 839.364197,1522.584229 855.822632,1484.271851 
	C887.466614,1410.609985 939.640930,1356.935181 1012.874817,1324.050293 
	C1055.993408,1304.688477 1101.446411,1295.597778 1148.533691,1293.574463 
	C1192.749023,1291.674561 1236.459351,1294.704590 1279.400757,1305.839111 
	C1338.375122,1321.131104 1389.153198,1350.073486 1428.897827,1396.901855 
	C1460.139282,1433.711792 1477.697754,1476.751953 1485.670044,1524.002319 
	C1486.045898,1526.229492 1485.718262,1528.575317 1485.718262,1531.998657 
	C1482.399414,1531.998657 1479.148926,1531.998657 1475.898438,1531.998657 
	C1407.570679,1531.998413 1339.242676,1531.919678 1270.915527,1532.129150 
	C1264.634766,1532.148438 1260.630493,1530.459106 1256.770630,1525.252808 
	C1245.903564,1510.595703 1230.979492,1501.187988 1213.629639,1496.092651 
	C1181.991089,1486.800415 1150.311279,1487.343140 1119.396973,1498.904541 
	C1087.116455,1510.976807 1066.399292,1534.965942 1054.124756,1566.547974 
	C1042.154785,1597.346558 1040.465942,1629.499146 1042.915039,1662.020508 
	C1044.345825,1681.018188 1047.749634,1699.656616 1054.609619,1717.560913 
	C1068.118408,1752.818726 1092.772461,1776.611694 1128.669678,1787.960571 
	C1161.286377,1798.272217 1194.763428,1800.651001 1228.417847,1793.921753 
	C1263.222900,1786.962402 1290.512085,1767.871948 1313.628174,1738.195435 
	C1302.671631,1738.087158 1293.611816,1737.961548 1284.551758,1737.917969 
	C1275.219360,1737.873047 1265.886597,1737.908203 1256.554077,1737.908203 
	C1247.221558,1737.908203 1237.888916,1737.908203 1228.556396,1737.908203 
	C1219.557129,1737.908203 1210.557861,1737.908203 1201.558594,1737.908203 
	C1192.226074,1737.908203 1182.893433,1737.907959 1173.560913,1737.907959 
	C1164.259888,1737.907959 1154.958740,1737.907959 1145.840332,1737.907959 
	C1143.556763,1730.170410 1143.178467,1598.233154 1145.469360,1587.022217 
	C1257.801636,1587.022217 1370.372314,1587.022217 1483.941162,1587.037598 
z"/>
<path fill="#676767" opacity="1.000000" stroke="none" 
	d="
M1484.035034,2449.853516 
	C1484.035034,2456.454346 1484.035034,2462.077881 1484.035034,2468.368652 
	C1503.270020,2468.368652 1521.731689,2468.368652 1541.174316,2468.368652 
	C1541.174316,2420.302979 1541.174316,2372.800293 1541.174316,2324.561035 
	C1578.207397,2324.561035 1614.264404,2324.561035 1651.320190,2324.561035 
	C1651.320190,2372.548096 1651.320190,2420.068115 1651.320190,2468.309082 
	C1673.442749,2468.309082 1694.583374,2468.309082 1716.324097,2468.309082 
	C1718.660400,2459.558105 1717.154419,2450.610352 1717.404663,2441.796387 
	C1717.669312,2432.474121 1717.464233,2423.138672 1717.464233,2413.808838 
	C1717.464233,2404.812256 1717.464233,2395.815430 1717.464233,2386.818848 
	C1717.464233,2377.822266 1717.464233,2368.825684 1717.464233,2359.829102 
	C1717.464233,2350.499268 1717.464233,2341.169434 1717.464233,2331.839600 
	C1717.464233,2322.927979 1717.464111,2314.016357 1717.464111,2304.527588 
	C1756.671753,2304.527588 1794.784302,2304.527588 1833.492676,2304.527588 
	C1833.492676,2408.117432 1833.492676,2511.237305 1833.492676,2615.052734 
	C1678.483154,2615.052734 1523.737549,2615.052734 1369.030396,2615.052734 
	C1366.949219,2607.632324 1366.031494,2324.941895 1367.986816,2305.618896 
	C1375.007080,2303.468994 1461.103882,2302.611572 1482.286377,2304.476562 
	C1482.547485,2304.728271 1482.801880,2304.946777 1483.023071,2305.194824 
	C1483.237427,2305.435547 1483.587646,2305.706055 1483.588623,2305.964355 
	C1483.754272,2353.601562 1483.894165,2401.238770 1484.035034,2449.853516 
z"/>
<path fill="#676767" opacity="1.000000" stroke="none" 
	d="
M1758.000000,1097.872925 
	C1631.680542,1097.770508 1506.361084,1097.669312 1381.041626,1097.528687 
	C1380.473755,1097.528076 1379.906250,1096.965454 1378.732666,1096.345093 
	C1378.732666,1035.142822 1378.732666,973.618958 1378.732666,912.122131 
	C1386.035889,909.894104 1782.709351,908.859192 1805.236206,910.980713 
	C1805.476562,911.194275 1805.732544,911.393005 1805.953003,911.625549 
	C1806.181641,911.866516 1806.558350,912.139526 1806.559448,912.399902 
	C1806.808105,970.035645 1807.033203,1027.671509 1807.240601,1085.307373 
	C1807.251343,1088.302856 1807.185303,1091.304199 1806.983765,1094.291382 
	C1806.921265,1095.218384 1806.292358,1096.107300 1805.572144,1097.872925 
	C1790.212402,1097.872925 1774.606201,1097.872925 1758.000000,1097.872925 
z"/>
<path fill="#676767" opacity="1.000000" stroke="none" 
	d="
M2064.000000,1097.872803 
	C1993.775146,1097.872803 1924.550415,1097.872803 1854.723633,1097.872803 
	C1854.723633,1035.138916 1854.723633,973.614685 1854.723633,912.119080 
	C1862.041260,909.898865 2258.931152,908.865845 2281.241211,910.978760 
	C2281.480957,911.193115 2281.736084,911.393005 2281.956055,911.626038 
	C2282.184326,911.867554 2282.507080,912.115295 2282.565186,912.405273 
	C2282.825684,913.700439 2283.189209,915.011536 2283.189941,916.317017 
	C2283.224365,974.648315 2283.227295,1032.979614 2283.211670,1091.310913 
	C2283.211426,1092.632202 2283.036377,1093.970093 2282.777832,1095.267456 
	C2282.656494,1095.876587 2282.142822,1096.407471 2281.274170,1097.872803 
	C2209.535156,1097.872803 2137.267578,1097.872803 2064.000000,1097.872803 
z"/>
<path fill="#676767" opacity="1.000000" stroke="none" 
	d="
M899.122925,918.350708 
	C898.928162,913.239868 899.799927,910.070190 905.014526,910.379028 
	C907.670227,910.536377 910.344421,910.370056 913.010254,910.369995 
	C1046.974365,910.367920 1180.938354,910.367981 1314.902466,910.367859 
	C1318.822754,910.367859 1322.743042,910.367920 1327.366943,910.367920 
	C1327.366943,973.165039 1327.366943,1034.903564 1327.366943,1097.256348 
	C1184.807983,1097.256348 1042.705078,1097.256348 899.116699,1097.256348 
	C899.116699,1037.670898 899.116699,978.491638 899.122925,918.350708 
z"/>
<path fill="#676767" opacity="1.000000" stroke="none" 
	d="
M1725.411865,1943.034546 
	C1725.461670,1966.872681 1725.461670,1989.790039 1725.461670,2013.626953 
	C1698.379761,2013.626953 1672.205322,2013.626953 1644.820312,2013.626953 
	C1644.033325,2024.973145 1644.490112,2035.518677 1644.413940,2046.029785 
	C1644.334351,2057.022949 1644.396118,2068.017334 1644.396118,2079.011230 
	C1644.396118,2089.671875 1644.396118,2100.332764 1644.396118,2110.993408 
	C1644.396118,2121.987305 1644.396118,2132.980957 1644.396118,2143.974854 
	C1644.396118,2154.635498 1644.396118,2165.296387 1644.396118,2175.957031 
	C1644.396118,2186.950928 1644.396118,2197.944580 1644.396118,2208.938477 
	C1644.396118,2219.558350 1644.396118,2230.177979 1644.396118,2241.518555 
	C1612.659912,2241.518555 1581.568237,2241.518555 1549.241455,2241.518555 
	C1549.241455,2165.937256 1549.241455,2090.521729 1549.241455,2014.152100 
	C1522.209229,2014.152100 1496.386719,2014.152100 1469.832886,2014.152100 
	C1469.832886,1988.751831 1469.832886,1964.306885 1469.832886,1939.125000 
	C1472.497314,1938.859009 1475.042969,1938.384155 1477.588745,1938.382812 
	C1557.210938,1938.343262 1636.833130,1938.328491 1716.455200,1938.425659 
	C1719.700806,1938.429565 1724.213989,1936.550903 1725.411865,1943.034546 
z"/>
<path fill="#FEFEFE" opacity="1.000000" stroke="none" 
	d="
M2181.507324,1623.869385 
	C2180.748291,1649.911499 2178.066895,1674.693359 2168.508057,1698.222900 
	C2148.139893,1748.359375 2111.369629,1776.153076 2057.019287,1780.329590 
	C2035.856689,1781.955811 2015.042969,1780.547974 1994.722534,1774.519409 
	C1955.790405,1762.968872 1930.537720,1736.596313 1915.663330,1699.655518 
	C1903.206055,1668.717651 1900.646606,1636.312988 1902.990723,1603.387085 
	C1904.707153,1579.275635 1909.592529,1555.860352 1920.561157,1534.098022 
	C1940.266235,1495.001709 1971.501709,1471.731323 2015.183960,1465.702148 
	C2036.489746,1462.761475 2057.631348,1463.061157 2078.768555,1467.500854 
	C2117.804443,1475.699829 2144.904297,1498.876709 2162.748291,1533.745483 
	C2174.492432,1556.694824 2179.355469,1581.428223 2180.839355,1606.950195 
	C2181.148926,1612.273071 2181.292969,1617.605591 2181.507324,1623.869385 
z"/>
</svg>