<svg width="288" height="288" viewBox="0 0 288 288" fill="none" xmlns="http://www.w3.org/2000/svg">
<path opacity="0.4" d="M211.827 157.724C204.256 153.341 201.636 143.889 205.913 136.391C207.317 133.97 209.358 131.957 211.827 130.56C215.578 128.461 218.318 124.995 219.442 120.925C220.565 116.856 219.979 112.519 217.814 108.871L212.484 99.5554C210.329 95.9013 206.77 93.2327 202.592 92.1387C198.414 91.0446 193.961 91.6152 190.216 93.7243C186.459 95.8368 181.995 96.4092 177.805 95.3157C173.615 94.2221 170.043 91.5522 167.874 87.8932C166.455 85.4654 165.701 82.7227 165.684 79.9288C165.704 75.7108 163.997 71.659 160.941 68.6697C157.886 65.6804 153.734 64 149.403 64H138.67C129.666 64 122.356 71.0883 122.316 79.8577C122.346 85.5453 119.247 90.8132 114.194 93.6635C109.141 96.5138 102.907 96.5099 97.8574 93.6532C94.0774 91.4582 89.5462 90.8471 85.2961 91.959C81.046 93.0709 77.4391 95.8112 75.2971 99.5554L70.1864 108.515C65.7194 116.118 68.394 125.808 76.1732 130.204C83.9697 134.627 86.6159 144.364 82.0871 151.964C80.7019 154.381 78.6545 156.375 76.1732 157.724C72.4215 159.823 69.6816 163.289 68.5584 167.358C67.4351 171.428 68.0209 175.765 70.1864 179.413L75.2971 188.515C79.838 196.109 89.8349 198.686 97.6383 194.275C105.45 189.966 115.367 192.562 119.907 200.106C121.351 202.524 122.108 205.273 122.097 208.071C122.097 212.32 123.84 216.393 126.938 219.385C130.037 222.376 134.235 224.037 138.597 224H149.33C158.362 224 165.684 216.868 165.684 208.071C165.626 203.828 167.315 199.739 170.375 196.719C173.434 193.699 177.609 191.999 181.965 191.999C184.838 191.982 187.663 192.719 190.143 194.133C197.949 198.484 207.897 195.879 212.411 188.302L217.814 179.2C222.176 171.65 219.51 162.088 211.827 157.724Z" fill="#14AE5C"/>
<path d="M144 164C155.046 164 164 155.046 164 144C164 132.954 155.046 124 144 124C132.954 124 124 132.954 124 144C124 155.046 132.954 164 144 164Z" fill="#14AE5C"/>
</svg>
